<svg width="17" height="18" viewBox="0 0 17 18" fill="none" xmlns="http://www.w3.org/2000/svg">
<path d="M12.5875 17.0625C11.74 17.0625 10.8475 16.86 9.925 16.47C9.025 16.0875 8.1175 15.5625 7.2325 14.925C6.355 14.28 5.5075 13.56 4.705 12.7725C3.91 11.97 3.19 11.1225 2.5525 10.2525C1.9075 9.3525 1.39 8.4525 1.0225 7.5825C0.6325 6.6525 0.4375 5.7525 0.4375 4.905C0.4375 4.32 0.5425 3.765 0.745 3.2475C0.955 2.715 1.2925 2.22 1.75 1.7925C2.3275 1.2225 2.9875 0.9375 3.6925 0.9375C3.985 0.9375 4.285 1.005 4.54 1.125C4.8325 1.26 5.08 1.4625 5.26 1.7325L7 4.185C7.1575 4.4025 7.2775 4.6125 7.36 4.8225C7.4575 5.0475 7.51 5.2725 7.51 5.49C7.51 5.775 7.4275 6.0525 7.27 6.315C7.1575 6.5175 6.985 6.735 6.7675 6.9525L6.2575 7.485C6.265 7.5075 6.2725 7.5225 6.28 7.5375C6.37 7.695 6.55 7.965 6.895 8.37C7.2625 8.79 7.6075 9.1725 7.9525 9.525C8.395 9.96 8.7625 10.305 9.1075 10.59C9.535 10.95 9.8125 11.13 9.9775 11.2125L9.9625 11.25L10.51 10.71C10.7425 10.4775 10.9675 10.305 11.185 10.1925C11.5975 9.9375 12.1225 9.8925 12.6475 10.11C12.8425 10.1925 13.0525 10.305 13.2775 10.4625L15.7675 12.2325C16.045 12.42 16.2475 12.66 16.3675 12.945C16.48 13.23 16.5325 13.4925 16.5325 13.755C16.5325 14.115 16.45 14.475 16.2925 14.8125C16.135 15.15 15.94 15.4425 15.6925 15.7125C15.265 16.185 14.8 16.5225 14.26 16.74C13.7425 16.95 13.18 17.0625 12.5875 17.0625ZM3.6925 2.0625C3.28 2.0625 2.8975 2.2425 2.53 2.6025C2.185 2.925 1.945 3.2775 1.795 3.66C1.6375 4.05 1.5625 4.4625 1.5625 4.905C1.5625 5.6025 1.7275 6.36 2.0575 7.14C2.395 7.935 2.8675 8.76 3.4675 9.585C4.0675 10.41 4.75 11.2125 5.5 11.97C6.25 12.7125 7.06 13.4025 7.8925 14.01C8.7025 14.6025 9.535 15.0825 10.36 15.4275C11.6425 15.975 12.8425 16.1025 13.8325 15.69C14.215 15.5325 14.5525 15.2925 14.86 14.9475C15.0325 14.76 15.1675 14.5575 15.28 14.3175C15.37 14.13 15.415 13.935 15.415 13.74C15.415 13.62 15.3925 13.5 15.3325 13.365C15.31 13.32 15.265 13.2375 15.1225 13.14L12.6325 11.37C12.4825 11.265 12.3475 11.19 12.22 11.1375C12.055 11.07 11.9875 11.0025 11.7325 11.16C11.5825 11.235 11.4475 11.3475 11.2975 11.4975L10.7275 12.06C10.435 12.345 9.985 12.4125 9.64 12.285L9.4375 12.195C9.13 12.03 8.77 11.775 8.3725 11.4375C8.0125 11.13 7.6225 10.77 7.15 10.305C6.7825 9.93 6.415 9.5325 6.0325 9.09C5.68 8.6775 5.425 8.325 5.2675 8.0325L5.1775 7.8075C5.1325 7.635 5.1175 7.5375 5.1175 7.4325C5.1175 7.1625 5.215 6.9225 5.4025 6.735L5.965 6.15C6.115 6 6.2275 5.8575 6.3025 5.73C6.3625 5.6325 6.385 5.55 6.385 5.475C6.385 5.415 6.3625 5.325 6.325 5.235C6.2725 5.115 6.19 4.98 6.085 4.8375L4.345 2.3775C4.27 2.2725 4.18 2.1975 4.0675 2.145C3.9475 2.0925 3.82 2.0625 3.6925 2.0625ZM9.9625 11.2575L9.8425 11.7675L10.045 11.2425C10.0075 11.235 9.9775 11.2425 9.9625 11.2575Z" fill="#3A3D3E"/>
</svg>
