<svg width="18" height="18" viewBox="0 0 18 18" fill="none" xmlns="http://www.w3.org/2000/svg">
<path fill-rule="evenodd" clip-rule="evenodd" d="M10.5 1.6875C10.8107 1.6875 11.0625 1.93934 11.0625 2.25V5.25C11.0625 5.29973 11.0823 5.34742 11.1174 5.38258C11.1526 5.41775 11.2003 5.4375 11.25 5.4375H14.25C14.5607 5.4375 14.8125 5.68934 14.8125 6C14.8125 6.31066 14.5607 6.5625 14.25 6.5625H11.25C10.9019 6.5625 10.5681 6.42422 10.3219 6.17808C10.0758 5.93194 9.9375 5.5981 9.9375 5.25V2.25C9.9375 1.93934 10.1893 1.6875 10.5 1.6875Z" fill="#3A3D3E" fill-opacity="0.6"/>
<path fill-rule="evenodd" clip-rule="evenodd" d="M5.25 2.8125C5.00136 2.8125 4.7629 2.91127 4.58709 3.08709C4.41127 3.2629 4.3125 3.50136 4.3125 3.75V14.25C4.3125 14.4986 4.41127 14.7371 4.58709 14.9129C4.7629 15.0887 5.00136 15.1875 5.25 15.1875H12.75C12.9986 15.1875 13.2371 15.0887 13.4129 14.9129C13.5887 14.7371 13.6875 14.4986 13.6875 14.25V6.233L10.267 2.8125H5.25ZM3.79159 2.29159C4.17839 1.9048 4.70299 1.6875 5.25 1.6875H10.5C10.6492 1.6875 10.7923 1.74676 10.8977 1.85225L14.6477 5.60225C14.7532 5.70774 14.8125 5.85082 14.8125 6V14.25C14.8125 14.797 14.5952 15.3216 14.2084 15.7084C13.8216 16.0952 13.297 16.3125 12.75 16.3125H5.25C4.70299 16.3125 4.17839 16.0952 3.79159 15.7084C3.4048 15.3216 3.1875 14.797 3.1875 14.25V3.75C3.1875 3.20299 3.4048 2.67839 3.79159 2.29159Z" fill="#3A3D3E" fill-opacity="0.6"/>
<path fill-rule="evenodd" clip-rule="evenodd" d="M7.6875 10.5C7.6875 10.1893 7.93934 9.9375 8.25 9.9375H9C9.31066 9.9375 9.5625 10.1893 9.5625 10.5V12.9375H9.75C10.0607 12.9375 10.3125 13.1893 10.3125 13.5C10.3125 13.8107 10.0607 14.0625 9.75 14.0625H9C8.68934 14.0625 8.4375 13.8107 8.4375 13.5V11.0625H8.25C7.93934 11.0625 7.6875 10.8107 7.6875 10.5Z" fill="#3A3D3E" fill-opacity="0.6"/>
<path fill-rule="evenodd" clip-rule="evenodd" d="M8.4375 8.25C8.4375 7.93934 8.68934 7.6875 9 7.6875H9.0075C9.31816 7.6875 9.57 7.93934 9.57 8.25C9.57 8.56066 9.31816 8.8125 9.0075 8.8125H9C8.68934 8.8125 8.4375 8.56066 8.4375 8.25Z" fill="#3A3D3E" fill-opacity="0.6"/>
</svg>
