<svg width="24" height="24" viewBox="0 0 24 24" fill="none" xmlns="http://www.w3.org/2000/svg">
<path fill-rule="evenodd" clip-rule="evenodd" d="M6.46967 4.46967C6.76256 4.17678 7.23744 4.17678 7.53033 4.46967L11.5303 8.46967C11.8232 8.76256 11.8232 9.23744 11.5303 9.53033C11.2374 9.82322 10.7626 9.82322 10.4697 9.53033L7.75 6.81066V19C7.75 19.4142 7.41421 19.75 7 19.75C6.58579 19.75 6.25 19.4142 6.25 19V6.81066L3.53033 9.53033C3.23744 9.82322 2.76256 9.82322 2.46967 9.53033C2.17678 9.23744 2.17678 8.76256 2.46967 8.46967L6.46967 4.46967Z" fill="#3A3D3E"/>
<path fill-rule="evenodd" clip-rule="evenodd" d="M17 4.25C17.4142 4.25 17.75 4.58579 17.75 5V17.1893L20.4697 14.4697C20.7626 14.1768 21.2374 14.1768 21.5303 14.4697C21.8232 14.7626 21.8232 15.2374 21.5303 15.5303L17.5303 19.5303C17.2374 19.8232 16.7626 19.8232 16.4697 19.5303L12.4697 15.5303C12.1768 15.2374 12.1768 14.7626 12.4697 14.4697C12.7626 14.1768 13.2374 14.1768 13.5303 14.4697L16.25 17.1893V5C16.25 4.58579 16.5858 4.25 17 4.25Z" fill="#3A3D3E"/>
</svg>
