<svg width="32" height="32" viewBox="0 0 32 32" fill="none" xmlns="http://www.w3.org/2000/svg">
<rect x="0.5" y="0.5" width="31" height="31" rx="5.5" stroke="#DD7F34"/>
<path fill-rule="evenodd" clip-rule="evenodd" d="M24.2391 6.81015C22.4052 7.54417 20.1988 8.85623 18.1229 10.395C16.044 11.936 14.1434 13.6693 12.907 15.2169C12.9067 15.2173 12.9064 15.2177 12.906 15.2181L11.5433 16.939C12.3528 17.1517 13.1182 17.5875 13.7604 18.2297C14.3875 18.8568 14.8072 19.5797 15.017 20.3634L16.7108 19.0049L16.7108 19.0049C19.8394 16.4962 23.6216 11.3819 25.1139 7.66085L25.117 7.65324L25.117 7.65325C25.2254 7.3913 25.1549 7.14055 24.9668 6.95737L24.9525 6.94303C24.8009 6.78723 24.5472 6.69804 24.2391 6.81015ZM10.801 18.3175C10.753 18.315 10.7104 18.3125 10.6719 18.3102C10.5268 18.3018 10.4403 18.2967 10.3447 18.3063C10.0891 18.3319 9.83817 18.2248 9.67972 18.0227C9.52127 17.8205 9.47731 17.5513 9.56321 17.3092C9.70222 16.9174 9.91549 16.5502 10.1827 16.241L11.7321 14.2844L11.734 14.2819C13.0776 12.5998 15.0866 10.7786 17.2297 9.19C19.3728 7.60136 21.6975 6.21022 23.6918 5.41353L23.708 5.40728C24.5731 5.08471 25.4529 5.31207 26.0204 5.88971C26.5866 6.44609 26.8722 7.32974 26.5048 8.22257C24.9162 12.1812 20.9797 17.5046 17.6492 20.1751L15.6793 21.7551C15.6691 21.7632 15.6588 21.7711 15.6483 21.7787C15.3807 21.9713 15.071 22.174 14.7043 22.3181C14.4734 22.4088 14.2126 22.3795 14.0076 22.2398C13.8027 22.1001 13.68 21.8681 13.68 21.62C13.68 21.4645 13.6712 21.3061 13.6492 21.167L13.6464 21.1474C13.5588 20.4787 13.2582 19.8489 12.6997 19.2903C12.1404 18.731 11.472 18.4105 10.801 18.3175Z" fill="#DD7F34"/>
<path fill-rule="evenodd" clip-rule="evenodd" d="M10.8106 18.3174C10.6295 18.3081 10.4656 18.3017 10.3174 18.3091C10.3101 18.3095 10.3027 18.3097 10.2954 18.3099C8.69126 18.3429 7.21014 19.4953 7.01546 21.2717L6.74481 23.7377C6.64149 24.6159 7.38415 25.3512 8.24649 25.2547L8.2481 25.2545L10.6999 24.9854C11.5287 24.875 12.2013 24.5273 12.6879 24.0414C13.3363 23.3839 13.6799 22.5248 13.6799 21.62C13.6799 21.5175 13.6739 21.4335 13.6662 21.327C13.6619 21.2676 13.6572 21.2012 13.6527 21.1207C13.5606 20.4619 13.2607 19.8414 12.7096 19.2904L12.7057 19.2865C12.1513 18.7239 11.4861 18.4107 10.8106 18.3174ZM10.2536 16.8104C10.4936 16.7992 10.7353 16.8114 10.9193 16.8211C10.9383 16.8221 10.9573 16.8238 10.9762 16.8262C11.9907 16.9575 12.9743 17.4229 13.7722 18.2316C14.5525 19.0127 15.0113 19.9422 15.1436 20.9526C15.1461 20.9719 15.1479 20.9912 15.1489 21.0106C15.1509 21.0483 15.1542 21.0961 15.1579 21.1501C15.1675 21.2882 15.1799 21.4668 15.1799 21.62C15.1799 22.9145 14.6842 24.1546 13.7536 25.097L13.7503 25.1004C13.0185 25.8321 12.0343 26.3231 10.8876 26.4736L10.8717 26.4755L8.41336 26.7454C8.41306 26.7454 8.41366 26.7453 8.41336 26.7454C6.59711 26.9481 5.04018 25.4056 5.2547 23.5655L5.52439 21.1083C5.52438 21.1084 5.52439 21.1083 5.52439 21.1083C5.80932 18.5089 7.98172 16.8623 10.2536 16.8104Z" fill="#DD7F34"/>
<path fill-rule="evenodd" clip-rule="evenodd" d="M12.76 13.74C12.76 13.3258 13.0958 12.99 13.51 12.99C16.5342 12.99 18.99 15.4458 18.99 18.47C18.99 18.8842 18.6542 19.22 18.24 19.22C17.8258 19.22 17.49 18.8842 17.49 18.47C17.49 16.2742 15.7058 14.49 13.51 14.49C13.0958 14.49 12.76 14.1542 12.76 13.74Z" fill="#DD7F34"/>
<path fill-rule="evenodd" clip-rule="evenodd" d="M23.586 16.2033C23.8769 15.9084 24.3518 15.9052 24.6467 16.1961L25.3903 16.9296C26.2152 17.7546 26.7275 18.6741 26.7275 19.685C26.7275 20.6959 26.2152 21.6154 25.3903 22.4403L22.4303 25.4003C21.6117 26.2189 20.6922 26.7225 19.685 26.7225C18.6777 26.7225 17.7582 26.2189 16.9396 25.4003C16.6467 25.1074 16.6467 24.6325 16.9396 24.3397C17.2325 24.0468 17.7074 24.0468 18.0003 24.3397C18.6517 24.9911 19.2122 25.2225 19.685 25.2225C20.1577 25.2225 20.7182 24.9911 21.3696 24.3397L24.3296 21.3797C24.9947 20.7146 25.2275 20.1541 25.2275 19.685C25.2275 19.2163 24.9951 18.6564 24.3314 17.9921L23.5933 17.2639C23.2984 16.973 23.2952 16.4981 23.586 16.2033Z" fill="#DD7F34"/>
<path fill-rule="evenodd" clip-rule="evenodd" d="M12.2851 6.74756C11.8123 6.74756 11.2518 6.97895 10.6004 7.63039L7.64225 10.5885C6.98856 11.2517 6.75757 11.8126 6.75757 12.2851C6.75757 12.7579 6.98897 13.3194 7.64397 13.9833C7.93488 14.2782 7.93167 14.7531 7.6368 15.044C7.34194 15.3349 6.86707 15.3317 6.57617 15.0368C5.76117 14.2107 5.25757 13.2922 5.25757 12.2851C5.25757 11.2779 5.76117 10.3594 6.57617 9.53332L6.57973 9.52972L6.57974 9.52973L9.53974 6.56973C10.3583 5.75117 11.2778 5.24756 12.2851 5.24756C13.2923 5.24756 14.2118 5.75117 15.0304 6.56973L15.7704 7.30973C16.0633 7.60262 16.0633 8.0775 15.7704 8.37039C15.4775 8.66328 15.0026 8.66328 14.7097 8.37039L13.9697 7.63039C13.3183 6.97895 12.7578 6.74756 12.2851 6.74756Z" fill="#DD7F34"/>
<path fill-rule="evenodd" clip-rule="evenodd" d="M15.7804 7.31965C16.0733 7.61254 16.0733 8.08741 15.7804 8.38031L12.0804 12.0803C11.7875 12.3732 11.3126 12.3732 11.0197 12.0803C10.7268 11.7874 10.7268 11.3125 11.0197 11.0196L14.7197 7.31965C15.0126 7.02675 15.4875 7.02675 15.7804 7.31965Z" fill="#DD7F34"/>
<path fill-rule="evenodd" clip-rule="evenodd" d="M24.6511 16.2005C24.9435 16.4939 24.9427 16.9688 24.6493 17.2612L21.6893 20.2112C21.396 20.5036 20.9211 20.5028 20.6287 20.2094C20.3363 19.916 20.3371 19.4412 20.6305 19.1488L23.5905 16.1988C23.8839 15.9064 24.3587 15.9072 24.6511 16.2005Z" fill="#DD7F34"/>
</svg>
