<svg width="32" height="32" viewBox="0 0 32 32" fill="none" xmlns="http://www.w3.org/2000/svg">
<rect x="0.5" y="0.5" width="31" height="31" rx="5.5" stroke="#DD7F34"/>
<path fill-rule="evenodd" clip-rule="evenodd" d="M18.4036 5.91437C18.4044 5.91491 18.4052 5.91546 18.406 5.916L24.3914 9.84295C26.7628 11.3991 26.7628 14.8709 24.3915 16.4271L18.402 20.3567C18.4019 20.3568 18.4021 20.3567 18.402 20.3567C17.7131 20.8095 16.8458 21.0125 16.02 21.0125C15.1945 21.0125 14.3278 20.8099 13.639 20.3574C13.6387 20.3572 13.6383 20.357 13.638 20.3567L7.62003 16.4281C5.23669 14.8721 5.23668 11.388 7.62002 9.83202L13.638 5.90333C13.6384 5.90311 13.6387 5.90288 13.639 5.90266C14.3279 5.45017 15.1949 5.24734 16.0213 5.24879C16.8473 5.25023 17.7145 5.45584 18.4036 5.91437ZM16.0187 6.74878C15.4156 6.74773 14.853 6.8997 14.462 7.15674L14.46 7.15806L8.44001 11.088C8.44001 11.0881 8.44002 11.088 8.44001 11.088C6.96336 12.0521 6.96335 14.208 8.44 15.172C8.44 15.172 8.44 15.172 8.44 15.172L14.462 19.1033C14.853 19.3604 15.4159 19.5125 16.02 19.5125C16.6241 19.5125 17.187 19.3604 17.578 19.1033L23.5685 15.173C23.5685 15.173 23.5685 15.173 23.5685 15.173C25.0371 14.2092 25.0372 12.0609 23.5686 11.0971C23.5686 11.0971 23.5686 11.0971 23.5686 11.0971L17.574 7.16409C17.1835 6.90376 16.6218 6.74984 16.0187 6.74878Z" fill="#DD7F34"/>
<path fill-rule="evenodd" clip-rule="evenodd" d="M9.63159 16.3301C10.0458 16.331 10.3809 16.6675 10.38 17.0817L10.37 21.7701C10.37 21.7698 10.37 21.7703 10.37 21.7701C10.3702 22.2191 10.5475 22.727 10.8687 23.1732C11.1901 23.6196 11.6139 23.9474 12.0369 24.0885C12.0368 24.0884 12.037 24.0885 12.0369 24.0885L15.2233 25.1473C15.2237 25.1474 15.2241 25.1476 15.2246 25.1477C15.4001 25.2049 15.6796 25.2451 15.9962 25.2451C16.3112 25.2451 16.5944 25.2053 16.7775 25.147L19.9628 24.0886C19.9628 24.0886 19.9629 24.0885 19.9628 24.0886C20.3858 23.9475 20.8099 23.6197 21.1313 23.1732C21.4526 22.7267 21.63 22.2193 21.63 21.7701V17.1301C21.63 16.7159 21.9658 16.3801 22.38 16.3801C22.7942 16.3801 23.13 16.7159 23.13 17.1301V21.7701C23.13 22.5909 22.8173 23.3984 22.3487 24.0495C21.8801 24.7004 21.2141 25.2526 20.4372 25.5116L17.2395 26.5741C16.8624 26.6953 16.412 26.7451 15.9962 26.7451C15.5811 26.7451 15.1313 26.6955 14.7567 26.5729L14.7535 26.5718L11.5635 25.5118C10.7865 25.2528 10.1199 24.7004 9.65129 24.0495C9.18265 23.3984 8.87 22.5909 8.87 21.7701L8.87 21.7685L8.88 17.0785C8.88088 16.6643 9.21738 16.3292 9.63159 16.3301Z" fill="#DD7F34"/>
<path fill-rule="evenodd" clip-rule="evenodd" d="M25.4 12.25C25.8142 12.25 26.15 12.5858 26.15 13V19C26.15 19.4142 25.8142 19.75 25.4 19.75C24.9858 19.75 24.65 19.4142 24.65 19V13C24.65 12.5858 24.9858 12.25 25.4 12.25Z" fill="#DD7F34"/>
</svg>
