<svg width="32" height="32" viewBox="0 0 32 32" fill="none" xmlns="http://www.w3.org/2000/svg">
<rect x="0.5" y="0.5" width="31" height="31" rx="5.5" stroke="#DD7F34"/>
<path fill-rule="evenodd" clip-rule="evenodd" d="M9.10459 13.7874C9.84462 13.4968 10.6529 13.34 11.5 13.34C14.9056 13.34 17.75 15.9288 17.75 19.23C17.75 20.1243 17.5352 20.9724 17.1532 21.73C17.1588 21.73 17.1644 21.73 17.17 21.73C17.3048 21.73 17.4372 21.7663 17.5531 21.8352L21.7485 24.3284C21.9133 24.4283 22.1415 24.301 22.1154 24.0804C22.1154 24.0802 22.1155 24.0806 22.1154 24.0804L21.7256 20.9219C21.6916 20.6466 21.8124 20.3751 22.0395 20.2159C23.9995 18.842 25.25 16.6717 25.25 14.24C25.25 10.152 21.6852 6.75 17.17 6.75C12.8224 6.75 9.35609 9.90396 9.10459 13.7874ZM7.58997 14.24C7.58997 9.22799 11.9252 5.25 17.17 5.25C22.4147 5.25 26.75 9.22799 26.75 14.24C26.75 17.0485 25.3807 19.5361 23.268 21.1732L23.6046 23.9003C23.7778 25.3381 22.229 26.3698 20.9746 25.6134C20.9736 25.6128 20.9725 25.6121 20.9714 25.6115L16.9607 23.228C16.5401 23.2202 16.126 23.1887 15.7186 23.1331C15.4471 23.0961 15.2173 22.9139 15.1194 22.6579C15.0216 22.4019 15.0711 22.1129 15.2487 21.9041C15.881 21.1607 16.25 20.2304 16.25 19.23C16.25 16.8511 14.1743 14.84 11.5 14.84C10.4843 14.84 9.55672 15.1283 8.78946 15.6283C8.57231 15.7699 8.29747 15.7892 8.06262 15.6795C7.82777 15.5699 7.6662 15.3467 7.63532 15.0894C7.60064 14.8004 7.58997 14.5187 7.58997 14.24Z" fill="#DD7F34"/>
<path fill-rule="evenodd" clip-rule="evenodd" d="M11.5 14.8401C10.4843 14.8401 9.55675 15.1284 8.78949 15.6284L8.78381 15.6321L8.7838 15.6321C7.53967 16.4269 6.75 17.7486 6.75 19.23C6.75 20.6434 7.47181 21.9118 8.62762 22.7139C8.85727 22.8733 8.97922 23.1472 8.94403 23.4245L8.72702 25.1345L11.117 23.7152C11.2329 23.6464 11.3652 23.61 11.5 23.61C13.0418 23.61 14.3975 22.9358 15.2415 21.9128L15.2487 21.9041L15.2487 21.9041C15.881 21.1607 16.25 20.2305 16.25 19.23C16.25 16.8512 14.1743 14.8401 11.5 14.8401ZM7.97335 14.3699C8.98552 13.711 10.1969 13.3401 11.5 13.3401C14.9057 13.3401 17.75 15.9289 17.75 19.23C17.75 20.6076 17.2404 21.8758 16.395 22.8717C15.2994 24.197 13.603 25.0475 11.7115 25.1067L9.27686 26.5526C8.28464 27.1557 7.07485 26.3198 7.20513 25.2124L7.20593 25.2056L7.20596 25.2056L7.40119 23.6673C6.08817 22.6004 5.25 21.0138 5.25 19.23C5.25 17.1926 6.33907 15.4153 7.97335 14.3699Z" fill="#DD7F34"/>
</svg>
