<svg width="32" height="32" viewBox="0 0 32 32" fill="none" xmlns="http://www.w3.org/2000/svg">
<rect x="0.5" y="0.5" width="31" height="31" rx="5.5" stroke="#DD7F34"/>
<path fill-rule="evenodd" clip-rule="evenodd" d="M10.96 7.84998C8.63813 7.84998 6.75 9.74025 6.75 12.09C6.75 14.9705 8.07821 17.2774 9.75533 18.9947C11.0252 20.295 12.4693 21.2291 13.6128 21.7856C12.6136 20.45 11.88 18.7646 11.88 16.74C11.88 14.261 13.8705 12.25 16.34 12.25C17.4864 12.25 18.5283 12.6834 19.3174 13.3864C20.1029 12.6824 21.1453 12.25 22.29 12.25C22.5693 12.25 22.8419 12.2755 23.1066 12.3245C23.1088 12.2466 23.11 12.1684 23.11 12.09C23.11 9.74025 21.2219 7.84998 18.9 7.84998C17.527 7.84998 16.3047 8.50992 15.5294 9.54076C15.3873 9.72971 15.1644 9.84059 14.928 9.83996C14.6916 9.83934 14.4693 9.72727 14.3282 9.53758C13.5646 8.51098 12.3445 7.84998 10.96 7.84998ZM15.3071 22.1859L15.3067 22.186L15.3071 22.1859ZM5.25 12.09C5.25 8.91969 7.80186 6.34998 10.96 6.34998C12.5071 6.34998 13.9074 6.96168 14.9322 7.95803C15.961 6.96298 17.3592 6.34998 18.9 6.34998C22.0581 6.34998 24.61 8.91969 24.61 12.09C24.61 12.5454 24.5775 12.9874 24.5239 13.4053C24.4939 13.6393 24.3556 13.8456 24.1504 13.9621C23.9453 14.0786 23.6973 14.0918 23.481 13.9978C23.1125 13.8376 22.7141 13.75 22.29 13.75C21.317 13.75 20.4562 14.2198 19.9216 14.9378C19.7806 15.1272 19.5587 15.2391 19.3227 15.24C19.0866 15.2408 18.8639 15.1304 18.7216 14.9421C18.1755 14.2193 17.3121 13.75 16.34 13.75C14.7094 13.75 13.38 15.0789 13.38 16.74C13.38 19.1324 14.6439 20.9935 16.1254 22.2968C16.3051 22.455 16.3986 22.6894 16.3769 22.9278C16.3553 23.1662 16.2211 23.3799 16.0159 23.5031C15.9276 23.556 15.8481 23.5857 15.803 23.6015C15.7878 23.6069 15.7649 23.6145 15.7589 23.6165L15.7575 23.617C15.756 23.6175 15.7548 23.6179 15.754 23.6181C15.7488 23.6202 15.7435 23.6222 15.7382 23.6241C15.4792 23.7191 15.1849 23.7525 14.93 23.7525C14.6777 23.7525 14.3869 23.7198 14.13 23.6271C12.7285 23.1442 10.5358 21.9408 8.68217 20.0427C6.81679 18.1326 5.25 15.4694 5.25 12.09Z" fill="#DD7F34"/>
<path fill-rule="evenodd" clip-rule="evenodd" d="M16.34 13.75C14.7094 13.75 13.38 15.0789 13.38 16.74C13.38 19.1324 14.6439 20.9936 16.1254 22.2969L16.1256 22.297C17.2246 23.2646 18.4085 23.8827 19.1397 24.1293L19.1464 24.1316L19.1464 24.1316C19.1461 24.1315 19.1506 24.1331 19.1605 24.1354C19.1702 24.1376 19.1833 24.1401 19.1995 24.1424C19.2326 24.1471 19.2723 24.15 19.315 24.15C19.3577 24.15 19.3974 24.1471 19.4305 24.1424C19.4467 24.1401 19.4598 24.1376 19.4695 24.1354C19.4794 24.1331 19.4839 24.1315 19.4836 24.1316L19.4884 24.1299L19.4885 24.13C20.3503 23.8367 21.8158 23.0441 23.0558 21.7736C24.2867 20.5125 25.25 18.8306 25.25 16.74C25.25 15.5055 24.5233 14.4604 23.4787 13.9968C23.1109 13.8373 22.7133 13.75 22.29 13.75C21.317 13.75 20.4562 14.2198 19.9216 14.9378C19.7806 15.1272 19.5587 15.2391 19.3227 15.24C19.0866 15.2408 18.8639 15.1305 18.7216 14.9421C18.1755 14.2193 17.3121 13.75 16.34 13.75ZM11.88 16.74C11.88 14.261 13.8705 12.25 16.34 12.25C17.4864 12.25 18.5283 12.6834 19.3174 13.3864C20.1029 12.6824 21.1453 12.25 22.29 12.25C22.9259 12.25 23.5275 12.3824 24.079 12.6222L24.0836 12.6242L24.0836 12.6242C25.6577 13.3211 26.75 14.8954 26.75 16.74C26.75 19.3294 25.5483 21.3675 24.1292 22.8214C22.7202 24.265 21.0518 25.1821 19.9737 25.5493C19.7566 25.6243 19.5188 25.65 19.315 25.65C19.1115 25.65 18.8741 25.6244 18.6573 25.5497C17.7286 25.2358 16.3741 24.5142 15.1344 23.4229C13.4559 21.9462 11.88 19.7074 11.88 16.74Z" fill="#DD7F34"/>
</svg>
