<svg width="32" height="32" viewBox="0 0 32 32" fill="none" xmlns="http://www.w3.org/2000/svg">
<rect x="0.5" y="0.5" width="31" height="31" rx="5.5" stroke="#DD7F34"/>
<path fill-rule="evenodd" clip-rule="evenodd" d="M10.26 12.5C8.60422 12.5 7.25 13.8542 7.25 15.51V22.24C7.25 23.8958 8.60422 25.25 10.26 25.25H21.74C23.3958 25.25 24.75 23.8958 24.75 22.24V21.8H23.6C22.1905 21.8 20.8223 20.7693 20.693 19.2467C20.6122 18.3845 20.9405 17.579 21.5093 17.02C22.0209 16.4981 22.7224 16.2 23.48 16.2H24.75V15.51C24.75 13.8542 23.3958 12.5 21.74 12.5H10.26ZM5.75 15.51C5.75 13.0258 7.77578 11 10.26 11H21.74C24.2242 11 26.25 13.0258 26.25 15.51V16.95C26.25 17.3642 25.9142 17.7 25.5 17.7H23.48C23.1209 17.7 22.8052 17.8392 22.5774 18.0732L22.5639 18.0867C22.2978 18.3464 22.1492 18.7162 22.1866 19.1089L22.1875 19.1177L22.1874 19.1177C22.2403 19.7527 22.8509 20.3 23.6 20.3H25.5C25.9142 20.3 26.25 20.6358 26.25 21.05V22.24C26.25 24.7242 24.2242 26.75 21.74 26.75H10.26C7.77578 26.75 5.75 24.7242 5.75 22.24V15.51Z" fill="#DD7F34"/>
<path fill-rule="evenodd" clip-rule="evenodd" d="M18.1 7.95001C18.1 7.14248 17.293 6.5881 16.5458 6.87129L8.60542 9.87144C7.78865 10.1806 7.25 10.9605 7.25 11.84V16.41C7.25 16.8242 6.91421 17.16 6.5 17.16C6.08579 17.16 5.75 16.8242 5.75 16.41V11.84C5.75 10.3397 6.67154 8.99939 8.07458 8.46851L16.0142 5.46866C16.014 5.46872 16.0143 5.46861 16.0142 5.46866C17.7469 4.81223 19.6 6.09768 19.6 7.95001V11.75C19.6 12.1642 19.2642 12.5 18.85 12.5C18.4358 12.5 18.1 12.1642 18.1 11.75V7.95001Z" fill="#DD7F34"/>
<path fill-rule="evenodd" clip-rule="evenodd" d="M23.4788 17.7002C23.1198 17.7002 22.804 17.8394 22.5762 18.0734L22.5627 18.0869C22.2967 18.3466 22.1481 18.7164 22.1855 19.1091L22.1863 19.1179L22.1863 19.1179C22.2392 19.7529 22.8497 20.3002 23.5988 20.3002H25.5416C25.7033 20.2897 25.8088 20.1633 25.8088 20.0302V17.9702C25.8088 17.837 25.7033 17.7106 25.5416 17.7002H23.4788ZM21.5082 17.0201C22.0198 16.4983 22.7212 16.2002 23.4788 16.2002H25.5588C25.5678 16.2002 25.5767 16.2004 25.5856 16.2007C26.5386 16.2347 27.3088 17.0059 27.3088 17.9702V20.0302C27.3088 20.9945 26.5386 21.7657 25.5856 21.7997C25.5767 21.8 25.5678 21.8002 25.5588 21.8002H23.5988C22.1893 21.8002 20.8212 20.7695 20.6918 19.2469C20.6111 18.3847 20.9394 17.5792 21.5082 17.0201Z" fill="#DD7F34"/>
<path fill-rule="evenodd" clip-rule="evenodd" d="M10.25 16C10.25 15.5858 10.5858 15.25 11 15.25H18C18.4142 15.25 18.75 15.5858 18.75 16C18.75 16.4142 18.4142 16.75 18 16.75H11C10.5858 16.75 10.25 16.4142 10.25 16Z" fill="#DD7F34"/>
</svg>
