<svg width="20" height="20" viewBox="0 0 20 20" fill="none" xmlns="http://www.w3.org/2000/svg">
<path d="M13.1571 6.05233C13.1571 5.61632 13.5105 5.26286 13.9466 5.26286C14.3826 5.26286 14.736 5.61632 14.736 6.05233C14.736 6.48835 14.3826 6.84181 13.9466 6.84181C13.5105 6.84181 13.1571 6.48835 13.1571 6.05233Z" fill="white"/>
<path fill-rule="evenodd" clip-rule="evenodd" d="M9.99919 6.2497C7.92813 6.2497 6.24919 7.92863 6.24919 9.9997C6.24919 12.0708 7.92813 13.7497 9.99919 13.7497C12.0703 13.7497 13.7492 12.0708 13.7492 9.9997C13.7492 7.92863 12.0703 6.2497 9.99919 6.2497ZM7.4334 9.9997C7.4334 8.58266 8.58215 7.43391 9.99919 7.43391C11.4162 7.43391 12.565 8.58266 12.565 9.9997C12.565 11.4167 11.4162 12.5655 9.99919 12.5655C8.58215 12.5655 7.4334 11.4167 7.4334 9.9997Z" fill="white"/>
<path fill-rule="evenodd" clip-rule="evenodd" d="M14.1504 2.76261C11.4137 2.45673 8.58473 2.45673 5.84796 2.76261C4.25949 2.94014 2.97712 4.19147 2.79037 5.7882C2.46311 8.58633 2.46311 11.4131 2.79037 14.2112C2.97712 15.8079 4.25949 17.0593 5.84796 17.2368C8.58473 17.5427 11.4137 17.5427 14.1504 17.2368C15.7389 17.0593 17.0213 15.8079 17.208 14.2112C17.5353 11.4131 17.5353 8.58633 17.208 5.7882C17.0213 4.19147 15.7389 2.94014 14.1504 2.76261ZM5.97949 3.93949C8.62885 3.64339 11.3696 3.64339 14.0189 3.93949C15.069 4.05685 15.9102 4.8855 16.0318 5.92577C16.3484 8.6325 16.3484 11.3669 16.0318 14.0736C15.9102 15.1139 15.069 15.9425 14.0189 16.0599C11.3696 16.356 8.62885 16.356 5.97949 16.0599C4.92941 15.9425 4.08823 15.1139 3.96657 14.0736C3.64999 11.3669 3.64999 8.6325 3.96657 5.92577C4.08823 4.8855 4.92941 4.05685 5.97949 3.93949Z" fill="white"/>
</svg>
