<svg width="16" height="16" viewBox="0 0 16 16" fill="none" xmlns="http://www.w3.org/2000/svg">
<path d="M11.1571 4.05233C11.1571 3.61632 11.5105 3.26286 11.9466 3.26286C12.3826 3.26286 12.736 3.61632 12.736 4.05233C12.736 4.48835 12.3826 4.84181 11.9466 4.84181C11.5105 4.84181 11.1571 4.48835 11.1571 4.05233Z" fill="#3A3D3E"/>
<path fill-rule="evenodd" clip-rule="evenodd" d="M7.99919 4.2497C5.92813 4.2497 4.24919 5.92863 4.24919 7.9997C4.24919 10.0708 5.92813 11.7497 7.99919 11.7497C10.0703 11.7497 11.7492 10.0708 11.7492 7.9997C11.7492 5.92863 10.0703 4.2497 7.99919 4.2497ZM5.4334 7.9997C5.4334 6.58266 6.58215 5.43391 7.99919 5.43391C9.41624 5.43391 10.565 6.58266 10.565 7.9997C10.565 9.41675 9.41624 10.5655 7.99919 10.5655C6.58215 10.5655 5.4334 9.41675 5.4334 7.9997Z" fill="#3A3D3E"/>
<path fill-rule="evenodd" clip-rule="evenodd" d="M12.1504 0.762609C9.41368 0.456735 6.58473 0.456735 3.84796 0.762609C2.25949 0.940143 0.977124 2.19147 0.790372 3.7882C0.463105 6.58633 0.463105 9.41307 0.790372 12.2112C0.977124 13.8079 2.25949 15.0593 3.84796 15.2368C6.58473 15.5427 9.41368 15.5427 12.1504 15.2368C13.7389 15.0593 15.0213 13.8079 15.208 12.2112C15.5353 9.41307 15.5353 6.58633 15.208 3.7882C15.0213 2.19147 13.7389 0.940143 12.1504 0.762609ZM3.97949 1.93949C6.62885 1.64339 9.36956 1.64339 12.0189 1.93949C13.069 2.05685 13.9102 2.8855 14.0318 3.92577C14.3484 6.6325 14.3484 9.3669 14.0318 12.0736C13.9102 13.1139 13.069 13.9425 12.0189 14.0599C9.36956 14.356 6.62885 14.356 3.97949 14.0599C2.92941 13.9425 2.08823 13.1139 1.96657 12.0736C1.64999 9.3669 1.64999 6.6325 1.96657 3.92577C2.08823 2.8855 2.92941 2.05685 3.97949 1.93949Z" fill="#3A3D3E"/>
</svg>
