<svg width="26" height="30" viewBox="0 0 26 30" fill="none" xmlns="http://www.w3.org/2000/svg">
<path d="M25.2096 9.97067C23.7221 3.42567 18.0129 0.479004 12.9979 0.479004C12.9979 0.479004 12.9979 0.479004 12.9838 0.479004C7.98294 0.479004 2.2596 3.4115 0.772104 9.9565C-0.885395 17.2665 3.59127 23.4573 7.64294 27.3532C9.1446 28.7982 11.0713 29.5207 12.9979 29.5207C14.9246 29.5207 16.8513 28.7982 18.3388 27.3532C22.3904 23.4573 26.8671 17.2807 25.2096 9.97067ZM12.9979 17.0682C10.5329 17.0682 8.53544 15.0707 8.53544 12.6057C8.53544 10.1407 10.5329 8.14317 12.9979 8.14317C15.4629 8.14317 17.4604 10.1407 17.4604 12.6057C17.4604 15.0707 15.4629 17.0682 12.9979 17.0682Z" fill="#DD7F34"/>
</svg>
