<svg width="5" height="5" viewBox="0 0 5 5" fill="none" xmlns="http://www.w3.org/2000/svg">
<path d="M2.5 0.625C2.86738 0.624979 3.22667 0.732884 3.53325 0.935312C3.83983 1.13774 4.08018 1.42577 4.22446 1.76364C4.36874 2.1015 4.41059 2.4743 4.3448 2.83574C4.27902 3.19718 4.1085 3.53134 3.85444 3.7967C3.60037 4.06206 3.27394 4.24693 2.9157 4.32836C2.55746 4.40979 2.18319 4.38418 1.83938 4.25472C1.49556 4.12526 1.19736 3.89765 0.981797 3.60016C0.766236 3.30267 0.642819 2.94841 0.626875 2.58138L0.625 2.5L0.626875 2.41862C0.647845 1.93591 0.854353 1.47992 1.20333 1.14575C1.55231 0.811578 2.01683 0.625028 2.5 0.625Z" fill="white"/>
</svg>
