<svg width="48" height="39" viewBox="0 0 48 39" fill="none" xmlns="http://www.w3.org/2000/svg">
<path d="M11.7677 39C9.49677 39 7.63871 38.5357 6.19355 37.6071C4.74839 36.6786 3.56129 35.4921 2.63226 34.0476C1.6 32.2936 0.877419 30.4881 0.464516 28.631C0.154839 26.6706 0 25.0714 0 23.8333C0 18.7778 1.29032 14.1865 3.87097 10.0595C6.45161 5.93255 10.4774 2.57937 15.9484 0L17.3419 2.78572C14.1419 4.12699 11.3548 6.24207 8.98065 9.13095C6.70968 12.0198 5.57419 14.9603 5.57419 17.9524C5.57419 19.1905 5.72903 20.2738 6.03871 21.2024C7.69032 19.8611 9.6 19.1905 11.7677 19.1905C14.4516 19.1905 16.7742 20.0675 18.7355 21.8214C20.6968 23.5754 21.6774 26 21.6774 29.0952C21.6774 31.9841 20.6968 34.3571 18.7355 36.2143C16.7742 38.0714 14.4516 39 11.7677 39ZM38.0903 39C35.8194 39 33.9613 38.5357 32.5161 37.6071C31.071 36.6786 29.8839 35.4921 28.9548 34.0476C27.9226 32.2936 27.2 30.4881 26.7871 28.631C26.4774 26.6706 26.3226 25.0714 26.3226 23.8333C26.3226 18.7778 27.6129 14.1865 30.1935 10.0595C32.7742 5.93255 36.8 2.57937 42.271 0L43.6645 2.78572C40.4645 4.12699 37.6774 6.24207 35.3032 9.13095C33.0323 12.0198 31.8968 14.9603 31.8968 17.9524C31.8968 19.1905 32.0516 20.2738 32.3613 21.2024C34.0129 19.8611 35.9226 19.1905 38.0903 19.1905C40.7742 19.1905 43.0968 20.0675 45.0581 21.8214C47.0194 23.5754 48 26 48 29.0952C48 31.9841 47.0194 34.3571 45.0581 36.2143C43.0968 38.0714 40.7742 39 38.0903 39Z" fill="#F18530"/>
</svg>
