<svg width="119" height="276" viewBox="0 0 119 276" fill="none" xmlns="http://www.w3.org/2000/svg">
<path d="M97.3743 248.113C97.3743 248.113 100.563 257.842 102 260.715C103.436 263.588 106.941 270.444 107.42 271.871C107.899 273.298 107.42 274.265 105.351 274.744C103.576 274.984 101.768 274.773 100.095 274.133C98.4218 273.492 96.9364 272.441 95.7751 271.076C92.7394 267.571 90.987 263.415 89.8762 262.151C88.7653 260.887 85.5669 260.399 86.0457 256.09C86.5107 253.131 87.5975 250.305 89.2345 247.797L97.3743 248.113Z" fill="white"/>
<path d="M103.943 275.338C102.323 275.314 100.726 274.947 99.2569 274.262C97.788 273.577 96.4806 272.59 95.4206 271.364C93.7602 269.344 92.2979 267.17 91.0539 264.871C90.6048 264.023 90.0926 263.21 89.5217 262.439C89.2014 262.119 88.8409 261.842 88.4491 261.615C87.0702 260.724 85.1932 259.499 85.5763 256.003C86.0458 252.967 87.1627 250.067 88.8513 247.5C88.8994 247.436 88.9615 247.383 89.0329 247.347C89.1042 247.31 89.1829 247.291 89.2631 247.289L97.3933 247.605C97.4916 247.611 97.586 247.646 97.6644 247.706C97.7428 247.765 97.8018 247.847 97.8338 247.94C97.8338 248.036 101.023 257.66 102.43 260.466L103.388 262.295C105.121 265.752 107.506 270.483 107.918 271.699C108.058 272.029 108.126 272.385 108.116 272.744C108.106 273.103 108.019 273.455 107.86 273.777C107.587 274.165 107.235 274.491 106.828 274.733C106.42 274.976 105.966 275.129 105.495 275.185C104.985 275.294 104.465 275.345 103.943 275.338ZM89.4929 248.285C87.9745 250.673 86.967 253.35 86.5339 256.147C86.2083 259.02 87.6734 259.978 88.9662 260.839C89.4332 261.098 89.8619 261.42 90.2399 261.797C90.8602 262.611 91.4112 263.476 91.887 264.383C93.1003 266.628 94.5274 268.751 96.1484 270.722C98.935 273.959 103.139 274.725 105.246 274.236C105.585 274.199 105.913 274.096 106.213 273.931C106.512 273.767 106.775 273.545 106.989 273.279C107.08 273.072 107.127 272.849 107.127 272.623C107.127 272.397 107.08 272.174 106.989 271.967C106.606 270.818 104.116 265.934 102.507 262.697L101.549 260.868C100.247 258.263 97.5752 250.248 97.0102 248.524L89.4929 248.285Z" fill="#3A3D3E"/>
<path d="M105.351 274.744C106.931 274.38 107.582 273.738 107.592 272.829C104.001 273.106 98.3126 271.392 96.2633 268.385C93.8693 264.88 91.638 260.418 89.56 258.981C88.6024 258.33 87.2617 257.219 86.0455 256.204C85.6337 260.418 88.7747 260.897 89.876 262.17C90.9772 263.444 92.7488 267.59 95.7749 271.095C96.9382 272.456 98.4246 273.504 100.098 274.141C101.771 274.778 103.577 274.986 105.351 274.744Z" fill="white"/>
<path d="M103.943 275.338C102.323 275.314 100.726 274.947 99.2569 274.262C97.788 273.577 96.4807 272.589 95.4206 271.363C93.7602 269.344 92.2979 267.17 91.0539 264.871C90.6048 264.023 90.0926 263.21 89.5217 262.438C89.2015 262.118 88.8409 261.842 88.4491 261.615C87.0893 260.734 85.2315 259.518 85.5763 256.109C85.5803 256.022 85.6097 255.939 85.6608 255.869C85.7119 255.799 85.7824 255.746 85.8636 255.716C85.9436 255.68 86.0324 255.668 86.1192 255.681C86.206 255.695 86.2869 255.734 86.352 255.793C87.8937 257.076 89.062 258.005 89.8377 258.541C91.3603 259.594 92.8925 262.084 94.5205 264.727C95.2195 265.848 95.9281 267.006 96.6559 268.069C98.5712 270.827 103.953 272.57 107.554 272.302C107.62 272.298 107.687 272.308 107.749 272.331C107.812 272.353 107.869 272.389 107.918 272.434C107.966 272.48 108.005 272.535 108.031 272.597C108.057 272.658 108.071 272.724 108.071 272.79C108.071 274.581 106.098 275.031 105.456 275.184C104.959 275.291 104.452 275.342 103.943 275.338ZM86.4956 257.143C86.5914 259.259 87.8458 260.073 88.9758 260.81C89.4407 261.068 89.8664 261.39 90.2399 261.768C90.8602 262.582 91.4112 263.447 91.887 264.354C93.1003 266.599 94.5274 268.722 96.1484 270.693C98.9351 273.93 103.139 274.696 105.246 274.208C106.337 273.959 106.807 273.604 106.989 273.25C103.158 273.355 97.8721 271.517 95.8611 268.567C95.1333 267.495 94.4055 266.317 93.7065 265.187C92.136 262.64 90.6517 260.226 89.2919 259.288C88.6215 258.895 87.6926 258.167 86.4956 257.143Z" fill="#3A3D3E"/>
<path d="M51.2264 83.4979L47.6641 112.715H42.7515C42.7515 112.715 38.5188 152.178 39.1892 152.408C39.8595 152.638 88.0277 163.555 88.0277 163.555L92.7105 114.046L52.1266 111.824L55.6985 83.0957L51.2264 83.4979Z" fill="#3A3D3E"/>
<path d="M88.0184 164.034H87.9609C83.0292 162.913 39.7544 153.088 39.1223 152.868C38.6052 152.695 38.3371 152.609 40.3289 132.432C41.2865 122.655 42.3495 112.772 42.3687 112.667C42.3806 112.551 42.4352 112.444 42.5219 112.366C42.6087 112.288 42.7213 112.245 42.8379 112.246H47.3196L50.8436 83.45C50.8545 83.3429 50.9026 83.243 50.9796 83.1678C51.0566 83.0925 51.1576 83.0467 51.2649 83.0383L55.7274 82.5882C55.7993 82.5829 55.8715 82.5929 55.9392 82.6177C56.0069 82.6425 56.0686 82.6814 56.1201 82.7318C56.1682 82.7842 56.2042 82.8465 56.2257 82.9144C56.2472 82.9822 56.2537 83.0539 56.2446 83.1244L52.7397 111.384L92.8161 113.586C92.8803 113.588 92.9435 113.603 93.0013 113.631C93.0591 113.659 93.1102 113.7 93.1512 113.749C93.1931 113.797 93.2248 113.854 93.2445 113.915C93.2643 113.975 93.2716 114.04 93.2661 114.103L88.5834 163.612C88.577 163.679 88.5567 163.743 88.5237 163.801C88.4906 163.858 88.4457 163.908 88.3919 163.947C88.3398 163.988 88.2793 164.017 88.2147 164.032C88.1502 164.047 88.0831 164.048 88.0184 164.034ZM39.5916 152.016C42.6751 152.763 71.6239 159.341 87.597 162.971L92.184 114.458L52.0981 112.255C52.0324 112.254 51.9678 112.238 51.9084 112.21C51.849 112.182 51.7962 112.142 51.7533 112.092C51.7107 112.041 51.6793 111.981 51.6611 111.917C51.643 111.853 51.6385 111.785 51.648 111.719L55.1433 83.5554L51.6576 83.9001L48.1335 112.734C48.1196 112.849 48.0644 112.955 47.9781 113.033C47.8918 113.11 47.7803 113.154 47.6643 113.155H43.1826C41.6217 127.797 39.4575 149.363 39.5916 152.016Z" fill="#3A3D3E"/>
<path d="M31.5188 133.936C31.5188 133.936 32.7924 126.122 31.8348 124.053C30.8772 121.985 21.1478 120.385 15.0956 121.659C9.04344 122.933 1.21969 126.763 0.731308 128.994C0.242922 131.226 2.33053 131.072 5.35661 131.388C8.38269 131.704 14.4444 132.03 16.6757 132.825C18.3441 133.602 19.8168 134.744 20.9849 136.167C20.9849 136.167 24.6622 130.737 31.5188 133.936Z" fill="white"/>
<path d="M20.9945 136.646C20.9234 136.647 20.853 136.631 20.7884 136.602C20.7238 136.572 20.6666 136.528 20.6211 136.473C19.5106 135.115 18.1102 134.022 16.5225 133.275C14.8945 132.691 11.0545 132.317 7.96135 132.107C7.00373 132.02 6.0461 131.944 5.31831 131.867L4.18833 131.752C2.41673 131.599 1.13352 131.484 0.520645 130.661C0.35188 130.403 0.242046 130.112 0.199003 129.807C0.155961 129.503 0.180765 129.192 0.271655 128.899C0.817498 126.342 8.95727 122.463 14.9903 121.19C21.0233 119.916 31.1549 121.439 32.2274 123.852C33.185 125.997 32.0742 133.198 31.9401 134.012C31.9294 134.087 31.9012 134.158 31.858 134.219C31.8147 134.281 31.7576 134.331 31.6912 134.367C31.6252 134.397 31.5533 134.413 31.4805 134.413C31.4077 134.413 31.3358 134.397 31.2698 134.367C24.8729 131.388 21.4829 136.224 21.3393 136.435C21.2983 136.497 21.2429 136.547 21.1777 136.582C21.1126 136.617 21.0398 136.636 20.9658 136.636L20.9945 136.646ZM20.1231 121.669C18.4651 121.652 16.8096 121.803 15.1818 122.119C8.68913 123.488 1.57402 127.328 1.20055 129.09C1.14872 129.247 1.12879 129.412 1.14195 129.577C1.15511 129.741 1.20108 129.901 1.27716 130.048C1.64105 130.536 2.85724 130.641 4.26494 130.766L5.40449 130.871L8.03795 131.111C11.1789 131.379 15.086 131.704 16.8385 132.336C18.4251 133.034 19.8354 134.078 20.9658 135.391C22.1924 133.973 23.848 132.993 25.6816 132.601C27.5152 132.209 29.4267 132.425 31.1261 133.217C31.4996 130.737 32.0838 125.671 31.3943 124.216C30.8197 122.99 25.4187 121.669 20.1231 121.669Z" fill="#3A3D3E"/>
<path d="M28.4831 125.327C29.8813 125.892 31.1453 126.284 32.1891 126.667C32.2404 125.781 32.1201 124.894 31.8348 124.053C30.8772 121.975 21.1478 120.385 15.0956 121.659C9.04346 122.933 1.21972 126.763 0.73133 128.994C0.520654 129.952 0.798354 130.488 1.43996 130.795C3.14547 128.482 5.51316 126.742 8.22949 125.805C14.454 123.411 24.4994 123.737 28.4831 125.327Z" fill="white"/>
<path d="M1.43997 131.273C1.3704 131.271 1.30201 131.255 1.23888 131.226C0.825178 131.019 0.500302 130.669 0.32428 130.241C0.148258 129.814 0.132983 129.337 0.281262 128.899C0.827105 126.342 8.96686 122.463 14.9999 121.19C21.0329 119.916 31.1645 121.439 32.237 123.852C32.5471 124.753 32.6804 125.706 32.6296 126.658C32.6323 126.734 32.6163 126.809 32.5832 126.878C32.5501 126.947 32.5007 127.006 32.4394 127.051C32.3782 127.097 32.3068 127.126 32.2315 127.138C32.1562 127.149 32.0792 127.142 32.0072 127.117C30.7623 126.715 29.4982 126.265 28.2725 125.777C24.5952 124.302 14.6072 123.861 8.37314 126.256C5.75006 127.151 3.4598 128.821 1.80387 131.044C1.76427 131.107 1.71101 131.16 1.64803 131.2C1.58506 131.24 1.51396 131.265 1.43997 131.273ZM20.1231 121.697C18.4661 121.671 16.8106 121.812 15.1818 122.119C8.68916 123.488 1.57404 127.328 1.20057 129.09C1.1354 129.261 1.11185 129.444 1.13183 129.626C1.15182 129.807 1.21478 129.982 1.31549 130.134C3.06269 127.947 5.3836 126.289 8.01883 125.346C14.1667 122.98 24.2983 123.153 28.6172 124.877C29.5748 125.269 30.6378 125.643 31.6433 125.987C31.6564 125.394 31.559 124.803 31.356 124.245C30.8197 122.99 25.4188 121.669 20.1231 121.669V121.697Z" fill="#3A3D3E"/>
<path d="M50.6136 128.994C50.6136 128.994 45.9883 139.04 45.5095 144.623C45.0307 150.206 44.2359 156.421 44.2359 156.421L41.8418 168.228C41.8418 168.228 32.438 138.542 31.9592 136.014C31.8458 134.963 31.3972 133.977 30.6798 133.201C29.9623 132.424 29.0141 131.9 27.9755 131.704C25.8974 131.226 21.4349 131.551 20.6401 133.141C20.4169 133.627 20.3285 134.165 20.3841 134.697C20.4397 135.23 20.6372 135.737 20.9561 136.167C20.9561 136.167 20.1613 136.493 20.7933 138.408C21.3465 139.774 22.1595 141.019 23.1874 142.075C23.1874 142.075 29.0863 173.801 30.8483 180.984C32.6104 188.166 43.4506 201.237 45.0402 199.954C46.6299 198.671 70.896 161.209 71.3556 160.893C71.8153 160.577 75.1861 155.463 75.1861 155.463C75.1861 155.463 78.059 178.906 80.6062 188.319C83.1535 197.732 85.8636 209.205 85.8636 209.205C85.8636 209.205 83.1535 216.54 83.4695 222.439C83.7855 228.338 89.5313 246.676 89.5313 246.676C89.5313 246.676 88.4204 248.275 88.5736 248.917C88.7269 249.559 89.0524 250.507 89.0524 250.507C89.7845 250.682 90.5316 250.788 91.2837 250.823C92.7184 250.803 94.1323 250.477 95.4302 249.865L97.3454 249.233C97.5892 247.647 97.7491 246.048 97.8242 244.445C97.8242 242.855 100.697 207.289 100.86 204.225C101.023 201.161 105.16 177.115 103.407 165.154C101.655 153.193 99.0979 140.122 99.0979 140.122L99.2606 134.223L52.2224 126.725L50.6136 128.994Z" fill="#3A3D3E"/>
<path d="M91.6764 251.321H91.2742C90.4831 251.28 89.6975 251.164 88.9281 250.976C88.8586 250.954 88.7954 250.915 88.7437 250.863C88.6921 250.812 88.6535 250.749 88.6312 250.679C88.6312 250.679 88.3056 249.721 88.1428 249.051C87.98 248.381 88.6312 247.232 89.0334 246.619C88.3535 244.426 83.2877 228.098 83.0291 222.487C82.7706 216.875 85.0114 210.267 85.3944 209.195C85.0784 207.864 82.5216 197.196 80.1658 188.463C77.9824 180.399 75.5405 161.869 74.8989 156.861C73.9329 158.41 72.8576 159.889 71.6813 161.285C71.4132 161.601 67.6881 167.251 63.7522 173.236C53.9558 188.108 46.381 199.542 45.4043 200.327C45.2526 200.438 45.074 200.506 44.8871 200.525C44.7002 200.543 44.5118 200.512 44.3413 200.433C41.2865 199.389 32.0742 187.773 30.4462 181.098C28.7704 174.232 23.2449 144.623 22.7853 142.305C21.7452 141.224 20.9284 139.948 20.3817 138.551C19.9316 137.201 20.1231 136.473 20.3817 136.1C20.0993 135.624 19.9392 135.085 19.9158 134.532C19.8924 133.979 20.0064 133.428 20.2476 132.93C21.2052 131.015 25.9933 130.737 28.1192 131.235C29.246 131.459 30.2732 132.034 31.0541 132.876C31.8349 133.719 32.3294 134.787 32.4668 135.928C32.869 138.063 39.7543 159.868 41.7845 166.313L43.805 156.325C43.805 156.325 44.5999 150.091 45.0691 144.584C45.5383 139.078 50.0296 129.205 50.2211 128.793C50.2211 128.793 50.2211 128.745 50.2211 128.717L51.8203 126.485C51.8702 126.41 51.9417 126.351 52.0254 126.317C52.1091 126.283 52.2011 126.275 52.2895 126.294L99.3278 133.782C99.4428 133.801 99.547 133.861 99.6211 133.951C99.6951 134.041 99.7338 134.154 99.73 134.271L99.5768 140.122C99.7492 141.032 102.191 153.672 103.867 165.125C105.265 174.596 102.976 191.642 101.875 199.829C101.578 202.051 101.358 203.66 101.329 204.292C101.253 205.623 100.649 213.351 100.017 221.529C99.2129 231.852 98.2936 243.554 98.2936 244.435C98.2205 246.061 98.0607 247.682 97.8148 249.29C97.8013 249.378 97.7638 249.461 97.7063 249.528C97.6488 249.596 97.5736 249.646 97.4892 249.674L95.5739 250.315C94.3476 250.887 93.0264 251.228 91.6764 251.321ZM89.4547 250.104C90.0883 250.221 90.7276 250.304 91.37 250.353C92.7209 250.304 94.0473 249.978 95.2675 249.396L96.9529 248.831C97.1755 247.365 97.3194 245.888 97.3838 244.407C97.3838 243.497 98.2649 232.274 99.1076 221.424C99.7492 213.246 100.343 205.527 100.419 204.187C100.419 203.526 100.668 201.898 100.975 199.657C102.067 191.508 104.346 174.558 102.976 165.183C101.243 153.375 98.6958 140.285 98.667 140.17C98.6383 140.055 98.667 140.103 98.667 140.064L98.8203 134.587L52.4811 127.204L51.0925 129.119C50.7669 129.827 46.4959 139.289 46.0459 144.546C45.5766 150.072 44.7722 156.306 44.7722 156.373L42.3686 168.209C42.3749 168.336 42.3306 168.46 42.2453 168.554C42.16 168.649 42.0407 168.705 41.9137 168.712C41.7867 168.718 41.6624 168.674 41.5681 168.588C41.4739 168.503 41.4173 168.384 41.411 168.257C41.0279 167.041 31.988 138.571 31.5092 135.985C31.4109 135.026 31.0039 134.125 30.3494 133.417C29.6949 132.708 28.8283 132.232 27.8798 132.059C25.8401 131.59 21.7032 131.992 21.0807 133.237C20.8991 133.644 20.8283 134.093 20.8754 134.537C20.9225 134.981 21.0858 135.404 21.3489 135.765C21.3962 135.823 21.429 135.891 21.4446 135.964C21.4601 136.037 21.458 136.113 21.4383 136.185C21.4186 136.257 21.382 136.324 21.3315 136.379C21.2809 136.434 21.2179 136.476 21.1478 136.502C21.0807 136.56 20.8892 137 21.2722 138.14C21.8003 139.432 22.5706 140.612 23.5418 141.616C23.6084 141.685 23.6547 141.771 23.6759 141.865C23.7333 142.19 29.594 173.667 31.3368 180.754C33.0797 187.84 43.2209 199.753 44.8009 199.446C45.7586 198.69 56.0626 182.985 62.9095 172.633C70.2162 161.553 70.8961 160.557 71.1068 160.414C71.3174 160.27 73.2327 157.541 74.8032 155.128C74.8552 155.044 74.9325 154.98 75.0238 154.944C75.1152 154.908 75.2157 154.902 75.3107 154.927C75.4055 154.948 75.4915 154.998 75.5567 155.07C75.6218 155.142 75.6631 155.232 75.6746 155.329C75.6746 155.568 78.5475 178.848 81.0852 188.118C83.6228 197.388 86.3233 208.908 86.3521 209.023C86.3806 209.11 86.3806 209.204 86.3521 209.291C86.3521 209.367 83.6803 216.607 83.9867 222.343C84.2932 228.079 89.9719 246.284 90.0293 246.456C90.0522 246.526 90.0581 246.601 90.0464 246.675C90.0348 246.748 90.006 246.817 89.9623 246.877C89.5323 247.419 89.231 248.051 89.0813 248.725C89.177 249.214 89.3494 249.779 89.4547 250.104Z" fill="#3A3D3E"/>
<path d="M41.7269 169.655C40.348 175.533 39.388 181.501 38.854 187.514L41.7269 169.655Z" fill="white"/>
<path d="M38.854 187.993C38.7907 187.991 38.7285 187.976 38.6711 187.949C38.6138 187.922 38.5626 187.883 38.5205 187.836C38.4784 187.788 38.4464 187.733 38.4264 187.673C38.4064 187.613 38.3987 187.549 38.4039 187.486C38.9377 181.447 39.8977 175.453 41.2768 169.55C41.2913 169.487 41.318 169.427 41.3554 169.375C41.3928 169.322 41.4402 169.277 41.4949 169.243C41.5496 169.209 41.6105 169.186 41.6741 169.175C41.7377 169.164 41.8029 169.166 41.8657 169.181C41.9286 169.195 41.988 169.222 42.0406 169.259C42.0931 169.297 42.1378 169.344 42.172 169.399C42.2063 169.454 42.2294 169.515 42.2401 169.578C42.2508 169.642 42.2489 169.707 42.2344 169.77C40.8629 175.623 39.903 181.565 39.3616 187.553C39.3517 187.678 39.293 187.795 39.198 187.877C39.1031 187.959 38.9795 188.001 38.854 187.993Z" fill="#3A3D3E"/>
<path d="M62.9287 52.2891C62.9287 52.2891 53.6877 62.1813 50.1732 65.533C46.6587 68.8846 24.1834 98.092 23.8674 98.8581C23.5514 99.6242 23.2258 107.946 30.0823 106.193C36.9389 104.441 52.2512 89.7703 52.2512 89.7703C52.2512 89.7703 60.6974 94.07 62.4499 96.6269C63.148 97.7016 63.5845 98.925 63.7242 100.199C63.8639 101.473 63.7029 102.762 63.2543 103.962C62.6127 106.031 51.1308 126.284 50.652 128.994C50.652 128.994 55.4401 138.408 73.1369 138.887C90.8337 139.365 98.8107 135.698 99.2895 134.261C99.6146 132.903 99.7754 131.511 99.7683 130.115C99.7683 130.115 100.563 108.588 100.084 99.9689C99.6055 91.3504 100.41 84.0246 98.0159 70.7903C95.6218 57.556 95.3058 55.4684 95.3058 55.4684C95.3058 55.4684 104.078 38.5664 110.771 25.4949C117.465 12.4234 118.902 5.07846 117.149 2.8472C115.397 0.61595 108.856 -0.0256549 104.556 6.67768C100.257 13.381 94.6642 27.0941 92.4329 30.1298C89.383 33.9847 85.782 37.3694 81.7459 40.1752C77.9154 42.7225 72.6581 45.4325 72.6581 45.4325C72.6581 45.4325 64.3651 49.1002 62.9287 52.2891Z" fill="white"/>
<path d="M76.2012 139.404C75.2436 139.404 74.1806 139.404 73.1272 139.404C55.3442 138.915 50.4317 129.646 50.2306 129.253C50.1977 129.153 50.1977 129.046 50.2306 128.946C50.5274 127.28 54.559 119.705 58.1309 113.031C60.4196 108.731 62.5934 104.661 62.8424 103.857C63.6755 101.137 63.4361 98.8676 62.105 96.9332C60.6207 94.7786 53.8886 91.1875 52.3756 90.3831C50.3072 92.3558 36.7473 105.035 30.245 106.663C27.9467 107.256 26.1464 106.845 24.9207 105.437C23.0054 103.273 23.197 99.356 23.4651 98.7336C23.8864 97.6898 46.5533 68.4249 49.8954 65.2169C53.2375 62.0089 61.8273 52.8636 62.5743 52.0592C64.1543 48.765 72.1504 45.1835 72.5143 45.0399C72.5143 45.0399 77.7717 42.3202 81.5351 39.8113C85.516 37.0376 89.0656 33.6913 92.0689 29.8807C93.8093 26.9571 95.3668 23.9284 96.7325 20.8121C98.9468 15.8908 101.431 11.0954 104.173 6.4478C106.347 3.04826 109.478 1.0181 112.792 0.864883C113.668 0.763975 114.556 0.866107 115.386 1.16336C116.216 1.46061 116.967 1.945 117.58 2.57902C119.715 5.28908 117.408 13.7353 111.25 25.7438C104.958 38.0397 96.723 53.9266 95.8611 55.5833C95.9664 56.2536 96.5027 59.4137 98.5424 70.7232C99.8612 77.9705 100.502 85.3248 100.458 92.691C100.458 95.1617 100.525 97.4791 100.659 99.9689C101.138 108.501 100.352 129.933 100.343 130.153C100.349 131.592 100.179 133.027 99.8352 134.424C99.1457 136.196 91.4369 139.404 76.2012 139.404ZM51.1594 128.87C51.8585 130.038 57.1733 137.919 73.1847 138.36C90.9485 138.848 98.5424 135.066 98.8776 134.06C99.181 132.751 99.332 131.411 99.3277 130.067C99.3277 129.827 100.123 108.444 99.6437 99.9498C99.5096 97.4599 99.4809 95.1138 99.4426 92.6335C99.4799 85.3379 98.8419 78.0545 97.5369 70.8764C95.1716 57.7858 94.8269 55.5545 94.8173 55.5545C94.8052 55.453 94.8217 55.3502 94.8652 55.2576C94.9609 55.0949 103.714 38.212 110.34 25.2842C117.264 11.753 118.202 4.98265 116.766 3.15359C116.243 2.64517 115.613 2.26006 114.922 2.02644C114.231 1.79282 113.497 1.7166 112.773 1.80335C109.814 1.93742 106.96 3.81436 104.949 6.94577C102.218 11.5524 99.7438 16.3062 97.5369 21.1856C95.5451 25.3704 93.8309 28.9902 92.7488 30.4074C89.6704 34.3097 86.0302 37.7338 81.9469 40.5678C78.1164 43.1055 72.8687 45.8347 72.8112 45.8634C72.7537 45.8921 64.6427 49.5024 63.302 52.4901C63.2826 52.5401 63.2533 52.5857 63.2159 52.6242C63.1201 52.72 53.9174 62.5547 50.4412 65.8777C46.9651 69.2006 24.8441 97.91 24.2312 99.0592C24.1067 99.4039 23.8481 102.938 25.5527 104.805C26.5103 105.887 27.985 106.184 29.9003 105.695C36.5557 104 51.6957 89.5404 51.8489 89.4159C51.9198 89.3469 52.0104 89.3016 52.1082 89.2862C52.2059 89.2707 52.306 89.2859 52.3948 89.3297C52.7491 89.5117 61.0133 93.7252 62.7849 96.3395C63.5256 97.4731 63.9887 98.7653 64.1368 100.111C64.2849 101.457 64.1137 102.819 63.6372 104.087C63.3787 104.939 61.6549 108.195 58.8491 113.433C55.6698 119.533 51.6478 127.07 51.1594 128.918V128.87Z" fill="#3A3D3E"/>
<path d="M99.2893 134.261C99.6144 132.903 99.7751 131.511 99.7681 130.115C99.7681 130.115 100.563 108.587 100.084 99.9689C99.6053 91.3503 100.41 84.0245 98.0156 70.7902C95.6216 57.5559 95.3056 55.4683 95.3056 55.4683C95.3056 55.4683 99.2701 47.8074 103.924 38.8249L94.7789 25.9066C94.1011 27.3649 93.3203 28.7729 92.4423 30.1201C89.3923 33.975 85.7913 37.3598 81.7552 40.1656C77.9248 42.7128 72.6675 45.4229 72.6675 45.4229C72.6675 45.4229 64.3745 49.0906 62.938 52.2795C62.938 52.2795 53.697 62.1716 50.1826 65.5233C47.9896 67.6109 38.4038 79.7823 31.4324 88.8126L46.6968 94.7977C49.9336 91.9823 52.2606 89.7607 52.2606 89.7607C52.2606 89.7607 60.7068 94.0604 62.4592 96.6172C63.1574 97.6919 63.5939 98.9153 63.7336 100.189C63.8732 101.463 63.7123 102.752 63.2636 103.953C62.622 106.021 51.1402 126.275 50.6614 128.985C50.6614 128.985 55.4495 138.398 73.1463 138.877C90.8431 139.356 98.8104 135.698 99.2893 134.261Z" fill="#DD7F34"/>
<path d="M76.2015 139.404C75.2439 139.404 74.1809 139.404 73.1276 139.404C55.3446 138.915 50.432 129.646 50.2309 129.253C50.198 129.153 50.198 129.046 50.2309 128.946C50.5277 127.28 54.5593 119.705 58.1312 113.031C60.4199 108.731 62.5937 104.661 62.8427 103.857C63.6758 101.137 63.4364 98.8677 62.1053 96.9333C60.621 94.7786 53.889 91.1876 52.3759 90.3832C51.696 91.0343 49.6563 92.94 47.0516 95.1713C46.9858 95.2288 46.9055 95.2673 46.8194 95.2825C46.7333 95.2977 46.6447 95.289 46.5632 95.2574L31.2892 89.2723C31.2205 89.2421 31.1593 89.1974 31.1097 89.1412C31.0601 89.0849 31.0233 89.0186 31.0019 88.9467C30.9824 88.8762 30.9801 88.802 30.9951 88.7304C31.0101 88.6588 31.042 88.5918 31.0881 88.535C36.9583 80.874 47.5304 67.4673 49.8957 65.1786C53.2186 62.0089 61.8276 52.8253 62.5746 52.0209C64.1547 48.7267 72.1508 45.1452 72.5147 45.0016C72.5147 45.0016 77.772 42.2819 81.5354 39.773C85.5164 36.9993 89.0659 33.6531 92.0693 29.8425C92.9334 28.522 93.6984 27.1393 94.358 25.7056C94.3951 25.6311 94.4507 25.5674 94.5194 25.5205C94.5882 25.4736 94.6677 25.445 94.7506 25.4374C94.8334 25.4332 94.9159 25.4493 94.9911 25.4844C95.0662 25.5194 95.1316 25.5724 95.1815 25.6385L104.327 38.5568C104.371 38.6322 104.395 38.7182 104.395 38.8058C104.395 38.8934 104.371 38.9794 104.327 39.0548C100.056 47.3382 96.3498 54.482 95.7944 55.5641C95.8997 56.2345 96.436 59.3946 98.4757 70.7041C99.7945 77.9514 100.436 85.3057 100.391 92.6719C100.391 95.1425 100.458 97.46 100.592 99.9498C101.071 108.482 100.286 129.914 100.276 130.134C100.283 131.573 100.112 133.007 99.7685 134.405C99.146 136.196 91.4372 139.404 76.2015 139.404ZM51.1598 128.87C51.8588 130.038 57.1736 137.919 73.185 138.36C90.9393 138.839 98.5427 135.066 98.8779 134.06C99.1813 132.751 99.3324 131.411 99.328 130.067C99.328 129.827 100.123 108.444 99.644 99.9498C99.51 97.46 99.4812 95.1138 99.4429 92.6336C99.4802 85.338 98.8423 78.0545 97.5373 70.8765C95.1719 57.7858 94.8272 55.5546 94.8176 55.5546C94.8055 55.4531 94.822 55.3502 94.8655 55.2577C94.8655 55.2577 98.763 47.75 103.34 38.8728L94.8272 26.8451C94.2448 28.082 93.5693 29.2728 92.8066 30.4075C89.7282 34.3098 86.0879 37.7338 82.0047 40.5678C78.1742 43.1055 72.9264 45.8347 72.869 45.8634C72.8115 45.8922 64.7005 49.5024 63.3598 52.4902C63.3403 52.5402 63.311 52.5857 63.2736 52.6242C63.1779 52.72 53.9752 62.5548 50.499 65.8777C48.4976 67.7929 39.9652 78.5757 32.1797 88.6116L46.544 94.2519C49.6276 91.5706 51.8492 89.4638 51.8684 89.4638C51.9393 89.3948 52.0299 89.3495 52.1276 89.3341C52.2254 89.3186 52.3255 89.3339 52.4142 89.3777C52.7686 89.5596 61.0328 93.7731 62.8044 96.3874C63.5451 97.521 64.0082 98.8132 64.1563 100.159C64.3044 101.505 64.1332 102.867 63.6567 104.135C63.3981 104.987 61.6744 108.243 58.8686 113.481C55.6701 119.533 51.6482 127.07 51.1598 128.918V128.87Z" fill="#3A3D3E"/>
<path d="M52.2513 90.249C52.1654 90.2483 52.0812 90.2248 52.0072 90.1811C51.9332 90.1374 51.8721 90.075 51.83 90.0001C51.7724 89.9019 51.7532 89.7859 51.7762 89.6745C51.7992 89.563 51.8627 89.4641 51.9545 89.3968L58.9642 83.8138C59.0641 83.7474 59.1853 83.7209 59.3038 83.7396C59.4223 83.7583 59.5295 83.8207 59.6041 83.9146C59.6788 84.0085 59.7154 84.127 59.7069 84.2467C59.6983 84.3663 59.6452 84.4784 59.558 84.5608L54.7699 88.3912L63.5991 85.3269C63.7198 85.285 63.8521 85.2927 63.967 85.3484C64.082 85.404 64.1701 85.5031 64.212 85.6237C64.2539 85.7444 64.2462 85.8767 64.1905 85.9916C64.1348 86.1066 64.0358 86.1947 63.9151 86.2366L52.4237 90.2203C52.3688 90.2416 52.3102 90.2513 52.2513 90.249Z" fill="#3A3D3E"/>
<path d="M95.3058 55.9567C95.1854 55.952 95.0712 55.902 94.986 55.8168C94.9008 55.7316 94.8509 55.6174 94.8462 55.497L94.3673 41.9467C94.3648 41.8839 94.3746 41.8211 94.3964 41.762C94.4181 41.7029 94.4512 41.6487 94.4939 41.6025C94.5366 41.5562 94.588 41.5188 94.6451 41.4925C94.7023 41.4661 94.7641 41.4512 94.827 41.4488C94.9534 41.4461 95.0758 41.4925 95.1687 41.5782C95.2615 41.6639 95.3176 41.7823 95.325 41.9084L95.574 49.0523L96.7614 38.6813C96.7689 38.6184 96.7888 38.5576 96.8198 38.5024C96.8508 38.4472 96.8925 38.3987 96.9423 38.3595C96.9921 38.3204 97.0491 38.2915 97.11 38.2744C97.171 38.2573 97.2348 38.2524 97.2977 38.2599C97.3605 38.2674 97.4213 38.2873 97.4765 38.3184C97.5317 38.3494 97.5803 38.391 97.6194 38.4408C97.6585 38.4906 97.6875 38.5476 97.7045 38.6086C97.7216 38.6696 97.7266 38.7333 97.719 38.7962L95.8038 55.5354C95.7916 55.6565 95.7329 55.7681 95.64 55.8467C95.5471 55.9253 95.4273 55.9648 95.3058 55.9567Z" fill="#3A3D3E"/>
<path d="M117.647 8.10449C117.647 8.10449 118.394 4.50384 117.187 2.85673C115.981 1.20963 112.083 0.740396 107.276 2.69394C102.469 4.64748 78.2602 16.3783 76.0002 18.6287C73.7402 20.8791 68.186 28.406 68.186 28.406L77.5037 36.3734C78.4766 34.5978 79.2813 32.7351 79.9073 30.8096C80.5106 28.5497 79.4572 22.1911 79.4572 22.1911C79.4572 22.1911 95.5452 16.3304 99.7587 16.3304C103.972 16.3304 112.687 12.7202 114.487 10.9199" fill="white"/>
<path d="M77.427 36.8905C77.315 36.8871 77.2072 36.8467 77.1206 36.7756L67.8508 28.7699C67.7576 28.6915 67.6978 28.5805 67.6836 28.4595C67.6693 28.3385 67.7018 28.2167 67.7742 28.1187C68.0041 27.8123 73.3859 20.544 75.6363 18.2936C78.0399 15.89 102.584 4.07294 107.065 2.25346C112.236 0.146699 116.258 0.826605 117.542 2.57905C118.825 4.33149 118.116 8.04706 118.088 8.20985C118.061 8.33684 117.985 8.44803 117.876 8.51897C117.768 8.58991 117.635 8.61478 117.508 8.58811C117.381 8.56144 117.27 8.48542 117.199 8.37677C117.128 8.26812 117.103 8.13574 117.13 8.00875C117.321 7.05113 117.637 4.34107 116.756 3.14405C115.713 1.72677 112.074 1.22881 107.4 3.14405C102.287 5.22208 78.4517 16.8093 76.297 18.9735C74.3818 20.8887 69.9193 26.8068 68.7893 28.3294L77.3121 35.6169C78.1574 34.0403 78.8562 32.3895 79.3997 30.6852C79.9647 28.5593 78.9496 22.3826 78.94 22.3156C78.922 22.2059 78.9428 22.0933 78.9987 21.9972C79.0546 21.9011 79.1422 21.8274 79.2465 21.7889C79.9072 21.5495 95.459 15.8995 99.7108 15.8995C103.809 15.8995 112.361 12.3659 114.075 10.6231C114.165 10.5353 114.285 10.4862 114.41 10.4862C114.536 10.4862 114.656 10.5353 114.745 10.6231C114.79 10.6676 114.826 10.7205 114.85 10.7789C114.875 10.8372 114.887 10.8998 114.887 10.963C114.887 11.0262 114.875 11.0888 114.85 11.1471C114.826 11.2055 114.79 11.2584 114.745 11.303C112.83 13.2182 104.058 16.8572 99.6821 16.8572C95.9474 16.8572 82.3492 21.6452 79.9168 22.555C80.1467 23.9914 80.8744 28.9136 80.2999 30.9342C79.6598 32.8956 78.8391 34.7934 77.8484 36.6033C77.8133 36.6652 77.7651 36.7187 77.7073 36.76C77.6494 36.8014 77.5831 36.8296 77.5132 36.8427L77.427 36.8905Z" fill="#3A3D3E"/>
<path d="M57.6619 50.4026C57.6619 50.4026 61.7509 54.3575 62.7085 55.9855C63.9782 57.7071 65.7377 59.0056 67.7572 59.7113C69.7766 60.4169 71.962 60.4968 74.0276 59.9405C79.8882 58.3029 77.159 50.1249 76.7472 49.7227C76.3354 49.3205 70.2067 52.8541 66.3858 52.3082C63.4465 51.8262 60.5345 51.1901 57.6619 50.4026Z" fill="white"/>
<path d="M71.2216 60.8309C69.4803 60.8154 67.7667 60.3935 66.2172 59.5988C64.6677 58.8041 63.3252 57.6586 62.2966 56.2535C61.3868 54.6926 57.3744 50.8047 57.3361 50.7664C57.2552 50.6935 57.2014 50.5952 57.1839 50.4877C57.1663 50.3802 57.1859 50.2699 57.2395 50.175C57.2931 50.0802 57.3774 50.0064 57.4785 49.9659C57.5796 49.9255 57.6916 49.9207 57.7958 49.9524C60.6471 50.7498 63.5404 51.3892 66.4622 51.8676C68.8371 52.2124 72.342 50.8047 74.4392 49.9524C76.1916 49.2437 76.7279 48.9948 77.0918 49.397C78.1723 51.621 78.4758 54.1431 77.9536 56.56C77.7308 57.4897 77.255 58.3397 76.579 59.0157C75.9029 59.6918 75.0529 60.1676 74.1232 60.3904C73.1805 60.6686 72.2043 60.8168 71.2216 60.8309ZM59.2322 51.3122C60.6406 52.6712 61.9226 54.1552 63.0627 55.746C64.2856 57.3667 65.9629 58.5871 67.8812 59.2521C69.7995 59.9171 71.8722 59.9967 73.8359 59.4807C74.5205 59.3174 75.153 58.9844 75.6751 58.5125C76.1972 58.0406 76.5922 57.4449 76.8237 56.7802C77.7238 54.3 76.7662 51.0345 76.4119 50.1918C76.0672 50.2876 75.3681 50.5653 74.7361 50.8142C72.409 51.7719 68.8946 53.1604 66.2611 52.7869C63.915 52.4422 61.0517 51.7623 59.2322 51.3122Z" fill="#3A3D3E"/>
<path d="M45.5288 24.9011C45.5288 24.9011 43.2114 32.1311 40.7407 33.7687C38.2701 35.4062 28.8758 29.6796 20.5637 31.9971C12.2515 34.3145 10.3363 42.5309 10.614 44.676C10.7284 45.8776 11.1008 47.0405 11.7057 48.0851C11.8383 46.1894 12.4477 44.358 13.4773 42.7607C14.6652 41.2332 16.2065 40.0173 17.9685 39.2175C17.9685 39.2175 10.7481 48.899 15.7947 55.4396C17.1639 57.2862 18.9876 58.747 21.0885 59.68C23.1895 60.613 25.4961 60.9864 27.7841 60.764C27.3819 60.764 25.0645 58.9924 25.4667 57.2208C25.8689 55.4492 28.7418 53.2658 28.7418 53.2658C28.7418 53.2658 26.9702 59.0115 29.4217 60.764C31.8732 62.5164 40.9131 66.7587 47.9612 64.4412C55.0092 62.1238 60.7837 51.9922 59.2802 48.6309C57.7768 45.2697 51.9161 36.1819 53.9654 32.9451C55.1365 31.1866 55.8839 29.1805 56.1488 27.0845C56.1488 27.0845 54.3772 23.5413 50.9681 23.1295C49.9869 23.0053 48.9904 23.0997 48.05 23.406C47.1096 23.7123 46.2486 24.2228 45.5288 24.9011Z" fill="#3A3D3E"/>
<path d="M43.4603 65.6192C38.3828 65.4443 33.4452 63.9098 29.163 61.1758C27.2478 59.816 27.5734 56.5409 27.9469 54.6257C27.0668 55.3562 26.3823 56.294 25.955 57.3549C25.639 58.7051 27.4489 60.2278 27.8702 60.314C27.9736 60.3153 28.073 60.3538 28.1503 60.4224C28.2277 60.4909 28.2778 60.585 28.2916 60.6874C28.3146 60.794 28.3006 60.9052 28.2519 61.0027C28.2031 61.1002 28.1225 61.1782 28.0235 61.2237C27.5064 61.4727 20.3625 62.1143 15.4308 55.7653C11.4471 50.5941 14.6551 43.7376 16.5225 40.6157C15.5022 41.2686 14.6071 42.0989 13.8794 43.0672C12.9106 44.592 12.3318 46.3318 12.194 48.133C12.1915 48.2337 12.1565 48.3309 12.0945 48.4103C12.0324 48.4896 11.9464 48.5468 11.8493 48.5735C11.7566 48.5946 11.6598 48.5877 11.5712 48.5536C11.4825 48.5195 11.4059 48.4597 11.3513 48.382C10.7054 47.2772 10.3068 46.0455 10.183 44.7718C9.90531 42.5693 11.7056 34.0177 20.487 31.5758C25.4666 30.1777 30.8772 31.6237 34.8513 32.6771C37.456 33.3665 39.6968 33.9698 40.5395 33.4048C42.4548 32.1408 44.4945 26.759 45.1265 24.7863C45.1483 24.7188 45.1842 24.6568 45.2319 24.6043C46.0045 23.8688 46.9316 23.3152 47.9456 22.9839C48.9595 22.6525 50.0347 22.5518 51.0925 22.6891C54.7123 23.12 56.5605 26.7494 56.6371 26.9026C56.6753 26.9766 56.695 27.0588 56.6946 27.142C56.425 29.3203 55.6512 31.4056 54.4346 33.2325C52.9982 35.5403 56.1583 41.5063 58.2651 45.4517C58.9067 46.6487 59.4525 47.6925 59.7973 48.4682C60.3623 49.7418 60.075 51.7911 58.9833 54.2139C57.1734 58.2646 53.0269 63.3305 48.1909 64.9201C46.6612 65.4029 45.0643 65.6389 43.4603 65.6192ZM28.7608 52.7871C28.8599 52.7875 28.9566 52.8175 29.0385 52.8732C29.1212 52.9301 29.1834 53.0119 29.2162 53.1067C29.2489 53.2014 29.2504 53.3042 29.2205 53.3999C28.7513 54.9034 27.9469 59.0882 29.728 60.3714C32.1508 62.1239 40.9513 66.232 47.8366 63.9912C52.3949 62.4973 56.3307 57.6613 58.0544 53.8021C59.012 51.6858 59.2993 49.8184 58.8588 48.8225C58.5332 48.0756 57.9874 47.0509 57.3649 45.8731C55.0283 41.4776 51.8395 35.4733 53.5344 32.6962C54.627 31.0358 55.3428 29.1564 55.6316 27.1899C55.306 26.6057 53.6589 23.9436 50.8914 23.6084C49.9985 23.4908 49.0908 23.5686 48.231 23.8364C47.3712 24.1043 46.5798 24.5558 45.9118 25.1597C45.5958 26.1174 43.4028 32.5526 40.9896 34.1614C39.783 34.9658 37.5805 34.372 34.5161 33.5581C30.4558 32.4855 25.4092 31.1353 20.6689 32.4568C12.6058 34.7072 10.8246 42.6746 11.0928 44.6186C11.1668 45.21 11.295 45.7934 11.4758 46.3614C11.7588 44.9908 12.3087 43.6893 13.0942 42.531C14.3356 40.928 15.9496 39.6526 17.7961 38.8154C17.8932 38.7725 18.0018 38.7631 18.1049 38.7887C18.2079 38.8143 18.2995 38.8734 18.3653 38.9567C18.4311 39.04 18.4673 39.1429 18.4683 39.249C18.4693 39.3552 18.4349 39.4587 18.3707 39.5432C18.2941 39.639 11.4183 49.014 16.1777 55.1907C17.3678 56.7724 18.9016 58.0631 20.6633 58.9655C22.425 59.8679 24.3687 60.3585 26.3476 60.4001C26.1586 60.2151 25.9796 60.0201 25.8114 59.816C25.4822 59.4619 25.2392 59.0365 25.1013 58.5731C24.9635 58.1097 24.9345 57.6207 25.0165 57.1442C25.457 55.229 28.3395 53.0169 28.464 52.9211C28.5427 52.8409 28.6486 52.7931 28.7608 52.7871Z" fill="#3A3D3E"/>
<path d="M77.9046 41.2844C79.234 40.4985 78.8826 37.444 77.1197 34.462C75.3568 31.4799 72.85 29.6996 71.5206 30.4855C70.1912 31.2713 70.5426 34.3259 72.3055 37.3079C74.0684 40.29 76.5752 42.0703 77.9046 41.2844Z" fill="white"/>
<path d="M77.1685 41.9468C75.5788 41.9468 73.4912 40.2614 71.8824 37.5513C71.0537 36.2 70.5065 34.6951 70.2736 33.1271C70.1012 31.6332 70.4556 30.5511 71.2312 30.0723C72.84 29.1147 75.531 30.8959 77.4941 34.2092C79.4572 37.5226 79.7157 40.7402 78.1069 41.6882C77.8216 41.8538 77.4984 41.9429 77.1685 41.9468ZM72.706 37.0629C74.4488 40.0028 76.7088 41.4297 77.6569 40.8934C78.6049 40.3571 78.4421 37.6662 76.6992 34.7263C74.9564 31.7864 72.706 30.3692 71.7579 30.8959C71.2983 31.164 71.0972 31.9397 71.2217 33.0122C71.441 34.448 71.9458 35.8253 72.706 37.0629Z" fill="#3A3D3E"/>
<path d="M53.3046 25.9929C53.3046 25.9929 48.1238 32.1025 48.6984 34.9753C49.273 37.8482 50.7382 37.4268 50.7382 38.8058C50.7382 40.1848 50.47 42.349 50.47 42.349C50.47 42.349 57.6905 50.01 59.6057 51.9252C61.5209 53.8404 73.0986 56.7133 76.3736 54.2426C79.6487 51.772 76.7758 40.836 75.5501 37.8865C74.3243 34.937 69.9671 28.3103 68.5977 26.5674C67.2283 24.8246 55.0762 22.5837 53.3046 25.9929Z" fill="white"/>
<path d="M72.0549 55.6407C67.2189 55.6407 60.7454 53.7255 59.2323 52.2412C57.3171 50.3259 50.1637 42.7607 50.0871 42.665C50.0397 42.614 50.0041 42.5533 49.9826 42.4872C49.9611 42.421 49.9543 42.351 49.9626 42.2819C49.9626 42.2819 50.2307 40.1081 50.2307 38.7962C50.2307 38.4323 50.1062 38.2982 49.7423 37.9631C48.8925 37.2277 48.3436 36.2049 48.2005 35.0902C47.6356 32.1407 52.2226 26.5482 52.9025 25.7343C53.4962 24.6522 54.9518 24.001 57.2118 23.819C61.3487 23.4551 67.8222 24.7766 68.9522 26.2801C70.1971 27.8985 74.6979 34.5252 75.9715 37.7045C77.1685 40.6444 80.2712 51.8964 76.6323 54.6256C75.2437 55.4177 73.6481 55.7715 72.0549 55.6407ZM50.9872 42.1862C52.0502 43.3066 58.2364 49.8471 59.9601 51.5613C61.8275 53.4765 73.0891 56.0908 76.1056 53.8308C79.1221 51.5708 76.3737 41.0849 75.148 38.0397C73.9701 35.1668 69.6799 28.6837 68.2627 26.8355C67.487 25.83 61.5593 24.3649 57.3554 24.7383C55.4401 24.9107 54.2048 25.4183 53.7931 26.2131L53.7356 26.3088C52.3375 27.9655 48.7943 32.744 49.2061 34.9274C49.3089 35.8492 49.7571 36.6978 50.4605 37.3023C50.7037 37.4777 50.9023 37.7077 51.0403 37.9738C51.1784 38.2399 51.252 38.5347 51.2554 38.8345C51.1883 39.9453 51.0064 41.5924 50.9393 42.1862H50.9872Z" fill="#3A3D3E"/>
<path d="M57.2595 40.3763C57.2057 40.3862 57.1506 40.3862 57.0967 40.3763C56.9772 40.3329 56.8793 40.2446 56.8239 40.1302C56.7684 40.0157 56.7598 39.8841 56.7999 39.7634C57.0917 38.9988 57.5592 38.3135 58.1647 37.7629C58.7702 37.2123 59.4968 36.8118 60.2856 36.5937C60.3485 36.5799 60.4135 36.5786 60.4769 36.5899C60.5402 36.6011 60.6008 36.6248 60.655 36.6595C60.7093 36.6942 60.7561 36.7392 60.793 36.792C60.8298 36.8448 60.8559 36.9043 60.8698 36.9672C60.8836 37.0301 60.8849 37.0951 60.8736 37.1584C60.8623 37.2218 60.8387 37.2824 60.804 37.3366C60.7693 37.3909 60.7243 37.4377 60.6715 37.4746C60.6187 37.5114 60.5592 37.5375 60.4963 37.5513C59.8676 37.7369 59.2897 38.0638 58.8067 38.5069C58.3238 38.9501 57.9485 39.4978 57.7096 40.1082C57.6688 40.1918 57.6044 40.2616 57.5245 40.3093C57.4446 40.3569 57.3525 40.3802 57.2595 40.3763Z" fill="#3A3D3E"/>
<path d="M54.6645 38.6047C54.5392 38.5997 54.4208 38.5457 54.3348 38.4544C54.2489 38.3631 54.2022 38.2417 54.2048 38.1163C54.235 36.9501 54.626 35.822 55.324 34.8873C56.0221 33.9526 56.9927 33.2574 58.1023 32.8973C58.1652 32.8803 58.2308 32.8759 58.2954 32.8842C58.36 32.8926 58.4223 32.9136 58.4788 32.9461C58.5352 32.9786 58.5847 33.0218 58.6245 33.0734C58.6642 33.125 58.6934 33.1839 58.7104 33.2468C58.7274 33.3097 58.7318 33.3753 58.7234 33.4399C58.7151 33.5045 58.694 33.5668 58.6616 33.6232C58.6291 33.6797 58.5859 33.7292 58.5343 33.769C58.4827 33.8087 58.4238 33.8379 58.3609 33.8549C57.4428 34.1525 56.6408 34.7298 56.0673 35.506C55.4937 36.2822 55.1773 37.2184 55.1624 38.1833C55.148 38.3035 55.0887 38.4137 54.9963 38.4919C54.9039 38.5701 54.7854 38.6104 54.6645 38.6047Z" fill="#3A3D3E"/>
<path d="M68.9808 40.2421C68.9143 40.2432 68.8482 40.23 68.7872 40.2036C68.7261 40.1772 68.6713 40.1381 68.6265 40.0889C68.5816 40.0444 68.546 39.9914 68.5217 39.9331C68.4974 39.8747 68.4849 39.8122 68.4849 39.7489C68.4849 39.6857 68.4974 39.6232 68.5217 39.5648C68.546 39.5065 68.5816 39.4535 68.6265 39.409C69.6799 38.4514 69.2298 37.7044 69.2298 37.7044C69.1951 37.6514 69.1714 37.5919 69.1603 37.5295C69.1492 37.4671 69.1509 37.4031 69.1652 37.3413C69.1795 37.2796 69.2062 37.2213 69.2436 37.1702C69.2811 37.119 69.3285 37.076 69.383 37.0437C69.4353 37.0091 69.4941 36.9857 69.5557 36.9747C69.6174 36.9637 69.6807 36.9654 69.7417 36.9797C69.8026 36.9941 69.8601 37.0208 69.9104 37.0581C69.9607 37.0954 70.0028 37.1427 70.0342 37.1969C70.2807 37.6942 70.3389 38.2639 70.1981 38.8007C70.0573 39.3376 69.7269 39.8053 69.2681 40.1176C69.1908 40.1929 69.0886 40.2372 68.9808 40.2421Z" fill="#3A3D3E"/>
<path d="M68.4446 47.7595C66.1271 47.7595 63.0149 44.9536 62.6989 44.6185C62.6192 44.5423 62.5682 44.441 62.5546 44.3316C62.5409 44.2222 62.5654 44.1115 62.624 44.0181C62.6825 43.9247 62.7714 43.8544 62.8758 43.8189C62.9802 43.7835 63.0936 43.7852 63.1969 43.8236C66.7496 45.2122 71.7292 42.3776 71.8154 42.3489C71.8926 42.2949 71.9846 42.266 72.0788 42.266C72.173 42.266 72.2649 42.2949 72.3421 42.3489C72.4181 42.4048 72.4759 42.4818 72.5083 42.5704C72.5406 42.659 72.5461 42.7552 72.5241 42.8469C72.3996 43.3065 71.2792 47.3955 68.8468 47.702L68.4446 47.7595ZM64.8344 45.1451C66.0505 46.0262 67.6019 46.9167 68.6648 46.7923C69.7278 46.6678 70.695 44.9919 71.1834 43.7183C69.209 44.6874 67.0336 45.1762 64.8344 45.1451Z" fill="#3A3D3E"/>
<path d="M68.1574 33.8357C68.04 33.8361 67.9269 33.7915 67.8413 33.7112C67.7536 33.6217 67.7045 33.5014 67.7045 33.3761C67.7045 33.2507 67.7536 33.1304 67.8413 33.0409C68.3203 32.5597 68.9121 32.206 69.5627 32.012C70.2134 31.818 70.9022 31.7898 71.5665 31.9301C71.6281 31.9426 71.6867 31.9672 71.7388 32.0024C71.7909 32.0376 71.8356 32.0827 71.8703 32.1352C71.9049 32.1877 71.9289 32.2464 71.9409 32.3082C71.9529 32.3699 71.9525 32.4334 71.9399 32.4951C71.9144 32.62 71.8411 32.7301 71.7355 32.8017C71.6299 32.8733 71.5005 32.9007 71.3749 32.8781C70.8743 32.7675 70.354 32.7832 69.8609 32.9236C69.3678 33.064 68.9173 33.3248 68.55 33.6825C68.5001 33.7357 68.439 33.7771 68.371 33.8036C68.3031 33.8302 68.2301 33.8411 68.1574 33.8357Z" fill="#3A3D3E"/>
<path d="M65.1601 30.8383C65.0975 30.838 65.0356 30.8251 64.978 30.8004C64.9204 30.7758 64.8684 30.7398 64.8249 30.6947C64.7803 30.651 64.7449 30.5989 64.7207 30.5413C64.6965 30.4838 64.6841 30.422 64.6841 30.3595C64.6841 30.2971 64.6965 30.2353 64.7207 30.1778C64.7449 30.1202 64.7803 30.0681 64.8249 30.0244C65.5526 29.3746 66.4551 28.9528 67.4204 28.8115C68.3857 28.6702 69.3712 28.8156 70.2546 29.2296C70.3718 29.2802 70.4644 29.3747 70.5127 29.4929C70.561 29.611 70.5612 29.7433 70.5132 29.8616C70.4644 29.978 70.3717 30.0705 70.2552 30.1189C70.1386 30.1674 70.0076 30.1678 69.8907 30.1201C69.1824 29.7816 68.3911 29.6558 67.6127 29.7577C66.8343 29.8597 66.1021 30.1852 65.5048 30.6947C65.4135 30.7864 65.2895 30.838 65.1601 30.8383Z" fill="#3A3D3E"/>
<path d="M50.0294 28.9997C50.0294 28.9997 54.2525 25.0448 59.6056 26.9504C64.9587 28.8561 69.1818 29.9478 71.0492 28.3102C72.9165 26.6727 72.6867 23.2732 71.7387 23.5221C70.7906 23.7711 70.5129 24.3457 69.6894 23.1104C68.8658 21.875 64.5086 18.3223 57.4223 17.9297C50.3359 17.537 45.4233 21.3388 45.5574 24.882C45.6914 28.4252 48.0089 28.9806 48.0089 28.9806" fill="#3A3D3E"/>
<path d="M68.3296 29.5839C66.0792 29.5839 63.0436 28.7029 59.4142 27.4005C54.4442 25.6193 50.3934 29.3157 50.3551 29.3157C50.3114 29.3603 50.2593 29.3958 50.2017 29.4199C50.1442 29.4441 50.0824 29.4566 50.02 29.4566C49.9575 29.4566 49.8957 29.4441 49.8382 29.4199C49.7806 29.3958 49.7285 29.3603 49.6848 29.3157C49.6399 29.2712 49.6043 29.2183 49.58 29.1599C49.5557 29.1016 49.5432 29.039 49.5432 28.9758C49.5432 28.9126 49.5557 28.85 49.58 28.7916C49.6043 28.7333 49.6399 28.6804 49.6848 28.6358C49.8667 28.4635 54.1856 24.5085 59.7111 26.4908C64.3555 28.157 68.8946 29.4881 70.695 27.9368C71.1042 27.5483 71.4273 27.0782 71.6434 26.5569C71.8595 26.0356 71.9638 25.4748 71.9494 24.9107C71.9699 24.5769 71.8934 24.2444 71.7292 23.9531C71.6065 24.035 71.4748 24.1025 71.3366 24.1542C70.6088 24.451 70.0438 24.566 69.2394 23.3689C68.435 22.1719 64.1544 18.7915 57.3457 18.3989C53.4004 18.1786 49.7614 19.299 47.6068 21.4154C47.1155 21.8487 46.7184 22.3783 46.4401 22.9713C46.1617 23.5643 46.008 24.208 45.9884 24.8628C46.1129 27.9655 47.9994 28.4826 48.076 28.5018C48.1977 28.5335 48.3024 28.611 48.3684 28.718C48.4344 28.825 48.4566 28.9534 48.4303 29.0763C48.4168 29.1379 48.3911 29.1961 48.3547 29.2475C48.3183 29.2988 48.2718 29.3424 48.2182 29.3754C48.1646 29.4085 48.1049 29.4304 48.0426 29.4399C47.9803 29.4494 47.9168 29.4463 47.8557 29.4307C47.7504 29.4307 45.184 28.7603 45.0308 24.8915C45.0435 24.1023 45.2204 23.3244 45.5501 22.6072C45.8798 21.8901 46.3552 21.2494 46.946 20.7259C49.2922 18.4276 53.1993 17.2019 57.4128 17.4508C64.4513 17.853 69.0383 21.2813 70.0533 22.8422C70.4747 23.4743 70.5034 23.4647 71.011 23.2636C71.2016 23.1827 71.3967 23.1123 71.5951 23.0529C71.8057 23.0085 72.0251 23.0363 72.218 23.1319C72.4108 23.2274 72.5659 23.3851 72.6581 23.5796C72.9557 24.4593 72.991 25.4066 72.7597 26.3061C72.5285 27.2055 72.0407 28.0183 71.3557 28.6454C70.4949 29.3162 69.4189 29.6499 68.3296 29.5839Z" fill="#3A3D3E"/>
<path d="M46.8598 45.5571C45.12 41.977 43.6725 38.2621 42.5314 34.4487C40.8939 28.7029 45.4043 23.5414 45.4043 23.5414C45.4043 23.5414 44.1785 26.9505 45.9501 33.1176C47.2871 37.3991 49.0182 41.5473 51.1212 45.5092L46.8598 45.5571Z" fill="white"/>
<path d="M46.8599 46.0357C46.7704 46.0348 46.6829 46.0093 46.6069 45.9621C46.5309 45.9148 46.4694 45.8475 46.429 45.7676C44.6776 42.1628 43.2205 38.4223 42.0718 34.5826C40.3864 28.6741 44.8394 23.4455 45.0309 23.2252C45.1046 23.1415 45.2051 23.0861 45.3153 23.0687C45.4254 23.0512 45.5382 23.0727 45.6342 23.1295C45.7308 23.1856 45.8048 23.2738 45.8433 23.3787C45.8818 23.4837 45.8823 23.5988 45.8449 23.7041C45.8449 23.7041 44.6957 27.0653 46.4003 32.9547C47.736 37.2089 49.4673 41.3287 51.5714 45.2601C51.6117 45.3317 51.6328 45.4125 51.6328 45.4947C51.6328 45.5769 51.6117 45.6577 51.5714 45.7293C51.532 45.8016 51.4738 45.8619 51.4031 45.904C51.3323 45.9461 51.2516 45.9685 51.1692 45.9687L46.9078 46.0357H46.8599ZM44.5425 25.6097C43.4029 27.525 42.0048 30.8479 42.9912 34.3145C44.0944 38.0032 45.4873 41.5991 47.1568 45.0685H50.3361C48.371 41.2877 46.7462 37.3395 45.481 33.2707C44.7121 30.7938 44.3942 28.199 44.5425 25.6097Z" fill="#3A3D3E"/>
<path d="M45.002 43.5938C45.002 43.5938 40.0319 51.408 39.8883 53.9648C39.7447 56.5217 39.4382 61.9322 39.4382 61.9322C39.4382 61.9322 28.0138 84.6374 24.5568 92.576C21.0998 100.515 23.3502 105.197 26.3571 106.251C29.3641 107.304 34.9757 104.144 36.1249 101.597C37.274 99.0495 44.6956 64.4603 45.002 63.7134C45.3084 62.9664 49.9625 61.6066 50.4125 60.5533C51.466 58.8519 52.6711 57.2494 54.0132 55.7652C54.4728 55.3151 53.113 54.5585 51.7628 55.0086C50.4125 55.4587 49.9625 55.9088 49.3592 56.062C48.7559 56.2152 48.6505 52.9785 48.6505 52.9785C48.6505 52.9785 48.3058 44.4844 47.8557 42.3872C47.4056 40.29 45.002 43.5938 45.002 43.5938Z" fill="white"/>
<path d="M27.7074 106.96C27.1931 106.966 26.6814 106.885 26.1943 106.72C25.4821 106.448 24.8341 106.031 24.2917 105.495C23.7494 104.96 23.3244 104.317 23.0438 103.608C21.818 100.802 22.1915 96.8279 24.1163 92.4037C27.4297 84.7428 38.1741 63.3687 38.9594 61.7599C38.9594 61.013 39.2658 56.244 39.4095 53.8883C39.5627 51.2453 44.3891 43.613 44.5902 43.2874C44.9924 42.7416 46.3618 40.9796 47.4631 41.2094C47.7695 41.2669 48.1717 41.5063 48.3345 42.2628C48.7846 44.3791 49.1293 52.5955 49.1389 52.9402C49.1521 53.8051 49.2613 54.6659 49.4645 55.5067C49.6297 55.4385 49.7897 55.3585 49.9433 55.2673C50.479 54.9749 51.0398 54.7313 51.6191 54.5395C52.1024 54.3397 52.6345 54.2896 53.1467 54.3954C53.6588 54.5012 54.1274 54.7582 54.492 55.1332C54.5884 55.2802 54.6307 55.4562 54.6114 55.6309C54.5922 55.8057 54.5127 55.9683 54.3866 56.0908C53.0868 57.542 51.9142 59.1023 50.8818 60.7544C50.5849 61.4439 49.4262 61.9993 47.5684 62.8229C46.8231 63.1077 46.113 63.4772 45.4521 63.9241C45.3659 64.2018 44.4944 68.061 43.5368 72.5427C40.4533 86.4473 37.3793 100.16 36.6036 101.827C35.397 104.297 30.9633 106.96 27.7074 106.96ZM45.3946 43.8524C44.0252 46.0071 40.482 51.9922 40.3671 53.984C40.2139 56.5409 39.917 61.9514 39.917 61.9514C39.9081 62.0179 39.8888 62.0826 39.8596 62.143C39.7446 62.3632 28.3681 84.9151 24.9877 92.7868C23.1778 96.962 22.7948 100.668 23.9152 103.225C24.1463 103.812 24.496 104.346 24.9425 104.793C25.389 105.239 25.9227 105.589 26.5103 105.82C29.2013 106.778 34.5256 103.905 35.6939 101.405C36.4983 99.7008 40.2905 82.569 42.56 72.332C43.9582 66.0309 44.4753 63.7996 44.5519 63.5507C44.753 63.0527 45.5861 62.6601 47.147 61.961C48.1047 61.5205 49.7996 60.7831 50.0199 60.3809C51.062 58.6793 52.2576 57.0766 53.5918 55.5928C53.3411 55.4674 53.0675 55.3942 52.7877 55.3778C52.5078 55.3613 52.2275 55.4019 51.9639 55.4971C51.434 55.674 50.9212 55.8984 50.4317 56.1674C50.1441 56.3319 49.8389 56.4636 49.5219 56.56C49.4258 56.58 49.3266 56.5792 49.2308 56.5578C49.135 56.5363 49.0449 56.4946 48.9665 56.4356C48.4302 56.0333 48.2675 54.3575 48.2196 53.0264C48.2196 52.9498 47.8748 44.5515 47.4343 42.4926C47.3769 42.2245 47.3003 42.167 47.3003 42.167C47.0225 42.1 46.132 42.8469 45.3946 43.8524Z" fill="#3A3D3E"/>
<path d="M54.4441 46.4666C57.0392 48.7649 57.8436 52.0879 56.2444 53.8882C54.6452 55.6885 51.2456 55.2863 48.6505 52.988C46.0553 50.6897 45.2605 47.3668 46.8597 45.5665C48.459 43.7662 51.8585 44.1588 54.4441 46.4666Z" fill="white"/>
<path d="M53.4865 55.478C51.5779 55.4032 49.7598 54.6454 48.3632 53.3425C47.097 52.2526 46.1864 50.8083 45.7489 49.196C45.5162 48.5269 45.4661 47.8079 45.6038 47.113C45.7415 46.4182 46.062 45.7726 46.5323 45.2428C47.0025 44.713 47.6055 44.3182 48.2792 44.0991C48.9528 43.88 49.6727 43.8444 50.3646 43.9961C52.0165 44.2351 53.5581 44.9659 54.7888 46.0933C57.5755 48.5639 58.399 52.2029 56.6274 54.1948C56.2262 54.621 55.7382 54.9561 55.1963 55.1775C54.6545 55.3989 54.0713 55.5014 53.4865 55.478ZM49.656 44.9441C49.2071 44.9211 48.7586 44.9947 48.3406 45.1599C47.9227 45.3251 47.545 45.5781 47.2332 45.9018C46.8955 46.333 46.6676 46.8398 46.5692 47.3786C46.4708 47.9174 46.5047 48.4721 46.6682 48.9949C47.0542 50.4223 47.8659 51.6983 48.9952 52.653C51.3797 54.7693 54.4824 55.1907 55.8997 53.6106C57.3169 52.0305 56.5317 48.9853 54.1472 46.9073C53.0696 45.8869 51.7068 45.2188 50.2401 44.992C50.0477 44.9492 49.8525 44.9204 49.656 44.9058V44.9441Z" fill="#3A3D3E"/>
<path d="M52.9694 48.631C54.8847 50.3834 55.5454 52.9019 54.3293 54.2713C53.1131 55.6407 50.4988 55.3343 48.5835 53.5914C46.6683 51.8486 46.0076 49.3205 47.2237 47.9511C48.4399 46.5817 51.0063 46.8881 52.9694 48.631Z" fill="white"/>
<path d="M52.2223 55.6024H51.6765C50.4111 55.3973 49.2292 54.8391 48.267 53.9921C47.3047 53.145 46.6011 52.0435 46.2372 50.8143C46.0538 50.2882 46.0141 49.7226 46.1223 49.1761C46.2304 48.6295 46.4823 48.1216 46.8522 47.7049C47.2221 47.2882 47.6964 46.9778 48.2263 46.8056C48.7562 46.6333 49.3224 46.6056 49.8666 46.7253C51.1435 46.9134 52.3344 47.4805 53.2853 48.3532C55.4495 50.2685 56.072 53.1413 54.693 54.6639C54.3707 54.9859 53.984 55.2359 53.5581 55.3977C53.1323 55.5594 52.6771 55.6292 52.2223 55.6024ZM49.3495 47.5776C49.0251 47.561 48.701 47.6139 48.3987 47.7328C48.0965 47.8517 47.8232 48.0339 47.5971 48.267C47.3515 48.5809 47.1864 48.95 47.1163 49.3423C47.0462 49.7345 47.0732 50.138 47.1948 50.5174C47.5044 51.5653 48.1022 52.5051 48.92 53.2298C49.7377 53.9544 50.7426 54.4348 51.8201 54.616C52.2104 54.6928 52.6134 54.6727 52.9941 54.5575C53.3747 54.4423 53.7213 54.2355 54.0035 53.9553C55.0377 52.787 54.444 50.5557 52.682 48.9948C51.8854 48.2542 50.8844 47.7704 49.8092 47.6063L49.3495 47.5776Z" fill="#3A3D3E"/>
<path d="M85.8924 65.0541C85.7863 65.0529 85.6835 65.0166 85.6003 64.9507C85.5171 64.8848 85.4582 64.7932 85.4327 64.6902C83.8725 59.1337 81.6947 53.7695 78.9401 48.6979C78.878 48.5874 78.8623 48.4568 78.8964 48.3347C78.9306 48.2127 79.0117 48.1091 79.122 48.0467C79.2325 47.9847 79.3631 47.969 79.4852 48.0031C79.6073 48.0372 79.7108 48.1184 79.7732 48.2287C82.5666 53.3738 84.7764 58.8149 86.3616 64.4508C86.391 64.5738 86.3715 64.7035 86.3072 64.8124C86.2429 64.9214 86.1388 65.0012 86.0169 65.0349L85.8924 65.0541Z" fill="#3A3D3E"/>
<path d="M85.2603 56.1196C85.1644 56.1197 85.0706 56.0917 84.9906 56.0389C84.9106 55.9861 84.8478 55.9109 84.8102 55.8227C83.1057 51.6188 78.8538 45.7773 78.806 45.7198C78.7689 45.6689 78.7422 45.6112 78.7274 45.5499C78.7126 45.4887 78.71 45.4251 78.7198 45.3628C78.7296 45.3006 78.7515 45.2409 78.7844 45.1871C78.8173 45.1334 78.8604 45.0866 78.9113 45.0495C78.9622 45.0124 79.02 44.9857 79.0812 44.9709C79.1425 44.9561 79.206 44.9536 79.2683 44.9633C79.3305 44.9731 79.3902 44.9951 79.444 45.0279C79.4978 45.0608 79.5445 45.1039 79.5816 45.1548C79.7636 45.3942 83.9484 51.1495 85.7008 55.4588C85.7485 55.5757 85.748 55.7067 85.6996 55.8232C85.6512 55.9398 85.5587 56.0325 85.4423 56.0813C85.385 56.1068 85.323 56.1199 85.2603 56.1196Z" fill="#3A3D3E"/>
<path d="M54.0037 61.7024C54.0037 61.7024 84.9348 90.881 99.7683 116.402V108.109L72.6389 73.8163C67.9798 68.1364 63.0287 62.7026 57.8054 57.5367L54.0037 61.7024Z" fill="#3A3D3E"/>
<path d="M99.7683 116.88C99.6851 116.878 99.6038 116.855 99.5319 116.813C99.46 116.771 99.3997 116.712 99.3565 116.641C84.7241 91.4748 53.9845 62.344 53.6685 62.0567C53.5808 61.9672 53.5316 61.8469 53.5316 61.7216C53.5316 61.5962 53.5808 61.4759 53.6685 61.3864L57.499 57.2399C57.5435 57.195 57.5964 57.1594 57.6548 57.1351C57.7131 57.1108 57.7757 57.0983 57.8389 57.0983C57.9021 57.0983 57.9647 57.1108 58.0231 57.1351C58.0814 57.1594 58.1344 57.195 58.1789 57.2399C63.4153 62.4046 68.3793 67.8385 73.0507 73.5194L100.161 107.812C100.229 107.896 100.266 108 100.266 108.109V116.373C100.266 116.478 100.231 116.579 100.167 116.663C100.103 116.746 100.013 116.805 99.9119 116.833L99.7683 116.88ZM54.674 61.6833C58.0352 64.9009 85.1454 91.1779 99.2895 114.649V108.271C97.6998 106.26 78.0974 81.4581 72.2846 74.1227C67.7454 68.5871 62.9254 63.2877 57.8437 58.2454L54.674 61.6833Z" fill="#3A3D3E"/>
<path d="M41.2388 54.1277C41.2388 54.1277 42.2921 50.3739 42.8954 49.9142C43.4987 49.4546 48.6412 43.6035 48.9093 45.7103C49.1774 47.817 47.8559 48.8704 47.0994 49.6173C46.3429 50.3643 44.5426 52.3274 44.5426 52.3274C44.5166 53.4848 44.4175 54.6395 44.2457 55.7844C43.8849 57.5421 43.3292 59.254 42.589 60.8885" fill="white"/>
<path d="M42.5889 61.3481C42.5259 61.3624 42.4604 61.3624 42.3974 61.3481C42.3394 61.3232 42.287 61.287 42.2433 61.2414C42.1997 61.1958 42.1657 61.142 42.1433 61.083C42.121 61.024 42.1107 60.961 42.1133 60.898C42.1158 60.835 42.131 60.7731 42.158 60.716C42.8759 59.1196 43.4186 57.4499 43.7763 55.7364C43.9438 54.6136 44.0397 53.4814 44.0636 52.3465C44.0635 52.286 44.0752 52.2262 44.0982 52.1703C44.1213 52.1145 44.1551 52.0637 44.1977 52.0209C44.2647 51.9347 46.0172 50.0482 46.7641 49.3012L47.0035 49.0714C47.5086 48.6995 47.9066 48.2007 48.1572 47.6256C48.4077 47.0506 48.5019 46.4195 48.4304 45.7963C48.0186 45.691 46.5151 46.9263 44.1115 49.4161C43.8096 49.7341 43.4899 50.0346 43.1539 50.3163C42.496 51.5675 41.9973 52.8961 41.6696 54.2713C41.6366 54.3983 41.5545 54.5069 41.4413 54.5734C41.3282 54.6398 41.1933 54.6586 41.0663 54.6256C40.9393 54.5926 40.8306 54.5105 40.7642 54.3973C40.6977 54.2842 40.6789 54.1493 40.712 54.0223C41.0376 52.8444 41.8803 50.0482 42.541 49.5502C42.6368 49.4832 43.0007 49.1097 43.355 48.7458C46.0651 45.9687 47.7313 44.5227 48.6985 44.8387C48.8683 44.9037 49.0161 45.0156 49.1246 45.1614C49.2332 45.3073 49.2979 45.481 49.3114 45.6623C49.4095 46.4357 49.3028 47.2213 49.002 47.9406C48.7011 48.6599 48.2168 49.2876 47.5973 49.7609L47.377 49.9716C46.7545 50.594 45.3756 52.0783 44.9542 52.538C44.9195 53.6536 44.8203 54.7663 44.6574 55.8705C44.292 57.675 43.7234 59.4322 42.9624 61.1087C42.9234 61.1752 42.8693 61.2316 42.8044 61.2732C42.7395 61.3148 42.6656 61.3405 42.5889 61.3481Z" fill="#3A3D3E"/>
</svg>
