<svg width="232" height="310" viewBox="0 0 232 310" fill="none" xmlns="http://www.w3.org/2000/svg">
<path d="M98.4252 29.324C98.4252 29.324 103.906 25.1941 119.629 28.5715C135.352 31.9489 142.865 54.9151 146.496 71.1665C150.128 87.4179 156.581 99.4957 159.887 99.2748C163.193 99.0539 165.367 95.1449 166.044 98.642C166.72 102.139 163.944 111.955 149.338 110.385C134.732 108.815 129.102 94.1362 121.062 78.1793C113.021 62.2225 109.932 40.8427 106.332 36.6553C102.731 32.468 99.3075 34.2465 99.3075 34.2465C99.3075 34.2465 94.4138 30.5883 98.4252 29.324Z" fill="#3A3D3E"/>
<path d="M159.283 109.674C160.926 109.024 162.403 108.014 163.606 106.72C166.073 104.042 166.772 100.624 166.381 98.5798C166.202 97.6641 165.906 97.1436 165.452 96.9371C164.791 96.6492 164.05 97.0883 163.108 97.6472C162.14 98.3232 161.026 98.761 159.857 98.9249C157.118 99.1101 150.679 88.3398 146.828 71.0913C141.059 45.2833 131.932 30.858 119.695 28.2351C104.607 24.9901 98.8827 28.5784 98.2609 29.0141C97.2206 29.3493 96.632 29.8845 96.5119 30.6054C96.2194 32.3253 98.7857 34.3169 99.0922 34.5311C99.1441 34.5707 99.2063 34.5947 99.2714 34.6002C99.3365 34.6056 99.4018 34.5923 99.4596 34.5619C99.5889 34.509 102.696 32.973 106.058 36.8885C107.639 38.7245 109.152 44.0986 111.042 50.9109C113.382 59.2296 116.299 69.5843 120.717 78.3509C121.551 80.0021 122.355 81.6354 123.143 83.2455C130.031 97.2358 135.979 109.316 149.267 110.747C153.66 111.206 156.897 110.651 159.283 109.674ZM164.544 97.6331C164.73 97.5311 164.946 97.5017 165.152 97.5505C165.373 97.6486 165.557 98.0415 165.684 98.6839C165.986 100.251 165.54 103.551 163.086 106.223C161.076 108.412 157.058 110.841 149.354 110.017C136.453 108.632 130.584 96.7073 123.786 82.8992C122.992 81.2917 122.185 79.652 121.357 77.9981C116.966 69.2962 114.062 58.9738 111.694 50.6968C109.794 43.8055 108.272 38.39 106.613 36.4197C103.389 32.6743 100.218 33.5194 99.376 33.8413C98.5992 33.2157 97.0634 31.7686 97.2275 30.7126C97.2992 30.2606 97.7426 29.9055 98.5513 29.65C98.5881 29.6423 98.6232 29.628 98.6548 29.6077C98.7194 29.5812 104.249 25.6273 119.575 28.9184C131.525 31.4852 140.477 45.7251 146.177 71.2521C149.615 86.6243 156.041 99.8906 159.933 99.6261C161.214 99.459 162.437 98.9871 163.498 98.2499C163.832 98.0203 164.182 97.8142 164.544 97.6331Z" fill="#3A3D3E"/>
<path d="M160.092 106.709C160.713 106.457 161.283 106.096 161.776 105.642C161.84 105.576 161.875 105.488 161.876 105.397C161.876 105.305 161.842 105.217 161.779 105.15C161.746 105.117 161.707 105.091 161.665 105.073C161.622 105.055 161.576 105.046 161.53 105.046C161.483 105.046 161.437 105.055 161.395 105.073C161.352 105.091 161.313 105.118 161.281 105.151C160.806 105.578 160.251 105.906 159.648 106.118C159.046 106.33 158.407 106.42 157.77 106.384C156.042 106.238 154.368 105.043 152.804 102.845C152.778 102.807 152.744 102.774 152.704 102.748C152.665 102.723 152.62 102.705 152.574 102.697C152.528 102.689 152.481 102.689 152.435 102.699C152.389 102.709 152.345 102.728 152.307 102.755C152.268 102.781 152.235 102.815 152.21 102.855C152.184 102.894 152.167 102.938 152.158 102.985C152.15 103.031 152.151 103.078 152.161 103.124C152.17 103.17 152.189 103.214 152.216 103.252C153.942 105.625 155.765 106.925 157.704 107.09C158.519 107.155 159.338 107.024 160.092 106.709Z" fill="#787878"/>
<path d="M149.86 97.4762C149.902 97.4598 149.941 97.4351 149.974 97.4035C150.006 97.372 150.033 97.3342 150.051 97.2923C150.069 97.2505 150.078 97.2055 150.079 97.16C150.079 97.1144 150.07 97.0693 150.053 97.0271C148.498 93.0064 146.671 87.4363 144.731 81.5506C140.357 68.2447 134.917 51.7067 129.502 43.454C120.116 29.1346 106.953 31.7741 106.823 31.805C106.778 31.8136 106.735 31.8313 106.697 31.8569C106.658 31.8825 106.626 31.9155 106.601 31.9539C106.576 31.9924 106.558 32.0355 106.55 32.0807C106.542 32.1259 106.543 32.1723 106.554 32.217C106.562 32.2625 106.58 32.3058 106.606 32.3444C106.631 32.383 106.665 32.4161 106.703 32.4417C106.742 32.4674 106.785 32.4851 106.831 32.4938C106.876 32.5026 106.923 32.5022 106.968 32.4926C107.085 32.445 119.802 29.9348 128.918 43.8361C134.28 52.0127 139.71 68.5093 144.072 81.7673C146.012 87.6686 147.838 93.2386 149.401 97.2788C149.418 97.3216 149.443 97.3607 149.474 97.3939C149.506 97.4271 149.544 97.4538 149.586 97.4724C149.628 97.491 149.673 97.5011 149.719 97.5022C149.765 97.5033 149.81 97.4954 149.853 97.4788L149.86 97.4762Z" fill="#787878"/>
<path d="M137.154 101.159L137.219 101.133C137.296 101.079 137.349 100.998 137.366 100.906C137.384 100.814 137.364 100.719 137.312 100.642C131.699 92.3112 129.357 78.7323 127.286 66.7558C126.525 62.35 125.811 58.1889 124.976 54.5075C123.925 49.9557 121.798 45.7219 118.775 42.1605C118.715 42.0898 118.63 42.0454 118.537 42.0367C118.445 42.028 118.353 42.0557 118.281 42.1138C118.21 42.1738 118.166 42.2593 118.159 42.3515C118.151 42.4437 118.181 42.5352 118.24 42.6058C121.195 46.0767 123.278 50.2036 124.314 54.6425C125.143 58.311 125.861 62.4629 126.62 66.8623C128.705 78.9087 131.06 92.5576 136.758 101.02C136.8 101.083 136.861 101.131 136.933 101.156C137.004 101.181 137.082 101.182 137.154 101.159Z" fill="#787878"/>
<path d="M115.866 39.8109C115.912 39.8032 115.957 39.7851 115.995 39.758C116.027 39.7245 116.053 39.6848 116.069 39.6414C116.086 39.5979 116.094 39.5516 116.092 39.5051C116.091 39.4586 116.08 39.4128 116.061 39.3705C116.041 39.3282 116.014 39.2902 115.98 39.2587C113.887 37.2414 111.537 35.5105 108.989 34.1111C108.947 34.0931 108.901 34.0837 108.855 34.0834C108.809 34.0831 108.763 34.092 108.721 34.1094C108.678 34.1269 108.639 34.1526 108.606 34.1852C108.574 34.2177 108.548 34.2564 108.53 34.299C108.512 34.3408 108.503 34.3858 108.502 34.4313C108.502 34.4769 108.511 34.522 108.528 34.5642C108.545 34.6063 108.571 34.6446 108.603 34.6768C108.635 34.709 108.673 34.7344 108.715 34.7515C111.184 36.1073 113.468 37.7756 115.51 39.7152C115.555 39.7615 115.612 39.7948 115.675 39.8116C115.737 39.8285 115.803 39.8282 115.866 39.8109Z" fill="#787878"/>
<path d="M50.1814 56.2392C50.1814 56.2392 43.7163 58.8851 49.0081 71.8153C54.2999 84.7456 68.3808 109.93 70.5274 118.863C72.6741 127.797 68.3694 132.956 66.8704 132.059C65.3715 131.163 62.3449 133.912 67.3559 136.012C72.367 138.113 79.8755 136.172 84.5909 125.562C89.3062 114.952 85.7779 103.564 81.0452 95.689C76.3125 87.8135 63.9952 64.1721 61.217 57.3837C58.4388 50.5954 53.369 49.2736 50.1814 56.2392Z" fill="#3A3D3E"/>
<path d="M75.3527 136.279C78.8633 134.842 82.3289 131.507 84.9057 125.705C90.503 113.118 84.2776 100.397 81.3407 95.5075C76.7499 87.8683 64.3447 64.1044 61.5401 57.2513C60.0028 53.4951 57.7581 51.3115 55.3902 51.2616C53.2974 51.2199 51.3624 52.91 49.9158 55.9778C48.9687 56.4485 43.6759 59.709 48.6847 71.9475C50.8675 77.2812 54.4575 84.5224 58.2507 92.1861C63.5057 102.776 68.931 113.727 70.1828 118.944C71.8128 125.712 69.6954 130.239 67.9711 131.503C67.5958 131.785 67.2503 131.881 67.0495 131.76C66.7527 131.6 66.4182 131.524 66.0817 131.54C65.7451 131.555 65.419 131.662 65.1381 131.847C64.8491 132.015 64.6124 132.259 64.4541 132.553C64.2959 132.847 64.2225 133.179 64.242 133.512C64.2932 134.246 64.865 135.348 67.2156 136.334C68.5077 136.865 69.8926 137.134 71.2897 137.124C72.6867 137.115 74.0679 136.828 75.3527 136.279ZM54.0746 52.2152C54.486 52.0423 54.9288 51.9561 55.375 51.9623C57.4237 52.0069 59.478 54.0571 60.8936 57.5159C63.7062 64.3883 76.1443 88.2143 80.7429 95.8729C83.6219 100.658 89.7313 113.132 84.2692 125.422C79.7883 135.498 72.6163 137.837 67.4894 135.693C65.9288 135.034 65 134.221 64.9355 133.455C64.9325 133.253 64.9844 133.054 65.0859 132.88C65.1874 132.705 65.3345 132.562 65.5114 132.465C65.6837 132.346 65.8847 132.275 66.0935 132.26C66.3023 132.245 66.5114 132.286 66.699 132.379C66.9783 132.509 67.2908 132.55 67.5944 132.497C67.898 132.445 68.1782 132.3 68.3973 132.084C70.2609 130.717 72.5758 125.898 70.8731 118.805C69.6025 113.505 64.1549 102.518 58.8866 91.8956C55.2584 84.5796 51.5141 77.0166 49.3391 71.7023C44.2589 59.2893 50.2568 56.6082 50.3214 56.5817C50.4035 56.5476 50.469 56.4828 50.5042 56.4012C51.501 54.1893 52.7428 52.7603 54.0746 52.2152Z" fill="#3A3D3E"/>
<path d="M73.2063 104.181L72.9654 104.385C71.529 105.652 64.1776 112.661 65.9822 121.977C67.9751 132.287 78.3788 165.859 80.0378 169.913C81.6968 173.967 93.3856 176.006 96.1246 172.168C98.8637 168.33 87.9582 144.412 85.1647 135.54C82.3712 126.667 73.2063 104.181 73.2063 104.181Z" fill="white"/>
<path d="M94.3543 173.911C95.1691 173.612 95.8808 173.085 96.4049 172.393C98.3189 169.692 94.495 159.15 89.239 145.662C87.6402 141.516 86.2523 137.94 85.4763 135.472C82.7043 126.689 73.5973 104.307 73.5047 104.081C73.4837 104.031 73.4516 103.987 73.4109 103.951C73.3702 103.915 73.3218 103.889 73.2696 103.875C73.216 103.86 73.1596 103.859 73.1052 103.87C73.0508 103.882 73.0001 103.907 72.9575 103.943L72.7127 104.156C71.2029 105.483 63.7783 112.59 65.6141 122.074C67.5988 132.327 78.0413 166.05 79.6897 170.078C80.6925 172.528 84.8586 174.076 88.2865 174.485C90.3255 174.797 92.4101 174.6 94.3543 173.911ZM73.0628 104.79C74.3858 108.023 82.2939 127.604 84.8319 135.668C85.6184 138.162 87.0116 141.75 88.613 145.903C92.4473 155.807 97.6987 169.357 95.84 171.99C94.7649 173.494 91.919 174.176 88.4158 173.768C84.5023 173.316 81.1162 171.645 80.3621 169.803C78.7111 165.768 68.307 132.158 66.3344 121.953C64.5992 113.047 71.355 106.335 73.0549 104.771L73.0628 104.79Z" fill="#3A3D3E"/>
<path d="M106.715 85.5608L131.804 83.2181L170.5 177.5L170.5 268L124 302C124 302 108.779 227.772 94.9998 175C87.9613 148.043 79.0819 127.759 77.3822 123.606C72.3549 111.322 71.4725 106.4 73.2061 104.181C74.9397 101.962 84.0496 97.4785 89.4713 94.1274C94.893 90.7763 106.715 85.5608 106.715 85.5608Z" fill="#C58B5D"/>
<path d="M96.2502 172.494L158.645 146.958C158.688 146.941 158.726 146.916 158.758 146.883C158.791 146.85 158.816 146.811 158.832 146.769C158.851 146.726 158.861 146.679 158.861 146.632C158.862 146.586 158.852 146.539 158.833 146.496L132.125 83.0793C132.094 83.0117 132.043 82.9552 131.979 82.9178C131.915 82.8804 131.841 82.864 131.768 82.8707L106.685 85.2107L106.581 85.253C106.465 85.3007 94.6743 90.5186 89.2861 93.8409C87.4762 94.9514 85.2381 96.2146 83.0568 97.4319C78.4643 100.006 74.1301 102.436 72.9048 103.979C71.0081 106.409 72.1301 111.769 77.0356 123.755C82.0046 135.897 95.6336 171.946 95.7753 172.311C95.7902 172.355 95.8146 172.395 95.8466 172.429C95.8787 172.463 95.9178 172.489 95.9611 172.507C96.0075 172.525 96.0572 172.533 96.107 172.531C96.1568 172.529 96.2056 172.516 96.2502 172.494ZM158.051 146.447L96.3154 171.712C94.9147 168.013 82.4113 134.991 77.6989 123.476C72.9865 111.962 71.7826 106.567 73.4686 104.398C74.5845 102.975 79.0595 100.464 83.3936 98.0337C85.575 96.8164 87.8325 95.5453 89.6462 94.4256C94.8046 91.2427 105.94 86.2856 106.799 85.896L131.57 83.5857L158.051 146.447Z" fill="#3A3D3E"/>
<path d="M151.673 130.421L158.513 146.635C136.217 164.062 122.611 169.824 96.1243 172.168C96.1243 172.168 93.1931 164.416 89.542 154.867C114.909 148.003 138.963 136.822 151.673 130.421Z" fill="#3A3D3E"/>
<path d="M82.7904 137.319C106.499 132.1 129.848 121.54 144.726 113.926L148.292 122.4C141.38 125.945 132.772 130.05 123.146 133.989C111.151 138.981 98.7673 142.982 86.119 145.95C84.9957 143.021 83.8658 140.094 82.7904 137.319Z" fill="#3A3D3E"/>
<path d="M138.383 124.893C138.383 124.893 126.793 104.041 125.73 96.6864C124.667 89.3318 127.713 83.0886 131.798 83.2208C135.882 83.3531 142.341 87.6617 147.598 99.1419C152.855 110.622 163.025 133.444 163.875 137.549C164.725 141.655 159.985 147.761 155.027 147.284C150.069 146.807 143.277 136.242 142.01 133.145C140.742 130.049 138.383 124.893 138.383 124.893Z" fill="white"/>
<path d="M158.206 147.122C159.543 146.545 160.735 145.678 161.697 144.585C163.663 142.399 164.641 139.606 164.209 137.48C163.355 133.346 153.167 110.501 147.909 98.9991C142.566 87.3276 135.889 83.0182 131.798 82.873C131.072 82.874 130.356 83.0367 129.7 83.3493C129.045 83.662 128.467 84.1166 128.009 84.6803C125.724 87.2307 124.695 91.9621 125.394 96.733C126.451 104.037 137.526 124.035 138.083 125.045C138.197 125.323 140.503 130.275 141.725 133.262C143.109 136.643 150.033 147.124 155.036 147.62C156.118 147.715 157.206 147.544 158.206 147.122ZM130.299 83.8189C130.766 83.6248 131.27 83.5344 131.775 83.5542C135.666 83.6906 142.061 87.8817 147.265 99.2702C152.522 110.75 162.676 133.533 163.51 137.6C163.914 139.526 162.985 142.072 161.17 144.091C159.354 146.109 157.128 147.126 155.077 146.909C150.428 146.449 143.646 136.166 142.344 132.986C141.087 129.915 138.705 124.776 138.684 124.724C138.594 124.504 127.118 103.84 126.065 96.6395C125.407 92.0629 126.37 87.5551 128.526 85.1484C129.012 84.5826 129.621 84.1346 130.307 83.8383L130.299 83.8189Z" fill="#3A3D3E"/>
<path d="M103.046 71.9664C103.046 71.9664 108.014 85.029 109.469 88.5848C110.925 92.1406 112.968 96.2106 111.323 101.413C109.678 106.615 104.948 115.344 95.5869 112.759C86.2262 110.174 84.7697 98.316 84.7697 98.316L77.8467 84.1664L103.046 71.9664Z" fill="white"/>
<path d="M102.764 112.795C107.148 111.001 110.124 106.341 111.646 101.522C113.169 96.7019 111.577 92.7567 110.135 89.3085L109.773 88.4228C108.336 84.9122 103.398 71.9428 103.352 71.8109C103.333 71.7663 103.305 71.7259 103.271 71.6921C103.236 71.6583 103.195 71.6317 103.15 71.614C103.106 71.5951 103.059 71.5859 103.011 71.5872C102.964 71.5885 102.917 71.6001 102.874 71.6214L77.675 83.8213C77.5902 83.8622 77.525 83.935 77.4937 84.0238C77.4785 84.0668 77.4722 84.1124 77.4753 84.1579C77.4783 84.2034 77.4906 84.2478 77.5113 84.2883L84.433 98.4159C84.5662 99.3502 86.3873 110.568 95.4958 113.09C97.8823 113.817 100.445 113.713 102.764 112.795ZM102.856 72.444C103.664 74.5663 107.837 85.5012 109.16 88.7338L109.525 89.626C110.88 92.9361 112.469 96.6712 111 101.326C109.955 104.637 105.756 115.217 95.6891 112.438C86.6599 109.944 85.145 98.4038 85.1286 98.2897C85.1176 98.2541 85.1035 98.2194 85.0862 98.1863L78.3148 84.352L102.856 72.444Z" fill="#3A3D3E"/>
<path d="M93.2747 76.6972L97.866 74.4709L102.879 82.6244C102.879 82.6244 95.8632 104.803 90.2124 109.697C85.5954 105.277 84.7515 98.3458 84.7515 98.3458L78.4391 85.4484L93.2747 76.6972Z" fill="#3A3D3E"/>
<path d="M90.3671 110.019L90.4705 109.977C96.1171 105.054 102.931 83.5997 103.235 82.7203C103.249 82.6713 103.252 82.62 103.246 82.5695C103.239 82.519 103.223 82.4703 103.198 82.4262L98.1684 74.2871C98.1218 74.2136 98.05 74.1596 97.9664 74.1354C97.8828 74.1113 97.7932 74.1185 97.7146 74.1558L93.1232 76.3821L78.2409 85.1297C78.1644 85.1742 78.1076 85.246 78.082 85.3308C78.0565 85.4155 78.064 85.5068 78.1032 85.5862L84.4333 98.416C84.5233 99.134 85.5326 105.658 90.0032 109.942C90.0499 109.988 90.1091 110.02 90.1737 110.034C90.2382 110.048 90.3054 110.043 90.3671 110.019ZM102.516 82.6599C101.897 84.5964 95.4687 104.263 90.2426 109.217C85.9795 104.924 85.1124 98.3419 85.108 98.2757C85.0971 98.24 85.0829 98.2054 85.0657 98.1723L78.8943 85.5643L93.4266 77.0127L97.7221 74.9302L102.516 82.6599Z" fill="#3A3D3E"/>
<path d="M84.368 21.7549C84.368 21.7549 96.1704 23.0763 103.26 33.6481C110.349 44.22 110.381 64.7523 109.249 68.0537C108.117 71.3551 104.308 74.4236 104.308 74.4236C104.308 74.4236 100.806 95.3758 93.8146 99.8524C86.8231 104.329 79.8882 99.9438 73.9585 96.3549C68.0288 92.7659 63.9071 84.5573 62.1674 81.45C60.4277 78.3427 56.6145 72.2346 56.6145 72.2346C56.6145 72.2346 49.4398 71.6158 48.4253 61.6676C47.4108 51.7194 47.147 46.2796 50.178 38.6913C53.2089 31.103 68.4782 20.2949 84.368 21.7549Z" fill="white"/>
<path d="M91.9069 101.222C92.639 100.92 93.3429 100.554 94.0101 100.127C100.855 95.7712 104.318 76.5329 104.649 74.5935C105.281 74.0709 108.513 71.2535 109.566 68.1655C110.701 64.8705 110.676 44.0787 103.541 33.4501C96.4058 22.8216 84.5212 21.4282 84.403 21.4162C68.3769 19.9364 53.0038 30.7493 49.9032 38.5548C46.8027 46.3603 47.1653 52.1521 48.1206 61.6792C49.0671 70.908 55.2948 72.3295 56.4509 72.5356C57.0265 73.4625 60.3341 78.7963 61.9133 81.6221C62.0297 81.9066 62.2304 82.1942 62.4148 82.5339C64.3405 86.0406 68.3408 93.3252 73.8325 96.6556L74.1949 96.8772C79.5641 100.129 85.6164 103.797 91.9069 101.222ZM84.332 22.1095C84.5774 22.1373 96.0994 23.6036 102.967 33.8361C109.986 44.293 110.022 64.7034 108.913 67.9346C107.805 71.1657 104.141 74.1072 104.107 74.136C104.04 74.1897 103.996 74.2671 103.984 74.3523C103.95 74.5627 100.44 95.2011 93.6383 99.5322C86.9588 103.775 80.354 99.791 74.5169 96.2623L74.1546 96.0407C68.818 92.8129 64.8821 85.6303 62.9931 82.1765C62.8023 81.8394 62.6509 81.5617 62.4825 81.2608C60.7651 78.1897 56.9611 72.0853 56.9281 72.0233C56.8981 71.9779 56.8583 71.9399 56.8116 71.912C56.7649 71.884 56.7125 71.867 56.6583 71.862C56.378 71.8409 49.7578 71.1386 48.7869 61.6103C47.803 51.9213 47.4278 46.5045 50.5228 38.8145C53.6178 31.1245 68.6174 20.6532 84.332 22.1095Z" fill="#3A3D3E"/>
<path d="M43.7389 63.5327C42.7218 53.5781 47.1367 46.2914 50.1779 38.6913C53.2191 31.0913 68.4588 20.3028 84.3512 21.7694C84.3512 21.7694 96.1536 23.0907 103.243 33.6626C107.838 40.5001 109.456 51.4994 109.736 59.3403L109.309 59.236C109.309 59.236 108.382 51.8258 104.72 54.1095C101.058 56.3933 103.19 64.148 101.962 66.0167C100.734 67.8855 96.4885 60.4446 96.4885 60.4446C96.4885 60.4446 96.1359 62.7551 83.1072 62.1998C70.0785 61.6445 65.051 55.188 65.051 55.188C65.051 55.188 61.7414 68.6796 59.9604 69.9897C58.1793 71.2998 56.6145 72.2346 56.6145 72.2346C56.6145 72.2346 44.7857 73.4677 43.7389 63.5327Z" fill="#3A3D3E"/>
<path d="M101.813 66.5759C102 66.495 102.158 66.3594 102.266 66.187C102.772 65.4137 102.772 63.9569 102.769 62.124C102.765 59.2727 102.765 55.7325 104.889 54.395C105.133 54.2051 105.422 54.0826 105.728 54.0396C106.033 53.9966 106.345 54.0348 106.631 54.1503C108.092 54.843 108.804 58.0766 108.942 59.243C108.952 59.3115 108.981 59.3757 109.027 59.428C109.072 59.4802 109.132 59.5184 109.198 59.538L109.626 59.6423C109.678 59.6584 109.734 59.6609 109.787 59.6496C109.841 59.6382 109.89 59.6135 109.932 59.5776C109.973 59.5436 110.007 59.5007 110.03 59.452C110.053 59.4034 110.065 59.3502 110.066 59.2963C109.94 55.3018 109.041 41.6686 103.511 33.4323C96.4219 22.8605 84.4913 21.4104 84.3732 21.3984C68.3379 19.9148 52.9675 30.7341 49.8734 38.537C49.3111 39.9295 48.6906 41.3458 48.0957 42.7139C45.3561 48.93 42.5713 55.3307 43.3901 63.5097C43.4709 64.7498 43.8038 65.9602 44.3684 67.0672C44.9331 68.1741 45.7176 69.1543 46.674 69.9477C50.574 73.1144 56.407 72.5387 56.6533 72.5134C56.7042 72.5039 56.7526 72.4841 56.7955 72.4552C56.7955 72.4552 58.3965 71.498 60.1646 70.1932C61.8322 68.9748 64.4945 58.7522 65.2341 55.8379C66.7358 57.4047 72.0573 61.9973 83.0902 62.4712C92.6333 62.8831 95.5588 61.7688 96.4503 60.9964C97.3748 62.5729 99.8737 66.5394 101.411 66.5895C101.545 66.6121 101.682 66.6074 101.813 66.5759ZM105.113 53.5033C104.916 53.5829 104.726 53.6808 104.546 53.7958C102.061 55.3412 102.069 59.1044 102.074 62.1217C102.073 63.7069 102.076 65.2078 101.684 65.7986C101.664 65.8435 101.631 65.8815 101.589 65.9078C101.548 65.9342 101.5 65.9478 101.45 65.947C100.469 65.9107 98.1378 62.5928 96.8011 60.2489C96.7667 60.1855 96.7128 60.1349 96.6474 60.1046C96.5819 60.0743 96.5085 60.0659 96.4379 60.0806C96.3663 60.0927 96.3005 60.1272 96.2498 60.1791C96.1992 60.231 96.1663 60.2977 96.1561 60.3695C96.1561 60.3695 95.1924 62.349 83.1615 61.8156C70.4702 61.2731 65.4221 55.0062 65.3736 54.943C65.3323 54.8909 65.2773 54.8515 65.2148 54.8291C65.1522 54.8066 65.0847 54.8021 65.0197 54.8161C64.9556 54.8294 64.8966 54.8609 64.8498 54.9068C64.8031 54.9528 64.7704 55.0111 64.7559 55.075C63.4365 60.4457 61.0237 68.7698 59.7934 69.6734C58.2574 70.8077 56.8254 71.6429 56.543 71.8566C55.8585 71.9178 50.593 72.2386 47.1474 69.4445C46.2661 68.7068 45.5438 67.7978 45.0244 66.7726C44.5049 65.7474 44.1991 64.6274 44.1254 63.4805C43.3078 55.452 46.0735 49.0968 48.7608 42.9927C49.3622 41.622 49.9906 40.225 50.5488 38.804C53.6003 31.1922 68.6525 20.6465 84.3645 22.0963C84.4697 22.1137 96.0861 23.5338 102.993 33.8256C107.711 40.8541 108.986 51.9561 109.327 57.3265C108.952 55.9103 108.237 54.0895 107.001 53.4857C106.704 53.3485 106.381 53.2789 106.055 53.2819C105.729 53.285 105.407 53.3606 105.113 53.5033Z" fill="#3A3D3E"/>
<path d="M105.444 50.7337C105.529 50.6971 105.596 50.6293 105.631 50.5443C105.667 50.4594 105.668 50.364 105.635 50.2781C105.6 50.1924 105.532 50.1241 105.447 50.0883C105.361 50.0525 105.265 50.0521 105.179 50.0871C103.93 50.5473 102.646 50.9063 101.339 51.1607C101.294 51.1704 101.25 51.189 101.212 51.2154C101.174 51.2419 101.141 51.2756 101.115 51.3147C101.09 51.3538 101.073 51.3976 101.064 51.4434C101.056 51.4892 101.056 51.5363 101.066 51.5819C101.076 51.6274 101.094 51.6706 101.121 51.709C101.147 51.7474 101.181 51.7802 101.22 51.8056C101.259 51.8309 101.303 51.8483 101.349 51.8568C101.395 51.8652 101.442 51.8646 101.487 51.8548C102.834 51.5891 104.158 51.2142 105.444 50.7337Z" fill="#787878"/>
<path d="M97.2722 52.4927C97.3629 52.4696 97.4406 52.4115 97.4884 52.3311C97.5362 52.2506 97.55 52.1545 97.5269 52.0639C97.5039 51.9733 97.4457 51.8955 97.3653 51.8477C97.2849 51.7999 97.1888 51.7861 97.0981 51.8092C91.7452 52.3307 86.3442 52.0369 81.0794 50.9378C71.7788 49.0529 69.2343 46.6902 68.5447 45.4477C68.4162 45.2677 68.3264 45.063 68.2807 44.8467C68.235 44.6303 68.2344 44.4068 68.2791 44.1902C68.3136 44.1043 68.3132 44.0083 68.2782 43.9226C68.2431 43.837 68.176 43.7683 68.0912 43.7312C68.0501 43.7131 68.0057 43.7035 67.9607 43.703C67.9157 43.7024 67.8711 43.7109 67.8295 43.7279C67.7879 43.7449 67.7501 43.7702 67.7184 43.8021C67.6868 43.834 67.6618 43.872 67.6451 43.9138C67.5482 44.2171 67.5196 44.5381 67.5614 44.8538C67.6032 45.1694 67.7142 45.4719 67.8867 45.7396C68.7665 47.41 71.7457 49.7835 80.9267 51.6343C86.2569 52.7577 91.727 53.0641 97.1494 52.543L97.2722 52.4927Z" fill="#787878"/>
<path d="M102.091 42.5423C102.177 42.5072 102.246 42.4395 102.281 42.354C102.317 42.2686 102.318 42.1724 102.282 42.0867C102.247 42.001 102.18 41.9327 102.094 41.8969C102.009 41.8611 101.913 41.8607 101.827 41.8957C89.6841 45.8841 74.2816 38.8277 74.1268 38.7628C74.0851 38.7438 74.0399 38.7335 73.9941 38.7325C73.9483 38.7316 73.9028 38.7401 73.8604 38.7575C73.818 38.7748 73.7796 38.8007 73.7476 38.8335C73.7155 38.8662 73.6906 38.9052 73.6742 38.948C73.6562 38.9905 73.6468 39.0361 73.6465 39.0822C73.6462 39.1283 73.655 39.174 73.6725 39.2167C73.69 39.2594 73.7157 39.2981 73.7482 39.3308C73.7808 39.3635 73.8195 39.3894 73.8621 39.4071C74.0196 39.4784 89.6577 46.6497 102.074 42.5722L102.091 42.5423Z" fill="#787878"/>
<path d="M52.0391 66.5515C52.1189 66.5173 52.1831 66.4546 52.2191 66.3757C52.2552 66.2967 52.2606 66.2072 52.2342 66.1245C51.8622 64.8576 51.7095 63.5365 51.7828 62.2182C51.7856 62.1726 51.7793 62.1268 51.7641 62.0837C51.749 62.0405 51.7253 62.0008 51.6946 61.967C51.6639 61.9331 51.6266 61.9058 51.5852 61.8865C51.5437 61.8673 51.4987 61.8566 51.453 61.855C51.4069 61.8523 51.3606 61.8587 51.317 61.874C51.2733 61.8893 51.2331 61.913 51.1987 61.944C51.1643 61.9749 51.1364 62.0123 51.1166 62.0541C51.0968 62.0959 51.0855 62.1413 51.0834 62.1875C51.0074 63.5854 51.1721 64.986 51.5703 66.3282C51.5831 66.3722 51.6046 66.4131 51.6335 66.4486C51.6624 66.4842 51.6982 66.5135 51.7386 66.5349C51.7791 66.5564 51.8234 66.5695 51.869 66.5735C51.9147 66.5775 51.9606 66.5724 52.0042 66.5583L52.0391 66.5515Z" fill="#787878"/>
<path d="M52.0124 59.4221C52.0634 59.4016 52.1087 59.3688 52.1441 59.3267C52.1795 59.2846 52.204 59.2344 52.2154 59.1805C54.0807 51.1786 61.1572 43.2027 61.2319 43.1268C61.2936 43.0575 61.3252 42.9666 61.3199 42.8739C61.3145 42.7813 61.2726 42.6945 61.2033 42.6328C61.134 42.5711 61.043 42.5394 60.9504 42.5448C60.8577 42.5502 60.771 42.5921 60.7092 42.6614C60.6346 42.7372 53.445 50.8425 51.5512 59.0146C51.5406 59.0595 51.539 59.106 51.5465 59.1515C51.554 59.197 51.5704 59.2406 51.5949 59.2797C51.6193 59.3189 51.6513 59.3528 51.6889 59.3795C51.7265 59.4062 51.769 59.4252 51.814 59.4354C51.8801 59.4495 51.9488 59.4449 52.0124 59.4221Z" fill="#787878"/>
<path d="M82.0215 87.9678C82.2375 87.8779 82.4465 87.7721 82.6469 87.6514C82.6861 87.6272 82.7201 87.5954 82.747 87.5579C82.7739 87.5204 82.7931 87.4779 82.8034 87.433C82.8138 87.388 82.8152 87.3415 82.8075 87.296C82.7998 87.2505 82.7831 87.207 82.7585 87.168C82.7351 87.1287 82.7041 87.0945 82.6672 87.0674C82.6304 87.0403 82.5885 87.0209 82.5441 87.0102C82.4996 86.9996 82.4535 86.9979 82.4084 87.0054C82.3633 87.0129 82.3201 87.0293 82.2815 87.0537C80.1052 88.4124 78.1582 86.4768 78.0823 86.4022C78.0171 86.3358 77.9282 86.298 77.8352 86.2972C77.7421 86.2964 77.6525 86.3325 77.5861 86.3977C77.5197 86.4629 77.4819 86.5518 77.4811 86.6449C77.4802 86.738 77.5164 86.8276 77.5816 86.894C77.5816 86.894 79.623 88.9494 82.0215 87.9678Z" fill="#3A3D3E"/>
<path d="M85.7334 92.5926C89.4314 91.0792 89.9772 86.9535 89.9833 86.9132C89.9945 86.8206 89.9683 86.7273 89.9107 86.654C89.8531 86.5806 89.7687 86.5331 89.676 86.522C89.5834 86.5108 89.4901 86.537 89.4167 86.5946C89.3434 86.6522 89.2959 86.7367 89.2848 86.8293C89.2642 87.0189 88.6568 91.5471 84.1084 92.3292C81.3288 92.8092 78.4706 92.2142 76.1133 90.665C76.0768 90.6364 76.035 90.6153 75.9902 90.6031C75.9455 90.5908 75.8988 90.5876 75.8528 90.5936C75.8068 90.5996 75.7625 90.6147 75.7224 90.638C75.6823 90.6613 75.6472 90.6924 75.6193 90.7294C75.5913 90.7664 75.571 90.8086 75.5595 90.8535C75.5481 90.8985 75.5457 90.9452 75.5525 90.9911C75.5593 91.037 75.5751 91.081 75.5991 91.1207C75.6231 91.1604 75.6548 91.1949 75.6923 91.2222C78.198 92.9037 81.2592 93.5454 84.2293 93.0119C84.7443 92.9265 85.2485 92.7859 85.7334 92.5926Z" fill="#3A3D3E"/>
<path d="M83.6228 76.1487C84.0644 77.5229 85.0964 78.4215 85.9504 78.1474C86.8044 77.8734 87.0831 76.5441 86.635 75.1726C86.1869 73.8011 85.1588 72.8934 84.3074 73.1739C83.4561 73.4544 83.1527 74.7787 83.6228 76.1487Z" fill="#3A3D3E"/>
<path d="M69.7585 80.4492C70.2001 81.8233 71.2321 82.7219 72.0538 82.4611C72.8755 82.2003 73.193 80.8551 72.7449 79.4836C72.2968 78.1121 71.2686 77.2045 70.4173 77.485C69.5659 77.7654 69.3078 79.0712 69.7585 80.4492Z" fill="#3A3D3E"/>
<path d="M89.2547 70.8399C89.3174 70.8137 89.3702 70.7683 89.4055 70.7103C89.4569 70.6339 89.4761 70.5402 89.4589 70.4497C89.4417 70.3593 89.3894 70.2793 89.3134 70.2271C89.1765 70.1322 85.7988 67.8916 80.4891 70.0042C80.4458 70.0199 80.406 70.0442 80.3723 70.0757C80.3385 70.1072 80.3115 70.1452 80.2928 70.1874C80.2741 70.2296 80.2641 70.2751 80.2635 70.3213C80.2629 70.3674 80.2716 70.4132 80.2891 70.4559C80.3056 70.4987 80.3304 70.5378 80.362 70.5711C80.3937 70.6043 80.4315 70.631 80.4735 70.6495C80.5154 70.6681 80.5606 70.6782 80.6065 70.6794C80.6524 70.6805 80.698 70.6725 80.7408 70.656C85.726 68.6912 88.8924 70.7844 88.9223 70.8023C88.9699 70.8365 89.0254 70.8579 89.0836 70.8645C89.1418 70.8711 89.2007 70.8626 89.2547 70.8399Z" fill="#3A3D3E"/>
<path d="M71.5479 73.9955C71.5925 73.9767 71.6328 73.9493 71.6667 73.9147C71.7005 73.8801 71.727 73.8391 71.7448 73.7942C71.7628 73.7517 71.7722 73.7061 71.7725 73.66C71.7728 73.6139 71.7639 73.5682 71.7465 73.5255C71.729 73.4828 71.7033 73.444 71.6707 73.4114C71.6382 73.3787 71.5995 73.3528 71.5569 73.3351C71.5246 73.3484 67.1125 71.6971 63.9477 76.1549C63.8948 76.2307 63.8741 76.3244 63.8901 76.4155C63.9062 76.5065 63.9577 76.5875 64.0333 76.6407C64.1091 76.6933 64.2024 76.7145 64.2935 76.6998C64.3846 76.685 64.4665 76.6354 64.5218 76.5616C67.3387 72.5631 71.1517 73.9312 71.3104 73.987C71.3863 74.0169 71.4701 74.0199 71.5479 73.9955Z" fill="#3A3D3E"/>
<path d="M114.764 90.456L93.4129 126.978C93.3776 127.044 93.326 127.099 93.2632 127.139C93.2003 127.179 93.1283 127.201 93.0541 127.205C92.9798 127.209 92.9058 127.194 92.8392 127.161C92.7726 127.128 92.7156 127.078 92.6738 127.017L92.2184 126.365C92.1696 126.298 92.1412 126.219 92.1369 126.136C92.1326 126.053 92.1524 125.971 92.194 125.9L113.775 87.9849C113.775 87.9849 116.584 87.7108 114.764 90.456Z" fill="white"/>
<path d="M93.3146 127.494C93.4729 127.428 93.6058 127.313 93.6933 127.165L115.057 90.6379C115.724 89.6103 115.899 88.8591 115.565 88.3014C115.098 87.5268 113.891 87.6207 113.778 87.6216C113.722 87.6254 113.668 87.643 113.621 87.6728C113.574 87.7026 113.535 87.7438 113.508 87.7924L91.9227 125.716C91.8495 125.845 91.8145 125.992 91.8216 126.14C91.8288 126.288 91.8778 126.431 91.9631 126.553L92.4185 127.204C92.4957 127.31 92.5979 127.395 92.7161 127.452C92.8342 127.509 92.9646 127.536 93.0956 127.531C93.1701 127.53 93.244 127.518 93.3146 127.494ZM113.969 88.3284C114.279 88.3298 114.756 88.4064 114.951 88.6812C115.147 88.9559 114.949 89.5426 114.458 90.2794L93.1093 126.808C93.1011 126.819 93.0902 126.827 93.0777 126.832C93.0652 126.837 93.0516 126.839 93.0382 126.837C93.0234 126.839 93.0083 126.837 92.9949 126.83C92.9815 126.823 92.9703 126.813 92.9627 126.8L92.5035 126.158C92.494 126.144 92.4887 126.127 92.4884 126.11C92.488 126.092 92.4926 126.075 92.5015 126.061L113.969 88.3284Z" fill="#3A3D3E"/>
<path d="M93.4128 126.978C93.4128 126.978 92.8156 129.374 91.9952 129.951C91.1748 130.528 88.6975 132.055 88.6975 132.055C88.7789 130.593 89.1629 129.164 89.8251 127.858C90.8899 125.867 92.1924 125.877 92.1924 125.877L93.4128 126.978Z" fill="#C58B5D"/>
<path d="M88.8354 132.392L88.8871 132.371C88.997 132.326 91.3667 130.812 92.2042 130.258C93.0417 129.704 93.6988 127.344 93.759 127.086C93.7746 127.024 93.773 126.958 93.7545 126.897C93.736 126.835 93.7011 126.78 93.6537 126.736L92.4542 125.65C92.3912 125.592 92.3081 125.561 92.2226 125.563C92.1709 125.585 90.7153 125.569 89.5442 127.724C88.8554 129.079 88.4576 130.563 88.3763 132.082C88.3734 132.145 88.3881 132.208 88.4188 132.263C88.4494 132.318 88.4949 132.364 88.55 132.395C88.5953 132.414 88.644 132.424 88.6931 132.423C88.7422 132.423 88.7907 132.412 88.8354 132.392ZM93.0158 127.096C92.7764 127.986 92.2746 129.324 91.8012 129.661C91.3278 129.998 89.9093 130.903 89.1297 131.396C89.2687 130.221 89.6145 129.081 90.1511 128.027C90.9167 126.596 91.7784 126.304 92.0958 126.249L93.0158 127.096Z" fill="#3A3D3E"/>
<path d="M124.89 114.277C124.89 114.277 114.206 99.7343 113.912 99.0166C113.619 98.299 104.014 98.6219 102.868 98.5324C101.721 98.443 97.9959 104.98 97.8086 105.887C97.6212 106.793 98.278 110.427 98.4537 114.25C98.6294 118.073 99.1616 120.074 99.7924 120.933C100.423 121.792 101.495 124.41 103.402 123.63C105.309 122.849 103.509 119.133 103.509 119.133L112.151 117.822C112.151 117.822 114.764 121.478 117.587 122.27C120.409 123.062 122.334 123.671 122.334 123.671C122.334 123.671 147.709 146.943 150.723 148.774C153.737 150.605 159.806 149.223 162.364 145.957C164.922 142.691 165.061 136.226 161.585 131.806C158.108 127.387 131.446 117.994 129.528 117.383C127.61 116.772 124.89 114.277 124.89 114.277Z" fill="white"/>
<path d="M158.615 149.024C160.159 148.433 161.527 147.458 162.588 146.19C165.15 142.877 165.458 136.252 161.807 131.61C158.156 126.968 129.848 117.169 129.583 117.074C127.851 116.53 125.423 114.286 125.124 114.053C120.868 108.247 114.479 99.4794 114.21 98.8952C113.941 98.3109 112.596 98.1595 105.208 98.2014C104.064 98.2092 103.161 98.2164 102.865 98.1941C101.308 98.0768 97.5862 105.102 97.4441 105.825C97.3926 106.959 97.4603 108.095 97.6462 109.214C97.8004 110.661 97.9911 112.455 98.0795 114.275C98.2358 117.774 98.7096 120.093 99.4885 121.148C99.5935 121.294 99.7131 121.494 99.8498 121.718C100.527 122.837 101.677 124.744 103.52 123.99C103.735 123.905 103.93 123.775 104.091 123.609C104.252 123.442 104.375 123.244 104.454 123.026C104.886 121.906 104.313 120.23 103.997 119.439L111.977 118.226C112.553 118.987 114.892 121.917 117.481 122.638C120.071 123.36 121.772 123.901 122.14 124.007C123.799 125.533 147.528 147.311 150.491 149.11C152.482 150.341 155.809 150.172 158.615 149.024ZM113.599 99.2282C114.284 100.458 123.515 113.036 124.58 114.495L124.604 114.553C124.721 114.656 127.383 117.122 129.354 117.749C131.676 118.482 157.875 127.777 161.234 132.056C164.689 136.439 164.428 142.682 162.015 145.768C159.602 148.854 153.741 150.301 150.832 148.503C147.922 146.705 122.777 123.664 122.522 123.428C122.485 123.395 122.441 123.369 122.393 123.353C122.393 123.353 120.441 122.733 117.639 121.955C114.964 121.208 112.416 117.677 112.391 117.634C112.353 117.582 112.302 117.542 112.242 117.517C112.183 117.492 112.118 117.484 112.054 117.493L103.399 118.771C103.345 118.781 103.294 118.803 103.25 118.836C103.206 118.868 103.17 118.91 103.144 118.958C103.117 119.006 103.103 119.059 103.102 119.113C103.1 119.168 103.112 119.222 103.136 119.271C103.439 119.901 104.144 121.734 103.756 122.723C103.714 122.849 103.645 122.964 103.554 123.061C103.464 123.158 103.354 123.234 103.231 123.285C102.035 123.774 101.215 122.6 100.434 121.32C100.283 121.08 100.156 120.86 100.047 120.724C99.5695 120.074 98.9609 118.421 98.7693 114.227C98.682 112.391 98.4872 110.568 98.333 109.122C98.1593 108.077 98.0776 107.02 98.0886 105.961C98.2857 104.967 101.917 98.9372 102.747 98.8995C103.058 98.9229 103.932 98.9199 105.136 98.9103C107.528 98.89 112.904 98.8563 113.599 99.2282Z" fill="#3A3D3E"/>
<path d="M99.4013 118.686C99.4572 118.663 99.5064 118.626 99.544 118.579C99.5815 118.532 99.6063 118.476 99.6158 118.417C99.7761 117.37 99.8887 117.331 100.636 117.055L101.153 116.844C102.35 116.354 109.691 112.014 110 111.827C110.04 111.804 110.075 111.773 110.104 111.736C110.132 111.7 110.153 111.657 110.164 111.613C110.176 111.568 110.179 111.521 110.173 111.475C110.166 111.429 110.151 111.385 110.127 111.345C110.078 111.266 110.001 111.21 109.911 111.188C109.822 111.165 109.727 111.178 109.647 111.224C109.563 111.258 102.04 115.726 100.889 116.197L100.398 116.398C99.505 116.726 99.1045 116.928 98.9184 118.317C98.9053 118.408 98.9284 118.5 98.9826 118.574C99.0368 118.647 99.1178 118.697 99.2082 118.712C99.2738 118.722 99.341 118.713 99.4013 118.686Z" fill="#3A3D3E"/>
<path d="M99.217 113.477L99.2881 113.448L109.031 106.676C109.109 106.622 109.163 106.54 109.181 106.447C109.199 106.354 109.179 106.258 109.126 106.18C109.073 106.101 108.991 106.047 108.898 106.03C108.805 106.012 108.709 106.031 108.631 106.085L98.8786 112.853C98.7968 112.898 98.7359 112.973 98.7095 113.062C98.6831 113.152 98.6933 113.248 98.7378 113.33C98.7823 113.412 98.8575 113.473 98.9469 113.499C99.0363 113.525 99.1325 113.515 99.2143 113.471L99.217 113.477Z" fill="#3A3D3E"/>
<path d="M99.0331 108.269L99.0783 108.25L108.262 102.824C108.303 102.801 108.338 102.77 108.366 102.733C108.394 102.697 108.414 102.654 108.425 102.61C108.436 102.565 108.439 102.518 108.431 102.473C108.424 102.427 108.408 102.383 108.383 102.344C108.36 102.304 108.33 102.27 108.294 102.242C108.258 102.215 108.216 102.194 108.172 102.183C108.128 102.171 108.082 102.169 108.037 102.175C107.992 102.182 107.949 102.197 107.91 102.221L98.7258 107.647C98.6426 107.689 98.579 107.761 98.5492 107.849C98.5194 107.937 98.5257 108.033 98.5668 108.116C98.6079 108.2 98.6804 108.263 98.7683 108.293C98.8562 108.323 98.9524 108.316 99.0357 108.275L99.0331 108.269Z" fill="#3A3D3E"/>
<path d="M57.2653 153.886C63.2549 155.39 69.0818 152.734 70.2775 147.965C71.4732 143.196 67.5864 138.106 61.5994 136.609C55.6124 135.112 47.4054 137.135 46.2229 141.936C45.0404 146.737 51.2783 152.389 57.2653 153.886Z" fill="#C58B5D"/>
<path d="M65.3164 153.769L65.7173 153.605C66.9041 153.118 67.9632 152.364 68.8129 151.402C69.6626 150.441 70.2802 149.297 70.6182 148.059C71.8618 143.112 67.8553 137.823 61.6929 136.284C55.5305 134.745 47.1324 136.892 45.8644 141.871C45.3096 144.204 46.3168 146.887 48.7873 149.401C51.1059 151.736 54.0018 153.416 57.1802 154.269C59.8764 154.971 62.7264 154.796 65.3164 153.769ZM51.0768 137.64C54.4062 136.365 58.0426 136.124 61.5114 136.947C67.3047 138.395 71.0862 143.301 69.9199 147.847C69.6083 148.983 69.0397 150.033 68.2578 150.914C67.476 151.796 66.5019 152.486 65.4109 152.93C62.8649 154.026 60.0239 154.232 57.3468 153.514C54.297 152.699 51.5171 151.092 49.2889 148.856C46.9989 146.525 46.0299 144.083 46.5515 141.983C47.0538 140.056 48.7881 138.577 51.0768 137.64Z" fill="#3A3D3E"/>
<path d="M51.6464 157.862C51.7189 157.831 51.7792 157.777 51.8178 157.709C51.8475 157.656 51.8627 157.596 51.8618 157.535C51.8608 157.475 51.8438 157.416 51.8124 157.364L49.0533 152.651C49.0166 152.589 48.9623 152.541 48.8976 152.511C48.8328 152.481 48.7605 152.471 48.6901 152.482C47.0457 152.781 45.3868 152.994 43.7202 153.12C43.371 153.129 43.0378 153.269 42.7864 153.511C42.535 153.754 42.3836 154.082 42.3621 154.431C42.225 155.46 42.9187 156.731 44.7518 157.227C46.9675 157.741 49.2428 157.952 51.5154 157.855C51.5582 157.866 51.6027 157.868 51.6464 157.862ZM48.5688 153.219L50.9096 157.205C48.907 157.251 46.9067 157.043 44.9568 156.584C43.5111 156.187 42.9667 155.262 43.0621 154.537C43.0705 154.363 43.1431 154.199 43.2659 154.076C43.3886 153.953 43.5528 153.881 43.7262 153.872C45.3517 153.748 46.9686 153.53 48.5688 153.219Z" fill="#3A3D3E"/>
<path d="M75.1047 154.005C75.1047 154.005 71.1061 150.358 69.427 149.649C67.7479 148.94 64.0886 151.562 64.0886 151.562C64.0886 151.562 58.5289 144.1 57.8177 144.391C57.1066 144.683 56.7714 145.929 56.7714 145.929C56.7714 145.929 54.7034 144.27 53.5138 144.757C53.1613 144.928 52.864 145.195 52.6557 145.527C52.4474 145.859 52.3363 146.243 52.3353 146.635C52.3353 146.635 51.7506 145.206 50.1778 146.122C48.6051 147.037 48.858 148.338 48.858 148.338C48.1527 148.332 47.4593 148.519 46.8529 148.879C46.2396 149.409 52.2162 161.984 53.1814 162.978C54.1467 163.971 68.8411 160.463 68.8411 160.463C68.8411 160.463 78.5056 173.197 83.8785 175.444C89.2514 177.69 97.5046 175.43 95.9201 168.847C94.3357 162.265 92.3461 158.067 85.4005 156.736C78.4549 155.404 75.1047 154.005 75.1047 154.005Z" fill="white"/>
<path d="M92.453 175.867C93.2 175.571 93.8945 175.157 94.5097 174.64C95.3485 173.944 95.9622 173.015 96.2734 171.97C96.5846 170.925 96.5794 169.811 96.2583 168.769C94.5798 161.773 92.363 157.721 85.4694 156.406C82.0093 155.803 78.6086 154.899 75.3062 153.704C74.8279 153.273 71.2074 150.015 69.5738 149.325C67.9403 148.635 65.1293 150.434 64.1757 151.074C58.6425 143.677 57.9572 143.957 57.6986 144.063C57.1864 144.343 56.7989 144.806 56.6141 145.36C55.9163 144.891 54.4303 143.989 53.3894 144.415C53.0915 144.539 52.8246 144.726 52.6078 144.965C52.3911 145.204 52.2298 145.488 52.1356 145.796C51.9952 145.677 51.8327 145.587 51.6574 145.532C51.3797 145.453 51.0881 145.437 50.8035 145.485C50.5189 145.532 50.2483 145.642 50.0108 145.805C49.5942 146.01 49.2369 146.317 48.9729 146.699C48.7089 147.08 48.547 147.523 48.5026 147.985C47.8339 148.008 47.1851 148.219 46.6303 148.593C46.5779 148.641 46.5365 148.701 46.5088 148.767C46.4812 148.833 46.4679 148.904 46.4699 148.975C46.4055 150.662 52.041 162.274 52.9357 163.207C53.9154 164.217 64.1194 161.928 68.7068 160.836C69.9625 162.465 78.6467 173.615 83.7489 175.753C86.5313 176.892 89.6418 176.932 92.453 175.867ZM67.0727 150.296C67.75 149.928 68.5364 149.815 69.2898 149.977C70.8933 150.649 74.8058 154.233 74.8631 154.263C74.893 154.29 74.9274 154.312 74.9648 154.327C75.1041 154.391 78.4372 155.766 85.3399 157.085C91.8932 158.343 93.931 162.068 95.5851 168.932C95.8615 169.847 95.8634 170.824 95.5906 171.74C95.3178 172.657 94.7821 173.474 94.05 174.089C91.7062 176.09 87.3847 176.522 84.0071 175.112C78.7774 172.92 69.2063 160.359 69.1158 160.23C69.0731 160.178 69.0169 160.139 68.9532 160.117C68.8896 160.095 68.8211 160.091 68.7555 160.106C61.7974 161.769 54.168 163.193 53.4091 162.703C52.619 161.879 47.1802 150.526 47.1491 149.067C47.6741 148.796 48.2581 148.658 48.8492 148.666C48.9011 148.669 48.9529 148.66 49.001 148.64C49.0491 148.621 49.0922 148.591 49.1272 148.552C49.1597 148.513 49.183 148.467 49.1954 148.417C49.2078 148.368 49.209 148.316 49.1989 148.266C49.1856 148.234 49.0347 147.201 50.3556 146.427C50.5082 146.315 50.6829 146.238 50.8679 146.2C51.0529 146.162 51.2439 146.164 51.428 146.207C51.6876 146.312 51.8968 146.512 52.0123 146.768C52.0319 146.86 52.0874 146.94 52.1664 146.991C52.2453 147.042 52.3414 147.06 52.4335 147.041C52.5255 147.021 52.606 146.965 52.6572 146.886C52.7084 146.807 52.7261 146.711 52.7064 146.619C52.7079 146.297 52.799 145.981 52.9695 145.707C53.1401 145.434 53.3834 145.213 53.6722 145.069C54.4868 144.736 56.0895 145.793 56.583 146.188C56.6278 146.225 56.6813 146.25 56.7386 146.261C56.7959 146.272 56.8551 146.268 56.9104 146.25C56.9655 146.232 57.015 146.2 57.0543 146.157C57.0937 146.115 57.1216 146.063 57.1355 146.007C57.2539 145.513 57.5228 145.068 57.905 144.733C58.5875 145.073 61.4169 148.519 63.8037 151.769C63.8303 151.806 63.864 151.837 63.9028 151.861C63.9416 151.885 63.9848 151.901 64.0298 151.908C64.0748 151.915 64.1207 151.912 64.1648 151.901C64.209 151.89 64.2505 151.871 64.2869 151.843C65.16 151.233 66.0935 150.715 67.0727 150.296Z" fill="#3A3D3E"/>
<path d="M66.9531 155.296C66.9855 155.29 67.0164 155.278 67.0436 155.259C67.0803 155.231 67.111 155.196 67.1337 155.156C67.1565 155.116 67.1709 155.071 67.1761 155.026C67.1814 154.98 67.1772 154.933 67.1641 154.889C67.1509 154.845 67.1289 154.804 67.0994 154.768L64.3675 151.358C64.309 151.287 64.2249 151.242 64.1336 151.233C64.0422 151.224 63.9509 151.251 63.8794 151.308C63.8427 151.336 63.812 151.371 63.7893 151.412C63.7665 151.452 63.7521 151.496 63.7469 151.542C63.7417 151.588 63.7458 151.634 63.759 151.678C63.7721 151.722 63.7941 151.764 63.8236 151.799L66.5555 155.21C66.6038 155.265 66.6685 155.303 66.7401 155.319C66.8116 155.334 66.8863 155.326 66.9531 155.296Z" fill="#3A3D3E"/>
<path d="M55.5104 161.881C55.5667 161.858 55.6167 161.822 55.6561 161.776C55.6854 161.741 55.7072 161.7 55.7202 161.655C55.7332 161.611 55.7371 161.565 55.7318 161.519C55.7265 161.473 55.712 161.429 55.6892 161.389C55.6664 161.349 55.6357 161.314 55.5991 161.286C53.9619 159.979 50.4237 151.426 49.1972 148.244C49.1621 148.159 49.0944 148.09 49.009 148.054C48.9235 148.019 48.8274 148.018 48.7416 148.053C48.6559 148.088 48.5876 148.156 48.5518 148.242C48.516 148.327 48.5156 148.423 48.5507 148.509C48.7438 148.981 53.0527 160.155 55.1742 161.853C55.2233 161.885 55.2798 161.905 55.3386 161.91C55.3974 161.915 55.4565 161.905 55.5104 161.881Z" fill="#3A3D3E"/>
<path d="M57.9723 159.726L58.0111 159.71C58.0509 159.688 58.0859 159.659 58.1141 159.623C58.1423 159.588 58.1632 159.547 58.1756 159.503C58.1879 159.46 58.1914 159.414 58.1859 159.369C58.1804 159.324 58.166 159.28 58.1436 159.241C57.1461 157.468 52.7063 146.619 52.6613 146.509C52.6262 146.424 52.5585 146.355 52.4731 146.32C52.3877 146.284 52.2915 146.283 52.2057 146.318C52.12 146.354 52.0517 146.421 52.0159 146.507C51.9801 146.592 51.9797 146.688 52.0148 146.774C52.1974 147.22 56.5129 157.765 57.5458 159.606C57.593 159.672 57.6607 159.719 57.7382 159.741C57.8156 159.762 57.8981 159.757 57.9723 159.726Z" fill="#3A3D3E"/>
<path d="M63.0282 158.487C63.0744 158.478 63.1183 158.46 63.1575 158.434C63.1898 158.402 63.2153 158.364 63.2326 158.322C63.2499 158.28 63.2587 158.235 63.2583 158.189C63.2579 158.144 63.2485 158.099 63.2305 158.057C63.2125 158.015 63.1864 157.977 63.1536 157.945C60.4471 155.279 57.1504 145.933 57.1134 145.842C57.0986 145.799 57.0754 145.759 57.0451 145.724C57.0147 145.689 56.9779 145.661 56.9366 145.641C56.8954 145.621 56.8505 145.609 56.8046 145.606C56.7588 145.603 56.7127 145.609 56.6693 145.624C56.5814 145.656 56.5096 145.721 56.4692 145.805C56.4289 145.889 56.4233 145.986 56.4536 146.075C56.6097 146.456 59.8444 155.669 62.662 158.441C62.7122 158.483 62.7734 158.51 62.8383 158.518C62.9032 158.526 62.9691 158.515 63.0282 158.487Z" fill="#3A3D3E"/>
</svg>
