<svg width="158" height="268" viewBox="0 0 158 268" fill="none" xmlns="http://www.w3.org/2000/svg">
<path d="M73.9782 43.3429C73.9782 43.3429 76.3342 61.9802 75.0103 70.499C73.6864 79.0178 73.6128 81.3767 73.6128 81.3767C79.7852 81.0656 85.9317 80.3628 92.015 79.2727C101.468 77.5082 104 75.0288 104 75.0288L101.434 70.7688C101.434 70.7688 95.1595 75.3183 91.6372 72.9484C88.1149 70.5786 81.9424 59.963 80.7068 57.3718C79.4711 54.7806 77.1992 42.6751 77.1992 42.6751L73.9782 43.3429Z" fill="#3A3D3E" stroke="#3A3D3E" stroke-miterlimit="10"/>
<path d="M99.6013 69.7781C99.6013 69.7781 103.229 76.1669 103.878 78.3132C104.526 80.4595 104.424 81.0391 103.489 82.176C101.416 84.6753 96.7651 89.3564 91.9733 91.5851C87.1814 93.8139 83.8513 96.2176 83.376 98.2396C80.6294 109.989 87.5037 145.993 87.5037 145.993C87.5037 145.993 86.0785 147.98 80.5175 150.752C74.9564 153.525 73.1443 154.231 73.1443 154.231L74.4362 163.673C74.4362 163.673 79.9403 162.791 89.2044 160.908C98.4684 159.025 104.073 156.415 104.073 156.415L103.741 181.641C103.65 188.061 104.844 196.131 104.844 196.131L179.922 173.443C179.922 173.443 159.951 137.815 157.567 133.54C155.183 129.264 150.155 113.149 150.155 113.149L171.866 107.522C171.866 107.522 161.004 85.5256 154.566 77.6438C148.128 69.762 146.887 71.8513 141.173 72.6388C135.459 73.4263 126.054 74.2429 121.742 72.8924C117.43 71.542 112.212 58.9179 112.212 58.9179L99.6013 69.7781Z" fill="#C58B5D" stroke="#3A3D3E" stroke-linecap="round" stroke-linejoin="round"/>
<path d="M104.661 151.451C106.99 155.415 106.194 158.789 104.027 161.56L104.099 156.446C104.099 156.446 98.5012 159.077 89.2309 160.939C79.9606 162.801 74.4627 163.705 74.4627 163.705L73.1708 154.262C73.1708 154.262 74.9845 153.561 80.544 150.784C86.1035 148.006 87.5302 146.025 87.5302 146.025C87.5302 146.025 97.4257 139.023 104.661 151.451Z" fill="white" stroke="#3A3D3E" stroke-linecap="round" stroke-linejoin="round"/>
<path d="M103.761 181.652L104.093 156.426C104.093 156.426 102.732 147.785 102.156 146.403C101.58 145.021 95.06 138.403 93.3743 132.825C91.6887 127.246 91.6408 109.021 91.7218 107.734C91.8025 106.579 94.9503 91.8509 95.4396 89.5758C95.8799 89.273 96.3155 88.9546 96.7345 88.6187L95.5391 107.973L129.498 96.9303L128.321 73.6199C129.222 73.6249 130.167 73.6277 131.106 73.5703C131.228 76.5772 132.195 97.7673 133.675 100.364C135.298 103.149 150.182 113.163 150.182 113.163C150.182 113.163 155.21 129.279 157.594 133.554C159.978 137.83 179.949 173.458 179.949 173.458L191.5 284L110.5 293.5C110.5 293.5 103.67 188.072 103.761 181.652Z" fill="#3A3D3E" stroke="#3A3D3E" stroke-linecap="round" stroke-linejoin="round"/>
<path d="M103.239 76.7412C101.988 74.0074 99.5753 69.786 99.5753 69.786L112.213 58.9403C113.619 62.2729 115.304 65.4809 117.249 68.5301L103.239 76.7412Z" fill="white" stroke="#3A3D3E" stroke-linecap="round" stroke-linejoin="round"/>
<path d="M75.1626 43.63C75.1626 43.63 76.8487 50.764 78.1459 55.0566C79.443 59.3492 79.9793 63.7076 83.6614 68.6656C87.3434 73.6236 91.377 76.6367 93.3076 76.8284C95.2382 77.0201 99.5961 74.9281 101.628 73.3751C103.659 71.8221 113.319 60.9538 113.319 60.9538C113.319 60.9538 103.854 41.5003 102.991 40.1994C102.34 39.2908 101.569 38.4752 100.697 37.7753L75.1626 43.63Z" fill="white" stroke="#3A3D3E" stroke-linecap="round" stroke-linejoin="round"/>
<path d="M81.6431 49.5925C81.6431 49.5925 83.4374 51.3926 83.8547 53.2976C84.2719 55.2026 81.9078 60.2791 82.124 60.9945C82.3402 61.7099 84.7298 62.3909 87.1612 61.6562" stroke="#3A3D3E" stroke-linecap="round" stroke-linejoin="round"/>
<path d="M90.1639 65.9199C90.1639 65.9199 96.1286 63.959 97.7219 59.421" stroke="#3A3D3E" stroke-linecap="round" stroke-linejoin="round"/>
<path d="M95.7319 46.1329C95.7319 46.1329 91.6529 45.0288 88.8282 46.5217" stroke="#3A3D3E" stroke-linecap="round" stroke-linejoin="round"/>
<path d="M80.63 48.8236C79.9538 48.6346 79.2347 48.6697 78.5801 48.9236C77.9256 49.1775 77.3709 49.6365 76.999 50.232" stroke="#3A3D3E" stroke-linecap="round" stroke-linejoin="round"/>
<path d="M90.5039 52.5725C90.8376 53.6768 91.653 54.4092 92.3217 54.2071C92.9905 54.005 93.2638 52.9436 92.9301 51.8394C92.5965 50.7351 91.7811 50.0027 91.1123 50.2048C90.4436 50.4069 90.164 51.4476 90.5039 52.5725Z" fill="#3A3D3E"/>
<path d="M80.1789 55.3248C80.5188 56.4498 81.2388 57.2223 81.7987 57.0531C82.3586 56.8839 82.5303 55.842 82.1904 54.717C81.8504 53.592 81.1237 52.8159 80.569 52.9835C80.0142 53.1511 79.8389 54.1998 80.1789 55.3248Z" fill="#3A3D3E"/>
<path d="M98.2105 38.8323C98.2105 38.8323 108.755 60.3021 111.271 66.5686C112.769 70.2703 113.88 74.1171 114.587 78.0474C114.587 78.0474 118.423 74.2291 126.33 68.9035C134.237 63.5778 139.566 56.9491 139.047 55.2331C138.529 53.5171 118.827 33.253 118.827 33.253L98.2105 38.8323Z" fill="#3A3D3E" stroke="#3A3D3E" stroke-miterlimit="10"/>
<path d="M133.064 106.167C133.064 106.167 145.855 106.669 150.961 106.529C156.067 106.389 168.189 104.152 171.874 107.565C175.558 110.978 176.972 115.076 177.887 118.704C178.802 122.331 176.155 124.84 173.455 125.192C170.755 125.544 160.779 127.149 150.201 123.636C139.623 120.122 129.679 115.636 129.679 115.636L133.064 106.167Z" fill="white" stroke="#3A3D3E" stroke-linecap="round" stroke-linejoin="round"/>
<path d="M92.0404 94.8406L95.1873 93.8896L96.7429 99.0376L93.596 99.9885L92.0404 94.8406Z" fill="white" stroke="#3A3D3E" stroke-linecap="round" stroke-linejoin="round"/>
<path d="M88.8534 97.2124L92.5706 96.0891L93.3476 98.6605L89.6305 99.7838L88.8534 97.2124Z" fill="white" stroke="#3A3D3E" stroke-linecap="round" stroke-linejoin="round"/>
<path d="M95.1872 93.8897L100.62 92.2479L103.515 101.828L98.0823 103.47L95.1872 93.8897Z" fill="white" stroke="#3A3D3E" stroke-linecap="round" stroke-linejoin="round"/>
<path d="M111.482 137.497C106.042 139.141 99.9199 134.808 97.8079 127.819C95.6959 120.83 98.3939 113.831 103.834 112.188C109.274 110.544 115.396 114.877 117.508 121.866C119.62 128.855 116.922 135.853 111.482 137.497Z" stroke="#3A3D3E" stroke-linecap="round" stroke-linejoin="round"/>
<path d="M135.396 104.523C135.985 106.81 136.173 109.182 135.953 111.534C135.607 115.537 132.151 119.546 132.151 119.546L125.623 118.09L117.686 118.146C117.686 118.146 113.251 117.925 112.783 117.93C112.315 117.936 102.374 121.698 100.142 122.061C97.9094 122.425 95.2111 120.723 95.4027 119.278C95.5944 117.834 98.1272 116.424 98.1272 116.424C98.1272 116.424 97.0457 111.291 97.0133 110.679C96.981 110.066 93.7417 111.198 92.7317 108.38C91.7218 105.562 92.8519 104.134 92.8519 104.134C92.8519 104.134 91.9161 100.513 93.6587 99.0532C95.4014 97.5931 97.7665 96.1146 103.496 95.4526C109.225 94.7907 114.86 94.8474 120.052 98.0988C125.244 101.35 128.038 103.465 128.038 103.465L135.396 104.523Z" fill="white" stroke="#3A3D3E" stroke-linecap="round" stroke-linejoin="round"/>
<path d="M98.0911 116.418C98.0911 116.418 102.835 114.051 105.913 113.901" stroke="#3A3D3E" stroke-linecap="round" stroke-linejoin="round"/>
<path d="M96.9774 110.673C96.9774 110.673 101.72 106.745 104.947 106.567" stroke="#3A3D3E" stroke-linecap="round" stroke-linejoin="round"/>
<path d="M92.816 104.128C92.816 104.128 97.6978 99.6883 103.567 99.9401" stroke="#3A3D3E" stroke-linecap="round" stroke-linejoin="round"/>
<path d="M57.3743 118.725C57.3743 118.725 49.7466 123.327 49.4059 137.121" stroke="#3A3D3E" stroke-linecap="round" stroke-linejoin="round"/>
<path d="M43.158 112.215C43.158 112.215 45.4646 129.209 48.7926 137.901" stroke="#3A3D3E" stroke-linecap="round" stroke-linejoin="round"/>
<path d="M31.0622 120.322C31.0622 120.322 41.5323 125.407 47.0213 137.955" stroke="#3A3D3E" stroke-linecap="round" stroke-linejoin="round"/>
<path d="M44.253 106.945C44.253 106.945 45.1414 104.006 46.7886 104.102C48.4358 104.198 50.0988 106.219 49.6087 107.555C49.1185 108.892 46.7684 107.967 47.098 108.608C47.4277 109.25 50.3947 109.688 49.8935 111.475C49.3924 113.261 47.6119 114.241 46.7386 113.316C45.8653 112.392 45.0504 111.156 45.0216 112.053C44.9928 112.95 46.5802 114.253 45.3664 115.066C44.1526 115.88 41.5449 116.668 41.1329 115.305C40.7209 113.941 41.7704 113.483 40.8327 113.319C39.8951 113.155 39.5177 115.351 38.2348 114.551C36.9519 113.751 35.2874 110.695 36.5271 109.873C37.7668 109.052 38.0906 110.142 38.7933 109.041C39.4961 107.941 36.6956 107.005 38.9907 105.276C41.2858 103.547 44.3919 103.491 44.253 106.945Z" fill="white" stroke="#3A3D3E" stroke-linecap="round" stroke-linejoin="round"/>
<path d="M32.7354 118.351C32.7354 118.351 35.4507 116.908 36.5566 118.153C37.6624 119.397 37.3885 121.992 36.097 122.586C34.8055 123.18 33.7987 120.859 33.5889 121.55C33.3792 122.242 35.1425 124.651 33.5191 125.532C31.8956 126.413 29.9477 125.864 29.9887 124.596C30.0298 123.327 30.3314 121.873 29.6748 122.49C29.0183 123.107 29.2091 125.142 27.7545 124.841C26.2999 124.539 23.9324 123.258 24.6068 122.007C25.2813 120.757 26.3471 121.176 25.8159 120.391C25.2847 119.607 23.4478 120.886 23.1159 119.414C22.7841 117.941 23.7797 114.608 25.2275 114.906C26.6754 115.204 26.1416 116.208 27.4239 115.939C28.7062 115.671 27.3885 113.014 30.2346 113.427C33.0807 113.84 35.2876 116.013 32.7354 118.351Z" fill="white" stroke="#3A3D3E" stroke-linecap="round" stroke-linejoin="round"/>
<path d="M61.9212 115.761C61.9212 115.761 64.6381 114.323 65.7423 115.562C66.8466 116.802 66.5691 119.403 65.2828 119.995C63.9965 120.588 62.986 118.274 62.7711 118.967C62.5561 119.66 64.3231 122.062 62.7012 122.948C61.0793 123.834 59.135 123.279 59.1761 122.011C59.2171 120.742 59.5135 119.289 58.8622 119.905C58.2108 120.52 58.3964 122.557 56.9434 122.261C55.4903 121.964 53.1197 120.672 53.7957 119.427C54.4717 118.182 55.5344 118.59 55.0032 117.806C54.472 117.022 52.6367 118.306 52.3033 116.829C51.9699 115.351 52.9618 112.024 54.4164 112.326C55.8711 112.627 55.3289 113.623 56.6128 113.359C57.8967 113.096 56.5789 110.439 59.4235 110.847C62.268 111.254 64.4749 113.428 61.9212 115.761Z" fill="white" stroke="#3A3D3E" stroke-linecap="round" stroke-linejoin="round"/>
<path d="M52.4011 136.38C52.4011 136.38 52.4299 135.483 54.3435 134.458C55.2888 133.909 56.3093 133.502 57.3726 133.248C57.3726 133.248 58.2561 132.24 56.1186 131.551L53.981 130.862C54.6065 130.139 55.4394 129.627 56.3663 129.394C57.3176 129.224 58.2811 129.132 59.2474 129.118C58.9775 128.32 58.5011 127.608 57.8667 127.055C57.2323 126.501 56.4626 126.125 55.6358 125.966C52.8192 125.482 51.7215 126.792 51.7215 126.792L53.9023 123.168C53.4191 122.927 52.885 122.806 52.3451 122.815C51.8051 122.823 51.2752 122.961 50.7998 123.218C49.5627 123.86 48.4678 124.745 47.5806 125.82C47.5806 125.82 50.4277 120.507 50.5343 119.886C50.641 119.266 48.1281 120.761 46.5011 122.735C45.5509 123.844 44.8812 125.166 44.5485 126.589C44.5485 126.589 43.5802 124.358 42.3507 123.248C41.3932 122.449 40.3423 121.769 39.2212 121.223C39.2212 121.223 40.6422 124.952 40.9696 126.036C41.297 127.119 39.8464 125.464 37.4189 125.519C35.7908 125.639 34.2162 126.152 32.8294 127.013C32.8294 127.013 36.3504 127.431 37.3386 128.174C38.3267 128.916 39.7497 130.274 39.7497 130.274C39.7497 130.274 39.6386 129.419 37.3154 130.568C34.9922 131.717 32.9194 135.155 32.9194 135.155C32.9194 135.155 36.6839 133.871 38.2682 134.133C39.3901 134.396 40.4466 134.886 41.3731 135.571C40.9184 135.449 40.4438 135.419 39.9773 135.483C39.5108 135.547 39.0619 135.704 38.6572 135.945C37.7603 136.59 36.9396 137.336 36.2111 138.166C36.2111 138.166 40.0461 137.602 42.0614 137.887C44.0768 138.171 44.9078 138.956 44.9078 138.956L52.4011 136.38Z" fill="#C58B5D" stroke="#3A3D3E" stroke-linecap="round" stroke-linejoin="round"/>
<path d="M50.7208 161.787L60.4258 158.855C62.356 158.271 64.0124 157.013 65.093 155.311C66.1737 153.608 66.6066 151.574 66.313 149.579L63.6926 131.808L33.0225 141.076L40.682 157.324C41.5424 159.148 43.0294 160.602 44.8721 161.421C46.7147 162.241 48.7904 162.37 50.7208 161.787Z" fill="#3A3D3E" stroke="#3A3D3E" stroke-linecap="round" stroke-linejoin="round"/>
<path d="M32.8709 139.713L63.1989 130.549C64.0206 130.3 64.8881 130.765 65.1364 131.587L65.3463 132.282C65.5946 133.103 65.1298 133.971 64.308 134.219L33.9801 143.384C33.1583 143.632 32.2909 143.167 32.0426 142.345L31.8326 141.651C31.5843 140.829 32.0492 139.962 32.8709 139.713Z" fill="#A1A1A1" stroke="#3A3D3E" stroke-linecap="round" stroke-linejoin="round"/>
<path d="M77.7304 151.283C77.7304 151.283 80.0985 151.818 81.5304 156.556C82.9622 161.295 78.1714 165.062 77.257 165.65C76.3426 166.237 65.432 167.82 56.6186 168.61C47.8052 169.401 43.508 166.021 42.4442 163.53C41.3805 161.04 42.4344 158.854 43.9686 159.794C45.5029 160.733 45.67 161.305 48.7228 162.103C51.7756 162.9 52.243 162.912 55.7716 161.67C59.3002 160.428 66.1287 154.642 66.0943 152.469C66.0599 150.295 66.2224 147.276 69.6945 148.88C71.8089 149.874 73.8036 151.105 75.6403 152.549L77.7304 151.283Z" fill="white" stroke="#3A3D3E" stroke-linecap="round" stroke-linejoin="round"/>
<path d="M68.1338 144.82C68.1338 144.82 73.7992 153.252 73.16 154.226C72.5208 155.2 71.3871 156.634 70.0053 157.21C68.6234 157.786 66.778 154.282 65.1555 151.496C63.5331 148.711 61.4312 146.398 62.2949 144.089C63.1587 141.78 66.7964 141.948 68.1338 144.82Z" fill="white" stroke="#3A3D3E" stroke-linecap="round" stroke-linejoin="round"/>
<path d="M62.6877 148.497C62.6877 148.497 68.6455 158.402 68.5938 160.29C68.5421 162.179 66.155 164.614 64.5142 164.352C62.8735 164.09 61.8357 161.105 59.404 156.222C56.9722 151.338 56.3402 150.726 58.2755 148.874C60.2109 147.022 61.4861 147.609 62.6877 148.497Z" fill="white" stroke="#3A3D3E" stroke-linecap="round" stroke-linejoin="round"/>
<path d="M52.4468 155.948C53.6998 153.447 57.3311 153.538 58.6283 156.015C60.2732 159.155 62.9611 164.493 62.8679 165.607C62.7248 167.212 57.3951 170.226 56.5914 168.596C55.7878 166.966 52.853 160.362 52.1559 158.055C51.9842 157.341 52.0881 156.588 52.4468 155.948Z" fill="white" stroke="#3A3D3E" stroke-linecap="round" stroke-linejoin="round"/>
<path d="M117.915 33.8114C117.915 33.8114 116.495 18.7951 115.035 17.0525C113.575 15.3098 102.665 13.2998 89.635 16.1452C76.6052 18.9906 72.4484 22.2722 72.6567 25.0211C72.865 27.77 73.9783 43.3429 73.9783 43.3429L90.147 41.5801L104.403 38.6751L119.063 35.026L117.915 33.8114Z" fill="white" stroke="#3A3D3E" stroke-linecap="round" stroke-linejoin="round"/>
<path d="M104.403 38.6752L90.1468 41.5802L73.9781 43.343C73.9781 43.343 73.5457 37.2503 73.1648 32.0019C89.7045 31.2981 108.267 27.4031 116.927 25.3917C117.517 29.6094 117.915 33.8115 117.915 33.8115L119.063 35.0262L104.403 38.6752Z" fill="#C58B5D" stroke="#3A3D3E" stroke-linecap="round" stroke-linejoin="round"/>
<path d="M132.596 29.2223C132.596 29.2223 133.405 30.8506 132.259 31.1968C131.114 31.543 123.482 35.7217 102.99 40.1943C82.4971 44.6669 72.7437 45.436 66.3618 45.4918C59.9798 45.5476 57.8163 45.1094 57.7181 43.736C57.6199 42.3626 56.0272 43.3078 57.6132 42.359C59.1991 41.4101 61.219 41.8973 62.7732 41.8916C63.6719 41.8874 64.5702 41.9294 65.4647 42.0175L65.2902 39.8863L67.0062 39.3678L67.9133 42.3695L70.3181 42.5763L69.4721 40.8065L71.0158 39.7177L72.5182 41.6003L73.2508 42.4709L80.6871 41.7853L79.9038 39.1931L82.0063 38.3994L83.3436 41.2711L86.8043 40.8533L89.4812 38.3471L91.0317 38.8347L89.4729 40.3977L95.2673 39.4275L98.2152 38.8478L99.0764 34.995L100.981 34.5777L100.7 37.7857L104.305 37.3189L102.845 35.5762L105.431 34.325L107.838 36.0928L116.059 34.3894L113.023 33.123L113.166 31.5182L118.382 32.2672L117.915 28.6629L120.507 27.8796L120.86 30.6018L124.42 27.0086L126.568 27.9209L125.329 31.5712L132.596 29.2223Z" fill="white" stroke="#3A3D3E" stroke-linecap="round" stroke-linejoin="round"/>
</svg>
