<svg width="92" height="259" viewBox="0 0 92 259" fill="none" xmlns="http://www.w3.org/2000/svg">
<path d="M88.0253 102.978C86.0234 98.5243 74.171 72.0556 70.2572 63.8954C67.2852 57.9683 63.5827 52.4366 59.2361 47.4296L28.7081 60.5912C28.7081 60.5912 28.0154 61.9766 27.7868 66.6524C27.5651 71.162 83.5781 162.628 88.0531 169.867L88.0253 102.978Z" fill="white"/>
<path d="M88.0253 170.207C87.9657 170.206 87.9071 170.191 87.855 170.162C87.8029 170.133 87.759 170.091 87.7275 170.04C81.5346 159.934 27.2118 71.1897 27.4612 66.6178C27.6967 61.9073 28.3894 60.4803 28.4171 60.3834C28.455 60.312 28.5161 60.2558 28.5903 60.224L59.1183 47.0624C59.1854 47.0352 59.2593 47.0292 59.3299 47.0453C59.4005 47.0614 59.4645 47.0988 59.5131 47.1525C59.5824 47.2287 66.3641 54.8347 70.5966 63.7015C74.5658 72.0141 86.9655 99.6673 88.3648 102.791C88.3866 102.834 88.3985 102.882 88.3994 102.93V169.812C88.399 169.888 88.3737 169.961 88.3274 170.021C88.2811 170.081 88.2163 170.124 88.1431 170.144L88.0253 170.207ZM28.9713 60.8406C28.8189 61.2423 28.3271 62.8217 28.1331 66.6524C27.9599 70.1645 65.1657 131.892 87.7067 168.634V103.055C86.1619 99.5911 73.9078 72.3189 69.9662 64.0478C66.1563 56.04 60.2266 49.0644 59.1668 47.8452L28.9713 60.8406Z" fill="#3A3D3E"/>
<path d="M88.0252 122.638L63.7802 83.7141L63.226 73.6143L51.8447 70.123L50.3761 81.8784L62.1246 87.9396L85.8154 148.899L88.0252 136.146V122.638Z" fill="#3A3D3E"/>
<path d="M85.8152 149.245C85.7449 149.245 85.676 149.225 85.6179 149.185C85.5597 149.145 85.515 149.089 85.4897 149.023L61.8473 88.1821L50.2166 82.1832C50.1526 82.1529 50.0999 82.103 50.0663 82.0407C50.0327 81.9784 50.0198 81.9069 50.0295 81.8368L51.4981 70.0607C51.5043 70.0106 51.521 69.9625 51.5473 69.9195C51.5736 69.8765 51.6088 69.8396 51.6505 69.8113C51.6958 69.7892 51.7456 69.7778 51.796 69.7778C51.8464 69.7778 51.8961 69.7892 51.9414 69.8113L63.3297 73.2749C63.3976 73.295 63.4574 73.3359 63.5009 73.3918C63.5444 73.4477 63.5693 73.5158 63.5721 73.5866L64.1194 83.5963L88.3159 122.451C88.3507 122.505 88.3699 122.567 88.3714 122.631V136.153L86.1547 148.968C86.1416 149.042 86.1047 149.11 86.0497 149.161C85.9948 149.212 85.9246 149.244 85.8499 149.252L85.8152 149.245ZM50.75 81.6775L62.2837 87.6626C62.3574 87.7026 62.4159 87.766 62.4499 87.8427L85.6836 147.645L87.6786 136.125V122.742L63.4821 83.8942C63.4527 83.8461 63.436 83.7912 63.4336 83.7349L62.8933 73.8775L52.1354 70.5802L50.75 81.6775Z" fill="#3A3D3E"/>
<path d="M28.7079 60.5774C28.7079 60.5774 27.4195 64.0409 27.7866 66.6386C28.1538 69.2363 34.5822 79.8556 37.3392 83.8942C40.0962 87.9327 50.9233 89.048 50.9233 89.048L54.5948 73.9883L69.6544 79.4954C69.6544 79.4954 69.8345 66.0914 69.6544 61.8658C69.4743 57.6402 63.7802 50.8516 61.5773 49.196C59.3745 47.5404 57.899 47.7275 57.899 47.7275L28.7079 60.5774Z" fill="white"/>
<path d="M50.9233 89.3874H50.8887C50.4384 89.3458 39.8606 88.2236 37.0343 84.102C34.4228 80.2643 27.8212 69.4164 27.4333 66.694C27.0454 63.9717 28.313 60.612 28.3685 60.4596C28.3835 60.4158 28.4072 60.3754 28.4382 60.3409C28.4691 60.3064 28.5066 60.2784 28.5486 60.2587L57.7673 47.4088C57.7993 47.4027 57.8323 47.4027 57.8643 47.4088C57.9336 47.4088 59.506 47.2287 61.792 48.9397C64.078 50.6507 69.8206 57.5918 70.0076 61.8727C70.1946 66.1537 70.0076 79.3915 70.0076 79.5231C70.0078 79.5785 69.994 79.6329 69.9673 79.6814C69.9406 79.7299 69.9021 79.7708 69.8552 79.8002C69.8113 79.8335 69.7595 79.8548 69.7048 79.8621C69.6502 79.8694 69.5946 79.8624 69.5435 79.8418L54.851 74.4663L51.2696 89.1449C51.2458 89.2173 51.1992 89.28 51.1367 89.3237C51.0743 89.3674 50.9994 89.3897 50.9233 89.3874ZM28.985 60.8337C28.7564 61.4917 27.8212 64.415 28.1329 66.5901C28.4862 69.0978 34.9008 79.7102 37.6232 83.7002C40.0061 87.1984 48.9075 88.4453 50.66 88.66L54.2622 73.8983C54.2726 73.8507 54.2936 73.8061 54.3236 73.7678C54.3536 73.7294 54.3918 73.6983 54.4354 73.6766C54.4787 73.6562 54.526 73.6457 54.5739 73.6457C54.6218 73.6457 54.6691 73.6562 54.7124 73.6766L69.3149 79.0174C69.3149 76.5652 69.4673 65.6065 69.3149 61.9004C69.1417 57.8896 63.5792 51.1426 61.3764 49.487C59.513 48.1015 58.2314 48.1015 57.9959 48.1015L28.985 60.8337Z" fill="#3A3D3E"/>
<path d="M88.0252 34.7668C86.0995 33.7762 83.1762 32.3076 81.8878 31.8297C79.8443 31.0885 77.8008 32.9449 77.8008 32.9449L59.236 47.4296C59.236 47.4296 68.1443 65.4402 74.829 76.9532C79.588 85.1411 85.1851 96.9934 88.0252 103.152V34.7668Z" fill="#C58B5D"/>
<path d="M88.0252 103.498C87.9583 103.499 87.8927 103.48 87.8362 103.445C87.7796 103.409 87.7346 103.358 87.7065 103.297C84.8179 97.0142 79.2623 85.2865 74.5449 77.1263C67.9295 65.7381 59.0281 47.7621 58.9381 47.582C58.901 47.5116 58.8904 47.4303 58.9082 47.3528C58.926 47.2752 58.971 47.2066 59.035 47.1595L77.5998 32.6748C77.6691 32.6055 79.8027 30.7005 82.0193 31.5041C83.3147 31.9751 86.0925 33.3744 88.1984 34.4551C88.2544 34.4858 88.3012 34.5308 88.3341 34.5856C88.3669 34.6404 88.3847 34.7029 88.3854 34.7668V103.152C88.3854 103.232 88.3578 103.309 88.3074 103.371C88.2569 103.433 88.1865 103.475 88.1083 103.491L88.0252 103.498ZM59.6723 47.5266C60.7807 49.7571 68.9547 66.1468 75.1338 76.78C79.5325 84.3583 84.6447 95.0538 87.6788 101.579V34.9746C85.9401 34.081 83.0515 32.6263 81.77 32.1552C79.955 31.4625 78.0501 33.1874 78.0362 33.2012L59.6723 47.5266Z" fill="#3A3D3E"/>
<path d="M88.0252 69.9082L77.6345 68.98L81.5137 60.6466C81.5137 60.6466 74.6489 52.6596 70.1878 50.436C66.932 48.8012 63.2606 46.6815 61.5496 45.6562L59.236 47.4642C59.236 47.4642 68.1443 65.4748 74.829 76.9878C79.588 85.1757 85.1851 97.028 88.0252 103.186V69.9082Z" fill="#C58B5D"/>
<path d="M88.0252 103.498C87.9583 103.499 87.8927 103.48 87.8362 103.445C87.7796 103.409 87.7346 103.358 87.7065 103.297C84.8179 97.0142 79.2623 85.2865 74.5449 77.1263C67.9295 65.7381 59.0281 47.7621 58.9381 47.582C58.901 47.5116 58.8904 47.4303 58.9082 47.3527C58.926 47.2752 58.971 47.2066 59.035 47.1594L61.3487 45.3515C61.407 45.3121 61.4758 45.2911 61.5461 45.2911C61.6165 45.2911 61.6852 45.3121 61.7435 45.3515C63.5862 46.4459 67.1537 48.5172 70.3609 50.1173C74.822 52.3548 81.5137 60.0855 81.7907 60.4111C81.8345 60.4618 81.8629 60.5239 81.8727 60.5901C81.8825 60.6563 81.8733 60.724 81.8462 60.7852L78.154 68.696L88.0598 69.5757C88.109 69.5822 88.1563 69.5984 88.1991 69.6234C88.2419 69.6484 88.2793 69.6816 88.3092 69.7212C88.3559 69.7833 88.3825 69.8583 88.3854 69.9359V103.186C88.3854 103.266 88.3578 103.344 88.3074 103.405C88.2569 103.467 88.1865 103.51 88.1083 103.526L88.0252 103.498ZM59.6723 47.5266C60.7807 49.7571 68.9547 66.1468 75.1338 76.78C79.5325 84.3583 84.6447 95.0538 87.6788 101.579V70.213L77.5859 69.3125C77.5304 69.3077 77.4768 69.2896 77.4298 69.2597C77.3827 69.2297 77.3436 69.1889 77.3157 69.1406C77.2879 69.0923 77.2721 69.038 77.2697 68.9823C77.2673 68.9266 77.2783 68.8712 77.302 68.8207L81.105 60.6466C80.0867 59.4898 74.0254 52.6804 70.0215 50.6923C66.9112 49.1337 63.4615 47.1456 61.5635 46.0234L59.6723 47.5266Z" fill="#3A3D3E"/>
<path d="M26.5051 55.9846C26.5051 55.9846 29.9687 67.0057 33.6609 69.3887C37.3531 71.7716 48.3534 75.6231 51.2905 75.0828C53.0412 74.761 54.6826 74.0034 56.0633 72.88C56.0633 72.88 60.8431 57.8203 60.656 55.6175C60.469 53.4147 57.3102 43.5989 57.3102 43.5989C57.3102 43.5989 50.5562 57.8203 48.1733 59.1088C45.7903 60.3972 26.5051 55.9846 26.5051 55.9846Z" fill="white"/>
<path d="M50.6117 75.4846C46.7256 75.4846 36.8197 71.8547 33.4739 69.6796C29.7402 67.2551 26.3182 56.518 26.1727 56.0885C26.1536 56.0303 26.1506 55.9681 26.164 55.9083C26.1774 55.8486 26.2068 55.7935 26.2489 55.7491C26.2902 55.704 26.3427 55.6706 26.4011 55.6523C26.4595 55.6341 26.5217 55.6316 26.5814 55.6452C34.2775 57.4116 46.3446 59.6976 48.0071 58.804C49.8844 57.7926 55.1351 47.3811 57.0124 43.4534C57.0424 43.3918 57.09 43.3405 57.1492 43.306C57.2084 43.2714 57.2765 43.2553 57.3449 43.2594C57.4139 43.2622 57.4803 43.2864 57.5349 43.3286C57.5895 43.3708 57.6296 43.4289 57.6497 43.495C57.7813 43.8967 60.8293 53.3731 61.0163 55.5898C61.2033 57.8065 56.6037 72.3673 56.4097 72.9839C56.3901 73.0417 56.3568 73.094 56.3128 73.1363C54.8838 74.304 53.1821 75.0905 51.3668 75.4222C51.1177 75.4675 50.8648 75.4883 50.6117 75.4846ZM27.0247 56.4903C27.8006 58.7763 30.8 67.1512 33.8549 69.1324C37.6025 71.5777 48.4435 75.2975 51.2282 74.778C52.8849 74.4576 54.4408 73.745 55.7655 72.6999C57.1094 68.4604 60.4552 57.4047 60.3097 55.666C60.1643 53.9273 58.0099 46.9724 57.2479 44.5825C55.6962 47.7829 50.5009 58.2844 48.3327 59.4551C46.1645 60.6258 30.6892 57.28 27.0247 56.4903Z" fill="#3A3D3E"/>
<path d="M26.5051 55.9847C26.5051 55.9847 29.9687 67.0058 33.6609 69.3887C35.4133 70.4281 37.2538 71.3112 39.1611 72.028L48.1664 59.1088C45.7834 60.3903 26.5051 55.9847 26.5051 55.9847Z" fill="#3A3D3E"/>
<path d="M39.161 72.3743H39.0363C37.1122 71.652 35.2574 70.7571 33.4945 69.7004C29.7608 67.2759 26.3388 56.5388 26.1933 56.1093C26.1742 56.0512 26.1712 55.9889 26.1846 55.9291C26.198 55.8694 26.2274 55.8144 26.2695 55.7699C26.3108 55.7248 26.3633 55.6914 26.4218 55.6731C26.4802 55.6549 26.5424 55.6524 26.602 55.666C34.2981 57.4324 46.3583 59.7184 48.0277 58.8248C48.0962 58.7868 48.1756 58.7737 48.2526 58.7876C48.3296 58.8015 48.3994 58.8415 48.4503 58.901C48.4993 58.9605 48.526 59.0352 48.526 59.1123C48.526 59.1893 48.4993 59.264 48.4503 59.3235L39.445 72.2496C39.4099 72.2902 39.3662 72.3225 39.3171 72.3441C39.2679 72.3657 39.2146 72.376 39.161 72.3743ZM27.0246 56.4418C27.8004 58.7278 30.7999 67.1027 33.8548 69.0839C35.5031 70.0738 37.2372 70.9131 39.0363 71.5915L47.3489 59.6283C43.2965 60.0301 30.3427 57.1831 27.0246 56.4903V56.4418Z" fill="#3A3D3E"/>
<path d="M17.1187 11.7409C16.5047 11.5968 15.8602 11.6633 15.2886 11.9297C14.717 12.196 14.2515 12.6467 13.9668 13.2094C13.1921 14.6631 12.5163 16.1674 11.9441 17.7121L13.7452 16.9224C13.7452 16.9224 10.9258 19.8456 10.5864 22.3256C10.247 24.8055 11.6047 31.5595 12.5052 32.7925C13.4057 34.0255 25.4521 57.1137 26.6851 57.6748C27.9181 58.2359 41.8833 65.1077 43.8021 64.8791C45.7209 64.6505 51.228 63.7569 52.468 61.6164C53.7079 59.4759 57.8712 48.8912 57.317 43.6058C56.7628 38.3204 50.0019 11.2975 47.9722 9.16396C45.9426 7.03039 43.5804 6.9057 41.6685 5.10464C40.5334 4.04459 39.8116 2.61579 39.632 1.07304C39.0599 1.63096 38.4587 2.15816 37.8309 2.65243C37.2028 3.12325 36.7007 3.74193 36.3692 4.45349C36.3692 4.45349 33.3282 1.97357 32.3169 1.7519C31.3055 1.53023 28.2645 0.172505 28.0359 1.41247C27.8073 2.65243 29.9547 5.22933 29.9547 5.22933C29.9547 5.22933 22.1824 4.43964 19.0306 5.451C15.8787 6.46237 14.0777 8.49202 14.3063 9.17089C14.5349 9.84975 19.1553 10.5563 19.1553 10.5563L17.1187 11.7409Z" fill="white"/>
<path d="M43.719 65.2324C41.911 65.2324 34.2565 61.6788 27.7242 58.5546L26.5465 57.9866C25.7568 57.6333 22.3902 51.572 15.9688 39.7682C14.1123 36.3462 12.5052 33.3883 12.2212 33.0003C11.2791 31.698 9.89364 24.854 10.2469 22.2771C10.4617 20.6839 11.6324 18.9521 12.4913 17.8437L12.0826 18.0238C12.0203 18.0534 11.9505 18.0632 11.8824 18.0521C11.8143 18.041 11.7513 18.0093 11.7016 17.9615C11.6539 17.9148 11.6206 17.8553 11.6059 17.7902C11.5911 17.7251 11.5955 17.657 11.6185 17.5943C12.1941 16.0298 12.8769 14.5068 13.662 13.0363C13.9755 12.4325 14.4744 11.9452 15.0853 11.6459C15.6963 11.3467 16.3871 11.2513 17.0563 11.3738L18.1578 10.681C16.1974 10.3485 14.1816 9.87056 14.0015 9.24019C13.9347 8.95882 13.982 8.66246 14.1331 8.41586C14.6526 7.39064 16.3775 5.91516 18.9821 5.09083C21.5867 4.26649 27.17 4.60592 29.2481 4.7791C28.597 3.8855 27.5718 2.29225 27.7519 1.31552C27.7739 1.18666 27.8237 1.06414 27.8979 0.956476C27.9721 0.848814 28.0688 0.758591 28.1813 0.692078C28.8741 0.290303 30.1209 0.643588 31.5757 1.11463C31.9289 1.2324 32.2337 1.32938 32.4485 1.37787C33.3352 1.57876 35.4549 3.20664 36.3069 3.87857C36.6724 3.28876 37.1418 2.77007 37.6923 2.34767C38.7868 1.46792 39.4587 0.802913 39.4657 0.795986C39.5131 0.749385 39.5729 0.717423 39.638 0.703911C39.7032 0.690399 39.7708 0.695908 39.8328 0.719787C39.8957 0.743004 39.9504 0.784347 39.9898 0.838594C40.0293 0.892841 40.0518 0.957562 40.0545 1.02458C40.2298 2.4816 40.9085 3.83163 41.9733 4.84145C42.7976 5.5642 43.7333 6.149 44.7442 6.57324C46.0598 7.11142 47.2558 7.90483 48.2632 8.90769C50.4106 11.1729 57.1646 38.4936 57.7049 43.5435C58.2868 49.0852 53.9157 59.8638 52.8143 61.7688C51.4289 64.2002 45.1321 65.0592 43.8921 65.2324H43.719ZM13.7382 16.576C13.7945 16.5768 13.8499 16.5903 13.9003 16.6155C13.9507 16.6407 13.9947 16.6769 14.0292 16.7215C14.0727 16.789 14.0929 16.869 14.0866 16.949C14.0804 17.0291 14.048 17.1049 13.9945 17.1649C13.9945 17.1649 11.2237 20.0396 10.9327 22.3741C10.6418 24.7085 11.9372 31.4279 12.7823 32.5916C13.094 33.0211 14.5556 35.7158 16.5784 39.4426C20.0904 45.9333 25.9785 56.7951 26.8444 57.3701L28.0289 57.9243C37.443 62.4338 42.7492 64.6505 43.7605 64.5328C47.0371 64.1518 51.2003 63.1058 52.1701 61.4432C53.5555 59.088 57.5109 48.7388 56.9637 43.6404C56.3887 38.2373 49.6278 11.4153 47.7159 9.39259C46.7591 8.45861 45.633 7.71567 44.3978 7.20361C43.3144 6.75061 42.3109 6.1261 41.4261 5.35406C40.3982 4.38724 39.688 3.13115 39.3895 1.75194C39.0778 2.03595 38.6206 2.44465 38.0525 2.89491C37.4614 3.32419 36.9855 3.89292 36.6671 4.5505C36.6465 4.60096 36.6146 4.64597 36.5737 4.68203C36.5329 4.71808 36.4842 4.74419 36.4316 4.75832C36.3795 4.77298 36.3246 4.77497 36.2716 4.76412C36.2186 4.75328 36.169 4.72992 36.1268 4.69598C34.9284 3.71925 32.8987 2.21605 32.2129 2.06366C31.9843 2.00824 31.6519 1.90433 31.2778 1.77964C30.3911 1.49563 28.9156 1.01766 28.4515 1.29474C28.4246 1.31081 28.4017 1.33296 28.3849 1.35943C28.3681 1.38589 28.3577 1.41593 28.3545 1.44714C28.2091 2.23684 29.4074 4.0379 30.1902 4.99385C30.2339 5.04621 30.2611 5.11029 30.2685 5.17807C30.2759 5.24584 30.2631 5.31429 30.2318 5.37484C30.2 5.43564 30.1506 5.4854 30.09 5.51755C30.0294 5.5497 29.9605 5.56274 29.8924 5.55494C29.8162 5.55494 22.1547 4.78603 19.1137 5.76968C15.9688 6.78105 14.5141 8.68602 14.6041 9.04623C14.8466 9.33717 17.1672 9.87056 19.1691 10.1615C19.24 10.1727 19.3058 10.2052 19.3578 10.2547C19.4098 10.3042 19.4455 10.3683 19.4601 10.4386C19.4732 10.5077 19.465 10.5792 19.4366 10.6435C19.4081 10.7079 19.3607 10.7621 19.3007 10.7988L17.2711 12.0388C17.1895 12.0862 17.093 12.101 17.0009 12.0803C16.4606 11.949 15.8917 12.0058 15.3879 12.2413C14.8842 12.4768 14.4758 12.8769 14.23 13.3757C13.5866 14.5689 13.0153 15.7995 12.519 17.061L13.565 16.6038C13.6187 16.5774 13.679 16.5677 13.7382 16.576Z" fill="#3A3D3E"/>
<path d="M54.3801 32.3422C54.5751 32.3385 54.7678 32.2986 54.9482 32.2245C52.6345 22.5819 49.2887 10.5494 47.9656 9.15703C45.936 7.01654 43.5738 6.89877 41.6619 5.09771C40.5307 4.03836 39.8116 2.61239 39.6322 1.07304C39.0602 1.63096 38.459 2.15816 37.8312 2.65243C37.2031 3.12325 36.701 3.74193 36.3695 4.45349C36.3695 4.45349 33.3285 1.97357 32.3172 1.7519C31.3058 1.53023 28.2648 0.172505 28.0362 1.41247C27.8076 2.65243 29.955 5.22933 29.955 5.22933C29.955 5.22933 22.1827 4.43963 19.0309 5.451C15.879 6.46236 14.078 8.49202 14.3066 9.17088C14.5352 9.84975 19.1556 10.5563 19.1556 10.5563L17.1259 11.7893C16.5119 11.6453 15.8674 11.7118 15.2958 11.9782C14.7242 12.2445 14.2587 12.6952 13.974 13.2579C13.1993 14.7116 12.5235 16.2159 11.9513 17.7606L13.7524 16.9709C13.7524 16.9709 10.933 19.8941 10.5936 22.374C10.2542 24.854 11.6119 31.6079 12.5124 32.841C12.9142 33.4021 15.5673 38.3827 18.4836 43.7166L18.5875 43.7651C18.7975 43.7102 18.9942 43.6134 19.1658 43.4804C19.3373 43.3475 19.4802 43.1812 19.5857 42.9915C19.6912 42.8018 19.7572 42.5927 19.7797 42.3769C19.8022 42.161 19.7808 41.9428 19.7167 41.7354C19.2664 40.163 18.255 37.9117 18.4767 37.0111C18.6984 36.1106 21.7394 31.9404 20.6172 29.9177C19.495 27.895 15.7682 25.4151 16.4609 21.1341C17.1536 16.8531 31.5413 16.1812 32.8921 15.5092C34.2429 14.8373 38.6347 11.5677 40.325 10.6602C42.0152 9.75276 45.6173 11.3529 46.9681 14.484C48.3189 17.6151 48.4297 22.3671 48.88 23.8287C49.3303 25.2904 52.0318 27.0984 52.0318 27.0984C52.0318 27.0984 53.2579 32.3422 54.3801 32.3422Z" fill="#3A3D3E"/>
<path d="M18.5803 44.063C18.53 44.0614 18.4805 44.0496 18.4348 44.0284L18.3309 43.9799C18.2623 43.9482 18.2063 43.8946 18.1716 43.8275C17.4096 42.4421 16.6684 41.0566 15.9757 39.789C14.1192 36.3254 12.5121 33.3883 12.2212 33.0003C11.2791 31.698 9.89364 24.854 10.2469 22.2771C10.4617 20.6839 11.6324 18.9521 12.4913 17.8437L12.0826 18.0238C12.0203 18.0534 11.9505 18.0632 11.8824 18.0521C11.8143 18.041 11.7513 18.0093 11.7016 17.9615C11.6539 17.9148 11.6206 17.8553 11.6059 17.7902C11.5911 17.7251 11.5955 17.657 11.6185 17.5943C12.1941 16.0298 12.8769 14.5068 13.662 13.0363C13.9755 12.4325 14.4744 11.9452 15.0853 11.6459C15.6963 11.3467 16.3871 11.2513 17.0563 11.3738L18.1578 10.681C16.1974 10.3485 14.1816 9.87056 14.0015 9.24019C13.9347 8.95882 13.982 8.66246 14.1331 8.41586C14.6526 7.39064 16.3775 5.91516 18.9821 5.09083C21.5867 4.26649 27.17 4.60592 29.2481 4.7791C28.597 3.8855 27.5718 2.29225 27.7519 1.31552C27.7739 1.18666 27.8237 1.06414 27.8979 0.956476C27.9721 0.848814 28.0688 0.758591 28.1813 0.692078C28.8741 0.290303 30.1209 0.643588 31.5757 1.11463C31.9289 1.2324 32.2337 1.32938 32.4485 1.37787C33.3352 1.57876 35.4549 3.20664 36.3069 3.87857C36.6724 3.28876 37.1418 2.77007 37.6923 2.34767C38.7868 1.46792 39.4587 0.802913 39.4657 0.795986C39.5131 0.749385 39.5729 0.717423 39.638 0.703911C39.7032 0.690399 39.7708 0.695908 39.8328 0.719787C39.8957 0.743004 39.9504 0.784347 39.9898 0.838594C40.0293 0.892841 40.0518 0.957562 40.0545 1.02458C40.2298 2.4816 40.9085 3.83163 41.9733 4.84145C42.7976 5.5642 43.7333 6.149 44.7442 6.57324C46.0598 7.11142 47.2558 7.90483 48.2632 8.90769C49.8495 10.5771 53.5832 24.8401 55.3358 32.1344C55.3565 32.2171 55.3461 32.3044 55.3064 32.3798C55.2668 32.4552 55.2008 32.5133 55.121 32.5431C54.9007 32.6318 54.6658 32.6788 54.4283 32.6817C53.2022 32.6817 52.177 28.9895 51.7614 27.2577C51.2211 26.8837 48.9905 25.2835 48.5818 23.8842C48.3852 23.047 48.244 22.1977 48.1593 21.3419C47.903 19.34 47.5497 16.5968 46.6838 14.5741C46.3186 13.7452 45.7908 12.9981 45.1316 12.377C44.4724 11.7559 43.6952 11.2734 42.8461 10.9581C42.4804 10.7968 42.0862 10.7101 41.6866 10.7029C41.2869 10.6958 40.8899 10.7684 40.5186 10.9166C39.6874 11.3599 38.1634 12.4059 36.6879 13.4173C35.2124 14.4286 33.7785 15.4123 33.0858 15.7586C32.04 16.0684 30.9653 16.2704 29.8785 16.3613C25.4797 17.0055 17.2988 18.1901 16.8347 21.1341C16.3705 24.0782 18.1439 26.184 19.6055 27.8604C20.1218 28.4292 20.5855 29.0436 20.991 29.6961C21.9192 31.3655 20.4368 34.081 19.4601 35.8751C19.2372 36.2468 19.0449 36.636 18.8851 37.0389C18.7466 37.5653 19.2037 38.8746 19.5778 40.0245C19.7648 40.5579 19.9519 41.1051 20.0904 41.59C20.2124 41.9276 20.2308 42.2939 20.1432 42.6419C20.0555 42.99 19.8659 43.3039 19.5986 43.5435C19.3466 43.7701 19.049 43.9401 18.7258 44.0422L18.5803 44.063ZM13.7313 16.576C13.7876 16.5768 13.843 16.5903 13.8934 16.6155C13.9438 16.6407 13.9878 16.6769 14.0222 16.7215C14.0658 16.789 14.0859 16.869 14.0797 16.949C14.0734 17.0291 14.0411 17.1049 13.9876 17.1649C13.9876 17.1649 11.2167 20.0396 10.9258 22.3741C10.6349 24.7085 11.9302 31.4279 12.7753 32.5916C13.0871 33.0211 14.5556 35.7227 16.5784 39.4565C17.2364 40.6756 17.9638 41.9779 18.6565 43.3079C18.9492 43.196 19.1859 42.9733 19.3156 42.6881C19.4452 42.4029 19.4573 42.0781 19.3492 41.784C19.2176 41.3199 19.0306 40.7934 18.8435 40.26C18.3725 38.8746 17.9222 37.6069 18.1093 36.8795C18.2738 36.4148 18.4874 35.9689 18.7466 35.5495C19.5986 33.9909 21.0256 31.3932 20.2775 30.0078C19.8956 29.3955 19.4573 28.8204 18.9682 28.2899C17.4512 26.5027 15.5601 24.279 16.0727 21.0025C16.6199 17.5389 24.8078 16.3682 29.7053 15.6617C30.7143 15.5524 31.7143 15.3718 32.6978 15.1213C33.349 14.7958 34.776 13.7983 36.2169 12.8285C37.6577 11.8587 39.2509 10.7503 40.1168 10.2862C40.5716 10.0891 41.062 9.98735 41.5577 9.98735C42.0534 9.98735 42.5437 10.0891 42.9985 10.2862C43.9379 10.6342 44.7978 11.1673 45.5272 11.8539C46.2566 12.5405 46.8407 13.3666 47.2449 14.2832C48.1454 16.3613 48.5056 19.1876 48.7689 21.2103C48.8526 22.026 48.9868 22.8357 49.1706 23.6348C49.5101 24.7362 51.4566 26.2256 52.1839 26.7105C52.2552 26.7607 52.3066 26.8342 52.3294 26.9183C52.9459 29.5506 53.9088 31.9405 54.3521 31.9405C54.4051 31.9471 54.4586 31.9471 54.5115 31.9405C52.08 21.8753 48.8866 10.6187 47.6882 9.35102C46.7314 8.41704 45.6053 7.67411 44.3701 7.16204C43.2867 6.70905 42.2832 6.08454 41.3984 5.31249C40.3704 4.34568 39.6603 3.08958 39.3618 1.71037C39.05 1.99438 38.5929 2.40309 38.0248 2.85335C37.4337 3.28263 36.9577 3.85135 36.6394 4.50894C36.6188 4.5594 36.5869 4.60441 36.546 4.64046C36.5051 4.67652 36.4565 4.70263 36.4039 4.71676C36.3518 4.73142 36.2969 4.73341 36.2439 4.72256C36.1909 4.71172 36.1412 4.68835 36.0991 4.65441C34.9007 3.67768 32.871 2.17449 32.1852 2.0221C31.9566 1.96668 31.6241 1.86277 31.2501 1.73808C30.3634 1.45407 28.8879 0.976095 28.4238 1.25318C28.3969 1.26925 28.3741 1.2914 28.3572 1.31786C28.3404 1.34433 28.33 1.37437 28.3268 1.40558C28.1813 2.19528 29.3797 3.99633 30.1625 4.95228C30.2062 5.00465 30.2334 5.06873 30.2408 5.1365C30.2482 5.20428 30.2354 5.27273 30.2041 5.33328C30.1723 5.39408 30.1229 5.44383 30.0623 5.47598C30.0017 5.50813 29.9328 5.52118 29.8646 5.51338C29.7884 5.51338 22.127 4.75139 19.086 5.72812C15.9411 6.73949 14.4863 8.64445 14.5764 9.00467C14.8189 9.29561 17.1394 9.829 19.1414 10.1199C19.2123 10.1311 19.2781 10.1636 19.3301 10.2131C19.3821 10.2626 19.4177 10.3268 19.4323 10.397C19.4455 10.4661 19.4373 10.5376 19.4089 10.602C19.3804 10.6663 19.333 10.7205 19.273 10.7572L17.2434 11.9972C17.1618 12.0446 17.0653 12.0595 16.9732 12.0388C16.4329 11.9088 15.8645 11.9661 15.3611 12.2015C14.8576 12.4368 14.4491 12.8362 14.2023 13.3341C13.5589 14.5273 12.9876 15.7579 12.4913 17.0194L13.5373 16.5622C13.6039 16.5434 13.6749 16.5482 13.7382 16.576H13.7313Z" fill="#3A3D3E"/>
<path d="M17.0078 41.015C17.0078 41.015 13.8559 40.5648 13.9667 44.1669C14.0776 47.769 22.6326 51.1425 22.6326 51.1425L17.0078 41.015Z" fill="#3A3D3E"/>
<path d="M22.6329 51.4889C22.5916 51.4955 22.5495 51.4955 22.5082 51.4889C22.148 51.3434 13.7384 47.9837 13.6207 44.1946C13.5695 43.6899 13.6299 43.1801 13.7975 42.7013C13.9651 42.2225 14.2358 41.7864 14.5905 41.4237C14.9351 41.1506 15.3306 40.9487 15.754 40.8298C16.1773 40.7109 16.6201 40.6773 17.0565 40.731C17.1093 40.7395 17.1596 40.7594 17.2038 40.7893C17.2481 40.8192 17.2853 40.8584 17.3128 40.9042L22.9377 50.9486C22.9721 51.0107 22.9865 51.0819 22.9791 51.1525C22.9717 51.2232 22.9427 51.2898 22.8961 51.3434C22.8653 51.3852 22.8258 51.4198 22.7804 51.4449C22.735 51.47 22.6847 51.485 22.6329 51.4889ZM16.6825 41.3406C16.0889 41.3248 15.5092 41.5213 15.0477 41.8948C14.7656 42.1932 14.5533 42.5507 14.4264 42.9413C14.2994 43.3318 14.2608 43.7457 14.3134 44.153C14.3965 46.8131 19.6681 49.4523 21.8432 50.429L16.7933 41.3475L16.6825 41.3406Z" fill="#3A3D3E"/>
<path d="M53.7081 26.2671C53.7081 26.2671 57.0817 23.7872 58.2108 27.6179C59.3399 31.4487 56.4097 38.8746 56.4097 38.8746L53.7081 26.2671Z" fill="white"/>
<path d="M56.3819 39.2209C56.3072 39.2138 56.2368 39.1831 56.1808 39.1333C56.1247 39.0835 56.086 39.0171 56.0702 38.9439L53.3686 26.3364C53.3549 26.2711 53.36 26.2033 53.3833 26.1408C53.4066 26.0782 53.4471 26.0236 53.5002 25.9831C53.5695 25.9347 55.2112 24.7501 56.7144 25.2904C57.1826 25.4876 57.5946 25.7977 57.9137 26.1929C58.2329 26.5882 58.4491 27.0564 58.5432 27.5556C59.6861 31.4487 56.8529 38.7291 56.7282 39.0339C56.6963 39.0966 56.6461 39.148 56.5842 39.1814C56.5223 39.2148 56.4518 39.2286 56.3819 39.2209ZM54.0959 26.4265L56.4927 37.6138C57.2478 35.411 58.7025 30.5135 57.8781 27.7149C57.8102 27.325 57.6487 26.9574 57.4073 26.6437C57.166 26.33 56.8522 26.0795 56.4927 25.9139C56.0793 25.8325 55.6537 25.836 55.2417 25.9241C54.8297 26.0122 54.4399 26.1832 54.0959 26.4265Z" fill="#3A3D3E"/>
<path d="M40.8027 48.1777C40.1698 48.1889 39.5544 47.9698 39.0709 47.5612C39.0022 47.4999 38.9601 47.4142 38.9536 47.3223C38.9472 47.2304 38.9768 47.1397 39.0363 47.0694C39.0655 47.0347 39.1014 47.0063 39.1418 46.9858C39.1822 46.9653 39.2263 46.953 39.2715 46.9498C39.3166 46.9466 39.362 46.9524 39.4049 46.967C39.4478 46.9816 39.4873 47.0046 39.5212 47.0347C39.8126 47.2586 40.1553 47.4062 40.5181 47.4643C40.881 47.5223 41.2526 47.489 41.5993 47.3672C42.0537 47.249 42.476 47.0309 42.8354 46.729C43.1949 46.427 43.4826 46.0487 43.6775 45.6216C43.9754 44.6656 42.4098 41.7701 41.3569 40.1699C41.3064 40.0928 41.2886 39.9987 41.3074 39.9084C41.3262 39.8181 41.3802 39.739 41.4573 39.6885C41.5345 39.6379 41.6286 39.6201 41.7189 39.639C41.8091 39.6578 41.8882 39.7118 41.9388 39.7889C42.2366 40.2392 44.8274 44.25 44.3425 45.8225C44.1153 46.364 43.7656 46.8453 43.3208 47.2288C42.8761 47.6122 42.3485 47.8872 41.7795 48.0322C41.4621 48.1252 41.1334 48.1742 40.8027 48.1777Z" fill="#3A3D3E"/>
<path d="M38.9533 53.7194C37.1661 53.6982 35.3901 53.4325 33.6749 52.9297C33.6319 52.9164 33.5921 52.8946 33.5576 52.8657C33.5232 52.8368 33.4948 52.8013 33.4742 52.7613C33.4536 52.7214 33.4411 52.6777 33.4375 52.6329C33.4339 52.5881 33.4392 52.543 33.4532 52.5003C33.4658 52.4567 33.4871 52.4161 33.5157 52.3809C33.5443 52.3457 33.5796 52.3166 33.6197 52.2953C33.6597 52.274 33.7036 52.2609 33.7488 52.2569C33.794 52.2528 33.8395 52.2578 33.8827 52.2717C33.9381 52.2717 39.5352 54.0034 43.0819 52.1816C46.6286 50.3598 48.7968 48.8774 49.4341 46.6399C49.4589 46.548 49.5192 46.4698 49.6017 46.4224C49.6842 46.3749 49.7822 46.3622 49.874 46.387C49.9659 46.4118 50.0441 46.4721 50.0915 46.5546C50.1389 46.6371 50.1517 46.7351 50.1269 46.8269C49.4341 49.293 47.2313 50.8239 43.4214 52.7843C42.0262 53.4428 40.4955 53.7632 38.9533 53.7194Z" fill="#3A3D3E"/>
<path d="M23.9836 37.5376C23.8728 37.5381 23.7635 37.512 23.6649 37.4614C23.5023 37.376 23.3804 37.2295 23.3258 37.0541C23.2713 36.8787 23.2886 36.6889 23.374 36.5263C23.464 36.36 25.6045 32.4116 31.2363 30.8876C31.4112 30.8468 31.5951 30.8756 31.7492 30.9679C31.9033 31.0601 32.0156 31.2086 32.0623 31.382C32.109 31.5554 32.0866 31.7402 31.9997 31.8974C31.9128 32.0546 31.7682 32.1719 31.5965 32.2245C26.5397 33.6099 24.6208 37.1359 24.6001 37.1705C24.5406 37.2822 24.4517 37.3754 24.343 37.4401C24.2344 37.5048 24.11 37.5386 23.9836 37.5376Z" fill="#3A3D3E"/>
<path d="M38.1706 29.1004C38.0642 29.0993 37.9595 29.0737 37.8646 29.0257C37.7697 28.9776 37.6872 28.9084 37.6234 28.8233C37.5116 28.678 37.462 28.4944 37.4854 28.3126C37.5088 28.1309 37.6032 27.9658 37.7481 27.8535C37.9628 27.6942 42.9642 23.9119 47.2244 25.7753C47.3081 25.8113 47.3839 25.8633 47.4475 25.9285C47.511 25.9938 47.5611 26.0709 47.5949 26.1555C47.6287 26.2401 47.6455 26.3305 47.6443 26.4215C47.6431 26.5126 47.624 26.6026 47.5881 26.6862C47.5521 26.7699 47.5001 26.8457 47.4349 26.9093C47.3696 26.9729 47.2925 27.023 47.2079 27.0567C47.1233 27.0905 47.0329 27.1073 46.9419 27.1061C46.8508 27.105 46.7608 27.0859 46.6772 27.0499C43.1651 25.5398 38.6347 28.9549 38.5932 28.9895C38.468 29.0711 38.3197 29.11 38.1706 29.1004Z" fill="#3A3D3E"/>
<path d="M31.0079 38.8815C31.5205 39.7336 31.4374 40.7241 30.8278 41.0913C30.2182 41.4584 29.3038 41.0913 28.7912 40.2184C28.2786 39.3456 28.3548 38.3758 28.9644 38.0087C29.574 37.6416 30.4953 38.0295 31.0079 38.8815Z" fill="#3A3D3E"/>
<path d="M45.8874 33.1735C46.2891 34.0809 46.0813 35.0577 45.4302 35.3417C44.779 35.6257 43.92 35.1269 43.5183 34.2195C43.1165 33.312 43.3174 32.3353 43.9755 32.0444C44.6335 31.7534 45.4856 32.2452 45.8874 33.1735Z" fill="#3A3D3E"/>
<path d="M88.0251 165.884L70.8873 214.52L88.0251 258.604V165.884Z" fill="#3A3D3E"/>
<path d="M88.0252 258.95C87.955 258.95 87.8866 258.929 87.8286 258.889C87.7706 258.85 87.7257 258.794 87.6996 258.729L70.5687 214.644C70.5407 214.566 70.5407 214.48 70.5687 214.402L87.6996 165.766C87.7073 165.721 87.7239 165.677 87.7485 165.638C87.773 165.599 87.8051 165.565 87.8427 165.539C87.8803 165.512 87.9228 165.493 87.9678 165.483C88.0128 165.472 88.0594 165.471 88.1048 165.479C88.1503 165.486 88.1938 165.503 88.2329 165.528C88.2719 165.552 88.3058 165.584 88.3325 165.622C88.3592 165.659 88.3782 165.702 88.3885 165.747C88.3987 165.792 88.4 165.838 88.3923 165.884V258.604C88.392 258.685 88.3635 258.763 88.3116 258.825C88.2597 258.887 88.1878 258.929 88.1083 258.943L88.0252 258.95ZM71.2615 214.513L87.6788 256.768V167.907L71.2615 214.513Z" fill="#3A3D3E"/>
<path d="M28.7078 60.5774C28.7078 60.5774 10.6972 79.4885 8.68835 81.3242C6.67948 83.1599 0.978427 86.866 1.89281 90.1425C2.8072 93.419 54.7817 161.783 54.7817 161.783L58.2452 179.593V230.431C58.2452 230.431 76.2559 218.863 83.4047 203.069C83.4047 203.069 86.3418 192.602 87.0761 183.971V165.06L38.586 84.6285C38.586 84.6285 27.9805 68.2665 28.7078 60.5774Z" fill="#C58B5D"/>
<path d="M58.2662 230.778C58.2104 230.778 58.1554 230.764 58.1069 230.736C58.0509 230.707 58.0039 230.663 57.971 230.61C57.938 230.556 57.9204 230.494 57.9199 230.431V179.565L54.4563 161.901C51.6854 158.306 2.50259 93.5437 1.56049 90.2325C0.750016 87.3162 4.53917 84.2682 7.03988 82.2455C7.6079 81.7952 8.09282 81.4004 8.45996 81.0679C10.4481 79.2599 28.2716 60.5288 28.4517 60.3349C28.503 60.2851 28.5677 60.2514 28.6378 60.2379C28.7079 60.2244 28.7805 60.2316 28.8466 60.2587C28.913 60.2889 28.9682 60.3393 29.0043 60.4028C29.0404 60.4662 29.0555 60.5394 29.0475 60.612C28.3548 68.1141 38.8078 84.2821 38.9117 84.4414L87.4018 164.88C87.4348 164.934 87.4517 164.996 87.4503 165.06V183.95C86.7576 192.547 83.7997 203.041 83.7651 203.145C76.6301 218.897 58.6472 230.584 58.4671 230.701C58.4085 230.745 58.3389 230.771 58.2662 230.778ZM28.3201 61.4779C25.0643 64.8999 10.739 79.9318 8.92406 81.5666C8.54307 81.913 8.05125 82.3148 7.47629 82.7719C5.11413 84.6769 1.53971 87.5586 2.23243 90.0316C2.92514 92.5046 37.0968 137.926 55.0589 161.534C55.0867 161.576 55.1077 161.623 55.1213 161.672L58.5849 179.489V229.766C61.6189 227.688 76.734 216.909 83.0862 202.917C83.0862 202.861 86.0025 192.429 86.723 183.929V165.157L38.2952 84.8016C37.9073 84.1989 28.4032 69.4926 28.3201 61.4779Z" fill="#3A3D3E"/>
<path d="M38.6206 84.6285C38.6206 84.6285 27.9805 68.2665 28.7078 60.5774C28.7078 60.5774 26.5119 62.8841 23.5679 65.9598C23.4571 67.553 23.3809 69.8182 23.3809 73.0601C23.4414 80.7031 24.8072 88.2796 27.4194 95.4626L39.1956 95.0954L31.4441 106.484C31.4441 106.484 46.8709 127.265 56.6035 136.229C64.071 143.156 78.8743 156.408 85.372 162.213L38.6206 84.6285Z" fill="#C58B5D"/>
<path d="M85.386 162.559C85.2989 162.56 85.2148 162.527 85.1504 162.469C79.013 156.983 63.9256 143.461 56.382 136.485C46.7394 127.57 31.3334 106.899 31.181 106.698C31.1392 106.64 31.1168 106.569 31.1168 106.497C31.1168 106.425 31.1392 106.355 31.181 106.297L38.5099 95.4694L27.4265 95.8158C27.3561 95.8164 27.2871 95.7963 27.2281 95.7582C27.169 95.72 27.1224 95.6654 27.0939 95.601C24.4751 88.3734 23.1002 80.7541 23.0277 73.067C23.0277 70.123 23.09 67.7262 23.2147 65.9459C23.221 65.8652 23.2553 65.7892 23.3117 65.7311C26.2558 62.6486 28.4448 60.3418 28.4448 60.3418C28.495 60.2905 28.5597 60.2557 28.6303 60.2421C28.7008 60.2284 28.7738 60.2367 28.8396 60.2656C28.906 60.2958 28.9612 60.3463 28.9973 60.4097C29.0334 60.4731 29.0485 60.5464 29.0405 60.6189C28.3478 68.121 38.8008 84.289 38.9047 84.4483L85.67 162.032C85.7113 162.105 85.7262 162.189 85.7123 162.271C85.6985 162.353 85.6566 162.428 85.5938 162.483C85.5334 162.528 85.4612 162.554 85.386 162.559ZM31.8875 106.449C33.4877 108.589 47.7577 127.542 56.8253 135.952C63.7525 142.332 76.9764 154.226 83.8412 160.391L38.3298 84.8155C37.8587 84.1227 28.4032 69.4718 28.32 61.4779L23.9075 66.1121C23.7897 67.8647 23.7273 70.1992 23.7273 73.0393C23.8045 80.556 25.1319 88.0075 27.655 95.0884L39.1611 94.7282C39.2249 94.7262 39.288 94.7418 39.3434 94.7734C39.3989 94.805 39.4446 94.8513 39.4754 94.9072C39.5062 94.9631 39.521 95.0264 39.5181 95.0902C39.5152 95.154 39.4947 95.2157 39.4589 95.2685L31.8875 106.449Z" fill="#3A3D3E"/>
<path d="M67.8187 156.983L71.4624 156.248C70.6876 159.963 70.6336 163.791 71.303 167.526C71.8712 170.943 72.7761 174.296 74.0046 177.535L71.1437 178.166C71.1437 178.166 66.08 167.242 67.8187 156.983Z" fill="white"/>
<path d="M71.1437 178.512C71.0772 178.511 71.0122 178.492 70.956 178.457C70.8998 178.421 70.8544 178.371 70.825 178.311C70.7765 178.2 65.7405 167.172 67.4792 156.92C67.4906 156.852 67.5227 156.789 67.5709 156.739C67.6192 156.69 67.6815 156.656 67.7494 156.643L71.3931 155.909C71.4506 155.898 71.5101 155.902 71.5658 155.92C71.6215 155.938 71.6717 155.97 71.7117 156.013C71.7515 156.054 71.78 156.106 71.7945 156.161C71.809 156.217 71.8092 156.276 71.7948 156.331C71.033 159.998 70.9742 163.775 71.6217 167.463C72.1884 170.854 73.0863 174.181 74.3025 177.397C74.3229 177.444 74.3334 177.495 74.3334 177.546C74.3334 177.597 74.3229 177.648 74.3025 177.695C74.2786 177.739 74.2451 177.778 74.2043 177.808C74.1636 177.838 74.1166 177.858 74.0669 177.868L71.213 178.505L71.1437 178.512ZM68.1581 157.274C66.7103 166.39 70.6518 176.088 71.3792 177.771L73.5682 177.279C72.4214 174.13 71.5612 170.885 70.9982 167.581C70.3555 163.976 70.3719 160.284 71.0467 156.685L68.1581 157.274Z" fill="#3A3D3E"/>
<path d="M1.34556 88.854C1.34556 88.854 -0.490131 93.2597 0.791393 96.938C2.07292 100.616 8.1411 125.949 8.1411 125.949C8.1411 125.949 3.54839 127.965 7.03968 132.557C9.09729 135.249 10.8796 138.141 12.3598 141.189C12.3598 141.189 10.3439 143.579 12.5468 147.25C13.6554 149.026 14.6369 150.877 15.4839 152.792C15.4839 152.792 19.1553 172.07 21.0256 173.906C22.8959 175.741 32.2268 179.053 45.2707 179.967C58.3145 180.881 72.0857 181.255 72.0857 181.255C72.0857 181.255 69.1417 174.64 68.6221 168.399C68.1026 162.157 67.8878 157.017 67.8878 157.017L44.384 154.814L40.1584 142.692L2.81413 91.8188C2.81413 91.8188 1.15852 89.7753 1.34556 88.854Z" fill="#C58B5D"/>
<path d="M72.0442 181.567C71.9057 181.567 58.1206 181.186 45.2223 180.279C32.3239 179.371 22.7644 176.122 20.7625 174.12C18.906 172.264 15.5394 154.807 15.1584 152.819C14.3071 150.962 13.34 149.16 12.2628 147.423C10.2817 144.126 11.5286 141.805 11.9719 141.147C10.5116 138.194 8.77185 135.387 6.77655 132.765C5.592 131.214 5.16944 129.759 5.50887 128.443C5.87363 127.288 6.68046 126.324 7.75326 125.762C7.1021 123.046 1.67814 100.464 0.479743 97.0489C-0.836417 93.2943 0.964642 88.9095 1.04084 88.7363C1.07331 88.6576 1.13365 88.5935 1.21032 88.5565C1.28699 88.5194 1.37462 88.5119 1.45647 88.5354C1.53906 88.5611 1.60936 88.6161 1.65405 88.6902C1.69873 88.7642 1.7147 88.8521 1.69893 88.9372C1.59502 89.4567 2.45399 90.8006 3.08436 91.5903L40.3663 142.463C40.3892 142.492 40.4058 142.525 40.4148 142.56L44.5711 154.468L67.8602 156.65C67.9436 156.658 68.0211 156.697 68.0785 156.758C68.1358 156.819 68.169 156.899 68.1719 156.983C68.1719 157.031 68.359 162.185 68.9062 168.35C69.4534 174.515 72.3351 181.027 72.3698 181.089C72.3983 181.141 72.4132 181.2 72.4132 181.259C72.4132 181.318 72.3983 181.377 72.3698 181.429C72.332 181.478 72.2822 181.516 72.2252 181.541C72.1681 181.565 72.1058 181.574 72.0442 181.567ZM1.29023 90.1286C0.846892 91.6387 0.271944 94.4373 1.12398 96.8549C2.39858 100.499 8.23124 124.868 8.47369 125.9C8.49388 125.98 8.4855 126.063 8.45001 126.137C8.41452 126.21 8.35422 126.269 8.27973 126.302C7.78626 126.531 7.3445 126.858 6.98129 127.263C6.61808 127.668 6.34101 128.142 6.16695 128.657C5.88294 129.759 6.27086 131.006 7.30993 132.384C9.38512 135.096 11.1836 138.008 12.6785 141.078C12.7052 141.138 12.7148 141.203 12.7062 141.268C12.6976 141.333 12.6712 141.394 12.63 141.445C12.5538 141.535 10.8012 143.703 12.8447 147.104C13.9606 148.879 14.9491 150.731 15.8026 152.646C16.8417 158.049 19.7927 172.209 21.2404 173.649C23.1177 175.527 32.7464 178.727 45.2569 179.607C56.6936 180.417 68.8092 180.798 71.5108 180.881C70.8181 179.205 68.6707 173.656 68.2066 168.412C67.7424 163.169 67.5139 158.507 67.5139 157.329L44.3079 155.154C44.2419 155.15 44.1787 155.126 44.1268 155.085C44.0748 155.044 44.0365 154.988 44.0169 154.925L39.7567 142.824L2.51633 91.999C2.03842 91.4113 1.62721 90.7724 1.29023 90.094V90.1286Z" fill="#3A3D3E"/>
<path d="M23.928 132.724C23.8367 132.722 23.7496 132.685 23.685 132.62C23.6205 132.556 23.5834 132.469 23.5816 132.377C23.5816 132.285 23.6181 132.197 23.6831 132.132C23.748 132.067 23.8361 132.031 23.928 132.031C25.7013 131.97 27.4624 131.712 29.1788 131.262C24.7558 130.81 20.3105 130.611 15.8648 130.666C15.7729 130.666 15.6848 130.63 15.6199 130.565C15.5549 130.5 15.5184 130.412 15.5184 130.32C15.5184 130.228 15.5549 130.14 15.6199 130.075C15.6848 130.01 15.7729 129.974 15.8648 129.974C18.6357 129.974 22.2378 130.05 25.0571 130.209C30.4395 130.514 30.488 130.86 30.5365 131.193C30.585 131.525 30.0932 131.74 29.9061 131.789C27.9597 132.346 25.9517 132.66 23.928 132.724Z" fill="#3A3D3E"/>
<path d="M12.1796 134.372C12.1259 134.372 12.0731 134.359 12.0251 134.335C11.9771 134.311 11.9352 134.276 11.9025 134.234C11.7501 134.033 10.4201 132.211 10.808 131.033C10.8767 130.83 10.996 130.648 11.1548 130.504C11.3136 130.359 11.5066 130.258 11.7155 130.209C12.5321 130.034 13.3679 129.964 14.2023 130.001C14.2469 130 14.2912 130.008 14.3328 130.024C14.3743 130.041 14.4122 130.065 14.4444 130.096C14.4766 130.127 14.5023 130.164 14.5202 130.204C14.5381 130.245 14.5478 130.289 14.5487 130.334C14.5505 130.379 14.5434 130.425 14.5277 130.467C14.512 130.51 14.488 130.549 14.4571 130.583C14.4263 130.616 14.3891 130.643 14.3477 130.662C14.3064 130.682 14.2617 130.692 14.2162 130.694C13.4413 130.68 12.6668 130.738 11.9025 130.867C11.8013 130.885 11.7068 130.93 11.6288 130.997C11.5509 131.064 11.4923 131.151 11.4592 131.248C11.2514 131.879 11.9579 133.16 12.4498 133.818C12.5031 133.892 12.5257 133.984 12.5128 134.075C12.4999 134.165 12.4525 134.247 12.3805 134.303C12.3227 134.347 12.2523 134.371 12.1796 134.372Z" fill="#3A3D3E"/>
<path d="M23.0139 159.532C22.9643 159.531 22.9153 159.521 22.87 159.5C22.8247 159.48 22.7841 159.451 22.7507 159.414C22.6912 159.344 22.6615 159.253 22.668 159.161C22.6745 159.069 22.7166 158.984 22.7853 158.922C22.7853 158.922 23.7135 158.119 25.0366 157.135C25.111 157.081 25.2039 157.058 25.2948 157.073C25.3858 157.087 25.4673 157.137 25.5215 157.211C25.5757 157.286 25.5981 157.379 25.5838 157.469C25.5696 157.56 25.5197 157.642 25.4453 157.696C24.143 158.659 23.2494 159.435 23.2425 159.442C23.1806 159.5 23.0988 159.532 23.0139 159.532Z" fill="#3A3D3E"/>
<path d="M27.2878 156.359C27.2302 156.357 27.1739 156.342 27.1233 156.314C27.0728 156.287 27.0295 156.247 26.9969 156.2C26.9474 156.123 26.9306 156.029 26.95 155.939C26.9695 155.85 27.0237 155.772 27.1008 155.722C27.7242 155.32 28.3338 154.967 28.9157 154.655C32.1022 152.972 42.2782 154.198 42.7077 154.246C42.799 154.259 42.8821 154.306 42.939 154.378C42.9959 154.451 43.0223 154.543 43.0125 154.634C43.0073 154.68 42.9932 154.724 42.9708 154.764C42.9485 154.804 42.9184 154.84 42.8823 154.868C42.8462 154.896 42.8048 154.917 42.7606 154.929C42.7163 154.942 42.6701 154.945 42.6246 154.939C42.5207 154.939 32.2338 153.685 29.2413 155.265C28.6733 155.569 28.0775 155.916 27.4748 156.304C27.4191 156.34 27.3542 156.359 27.2878 156.359Z" fill="#3A3D3E"/>
<path d="M71.4622 156.241L75.3968 151.718C75.3968 151.718 77.7659 145.082 78.2369 144.444C78.708 143.807 82.5041 138.286 83.1344 137.019C83.7648 135.751 83.9241 131.013 85.8222 131.65C87.7202 132.287 87.0899 134.178 86.7712 137.808C86.4374 140.386 85.6913 142.893 84.5614 145.234C84.5614 145.234 85.9815 158.195 85.9815 158.985C85.9815 159.774 82.5179 172.416 82.5179 172.416L73.194 176.205C73.194 176.205 68.9476 168.205 71.4622 156.241Z" fill="white"/>
<path d="M73.1804 176.559C73.1182 176.558 73.0573 176.541 73.0038 176.51C72.9503 176.478 72.906 176.433 72.8756 176.379C72.834 176.295 68.6154 168.121 71.123 156.179C71.1353 156.121 71.1615 156.066 71.1992 156.02L75.0923 151.545C75.4178 150.623 77.4821 144.888 77.9601 144.244C78.4381 143.599 82.2203 138.092 82.8091 136.873C83.0188 136.312 83.1743 135.732 83.2732 135.141C83.5988 133.638 83.966 131.934 84.8734 131.408C85.03 131.319 85.2042 131.265 85.3837 131.251C85.5632 131.236 85.7437 131.262 85.9125 131.324C87.7413 131.934 87.5542 133.59 87.2979 136.097C87.2356 136.624 87.1732 137.212 87.1178 137.85C86.7901 140.437 86.0462 142.954 84.915 145.303C85.0604 146.599 86.3004 158.216 86.3004 158.991C86.3004 159.767 83.1693 171.218 82.8368 172.513C82.823 172.564 82.7976 172.611 82.7628 172.651C82.728 172.69 82.6846 172.722 82.6359 172.742L73.312 176.531C73.271 176.551 73.2258 176.56 73.1804 176.559ZM71.7949 156.408C69.6337 166.798 72.6747 174.259 73.3674 175.769L82.2342 172.167C83.6196 167.124 85.6354 159.58 85.6492 159.005C85.6631 158.43 84.721 149.771 84.2292 145.296C84.2232 145.23 84.2351 145.163 84.2638 145.103C85.3757 142.801 86.1102 140.336 86.439 137.801C86.4944 137.157 86.5636 136.568 86.619 136.035C86.9238 133.354 86.9654 132.405 85.7254 131.996C85.6517 131.962 85.5713 131.944 85.4899 131.944C85.4085 131.944 85.3281 131.962 85.2544 131.996C84.6102 132.363 84.25 134.074 83.9867 135.273C83.8781 135.922 83.7016 136.558 83.4603 137.171C82.823 138.452 79.0407 143.96 78.5281 144.645C78.2095 145.075 76.6439 149.28 75.7573 151.822C75.7451 151.865 75.7211 151.903 75.688 151.933L71.7949 156.408Z" fill="#3A3D3E"/>
<path d="M77.6068 150.776L81.2436 145.4L86.6121 139.083C86.6121 139.083 88.5101 133.396 89.2998 133.867C90.0895 134.338 90.8792 136.076 89.9302 138.764C89.052 140.955 87.9955 143.07 86.7714 145.089L82.6636 154.565L81.4029 156.934" fill="white"/>
<path d="M81.4028 157.28C81.3449 157.28 81.2879 157.266 81.2365 157.239C81.1562 157.196 81.0958 157.124 81.0686 157.037C81.0414 156.95 81.0495 156.856 81.0911 156.775L82.3587 154.406L86.4527 144.95C87.6737 142.941 88.7279 140.835 89.6045 138.653C90.4635 136.208 89.8262 134.663 89.1889 134.206C88.7248 134.539 87.6718 136.977 86.9445 139.194C86.9308 139.236 86.907 139.274 86.8752 139.304L81.5067 145.629L77.8907 150.97C77.8349 151.034 77.7577 151.075 77.6737 151.086C77.5896 151.096 77.5045 151.076 77.4345 151.028C77.3645 150.98 77.3144 150.908 77.2938 150.826C77.2732 150.744 77.2835 150.657 77.3227 150.582L80.9525 145.206L86.3072 138.923C86.8267 137.365 88.0875 133.881 88.9949 133.541C89.0738 133.512 89.1582 133.5 89.2421 133.507C89.3259 133.515 89.4071 133.54 89.4798 133.583C90.3596 134.109 91.2948 135.959 90.2557 138.896C89.3715 141.109 88.3057 143.245 87.0692 145.283L82.9822 154.717L81.7076 157.114C81.6759 157.166 81.631 157.209 81.5775 157.238C81.524 157.267 81.4637 157.282 81.4028 157.28Z" fill="#3A3D3E"/>
<path d="M80.627 155.043C80.627 155.043 83.1554 149.501 83.474 148.559C83.7927 147.617 86.6328 144.929 87.4225 143.35C88.2122 141.77 89.9509 141.923 89.9509 143.662C89.9669 145.278 89.5302 146.866 88.6902 148.247C87.9005 149.508 86.0024 153.616 86.0024 153.616L83.1554 161.832" fill="white"/>
<path d="M83.1346 162.178C83.098 162.185 83.0604 162.185 83.0238 162.178C82.9373 162.147 82.8665 162.083 82.8264 162C82.7863 161.917 82.7801 161.822 82.8091 161.735L85.6561 153.519C85.7462 153.318 87.5819 149.363 88.3716 148.074C89.1822 146.752 89.6024 145.227 89.5838 143.676C89.5838 143.108 89.3691 142.72 89.0019 142.63C88.6348 142.539 88.0806 142.782 87.7135 143.516C87.0583 144.597 86.2921 145.607 85.4275 146.53C84.7977 147.183 84.2446 147.905 83.7789 148.684C83.4602 149.64 81.008 154.974 80.9249 155.195C80.8838 155.273 80.8145 155.333 80.7311 155.361C80.6477 155.39 80.5566 155.386 80.4762 155.35C80.3958 155.313 80.3322 155.248 80.2985 155.167C80.2647 155.085 80.2633 154.994 80.2945 154.911C80.2945 154.856 82.816 149.37 83.1277 148.469C83.6005 147.589 84.2003 146.784 84.908 146.079C85.7287 145.194 86.4618 144.231 87.097 143.204C87.2482 142.79 87.537 142.44 87.9153 142.213C88.2936 141.986 88.7383 141.896 89.1751 141.958C89.5341 142.066 89.843 142.298 90.0472 142.612C90.2513 142.927 90.3375 143.304 90.2904 143.676C90.309 145.356 89.8528 147.008 88.9742 148.441C88.2053 149.674 86.3281 153.734 86.3073 153.775L83.481 161.963C83.4525 162.03 83.4039 162.087 83.3419 162.126C83.2799 162.164 83.2075 162.182 83.1346 162.178Z" fill="#3A3D3E"/>
<path d="M82.5042 160.1L87.0899 151.725C87.0899 151.725 90.0894 148.261 90.408 149.037C90.6727 149.517 90.8245 150.051 90.8521 150.598C90.8798 151.145 90.7824 151.692 90.5674 152.196C89.7241 153.535 88.7718 154.802 87.7203 155.985L83.9242 166.258" fill="white"/>
<path d="M83.9242 166.632H83.8064C83.7637 166.617 83.7246 166.593 83.6912 166.562C83.6579 166.531 83.6311 166.494 83.6124 166.453C83.5936 166.412 83.5834 166.367 83.5822 166.322C83.581 166.276 83.589 166.231 83.6055 166.189L87.3947 155.916C87.4071 155.877 87.4285 155.841 87.457 155.812C88.478 154.648 89.4046 153.404 90.2279 152.092C90.4204 151.652 90.5098 151.173 90.4894 150.693C90.469 150.213 90.3393 149.744 90.1102 149.321C89.0734 150.069 88.1415 150.952 87.3393 151.947L82.7743 160.294C82.7525 160.334 82.723 160.369 82.6875 160.398C82.652 160.426 82.6112 160.448 82.5675 160.461C82.5237 160.473 82.4779 160.478 82.4326 160.473C82.3872 160.468 82.3433 160.454 82.3033 160.432C82.2632 160.41 82.2279 160.381 82.1993 160.345C82.1706 160.31 82.1493 160.269 82.1364 160.225C82.1236 160.182 82.1194 160.136 82.1243 160.091C82.1291 160.045 82.1429 160.001 82.1647 159.961L86.7505 151.586L86.792 151.524C87.7757 150.381 89.5629 148.469 90.2972 148.608C90.3858 148.623 90.4689 148.661 90.5382 148.718C90.6075 148.775 90.6605 148.849 90.692 148.933C90.9797 149.461 91.1423 150.048 91.1676 150.648C91.1928 151.249 91.0799 151.847 90.8375 152.397C90.0019 153.75 89.0492 155.027 87.9904 156.214L84.2151 166.424C84.1915 166.483 84.1515 166.534 84.1 166.571C84.0484 166.607 83.9875 166.629 83.9242 166.632Z" fill="#3A3D3E"/>
<path d="M82.9823 164.048C82.9823 164.048 88.9812 156.782 89.2998 157.571C89.7782 158.844 89.7782 160.247 89.2998 161.52C88.6254 162.736 87.8902 163.917 87.097 165.06C87.097 165.06 86.1411 169.417 85.6631 170.684C85.1851 171.952 82.345 172.763 81.5553 173.054L77.6068 174.314" fill="white"/>
<path d="M77.6068 174.661C77.5149 174.674 77.4213 174.651 77.3466 174.596C77.2719 174.541 77.2222 174.458 77.2085 174.366C77.1947 174.274 77.218 174.181 77.2732 174.106C77.3284 174.031 77.411 173.982 77.5029 173.968L81.4513 172.7L81.957 172.52C82.9476 172.174 84.9981 171.453 85.3444 170.539C85.8016 169.313 86.7298 164.997 86.7298 164.963C86.7412 164.92 86.7599 164.881 86.7853 164.845C86.7853 164.845 88.3508 162.573 88.9604 161.34C89.3711 160.243 89.3979 159.039 89.0366 157.925C88.1915 158.493 85.5245 161.451 83.2178 164.249C83.189 164.284 83.1536 164.313 83.1134 164.334C83.0733 164.356 83.0293 164.368 82.9841 164.372C82.9389 164.376 82.8934 164.371 82.8502 164.357C82.8071 164.343 82.7672 164.32 82.7329 164.291C82.6626 164.233 82.618 164.149 82.6089 164.058C82.5999 163.967 82.627 163.877 82.6844 163.806C86.4181 159.289 88.6279 157.052 89.2513 157.149C89.3273 157.158 89.3992 157.188 89.4591 157.236C89.519 157.284 89.5645 157.347 89.5908 157.419C89.9025 158.181 90.2835 160.19 89.5908 161.651C88.9222 162.864 88.1915 164.04 87.4018 165.177C87.2771 165.752 86.4181 169.583 85.9678 170.781C85.5176 171.98 83.7858 172.603 82.1648 173.171L81.6661 173.351L77.6899 174.626C77.6643 174.642 77.6362 174.654 77.6068 174.661Z" fill="#3A3D3E"/>
</svg>
