<svg width="80" height="311" viewBox="0 0 80 311" fill="none" xmlns="http://www.w3.org/2000/svg">
<path d="M58.4698 227.471C59.0314 225.155 59.7776 222.887 60.7011 220.691C61.7449 218.66 66.4468 218.66 69.2335 221.572C72.0202 224.483 73.6864 229.788 73.6864 229.788C75.9639 231.874 77.5396 234.613 78.1968 237.631C78.9916 242.247 79.2311 245.024 77.8808 244.851C76.5306 244.679 72.566 238.684 69.2622 236.702C65.9584 234.72 64.5986 234.729 64.5986 234.729L58.4698 227.471Z" fill="white"/>
<path d="M77.9956 245.34H77.8137C77.038 245.244 76.0516 244.162 74.2226 242.093C72.6617 240.331 70.7177 238.129 69.0323 237.114C65.9679 235.266 64.6368 235.199 64.6177 235.199C64.5491 235.198 64.4813 235.183 64.4187 235.155C64.3561 235.127 64.2999 235.086 64.2538 235.036L58.1059 227.777C58.0548 227.719 58.0186 227.649 58.0003 227.574C57.9819 227.499 57.982 227.421 58.0005 227.346C58.5699 224.993 59.3289 222.691 60.2701 220.461C60.5542 219.993 60.9475 219.602 61.4162 219.32C61.8849 219.038 62.415 218.874 62.961 218.842C64.1733 218.7 65.402 218.842 66.5503 219.256C67.6986 219.669 68.7351 220.344 69.5781 221.227C72.1924 223.966 73.83 228.658 74.1077 229.51C76.4193 231.652 78.0143 234.454 78.6755 237.535C79.4991 242.323 79.5278 244.238 78.8 244.985C78.6985 245.098 78.5744 245.188 78.4358 245.249C78.2971 245.31 78.1471 245.341 77.9956 245.34ZM64.8571 234.27C66.5314 234.633 68.1188 235.319 69.5303 236.29C71.3306 237.382 73.2458 239.546 74.9408 241.452C76.0708 242.735 77.4785 244.325 77.9381 244.382C78.0626 244.382 78.0914 244.382 78.1105 244.334C78.7521 243.673 78.0339 239.489 77.7275 237.708C77.0778 234.806 75.5616 232.171 73.3799 230.152C73.3128 230.093 73.2631 230.017 73.2362 229.932C73.2362 229.932 71.5508 224.684 68.8886 221.897C68.1457 221.13 67.2381 220.542 66.2344 220.177C65.2307 219.812 64.1573 219.68 63.095 219.79C62.7032 219.812 62.3216 219.924 61.9796 220.117C61.6376 220.309 61.3443 220.578 61.1224 220.901C60.2392 222.991 59.5282 225.15 58.9964 227.356L64.8571 234.27Z" fill="#3A3D3E"/>
<path d="M63.9282 219.273C64.9202 219.289 65.8993 219.5 66.8097 219.894C67.72 220.289 68.5436 220.859 69.2334 221.572C72.0105 224.444 73.6864 229.788 73.6864 229.788C75.9639 231.874 77.5395 234.613 78.1967 237.631C78.9916 242.247 79.231 245.024 77.8807 244.851C77.8142 244.838 77.7498 244.815 77.6892 244.784C77.6158 243.002 77.4463 241.224 77.1817 239.46C76.5401 235.256 72.2116 232.153 69.2239 226.283C67.9404 223.619 66.1403 221.236 63.9282 219.273Z" fill="white"/>
<path d="M77.9956 245.34H77.8136C77.7183 245.321 77.6252 245.292 77.5359 245.254C77.4465 245.217 77.3688 245.157 77.3114 245.079C77.2539 245.001 77.219 244.909 77.2103 244.813C77.1369 243.05 76.9707 241.292 76.7124 239.546C76.3581 237.277 74.7971 235.285 73.0734 232.967C71.4494 230.952 70.0194 228.788 68.8024 226.503C67.5444 223.899 65.7837 221.568 63.6217 219.647C63.5467 219.582 63.4935 219.496 63.4695 219.4C63.4455 219.304 63.4518 219.203 63.4877 219.111C63.5293 219.025 63.5928 218.951 63.6718 218.897C63.7507 218.843 63.8425 218.811 63.9378 218.804C66.0668 218.84 68.0947 219.718 69.5781 221.246C72.1924 223.985 73.83 228.677 74.1077 229.529C76.4193 231.671 78.0143 234.473 78.6755 237.554C79.4991 242.342 79.5278 244.258 78.8 245.005C78.6968 245.114 78.5719 245.2 78.4334 245.258C78.2948 245.315 78.1457 245.343 77.9956 245.34ZM65.3263 219.915C67.0784 221.728 68.5386 223.802 69.6547 226.063C70.8477 228.294 72.2455 230.41 73.8299 232.383C75.6782 234.796 77.2678 236.884 77.6604 239.393C77.8903 240.916 78.053 242.563 78.1392 244.296C78.7234 243.53 78.0243 239.508 77.7275 237.708C77.0778 234.806 75.5616 232.171 73.3799 230.152C73.3127 230.093 73.2631 230.017 73.2362 229.932C73.2362 229.932 71.5508 224.684 68.8886 221.897C67.9193 220.904 66.6813 220.215 65.3263 219.915Z" fill="#3A3D3E"/>
<path d="M4.2398 180.796C4.2398 180.796 3.85673 184.043 6.25078 185.326C8.61527 186.413 11.0616 187.313 13.567 188.017L13.0307 175.185C13.0307 175.185 6.0114 177.33 4.2398 180.796Z" fill="#3A3D3E"/>
<path d="M13.5669 188.495H13.4328C10.8955 187.774 8.41754 186.859 6.02088 185.757C3.37785 184.339 3.74176 180.892 3.76091 180.748C3.76663 180.692 3.78286 180.636 3.80878 180.585C5.65699 176.985 12.5902 174.84 12.887 174.734C12.9579 174.714 13.0323 174.71 13.1051 174.722C13.1778 174.733 13.2472 174.76 13.3084 174.801C13.366 174.846 13.4136 174.903 13.4482 174.967C13.4828 175.031 13.5037 175.102 13.5095 175.175L14.0457 188.007C14.0484 188.084 14.0333 188.16 14.0018 188.229C13.9702 188.299 13.923 188.361 13.8638 188.409C13.7771 188.47 13.6727 188.5 13.5669 188.495ZM4.69936 180.93C4.69936 181.419 4.60361 183.899 6.47096 184.904C8.59978 185.897 10.8026 186.723 13.0594 187.375L12.5806 175.884C10.8952 176.429 6.13579 178.297 4.69936 180.93Z" fill="#3A3D3E"/>
<path d="M10.3685 174.457L11.2208 186.35C11.2208 186.35 4.17272 203.329 2.2096 221.936C0.246482 240.542 1.0892 246.345 1.56801 248.749C2.04682 251.153 6.49017 254.868 9.97591 255.309C13.4616 255.749 15.6258 255.625 26.6289 252.503C37.6319 249.381 45.2259 245.225 52.8198 241.078C60.4137 236.932 64.6464 234.729 64.6464 234.729C64.6464 234.729 60.9595 228.179 58.4985 227.471C56.0374 226.762 53.155 229.194 53.155 229.194C53.155 229.194 52.6474 228.543 50.7609 229.482C49.5862 230.064 48.345 230.502 47.0645 230.784L23.6603 234.078C23.6603 234.078 46.8251 187.509 49.3723 181.352C51.9196 175.194 48.7978 171.852 48.7978 171.852L10.3685 174.457Z" fill="#DD7F34"/>
<path d="M12.5328 256.008C11.6549 256.001 10.7784 255.937 9.90889 255.816C6.42315 255.376 1.64465 251.612 1.09881 248.873C0.74449 247.083 -0.337646 241.624 1.73081 221.907C3.59817 204.21 10.1387 187.768 10.742 186.293L9.88975 174.514C9.88361 174.386 9.92447 174.26 10.0047 174.16C10.0905 174.063 10.211 174.005 10.3398 173.997L48.7691 171.392C48.8406 171.385 48.9129 171.395 48.9797 171.421C49.0464 171.448 49.1056 171.491 49.1521 171.546C49.2862 171.689 52.4463 175.185 49.8129 181.553C47.4763 187.203 27.5961 227.241 24.4934 233.494L46.9879 230.296C48.2158 230.013 49.4077 229.592 50.5407 229.041C50.9141 228.789 51.3366 228.618 51.7806 228.541C52.2245 228.463 52.6798 228.48 53.1167 228.591C53.9306 227.988 56.363 226.388 58.6038 227.03C61.1798 227.767 64.656 233.829 65.039 234.519C65.0652 234.577 65.0787 234.641 65.0787 234.705C65.0787 234.77 65.0652 234.833 65.039 234.892C65.0216 234.953 64.9923 235.009 64.9528 235.059C64.9134 235.108 64.8646 235.149 64.8092 235.179C64.8092 235.179 60.5095 237.439 53.0113 241.538C45.5132 245.637 37.7756 249.86 26.7247 253.029C18.5083 255.328 15.1662 256.008 12.5328 256.008ZM10.8856 174.926L11.6996 186.331C11.7187 186.403 11.7187 186.479 11.6996 186.552C11.623 186.724 4.64197 203.683 2.71716 221.983C0.658277 241.557 1.75955 246.882 2.06598 248.663C2.50649 250.856 6.71044 254.408 10.0621 254.839C13.4138 255.27 15.6355 255.146 26.5236 252.053C37.4117 248.96 45.178 244.736 52.6187 240.667C58.757 237.315 62.7216 235.208 63.9856 234.528C62.8078 232.527 60.0977 228.419 58.3644 227.921C56.1715 227.298 53.5093 229.491 53.4806 229.52C53.4314 229.56 53.3748 229.59 53.314 229.608C53.2532 229.626 53.1893 229.632 53.1262 229.625C53.062 229.621 52.9995 229.602 52.9432 229.57C52.887 229.539 52.8383 229.496 52.8007 229.443C52.7241 229.386 52.1686 229.28 51.0003 229.865C49.7832 230.467 48.4967 230.917 47.1699 231.205L23.7465 234.538C23.6597 234.551 23.5709 234.54 23.4898 234.507C23.4087 234.473 23.3385 234.417 23.2868 234.346C23.2422 234.271 23.2186 234.185 23.2186 234.097C23.2186 234.01 23.2422 233.924 23.2868 233.848C23.5167 233.389 46.4708 187.231 48.9798 181.179C51.0865 176.085 49.2 173.078 48.6446 172.35L10.8856 174.926Z" fill="#3A3D3E"/>
<path d="M22.0707 191.148C21.9744 191.149 21.8804 191.119 21.8025 191.062L17.2826 187.94C17.1772 187.868 17.1048 187.756 17.0815 187.631C17.0581 187.505 17.0857 187.375 17.1581 187.27C17.2304 187.164 17.3417 187.092 17.4674 187.069C17.5931 187.045 17.723 187.073 17.8284 187.145L22.3388 190.277C22.391 190.311 22.4357 190.356 22.4704 190.408C22.505 190.461 22.5289 190.519 22.5405 190.581C22.5521 190.642 22.5512 190.706 22.538 190.767C22.5247 190.828 22.4993 190.886 22.4633 190.937C22.4198 191.002 22.3614 191.054 22.293 191.091C22.2246 191.128 22.1483 191.147 22.0707 191.148Z" fill="#3A3D3E"/>
<path d="M56.1523 278.445C56.1523 278.445 68.2279 282.323 68.2758 283.51C68.3237 284.698 65.5083 294.552 64.3208 299.311C63.1334 304.07 58.0676 309.912 56.6599 309.931C55.2522 309.95 54.419 309.06 54.2754 307.058C54.1318 305.057 55.3192 301.887 54.8883 299.091C54.4573 296.295 50.7513 286.776 50.7513 286.776C50.7513 286.776 56.0278 280.791 56.1523 278.445Z" fill="white"/>
<path d="M56.6408 310.41C55.6832 310.41 54.0265 309.97 53.8254 307.116C53.81 306.063 53.9161 305.013 54.1414 303.984C54.4795 302.412 54.5827 300.799 54.4478 299.196C54.0265 296.477 50.3684 287.082 50.3301 286.987C50.2985 286.905 50.2898 286.817 50.305 286.73C50.3202 286.644 50.3587 286.564 50.4163 286.498C51.8527 284.861 55.597 280.226 55.6736 278.445C55.6782 278.372 55.6985 278.3 55.7332 278.236C55.768 278.171 55.8162 278.115 55.8747 278.071C55.9346 278.028 56.0041 277.999 56.0773 277.987C56.1505 277.975 56.2255 277.981 56.296 278.004C64.522 280.647 68.7451 282.505 68.7451 283.51C68.7451 284.324 67.7875 288.059 66.2936 293.661C65.719 295.816 65.1636 297.904 64.771 299.407C63.574 304.195 58.4124 310.372 56.6887 310.391L56.6408 310.41ZM51.326 286.891C51.9484 288.5 54.9937 296.467 55.3863 299.033C55.5551 300.74 55.4517 302.463 55.0799 304.138C54.881 305.082 54.7815 306.045 54.783 307.01C54.9554 309.443 56.2578 309.433 56.6983 309.414C57.6559 309.414 62.6451 304.042 63.8612 299.158C64.2539 297.607 64.8189 295.519 65.3934 293.355C66.4564 289.39 67.7683 284.487 67.8066 283.558C67.2129 282.811 61.7449 280.686 56.5354 279.029C55.8747 281.509 52.2932 285.77 51.326 286.891Z" fill="#3A3D3E"/>
<path d="M68.2757 283.511C68.2757 284.698 65.5082 294.552 64.3208 299.311C63.1333 304.071 58.0675 309.912 56.6598 309.931C56.5801 309.936 56.5001 309.936 56.4204 309.931C59.443 305.483 61.7952 300.614 63.4015 295.481C64.6408 291.065 65.4238 286.534 65.7381 281.959C67.2224 282.591 68.2662 283.166 68.2757 283.511Z" fill="white"/>
<path d="M56.6887 310.41H56.4781C56.3907 310.401 56.3067 310.371 56.2334 310.323C56.16 310.274 56.0994 310.209 56.0567 310.132C56.0147 310.059 55.9926 309.977 55.9926 309.893C55.9926 309.809 56.0147 309.726 56.0567 309.653C59.0533 305.247 61.383 300.423 62.9707 295.337C64.2024 290.96 64.9791 286.467 65.2882 281.93C65.294 281.854 65.3178 281.781 65.3578 281.716C65.3978 281.651 65.4527 281.596 65.518 281.557C65.5867 281.524 65.662 281.507 65.7382 281.507C65.8145 281.507 65.8898 281.524 65.9585 281.557C68.2759 282.572 68.7356 283.051 68.7547 283.539C68.7547 284.353 67.7971 288.088 66.3032 293.69C65.7287 295.845 65.1733 297.932 64.7806 299.436C63.5836 304.224 58.422 310.4 56.6983 310.42L56.6887 310.41ZM66.1883 282.639C65.8573 287.018 65.0874 291.352 63.89 295.576C62.4458 300.218 60.3878 304.647 57.7708 308.744C59.5999 307.144 62.8941 302.998 63.8517 299.167C64.2444 297.616 64.8093 295.529 65.3839 293.364C66.4373 289.409 67.7588 284.506 67.7971 283.568C67.3136 283.182 66.7701 282.878 66.1883 282.668V282.639Z" fill="#3A3D3E"/>
<path d="M31.4073 182.032C21.8311 184.904 19.8106 197.65 17.7229 203.281C15.6353 208.912 9.63106 237.803 9.55446 239.958C9.47785 242.113 13.3849 249.678 14.8405 251.028C16.2961 252.378 36.8658 272.67 38.848 275.476C40.8303 278.282 48.9126 286.01 48.9126 286.01L50.7799 286.833C55.4914 285.272 55.9798 279.833 56.1522 278.483C56.3246 277.133 53.3751 275.61 52.1015 273.254C50.8278 270.899 43.7127 255.701 40.9644 251.028C38.216 246.355 30.2965 242.218 29.1856 240.111C28.8229 239.255 28.325 238.463 27.7109 237.765C27.7109 237.765 37.0094 223.228 44.7278 216.544C52.4462 209.86 58.1919 197.037 58.9772 187.662C59.7624 178.287 55.9032 173.183 55.9032 173.183L35.1899 173.901" fill="#DD7F34"/>
<path d="M50.7802 287.274C50.7139 287.288 50.6455 287.288 50.5791 287.274L48.7213 286.45C48.6709 286.427 48.6254 286.395 48.5873 286.355C48.2521 286.048 40.4667 278.598 38.4653 275.821C36.4638 273.044 15.9516 252.838 14.5248 251.44C13.0979 250.042 9.01845 242.275 9.09506 240.006C9.17167 237.736 15.1281 209.046 17.3019 203.176C17.6562 202.218 18.0201 201.002 18.4127 199.719C20.2801 193.504 23.1146 184.119 31.2927 181.639C31.4197 181.602 31.5561 181.617 31.6719 181.681C31.7877 181.745 31.8735 181.852 31.9103 181.979C31.9472 182.106 31.932 182.242 31.8683 182.358C31.8045 182.474 31.6974 182.56 31.5704 182.597C23.9094 184.933 21.2473 193.667 19.3225 200.035C18.9394 201.337 18.5659 202.563 18.1924 203.559C16.0378 209.372 10.1197 238.33 10.0527 240.082C9.98564 242.074 13.8257 249.486 15.1855 250.798C15.4058 251.009 37.1246 272.306 39.2601 275.313C41.1274 277.918 48.4628 284.976 49.2097 285.684L50.8185 286.402C54.9171 284.918 55.4917 280.226 55.6737 278.665V278.502C55.7407 278.004 54.9172 277.209 54.1223 276.443C53.171 275.611 52.3481 274.643 51.6804 273.57C51.2112 272.728 50.0237 270.267 48.5107 267.154C45.8964 261.744 42.3053 254.332 40.5529 251.363C38.9824 248.691 35.602 246.154 32.8919 244.114C30.8617 242.591 29.2625 241.385 28.7646 240.427C28.4034 239.642 27.9501 238.903 27.4143 238.225C27.3645 238.191 27.3221 238.148 27.2896 238.098C27.2571 238.047 27.2352 237.991 27.2254 237.931C27.2155 237.872 27.2178 237.812 27.2322 237.753C27.2466 237.695 27.2727 237.64 27.309 237.593C27.4048 237.449 36.732 222.922 44.4216 216.276C52.3124 209.439 57.7804 196.377 58.4986 187.71C59.169 179.657 56.3248 174.773 55.6258 173.748L35.171 174.466C35.0453 174.467 34.9242 174.42 34.8318 174.334C34.7394 174.249 34.6828 174.132 34.6731 174.007C34.6705 173.944 34.6804 173.881 34.7021 173.822C34.7238 173.763 34.757 173.709 34.7997 173.662C34.8424 173.616 34.8937 173.579 34.9509 173.552C35.008 173.526 35.0698 173.511 35.1327 173.509L55.846 172.791C55.9236 172.787 56.0007 172.803 56.0708 172.837C56.1408 172.87 56.2017 172.92 56.2482 172.982C56.411 173.193 60.2032 178.335 59.418 187.787C58.6902 196.53 53.3849 209.735 45.0058 216.994C38.0439 223.027 29.6839 235.687 28.2762 237.813C28.7642 238.499 29.1965 239.222 29.569 239.977C29.9712 240.753 31.6566 242.007 33.3994 243.348C36.1765 245.436 39.6431 248.04 41.3094 250.875C43.081 253.882 46.6816 261.313 49.3055 266.733C50.809 269.836 51.9964 272.287 52.4561 273.111C53.0736 274.102 53.8353 274.996 54.716 275.763C55.7694 276.778 56.6887 277.679 56.5642 278.636V278.799C55.9993 283.434 54.084 286.326 50.876 287.418L50.7802 287.274Z" fill="#3A3D3E"/>
<path d="M34.558 10.6273H34.491C34.4114 10.6168 34.3359 10.5857 34.272 10.5369C34.2082 10.4882 34.1582 10.4236 34.1271 10.3496L33.3227 8.53008C32.9921 7.94002 32.8601 7.25922 32.9464 6.58836C33.0326 5.9175 33.3324 5.2922 33.8015 4.80494C33.926 4.67087 34.2324 4.31655 37.8522 2.99504L38.3694 2.81309C38.4506 2.78563 38.5375 2.78003 38.6216 2.79684C38.7056 2.81365 38.7838 2.85227 38.8482 2.90885C38.9106 2.968 38.9566 3.04231 38.9818 3.12454C39.007 3.20678 39.0104 3.29413 38.9918 3.37809L38.2736 6.37543C38.2541 6.44956 38.2181 6.51831 38.1683 6.57653L34.9602 10.4549C34.9103 10.5118 34.8483 10.5568 34.7787 10.5867C34.7091 10.6165 34.6337 10.6304 34.558 10.6273ZM37.8331 4.01011C36.6769 4.37178 35.5603 4.84984 34.5006 5.43696C34.151 5.78347 33.9295 6.23835 33.8721 6.72717C33.8147 7.21599 33.9248 7.70982 34.1846 8.12788L34.673 9.24829L37.3639 6.06899L37.8331 4.01011Z" fill="#3A3D3E"/>
<path d="M52.9349 127.294C52.9349 127.294 42.7841 143.717 42.6213 144.732C42.4585 145.747 57.3878 173.461 58.1635 175.376C58.1635 175.376 24.2542 177.109 15.8367 177.081C7.41926 177.052 4.20166 180.767 4.20166 180.767C4.20166 180.767 8.80781 168.797 8.77908 158.139C8.75035 147.481 3.4164 131.163 4.84325 123.952C6.2701 116.741 11.2785 104.302 11.2785 104.302C11.2785 104.302 11.1635 92.9442 13.6534 84.1437C16.1432 75.3432 18.7766 66.7437 19.4757 61.1608C20.1747 55.5779 25.0299 39.0015 27.3377 34.3475C29.6456 29.6935 34.472 14.6205 34.472 14.6205C34.472 14.6205 33.6102 11.9296 34.5199 10.158C35.4339 8.7083 36.5496 7.39599 37.8332 6.26051C37.8332 6.26051 38.6664 2.43003 40.0358 1.03191C41.4052 -0.366213 42.1138 0.955301 41.8169 1.98953L41.5201 2.94715C41.5201 2.94715 44.029 7.56287 44.4695 9.51642C44.91 11.47 38.3791 16.6028 38.3791 16.6028C38.3791 16.6028 36.0425 41.9222 35.2956 47.8499C34.5486 53.7776 31.1299 61.6109 31.1299 61.6109L30.7277 66.1979L26.2077 92.4462C26.2077 92.4462 39.4421 96.5257 43.081 99.0442C46.72 101.563 56.4111 109.157 57.5219 115.324C58.6327 121.491 52.9349 127.294 52.9349 127.294Z" fill="white"/>
<path d="M4.23976 181.313C4.15128 181.311 4.06509 181.285 3.99077 181.237C3.89442 181.18 3.82124 181.092 3.78439 180.986C3.74754 180.881 3.74943 180.766 3.78968 180.662C3.83756 180.538 8.35752 168.654 8.33837 158.206C8.33837 153.418 7.20836 147.375 6.13583 141.572C4.84304 134.553 3.6173 127.936 4.41213 123.923C5.77194 117.067 10.3877 105.412 10.8377 104.282C10.8377 103.152 10.8377 92.4175 13.2318 84.0862C13.6244 82.6785 14.0266 81.2804 14.4288 79.8919C16.4973 72.6618 18.4508 65.8244 19.0445 61.1704C19.7532 55.53 24.6371 38.8675 26.9545 34.1655C29.0996 29.7988 33.5142 16.1815 34.0121 14.6397C33.8398 14.0172 33.2652 11.6615 34.1366 9.96651C35.0176 8.50929 36.1082 7.18961 37.3734 6.04985C37.5457 5.29333 38.331 2.047 39.6717 0.735059C40.6293 -0.222561 41.3379 -0.0406114 41.6731 0.160489C41.9538 0.382176 42.1596 0.68488 42.2623 1.02751C42.3651 1.37015 42.36 1.73611 42.2476 2.07573L42.0082 2.88012C43.1599 4.95983 44.1214 7.13929 44.8811 9.39194C45.3408 11.4317 40.2271 15.741 38.8098 16.8805C38.5895 19.2937 36.4445 42.3532 35.7454 47.9361C35.0464 53.519 31.915 60.8927 31.5894 61.7354L31.1872 66.2554L26.7438 92.1111C29.0229 92.8293 40.0068 96.3342 43.3393 98.6516C44.7087 99.6092 56.746 108.103 57.9909 115.228C59.0922 121.357 53.8444 126.997 53.289 127.572C49.516 133.672 43.5213 143.574 43.1095 144.751C43.4351 146.015 49.2383 157.095 53.0975 164.459C55.9703 170.033 58.3165 174.428 58.6229 175.213C58.6482 175.284 58.6568 175.359 58.6482 175.434C58.6395 175.508 58.6138 175.58 58.5731 175.643C58.5323 175.706 58.4776 175.759 58.4132 175.797C58.3488 175.835 58.2764 175.859 58.2016 175.864C57.8664 175.864 24.8094 177.569 16.0663 177.569H15.8078C7.82124 177.569 4.66109 181.055 4.63236 181.093C4.58999 181.159 4.53203 181.214 4.46356 181.252C4.39509 181.291 4.31825 181.312 4.23976 181.313ZM41.0889 0.917009C40.7975 0.980565 40.537 1.14296 40.3516 1.37666C39.0875 2.63114 38.2831 6.31798 38.2735 6.35629C38.2515 6.45668 38.1978 6.54733 38.1203 6.61484C36.8991 7.7146 35.8356 8.97783 34.9602 10.3687C34.1462 11.9488 34.9602 14.4386 34.9602 14.4673C34.989 14.5609 34.989 14.661 34.9602 14.7546C34.7591 15.3675 30.105 29.8754 27.7972 34.5486C25.4893 39.2218 20.6916 55.6162 19.983 61.247C19.3893 65.9776 17.4166 72.8438 15.3386 80.1121C14.9364 81.5007 14.5437 82.8988 14.1415 84.3065C11.6996 92.9251 11.7858 104.215 11.7858 104.33C11.7993 104.39 11.7993 104.452 11.7858 104.512C11.7858 104.637 6.77743 116.961 5.3793 124.067C4.62278 127.897 5.82941 134.438 7.11262 141.361C8.18515 147.212 9.30556 153.255 9.32472 158.168C9.32472 166.48 6.53802 175.654 5.29312 179.321C6.97853 178.191 10.2919 176.631 15.8269 176.631H16.1813C24.1678 176.631 52.6761 175.213 57.5408 174.964C56.7747 173.384 54.668 169.42 52.341 164.928C44.2491 149.453 42.171 145.288 42.2476 144.675C42.3817 143.641 50.2055 130.923 52.5995 127.045L52.6665 126.959C52.7144 126.901 58.192 121.213 57.1386 115.42C56.181 109.942 47.7157 102.808 42.8893 99.456C39.3556 97.0045 26.2841 92.9634 26.1501 92.9251C26.0389 92.888 25.9444 92.813 25.8831 92.7132C25.8218 92.6133 25.7977 92.4951 25.8149 92.3792L30.3349 66.1404L30.7371 61.5822C30.7327 61.5344 30.7327 61.4863 30.7371 61.4385C30.7371 61.3619 34.1175 53.6052 34.8453 47.8212C35.5731 42.0372 37.9096 16.8518 37.9384 16.6028C37.9497 16.4728 38.0116 16.3525 38.1108 16.2676C40.7155 14.1896 44.2587 10.7518 44.0001 9.56431C43.5788 7.64907 41.1272 3.16741 41.1272 3.11953C41.1013 3.06237 41.0879 3.00034 41.0879 2.93759C41.0879 2.87483 41.1013 2.81279 41.1272 2.75564L41.4241 1.79802C41.4819 1.65284 41.4981 1.49446 41.4711 1.34057C41.444 1.18668 41.3747 1.04335 41.2709 0.92658L41.0889 0.917009Z" fill="#3A3D3E"/>
<path d="M40.9071 7.98421C40.8442 7.98296 40.7822 7.96934 40.7246 7.94412C40.6669 7.9189 40.6149 7.88258 40.5713 7.83723C40.5277 7.79187 40.4935 7.73838 40.4706 7.6798C40.4477 7.62122 40.4366 7.5587 40.4378 7.49582C40.5342 5.93637 40.7325 4.38491 41.0316 2.85137C41.0419 2.78927 41.0646 2.72988 41.0984 2.67674C41.1321 2.6236 41.1762 2.5778 41.228 2.54206C41.2799 2.50632 41.3384 2.48138 41.4 2.46871C41.4617 2.45604 41.5253 2.4559 41.587 2.46832C41.712 2.49382 41.822 2.5672 41.8936 2.67279C41.9652 2.77837 41.9926 2.90777 41.97 3.03332C41.6862 4.51714 41.4943 6.01707 41.3955 7.52455C41.3942 7.587 41.3806 7.64859 41.3552 7.70569C41.3299 7.76279 41.2934 7.81426 41.2479 7.85707C41.2024 7.89988 41.1488 7.93318 41.0903 7.95501C41.0318 7.97685 40.9695 7.98677 40.9071 7.98421Z" fill="#3A3D3E"/>
<path d="M4.88156 123.981C6.30841 116.77 11.3168 104.33 11.3168 104.33C11.3168 104.33 11.2019 92.973 13.6917 84.1724C13.9407 83.3106 14.18 82.4487 14.429 81.5869L29.2434 74.8835L26.2269 92.4271C26.2269 92.4271 39.4612 96.5066 43.1002 99.0251C46.7391 101.544 56.4302 109.138 57.541 115.305C58.6519 121.472 52.9349 127.265 52.9349 127.265C52.9349 127.265 42.7841 143.717 42.6213 144.732C42.4585 145.747 57.3878 173.461 58.1635 175.376C58.1635 175.376 24.2542 177.109 15.8367 177.081C7.41926 177.052 4.20166 180.767 4.20166 180.767C4.20166 180.767 8.80781 168.797 8.77908 158.139C8.75035 147.481 3.45471 131.192 4.88156 123.981Z" fill="#ADADAD"/>
<path d="M4.23976 181.313C4.15128 181.311 4.06509 181.285 3.99077 181.237C3.89442 181.18 3.82124 181.092 3.78439 180.986C3.74754 180.881 3.74943 180.766 3.78968 180.662C3.83756 180.538 8.35752 168.654 8.33837 158.206C8.33837 153.418 7.20836 147.375 6.13583 141.572C4.84304 134.562 3.6173 127.936 4.41213 123.923C5.76237 117.067 10.3877 105.412 10.8377 104.282C10.8377 103.152 10.8377 92.4175 13.2318 84.0862L13.9691 81.491C13.9881 81.4246 14.021 81.3629 14.0655 81.31C14.1101 81.2572 14.1654 81.2145 14.2277 81.1846L29.0517 74.4813C29.1301 74.4436 29.2177 74.429 29.3042 74.4392C29.3906 74.4494 29.4724 74.4839 29.54 74.5387C29.6084 74.5919 29.6607 74.6631 29.6911 74.7442C29.7216 74.8253 29.7289 74.9133 29.7124 74.9984L26.7725 92.1206C29.0517 92.8388 40.0356 96.3437 43.3681 98.6611C44.7375 99.6188 56.7747 108.113 58.0196 115.238C59.1209 121.366 53.8732 127.016 53.3177 127.581C49.5447 133.681 43.55 143.583 43.1383 144.761C43.4638 146.025 49.267 157.105 53.1262 164.469C55.9991 170.042 58.3452 174.438 58.6517 175.223C58.6769 175.293 58.6855 175.369 58.6769 175.443C58.6682 175.518 58.6426 175.589 58.6018 175.652C58.5611 175.715 58.5063 175.768 58.4419 175.807C58.3775 175.845 58.3051 175.868 58.2303 175.874C57.8951 175.874 24.8381 177.579 16.0951 177.579H15.8078C7.82124 177.579 4.66109 181.064 4.63236 181.103C4.58889 181.167 4.53047 181.22 4.46207 181.256C4.39367 181.293 4.31738 181.313 4.23976 181.313ZM14.8502 81.9315L14.1703 84.3064C11.7283 92.925 11.8145 104.215 11.8145 104.33C11.8281 104.39 11.8281 104.452 11.8145 104.512C11.8145 104.637 6.80618 116.961 5.40806 124.067C4.65154 127.897 5.85814 134.438 7.14135 141.361C8.21388 147.212 9.33429 153.255 9.35344 158.168C9.35344 166.48 6.56675 175.654 5.32185 179.321C7.00726 178.191 10.3206 176.63 15.8557 176.63H16.21C24.1965 176.63 52.7048 175.213 57.5696 174.964C56.8035 173.384 54.6967 169.42 52.3697 164.928C44.2778 149.453 42.1998 145.288 42.2764 144.675C42.4105 143.641 50.2342 130.923 52.6283 127.045L52.6953 126.959C52.7432 126.901 58.2207 121.213 57.1674 115.419C56.2098 109.942 47.7444 102.808 42.918 99.456C39.3844 97.0045 26.3129 92.9633 26.1788 92.925C26.0676 92.888 25.9731 92.813 25.9118 92.7131C25.8505 92.6133 25.8264 92.495 25.8436 92.3792L28.7165 75.7262L14.8502 81.9315Z" fill="#3A3D3E"/>
<path d="M32.5088 142.558C32.4211 142.56 32.3347 142.537 32.2598 142.491C32.097 142.396 15.9229 132.848 13.0596 131.306C12.9478 131.246 12.8649 131.143 12.829 131.021C12.793 130.898 12.8071 130.767 12.8681 130.655C12.929 130.544 13.0319 130.461 13.154 130.425C13.2761 130.389 13.4075 130.403 13.5192 130.464C16.3921 132.015 32.5854 141.572 32.7482 141.668C32.803 141.699 32.8511 141.74 32.8895 141.79C32.928 141.839 32.9561 141.896 32.9722 141.957C32.9883 142.018 32.992 142.081 32.9831 142.143C32.9743 142.205 32.953 142.265 32.9206 142.319C32.8781 142.391 32.8179 142.45 32.7459 142.492C32.6738 142.534 32.5922 142.557 32.5088 142.558Z" fill="#3A3D3E"/>
<path d="M18.1253 137.991C18.0216 137.991 17.9206 137.958 17.838 137.895C14.563 135.434 7.30422 128.865 7.30422 128.798C7.25934 128.753 7.22373 128.7 7.19942 128.642C7.17511 128.583 7.1626 128.521 7.1626 128.458C7.1626 128.394 7.17511 128.332 7.19942 128.273C7.22373 128.215 7.25934 128.162 7.30422 128.118C7.39534 128.029 7.51727 127.98 7.64418 127.98C7.77109 127.98 7.893 128.029 7.98412 128.118C8.05115 128.185 15.2524 134.716 18.5179 137.158C18.6195 137.234 18.6867 137.347 18.7046 137.473C18.7226 137.599 18.6899 137.726 18.6137 137.828C18.5555 137.898 18.479 137.95 18.3927 137.979C18.3064 138.008 18.2138 138.012 18.1253 137.991Z" fill="#3A3D3E"/>
<path d="M23.1145 161.136C23.0097 161.137 22.9074 161.104 22.8229 161.042C22.7384 160.979 22.6761 160.892 22.6453 160.792C22.6127 160.668 22.6295 160.537 22.6921 160.427C22.7547 160.316 22.8582 160.234 22.9804 160.198C31.1393 157.88 40.9549 147.615 41.0603 147.519C41.1033 147.473 41.1552 147.437 41.2128 147.412C41.2705 147.387 41.3326 147.374 41.3955 147.374C41.4583 147.374 41.5204 147.387 41.5781 147.412C41.6357 147.437 41.6876 147.473 41.7306 147.519C41.7752 147.563 41.8106 147.615 41.8348 147.672C41.859 147.73 41.8715 147.792 41.8715 147.854C41.8715 147.917 41.859 147.978 41.8348 148.036C41.8106 148.093 41.7752 148.146 41.7306 148.189C41.3189 148.62 31.6277 158.723 23.2198 161.136C23.185 161.143 23.1493 161.143 23.1145 161.136Z" fill="#3A3D3E"/>
<path d="M35.7168 159.288C35.6439 159.287 35.5722 159.27 35.5074 159.236C35.4426 159.203 35.3864 159.155 35.3433 159.097C35.2661 158.996 35.2318 158.869 35.2479 158.744C35.2641 158.618 35.3294 158.504 35.4295 158.426C37.4606 156.455 39.3789 154.37 41.1752 152.183C41.2556 152.085 41.371 152.024 41.4966 152.011C41.6221 151.999 41.7475 152.036 41.8455 152.115C41.9413 152.199 42.0016 152.316 42.014 152.442C42.0265 152.569 41.9902 152.695 41.9126 152.795C41.7306 153.006 37.6033 157.986 36.0519 159.183C35.9572 159.258 35.8377 159.296 35.7168 159.288Z" fill="#3A3D3E"/>
<path d="M36.5977 59.7915C36.502 60.5384 37.2872 57.3399 42.2477 57.2059C47.2081 57.0718 52.6857 58.9009 55.5011 61.6684C58.3165 64.4359 67.864 72.2022 67.3564 85.2258C66.8489 98.2495 60.7297 96.564 59.9253 99.8774C59.1209 103.191 62.5779 104.024 62.5779 104.024C62.5779 104.024 60.7776 108.228 51.278 107.155C41.7785 106.083 44.2395 95.616 45.1972 94.0934C46.1548 92.5708 44.68 79.0683 42.4583 75.6113C41.1488 73.5669 39.083 72.1243 36.7126 71.5989C36.7126 71.5989 27.8355 81.6348 27.1364 88.2615C26.4374 94.8882 28.3143 96.0182 28.1707 99.1688C28.027 102.319 23.7656 104.914 20.0788 103.957C16.392 102.999 16.0951 101.429 16.0951 101.429C16.0951 101.429 20.7396 99.7338 19.8586 97.7228C18.9775 95.7118 13.7489 89.8511 14.946 82.4009C16.143 74.9506 18.7764 68.8218 25.4798 64.9722C32.1831 61.1225 35.2283 61.0076 35.2283 61.0076L36.5977 59.7915Z" fill="#3A3D3E"/>
<path d="M54.218 107.806C53.2164 107.806 52.2157 107.748 51.2206 107.634C48.0126 107.27 45.7909 105.853 44.613 103.411C42.8414 99.7529 44.1343 94.8786 44.7854 93.8348C45.6377 92.4654 44.2013 79.2024 42.0562 75.8795C40.8702 74.0347 39.0408 72.6968 36.9234 72.1256C35.6593 73.6003 28.3048 82.4296 27.644 88.3094C27.2734 90.8338 27.4564 93.4087 28.1803 95.8554C28.5315 96.9306 28.6998 98.0571 28.6783 99.1879C28.6003 99.982 28.3468 100.749 27.9361 101.433C27.5253 102.117 26.9676 102.701 26.3034 103.143C25.4092 103.805 24.3814 104.265 23.2916 104.49C22.2018 104.715 21.076 104.7 19.9927 104.445C16.1622 103.421 15.693 101.726 15.6546 101.572C15.6296 101.46 15.647 101.342 15.7035 101.241C15.7601 101.14 15.8518 101.064 15.9611 101.027C16.7655 100.73 18.9776 99.7242 19.4373 98.6325C19.4867 98.5277 19.5124 98.4132 19.5124 98.2973C19.5124 98.1814 19.4867 98.067 19.4373 97.9622C19.1534 97.3995 18.8336 96.8557 18.4796 96.3342C16.7463 93.5858 13.5096 88.4817 14.4959 82.3625C15.9036 73.5525 19.2362 68.0749 25.2979 64.5987C31.1777 61.2183 34.3091 60.6725 35.0848 60.5863L36.2626 59.4659C36.3062 59.4232 36.3584 59.3906 36.4158 59.3701C37.6512 57.7039 39.6047 56.8228 42.2286 56.7558C47.3518 56.6122 52.9252 58.5083 55.8268 61.3524C56.0566 61.5822 56.3248 61.8408 56.6408 62.128C60.1265 65.4127 68.295 73.1215 67.8258 85.2737C67.481 94.3711 64.3209 96.564 62.2237 98.01C61.2661 98.6708 60.5957 99.14 60.385 100.021C59.7051 102.827 62.5588 103.555 62.6738 103.583C62.7424 103.597 62.8069 103.626 62.8618 103.67C62.9168 103.713 62.9606 103.769 62.9898 103.832C63.0202 103.895 63.0361 103.964 63.0361 104.033C63.0361 104.103 63.0202 104.172 62.9898 104.235C62.9419 104.369 61.381 107.806 54.218 107.806ZM36.751 71.1201H36.8755C38.11 71.391 39.2787 71.9037 40.3142 72.6285C41.3496 73.3533 42.2313 74.276 42.9085 75.3432C45.111 78.7523 46.7869 92.5037 45.6473 94.3328C45.0823 95.2425 43.9331 99.705 45.5228 102.951C46.5474 105.068 48.5202 106.313 51.3739 106.629C58.4602 107.433 61.0841 105.211 61.9077 104.225C61.0835 103.897 60.3786 103.326 59.8871 102.587C59.6346 102.158 59.4729 101.682 59.412 101.188C59.351 100.694 59.3921 100.192 59.5328 99.7146C59.8296 98.4793 60.7202 97.8568 61.7544 97.1386C63.8038 95.7118 66.6191 93.7678 66.9447 85.1492C67.3948 73.4375 59.4466 65.9394 56.0566 62.7409C55.7406 62.4441 55.4629 62.1855 55.2331 61.9557C52.5038 59.2744 47.1986 57.4836 42.3243 57.6272C39.9495 57.6943 38.2162 58.4795 37.1724 59.983C37.1271 60.0653 37.0656 60.1374 36.9915 60.195C36.9174 60.2527 36.8323 60.2946 36.7414 60.3181L35.6976 61.2758C35.6569 61.3186 35.6079 61.3526 35.5535 61.3756C35.4992 61.3987 35.4407 61.4103 35.3816 61.4098C35.3816 61.4098 32.3172 61.6014 25.8533 65.3169C20.1076 68.6303 16.8804 73.9355 15.5206 82.4009C14.563 88.1466 17.5795 92.8868 19.3511 95.7022C19.7247 96.267 20.0667 96.852 20.3757 97.4546C20.4774 97.6821 20.5299 97.9285 20.5299 98.1776C20.5299 98.4268 20.4774 98.6732 20.3757 98.9006C19.8203 100.213 17.8189 101.199 16.8421 101.611C17.1868 102.051 18.0774 102.846 20.2895 103.43C21.2351 103.65 22.2172 103.662 23.168 103.466C24.1187 103.269 25.0153 102.868 25.7958 102.291C26.3427 101.931 26.8037 101.455 27.1463 100.898C27.4889 100.34 27.7046 99.7138 27.7781 99.0634C27.7825 98.0512 27.6208 97.0451 27.2993 96.0852C26.5479 93.5225 26.3553 90.8284 26.7343 88.1849C27.4525 81.4815 36.0615 71.6659 36.435 71.2542C36.5191 71.1704 36.6323 71.1223 36.751 71.1201Z" fill="#3A3D3E"/>
<path d="M29.272 97.6556C29.272 97.6556 28.7261 103.037 28.0366 104.474C27.3471 105.91 24.6562 108.103 25.4894 108.592C26.3225 109.08 34.9698 106.743 39.4227 104.646C43.8757 102.549 43.0042 98.3738 43.2532 97.5216C43.5022 96.6693 35.1039 100.672 29.272 97.6556Z" fill="white"/>
<path d="M25.9107 109.118C25.6813 109.134 25.4515 109.095 25.2403 109.004C25.1421 108.945 25.0578 108.866 24.9933 108.772C24.9288 108.678 24.8857 108.57 24.8669 108.458C24.7615 107.854 25.2978 107.194 26.2554 106.073C26.7694 105.52 27.2222 104.914 27.6057 104.263C28.1419 103.152 28.6495 99.0826 28.8027 97.6079C28.8097 97.5298 28.8361 97.4547 28.8796 97.3894C28.9231 97.3242 28.9822 97.2709 29.0516 97.2344C29.1189 97.1966 29.1948 97.1768 29.2719 97.1768C29.349 97.1768 29.4249 97.1966 29.4922 97.2344C33.4376 99.2741 38.5896 97.9718 41.3475 97.2344C42.8127 96.8705 43.2627 96.7556 43.5692 97.0716C43.6281 97.1483 43.6704 97.2365 43.6935 97.3304C43.7166 97.4244 43.7199 97.5221 43.7032 97.6174C43.683 97.8308 43.683 98.0457 43.7032 98.259C43.7032 99.8678 43.5788 103.2 39.6717 105.049C36.1859 106.705 28.4196 109.118 25.9107 109.118ZM25.8436 108.161C27.1556 108.257 34.7782 106.246 39.2503 104.187C42.6211 102.587 42.6977 99.7529 42.736 98.2399C42.736 98.1154 42.736 98.0005 42.736 97.8951L41.606 98.1633C39.0492 98.8145 33.8685 100.126 29.6933 98.3452C29.5209 99.8583 29.0612 103.459 28.4867 104.656C28.0734 105.383 27.5752 106.058 27.0024 106.667C26.5684 107.136 26.1804 107.646 25.8436 108.19V108.161Z" fill="#3A3D3E"/>
<path d="M38.4939 66.8778C38.4939 66.8778 44.2396 74.826 46.5379 78.4171C48.449 81.5474 50.2005 84.7723 51.7857 88.0795C51.7857 88.0795 51.3643 91.4503 50.0045 92.1589C48.9841 92.6101 47.8725 92.8167 46.7582 92.7623C46.7582 92.7623 45.5803 97.0524 39.8825 100.011C35.0369 102.52 31.4841 102.243 28.1995 99.1687C24.9149 96.0948 23.1241 87.1219 24.7425 81.3666C26.3609 75.6113 33.4185 69.8752 34.5293 69.1569C35.6402 68.4387 38.4939 66.8778 38.4939 66.8778Z" fill="white"/>
<path d="M34.0025 102.185C31.6785 102.148 29.4643 101.19 27.845 99.5231C24.4263 96.315 22.6068 87.074 24.2539 81.2325C25.901 75.3911 32.8725 69.6549 34.2323 68.7835C35.3431 68.0365 38.1202 66.5331 38.2352 66.4756C38.3364 66.4205 38.454 66.4037 38.5666 66.4283C38.6792 66.4529 38.7791 66.5173 38.848 66.6097C38.9055 66.6959 44.5938 74.6154 46.9112 78.1681C49.2286 81.7209 52.1972 87.8114 52.1972 87.8688C52.2369 87.9523 52.2534 88.0449 52.2451 88.137C52.1972 88.5104 51.7376 91.7759 50.2054 92.5899C49.224 93.041 48.154 93.2668 47.074 93.2507C46.6526 94.3806 45.0055 97.8855 40.0834 100.433C38.2269 101.498 36.1409 102.099 34.0025 102.185ZM38.3213 67.5003C37.5169 67.9408 35.6017 68.9942 34.759 69.5592C33.5716 70.3636 26.715 75.9944 25.1828 81.4911C23.6506 86.9878 25.2977 95.8554 28.5057 98.8144C31.7138 101.773 34.9888 102.003 39.6429 99.5901C45.0917 96.7172 46.26 92.6761 46.2792 92.6378C46.3091 92.5325 46.3735 92.4404 46.4621 92.3762C46.5506 92.3119 46.6582 92.2793 46.7675 92.2835C47.7923 92.3363 48.8154 92.1494 49.7553 91.7376C50.5501 91.3163 51.096 89.3723 51.2683 88.1561C49.7153 84.9094 47.9957 81.7451 46.1163 78.6757C44.1149 75.5539 39.4705 69.0612 38.3501 67.5003H38.3213Z" fill="#3A3D3E"/>
<path d="M34.9602 89.6117C34.5304 89.6367 34.1068 89.5001 33.7727 89.2286C33.2094 88.6868 32.7054 88.0865 32.2693 87.4379C32.2275 87.386 32.1969 87.3259 32.1797 87.2616C32.1624 87.1972 32.1588 87.13 32.169 87.0642C32.1792 86.9983 32.203 86.9354 32.2389 86.8793C32.2749 86.8232 32.3221 86.7752 32.3776 86.7384C32.4332 86.7016 32.4958 86.6768 32.5615 86.6655C32.6271 86.6543 32.6944 86.6569 32.759 86.6732C32.8236 86.6894 32.8841 86.719 32.9366 86.76C32.9892 86.801 33.0326 86.8525 33.0641 86.9112C33.464 87.4933 33.9194 88.0353 34.4239 88.5295C34.7878 88.8647 36.2242 88.5295 37.1148 88.089C37.2304 88.0372 37.3618 88.0333 37.4803 88.0782C37.5987 88.1231 37.6946 88.213 37.7468 88.3284C37.7738 88.3855 37.789 88.4474 37.7915 88.5104C37.7941 88.5734 37.7839 88.6363 37.7615 88.6953C37.7392 88.7544 37.7051 88.8082 37.6615 88.8538C37.6178 88.8994 37.5654 88.9356 37.5074 88.9605C36.7069 89.336 35.8427 89.557 34.9602 89.6117Z" fill="#3A3D3E"/>
<path d="M35.4007 93.3176C34.9238 93.3144 34.4486 93.2599 33.9834 93.1548C33.0905 92.9331 32.2675 92.4907 31.5899 91.8683C30.9123 91.2459 30.4017 90.4634 30.1051 89.5925C30.0682 89.4655 30.0834 89.3291 30.1471 89.2132C30.2109 89.0974 30.318 89.0116 30.445 88.9748C30.572 88.938 30.7084 88.9531 30.8243 89.0169C30.9401 89.0806 31.0258 89.1878 31.0627 89.3148C31.3097 90.0199 31.7291 90.6521 32.2826 91.1538C32.8362 91.6555 33.5065 92.0109 34.2324 92.1876C36.636 92.7239 37.6511 91.5843 37.6702 91.5652C37.7107 91.5173 37.7602 91.478 37.8161 91.4496C37.8719 91.4213 37.9329 91.4043 37.9953 91.3999C38.0578 91.3954 38.1205 91.4035 38.1798 91.4237C38.2391 91.4438 38.2938 91.4757 38.3406 91.5173C38.4356 91.602 38.4938 91.7205 38.5028 91.8475C38.5117 91.9745 38.4707 92.1 38.3885 92.1972C37.9973 92.5837 37.529 92.8833 37.0142 93.0763C36.4993 93.2694 35.9495 93.3516 35.4007 93.3176Z" fill="#3A3D3E"/>
<path d="M44.4119 85.7238C44.3446 85.7243 44.2779 85.71 44.2167 85.6818C44.1554 85.6537 44.1011 85.6124 44.0576 85.561C43.5407 85.0368 42.8865 84.6689 42.17 84.4996C41.4535 84.3302 40.7038 84.3662 40.0069 84.6034C39.8799 84.6427 39.7425 84.6301 39.6249 84.5681C39.5072 84.5061 39.419 84.4 39.3797 84.273C39.3403 84.146 39.353 84.0086 39.415 83.891C39.4769 83.7733 39.583 83.6851 39.71 83.6458C40.5813 83.341 41.5221 83.2945 42.4192 83.512C43.3162 83.7295 44.1313 84.2016 44.7663 84.8715C44.8121 84.9145 44.8486 84.9664 44.8735 85.0241C44.8985 85.0817 44.9114 85.1439 44.9114 85.2067C44.9114 85.2695 44.8985 85.3316 44.8735 85.3893C44.8486 85.4469 44.8121 85.4989 44.7663 85.5419C44.7256 85.5979 44.6724 85.6436 44.6108 85.6752C44.5493 85.7068 44.4811 85.7234 44.4119 85.7238Z" fill="#3A3D3E"/>
<path d="M32.6236 82.6785C32.5373 82.6798 32.4522 82.6573 32.3779 82.6133C32.3035 82.5694 32.2428 82.5058 32.2022 82.4296C31.8056 81.7209 31.1758 81.1715 30.4199 80.8747C29.6639 80.5779 28.8286 80.5521 28.0558 80.8016C27.9929 80.8205 27.9269 80.8268 27.8616 80.8201C27.7963 80.8135 27.7329 80.7941 27.6751 80.7629C27.6173 80.7318 27.5662 80.6896 27.5247 80.6387C27.4832 80.5879 27.4522 80.5293 27.4333 80.4664C27.4145 80.4036 27.4082 80.3376 27.4148 80.2723C27.4214 80.207 27.4409 80.1436 27.472 80.0858C27.5031 80.028 27.5453 79.9769 27.5962 79.9354C27.6471 79.8939 27.7056 79.8628 27.7685 79.844C28.7621 79.5284 29.8351 79.5722 30.7997 79.9679C31.7643 80.3635 32.5591 81.0858 33.045 82.0082C33.0747 82.0634 33.0932 82.1239 33.0991 82.1863C33.1051 82.2487 33.0985 82.3116 33.0798 82.3714C33.061 82.4313 33.0305 82.4867 32.99 82.5345C32.9495 82.5823 32.8998 82.6215 32.8439 82.6498C32.7741 82.678 32.6983 82.6879 32.6236 82.6785Z" fill="#3A3D3E"/>
<path d="M46.3464 82.4199C46.2735 82.4192 46.2019 82.4015 46.137 82.3683C46.0722 82.335 46.016 82.2871 45.9729 82.2284C45.2783 81.4051 44.3886 80.7687 43.385 80.3773C42.3814 79.9859 41.2958 79.8519 40.2272 79.9876C40.1015 80.0039 39.9745 79.9697 39.874 79.8925C39.7734 79.8153 39.7076 79.7014 39.6909 79.5758C39.6744 79.4516 39.7073 79.3258 39.7825 79.2255C39.8577 79.1253 39.9692 79.0585 40.0931 79.0395C41.3243 78.8894 42.5734 79.049 43.7273 79.5038C44.8811 79.9587 45.9032 80.6944 46.7007 81.6443C46.7779 81.7447 46.8122 81.8716 46.7961 81.9972C46.7799 82.1229 46.7146 82.237 46.6145 82.3146C46.5378 82.3759 46.4443 82.4126 46.3464 82.4199Z" fill="#3A3D3E"/>
<path d="M34.5579 78.3884C34.4466 78.39 34.3383 78.3528 34.2515 78.2831C34.1366 78.1873 31.3212 75.889 29.0995 77.8043C29.003 77.8868 28.8777 77.9276 28.751 77.9178C28.6244 77.9079 28.5069 77.8481 28.4244 77.7516C28.3418 77.6551 28.301 77.5297 28.3109 77.4031C28.3208 77.2765 28.3806 77.159 28.4771 77.0765C30.7466 75.1134 33.6482 76.5306 34.8644 77.5457C34.9616 77.6261 35.0232 77.7416 35.0357 77.8671C35.0483 77.9926 35.0108 78.118 34.9314 78.2161C34.8854 78.2702 34.8282 78.3137 34.7637 78.3435C34.6992 78.3732 34.629 78.3886 34.5579 78.3884Z" fill="#3A3D3E"/>
<path d="M48.8552 87.9646H48.7307C48.5712 87.9316 48.4268 87.8473 48.3196 87.7245C48.2124 87.6017 48.1483 87.4473 48.137 87.2847C48.0115 85.5953 48.0115 83.8988 48.137 82.2093C48.1449 82.1045 48.1865 82.0049 48.2555 81.9256C48.3245 81.8462 48.4173 81.7912 48.5201 81.7688C48.6239 81.7506 48.7309 81.7658 48.8255 81.8123C48.9202 81.8588 48.9976 81.9341 49.0468 82.0274L50.8662 85.6855C50.9056 85.7574 50.9263 85.8381 50.9263 85.9201C50.9263 86.0021 50.9056 86.0828 50.8662 86.1547C50.0427 87.3518 49.3819 87.9646 48.8552 87.9646ZM48.9989 84.1342C48.9429 85.0494 48.9429 85.9673 48.9989 86.8825C49.3054 86.5923 49.5813 86.2714 49.8224 85.9249L48.9989 84.1342Z" fill="#3A3D3E"/>
<path d="M69.5303 202.793L40.6006 207.217L36.4541 178.852L66.7436 177.176L69.5303 202.793Z" fill="white"/>
<path d="M40.6102 207.696C40.5078 207.698 40.4073 207.668 40.3229 207.61C40.2716 207.572 40.2283 207.525 40.1954 207.471C40.1626 207.416 40.1408 207.356 40.1314 207.294L35.9849 178.919C35.9675 178.787 36.0018 178.653 36.0807 178.546C36.1218 178.493 36.174 178.451 36.2336 178.421C36.2932 178.391 36.3588 178.375 36.4254 178.373L66.7245 176.698C66.8459 176.69 66.9657 176.729 67.0586 176.808C67.1515 176.886 67.2103 176.998 67.2224 177.119L69.9995 202.745C70.0133 202.868 69.9792 202.991 69.9043 203.089C69.8293 203.187 69.7194 203.253 69.5973 203.271L40.706 207.696H40.6102ZM37 179.293L41.0124 206.671L69.0036 202.381L66.3223 177.665L37 179.293Z" fill="#3A3D3E"/>
<path d="M40.6006 207.217L34.0026 179.226L36.4541 178.852L40.6006 207.217Z" fill="white"/>
<path d="M40.6101 207.696C40.5019 207.699 40.3961 207.664 40.3106 207.597C40.2251 207.531 40.1651 207.437 40.1409 207.332L33.5333 179.341C33.5069 179.209 33.5308 179.072 33.6003 178.958C33.6369 178.903 33.685 178.856 33.7412 178.822C33.7974 178.787 33.8604 178.765 33.9259 178.757L36.3774 178.373C36.5051 178.358 36.6343 178.388 36.7413 178.46C36.8419 178.538 36.9101 178.65 36.9328 178.776L41.0793 207.169C41.0988 207.291 41.0695 207.415 40.9978 207.516C40.9261 207.616 40.8178 207.684 40.6963 207.705L40.6101 207.696ZM34.5866 179.618L38.5321 196.338L36.0518 179.398L34.5866 179.618Z" fill="#3A3D3E"/>
<path d="M46.0495 117.833L56.2769 148.477C56.2769 148.477 56.5642 154.366 56.4876 159.01C56.4109 163.655 58.6709 171.66 58.9869 177.368C59.1593 180.643 59.4945 184.349 58.9869 187.605C58.6039 190.028 56.296 191.847 54.7159 193.839C53.0114 195.984 53.1742 198.79 51.5558 200.849C50.9429 201.634 51.6037 201.883 52.59 202.18C53.5764 202.477 54.5819 201.404 54.5819 201.404C54.2311 202.2 53.9554 203.027 53.7583 203.875C53.5132 204.842 53.1632 205.78 52.7145 206.671C53.5537 207.069 54.4427 207.353 55.3575 207.514C56.545 207.667 57.5984 206.077 57.5984 206.077L59.2934 206.298C59.8049 206.242 60.2966 206.068 60.7298 205.79C61.1578 205.889 61.6024 205.891 62.0314 205.797C62.4604 205.702 62.863 205.514 63.21 205.244C64.1676 204.334 64.6943 203.022 64.9529 200.992C65.2115 198.962 68.3907 177.875 69.5399 168.74C70.689 159.604 68.9079 150.612 68.362 146.762C67.8162 142.913 66.6479 135.884 64.8475 121.558C63.0472 107.232 59.4466 104.378 59.4466 104.378C59.4466 104.378 55.9896 100.5 51.3068 100.768C46.6241 101.036 43.6459 106.849 43.6459 106.849" fill="#ADADAD"/>
<path d="M55.5106 208.021H55.2904C54.3241 207.845 53.3843 207.546 52.4941 207.131C52.437 207.101 52.3864 207.061 52.3452 207.011C52.3041 206.962 52.2733 206.905 52.2547 206.843C52.2286 206.785 52.2151 206.721 52.2151 206.657C52.2151 206.592 52.2286 206.529 52.2547 206.47C52.6706 205.614 52.9917 204.715 53.2123 203.789C53.3177 203.358 53.4326 202.965 53.5379 202.63C53.1609 202.75 52.7562 202.75 52.3792 202.63C51.728 202.438 50.9906 202.218 50.8087 201.672C50.7626 201.48 50.7656 201.279 50.8175 201.088C50.8694 200.898 50.9684 200.723 51.1056 200.581C51.7856 199.595 52.276 198.49 52.5516 197.325C52.8739 195.974 53.4561 194.699 54.2657 193.571C54.6871 193.035 55.1659 192.517 55.6255 192.01C56.88 190.631 58.1728 189.214 58.4409 187.557C58.7689 184.637 58.7946 181.691 58.5176 178.766L58.4409 177.425C58.1899 174.418 57.7614 171.428 57.1577 168.472C56.4898 165.367 56.083 162.212 55.9416 159.039C56.0086 154.73 55.7596 149.271 55.7309 148.62L45.5322 117.976C45.4916 117.856 45.5005 117.724 45.5571 117.61C45.6137 117.496 45.7133 117.409 45.8339 117.368C45.9545 117.328 46.0864 117.337 46.2004 117.393C46.3144 117.45 46.4013 117.549 46.442 117.67L56.6598 148.314V148.438C56.6598 148.496 56.9471 154.385 56.8704 158.972C57.0118 162.084 57.4154 165.179 58.0771 168.223C58.6776 171.222 59.1092 174.253 59.3698 177.301L59.4464 178.632C59.7306 181.628 59.6985 184.645 59.3507 187.634C59.0442 189.549 57.6557 191.1 56.3055 192.575C55.8554 193.073 55.3478 193.58 54.9839 194.088C54.2785 195.151 53.7873 196.342 53.5379 197.593C53.2323 198.874 52.6864 200.087 51.9291 201.165C51.7951 201.328 51.795 201.395 51.795 201.395C52.0981 201.55 52.4199 201.666 52.7527 201.739C53.3272 201.921 54.0455 201.318 54.2561 201.098C54.3328 201.015 54.4364 200.961 54.5486 200.947C54.6608 200.933 54.7743 200.959 54.869 201.021C54.9655 201.084 55.0354 201.18 55.0654 201.292C55.0955 201.403 55.0835 201.521 55.0318 201.624C54.6966 202.394 54.4306 203.192 54.237 204.009C54.0293 204.848 53.7439 205.665 53.3847 206.451C54.0408 206.736 54.7289 206.942 55.434 207.064C56.1714 207.159 56.9758 206.211 57.2248 205.838C57.2733 205.763 57.3423 205.703 57.4238 205.665C57.5052 205.628 57.5957 205.615 57.6844 205.627L59.3698 205.838C59.7711 205.764 60.1546 205.615 60.4998 205.397C60.6105 205.336 60.7394 205.316 60.8637 205.34C61.2146 205.421 61.5789 205.425 61.9313 205.35C62.2836 205.276 62.6154 205.125 62.9034 204.909C63.7653 204.105 64.2441 202.917 64.4931 200.954C64.5793 200.303 64.9527 197.746 65.4507 194.251C66.5807 186.59 68.2757 174.964 69.0609 168.74C70.0185 160.849 68.8215 152.901 68.1033 148.63C68.0075 147.969 67.9118 147.385 67.8448 146.887C67.7107 145.929 67.5479 144.857 67.3372 143.506C66.686 139.149 65.6901 132.57 64.3207 121.682C62.5779 107.845 59.14 104.838 59.1017 104.809C59.0634 104.78 55.6543 101.055 51.2875 101.304C46.9208 101.553 44.0766 107.05 44.0479 107.127C43.9886 107.24 43.8872 107.326 43.7654 107.365C43.6436 107.404 43.5112 107.394 43.3967 107.337C43.2856 107.278 43.2022 107.178 43.1646 107.058C43.127 106.938 43.1381 106.808 43.1956 106.696C43.3201 106.447 46.3462 100.634 51.2396 100.347C56.1331 100.059 59.6092 103.947 59.7624 104.12C59.9157 104.292 63.4684 107.203 65.2688 121.558C66.6382 132.436 67.6341 139.015 68.2853 143.363C68.4864 144.713 68.6587 145.824 68.7928 146.753C68.8598 147.241 68.9556 147.825 69.0514 148.486C69.7313 152.795 70.9666 160.83 70.009 168.855C69.2142 175.089 67.5192 186.705 66.3892 194.385C65.8721 197.918 65.4986 200.466 65.4316 201.088C65.1539 203.3 64.5889 204.66 63.5163 205.637C63.1413 205.941 62.7052 206.161 62.2375 206.282C61.7698 206.402 61.2817 206.421 60.8062 206.336C60.3274 206.631 59.7787 206.792 59.2166 206.805L57.7993 206.633C57.5367 207.012 57.1972 207.332 56.8029 207.571C56.4085 207.81 55.9682 207.964 55.5106 208.021Z" fill="#3A3D3E"/>
<path d="M56.4875 159.029C56.5641 154.404 56.2768 148.496 56.2768 148.496L51.0674 132.858L65.9967 130.559C67.1554 139.054 67.9119 143.861 68.3524 146.839C68.8982 150.669 70.689 159.681 69.5303 168.816C68.3716 177.952 65.1923 199.039 64.9433 201.069C64.6943 203.099 64.1772 204.411 63.2004 205.321C62.8534 205.59 62.4508 205.779 62.0218 205.873C61.5928 205.968 61.1482 205.965 60.7202 205.867C60.287 206.144 59.7953 206.318 59.2837 206.374L57.5888 206.154C57.5888 206.154 56.5354 207.744 55.3479 207.59C54.4331 207.429 53.5441 207.146 52.7049 206.748C53.1535 205.856 53.5035 204.919 53.7487 203.951C53.9458 203.104 54.2215 202.277 54.5723 201.481C54.5723 201.481 53.6146 202.553 52.5804 202.256C51.5462 201.96 50.9333 201.711 51.5462 200.925C53.1646 198.866 53.0018 196.061 54.7063 193.916C56.2864 191.924 58.5942 190.085 58.9773 187.681C59.4944 184.426 59.1592 180.72 58.9773 177.444C58.6709 171.68 56.4205 163.664 56.4875 159.029Z" fill="white"/>
<path d="M55.5108 208.021H55.2905C54.3242 207.845 53.3845 207.546 52.4943 207.131C52.4371 207.101 52.3865 207.061 52.3454 207.011C52.3042 206.962 52.2735 206.905 52.2549 206.843C52.2287 206.785 52.2152 206.721 52.2152 206.657C52.2152 206.592 52.2287 206.529 52.2549 206.47C52.6707 205.614 52.9919 204.715 53.2125 203.789C53.3178 203.358 53.4327 202.965 53.5381 202.63C53.1611 202.75 52.7563 202.75 52.3794 202.63C51.7282 202.438 50.9908 202.218 50.8088 201.672C50.7627 201.48 50.7658 201.279 50.8176 201.089C50.8695 200.898 50.9686 200.723 51.1057 200.581C51.7857 199.595 52.2761 198.49 52.5517 197.325C52.874 195.974 53.4562 194.699 54.2659 193.571C54.6872 193.035 55.166 192.518 55.6257 192.01C56.8802 190.631 58.1729 189.214 58.4411 187.557C58.7691 184.637 58.7948 181.691 58.5177 178.766L58.4411 177.425C58.1901 174.418 57.7616 171.428 57.1579 168.472C56.4899 165.367 56.0831 162.212 55.9417 159.039C56.0087 154.73 55.7598 149.271 55.731 148.62L50.5407 133.04C50.5201 132.973 50.5137 132.903 50.5219 132.834C50.5302 132.764 50.5529 132.698 50.5886 132.638C50.6252 132.579 50.6742 132.529 50.732 132.491C50.7899 132.453 50.8553 132.428 50.9238 132.417L65.8626 130.071C65.9244 130.061 65.9878 130.063 66.0487 130.078C66.1096 130.092 66.1669 130.12 66.217 130.157C66.2693 130.196 66.3132 130.244 66.3462 130.3C66.3791 130.356 66.4003 130.418 66.4085 130.483C67.2033 136.315 67.8162 140.385 68.2663 143.363C68.4674 144.704 68.6301 145.805 68.7642 146.724C68.8312 147.213 68.927 147.797 69.0228 148.457C69.7027 152.767 70.938 160.801 69.9804 168.826C69.1856 175.06 67.4906 186.676 66.3606 194.356C65.8435 197.89 65.47 200.437 65.403 201.059C65.1253 203.272 64.5603 204.631 63.4877 205.608C63.1128 205.913 62.6766 206.133 62.2089 206.253C61.7413 206.374 61.2531 206.392 60.7777 206.307C60.2988 206.602 59.7501 206.764 59.188 206.776L57.7708 206.604C57.5141 206.985 57.1804 207.308 56.7911 207.552C56.4018 207.797 55.9656 207.956 55.5108 208.021ZM53.3561 206.451C54.0122 206.736 54.7003 206.942 55.4054 207.064C56.1428 207.16 56.9472 206.211 57.1962 205.838C57.2447 205.763 57.3137 205.703 57.3952 205.665C57.4767 205.628 57.5671 205.615 57.6559 205.627L59.3412 205.838C59.7425 205.764 60.126 205.615 60.4713 205.397C60.582 205.336 60.7108 205.316 60.8351 205.34C61.186 205.421 61.5503 205.425 61.9027 205.35C62.255 205.276 62.5868 205.125 62.8749 204.909C63.7367 204.105 64.2155 202.917 64.4645 200.954C64.5507 200.303 64.9242 197.746 65.4221 194.251C66.5521 186.59 68.2471 174.964 69.0323 168.74C69.99 160.849 68.7929 152.901 68.0747 148.63C67.979 147.969 67.8832 147.385 67.8162 146.887C67.6821 145.929 67.5193 144.866 67.3182 143.535C66.8777 140.662 66.284 136.707 65.5275 131.086L51.6324 133.26L56.6599 148.371V148.496C56.6599 148.553 56.9472 154.443 56.8706 159.03C57.0119 162.142 57.4156 165.236 58.0772 168.28C58.6777 171.28 59.1093 174.31 59.37 177.358L59.4466 178.689C59.7307 181.685 59.6986 184.702 59.3508 187.691C59.0444 189.606 57.6558 191.158 56.3056 192.632C55.8555 193.13 55.348 193.638 54.9841 194.145C54.2855 195.191 53.7945 196.362 53.5381 197.593C53.2325 198.875 52.6866 200.087 51.9293 201.165C51.7952 201.328 51.7952 201.395 51.7952 201.395C52.0982 201.55 52.4201 201.666 52.7528 201.739C53.3274 201.921 54.0265 201.337 54.2563 201.098C54.3331 201.014 54.4375 200.962 54.5502 200.949C54.6628 200.937 54.7761 200.966 54.8692 201.031C54.9649 201.092 55.0346 201.187 55.0647 201.296C55.0947 201.406 55.0831 201.523 55.032 201.624C54.6968 202.394 54.4308 203.192 54.2371 204.009C54.0202 204.849 53.7252 205.666 53.3561 206.451Z" fill="#3A3D3E"/>
<path d="M54.5723 201.902C54.5092 201.916 54.4439 201.916 54.3808 201.902C54.2654 201.85 54.1754 201.754 54.1305 201.636C54.0857 201.517 54.0896 201.386 54.1414 201.27L55.5778 198.014C55.6028 197.956 55.639 197.904 55.6844 197.86C55.7297 197.816 55.7833 197.781 55.842 197.758C55.9008 197.735 55.9635 197.724 56.0266 197.725C56.0898 197.726 56.152 197.74 56.2098 197.765C56.3252 197.818 56.4158 197.913 56.4622 198.031C56.5087 198.149 56.5075 198.28 56.4588 198.397L55.0128 201.653C54.97 201.732 54.906 201.797 54.8281 201.841C54.7503 201.885 54.6617 201.906 54.5723 201.902Z" fill="#3A3D3E"/>
</svg>
