<svg width="161" height="270" viewBox="0 0 161 270" fill="none" xmlns="http://www.w3.org/2000/svg">
<path d="M98.4253 23.324C98.4253 23.324 103.906 19.1941 119.629 22.5715C135.353 25.9489 142.865 48.9151 146.496 65.1665C150.128 81.4179 156.581 93.4957 159.887 93.2748C163.193 93.0539 165.367 89.1449 166.044 92.642C166.72 96.1392 163.945 105.955 149.338 104.385C134.732 102.815 129.102 88.1362 121.062 72.1793C113.022 56.2225 109.933 34.8427 106.332 30.6553C102.731 26.468 99.3077 28.2465 99.3077 28.2465C99.3077 28.2465 94.4139 24.5883 98.4253 23.324Z" fill="#3A3D3E"/>
<path d="M159.283 103.674C160.926 103.024 162.403 102.014 163.606 100.72C166.073 98.0423 166.772 94.6237 166.381 92.5798C166.202 91.6641 165.906 91.1436 165.452 90.9371C164.791 90.6492 164.05 91.0883 163.108 91.6472C162.14 92.3232 161.026 92.761 159.857 92.9249C157.118 93.1101 150.679 82.3398 146.828 65.0913C141.059 39.2833 131.932 24.858 119.695 22.2351C104.607 18.9901 98.8827 22.5784 98.2609 23.0141C97.2206 23.3493 96.632 23.8845 96.5119 24.6054C96.2194 26.3253 98.7857 28.3169 99.0922 28.5311C99.1441 28.5707 99.2063 28.5947 99.2714 28.6002C99.3365 28.6056 99.4018 28.5923 99.4596 28.5619C99.5889 28.509 102.696 26.973 106.058 30.8885C107.639 32.7245 109.152 38.0986 111.042 44.9109C113.382 53.2296 116.299 63.5843 120.717 72.3509C121.551 74.0021 122.355 75.6354 123.143 77.2455C130.031 91.2358 135.979 103.316 149.267 104.747C153.66 105.206 156.897 104.651 159.283 103.674ZM164.544 91.6331C164.73 91.5311 164.946 91.5017 165.152 91.5505C165.373 91.6486 165.557 92.0415 165.684 92.6839C165.986 94.2512 165.54 97.551 163.086 100.223C161.076 102.412 157.058 104.841 149.354 104.017C136.453 102.632 130.584 90.7073 123.786 76.8992C122.992 75.2917 122.185 73.652 121.357 71.9981C116.966 63.2962 114.062 52.9738 111.694 44.6968C109.794 37.8055 108.272 32.39 106.613 30.4197C103.389 26.6743 100.218 27.5194 99.376 27.8413C98.5992 27.2157 97.0634 25.7686 97.2275 24.7126C97.2992 24.2606 97.7426 23.9055 98.5513 23.65C98.5881 23.6423 98.6232 23.628 98.6548 23.6077C98.7194 23.5812 104.249 19.6273 119.575 22.9184C131.525 25.4852 140.477 39.7251 146.177 65.2521C149.615 80.6243 156.041 93.8906 159.933 93.6261C161.214 93.459 162.437 92.9871 163.498 92.2499C163.832 92.0203 164.182 91.8142 164.544 91.6331Z" fill="#3A3D3E"/>
<path d="M160.092 100.709C160.713 100.457 161.283 100.096 161.776 99.6422C161.84 99.5762 161.875 99.4884 161.876 99.3969C161.876 99.3053 161.841 99.2171 161.779 99.1505C161.746 99.1174 161.707 99.0912 161.665 99.0733C161.622 99.0554 161.576 99.0461 161.53 99.0461C161.483 99.0461 161.437 99.0554 161.394 99.0733C161.352 99.0912 161.313 99.1175 161.28 99.1506C160.806 99.5775 160.251 99.9063 159.648 100.118C159.046 100.33 158.407 100.42 157.77 100.384C156.042 100.238 154.368 99.0434 152.804 96.8454C152.777 96.8068 152.743 96.7738 152.704 96.7483C152.664 96.7228 152.62 96.7054 152.574 96.697C152.528 96.6885 152.481 96.6893 152.435 96.6992C152.389 96.7091 152.345 96.7279 152.307 96.7546C152.268 96.7814 152.235 96.8154 152.21 96.8549C152.184 96.8944 152.167 96.9384 152.158 96.9846C152.15 97.0308 152.151 97.0782 152.16 97.1242C152.17 97.1701 152.189 97.2136 152.216 97.2522C153.942 99.6254 155.764 100.925 157.704 101.09C158.519 101.155 159.337 101.024 160.092 100.709Z" fill="#787878"/>
<path d="M149.86 91.4762C149.902 91.4598 149.941 91.4351 149.974 91.4035C150.006 91.372 150.033 91.3342 150.051 91.2923C150.069 91.2505 150.078 91.2055 150.079 91.16C150.079 91.1144 150.07 91.0693 150.053 91.0271C148.498 87.0064 146.671 81.4363 144.731 75.5506C140.357 62.2447 134.917 45.7067 129.502 37.454C120.116 23.1346 106.953 25.7741 106.823 25.805C106.778 25.8136 106.735 25.8313 106.697 25.8569C106.658 25.8825 106.626 25.9155 106.601 25.9539C106.576 25.9924 106.558 26.0355 106.55 26.0807C106.542 26.1259 106.543 26.1723 106.554 26.217C106.562 26.2625 106.58 26.3058 106.606 26.3444C106.631 26.383 106.665 26.4161 106.703 26.4417C106.742 26.4674 106.785 26.4851 106.831 26.4938C106.876 26.5026 106.923 26.5022 106.968 26.4926C107.085 26.445 119.802 23.9348 128.918 37.8361C134.28 46.0127 139.71 62.5093 144.072 75.7673C146.012 81.6686 147.838 87.2386 149.401 91.2788C149.418 91.3216 149.443 91.3607 149.474 91.3939C149.506 91.4271 149.544 91.4538 149.586 91.4724C149.628 91.491 149.673 91.5011 149.719 91.5022C149.765 91.5033 149.81 91.4954 149.853 91.4788L149.86 91.4762Z" fill="#787878"/>
<path d="M137.154 95.1591L137.219 95.1326C137.296 95.0794 137.349 94.9981 137.366 94.9062C137.384 94.8143 137.364 94.7192 137.312 94.6415C131.699 86.3112 129.357 72.7323 127.286 60.7558C126.525 56.35 125.81 52.1889 124.976 48.5075C123.924 43.9557 121.798 39.7219 118.775 36.1605C118.715 36.0898 118.63 36.0454 118.537 36.0367C118.445 36.028 118.353 36.0557 118.28 36.1138C118.21 36.1738 118.166 36.2593 118.159 36.3515C118.151 36.4437 118.18 36.5352 118.24 36.6058C121.195 40.0767 123.277 44.2036 124.314 48.6425C125.143 52.311 125.861 56.4629 126.62 60.8623C128.705 72.9087 131.06 86.5576 136.757 95.0195C136.799 95.0827 136.861 95.1305 136.932 95.1557C137.004 95.1809 137.082 95.1821 137.154 95.1591Z" fill="#787878"/>
<path d="M115.866 33.8109C115.912 33.8032 115.957 33.7851 115.995 33.758C116.027 33.7245 116.053 33.6848 116.069 33.6414C116.086 33.5979 116.094 33.5516 116.092 33.5051C116.091 33.4586 116.08 33.4128 116.061 33.3705C116.041 33.3282 116.014 33.2902 115.98 33.2587C113.887 31.2414 111.537 29.5105 108.989 28.1111C108.947 28.0931 108.901 28.0837 108.855 28.0834C108.809 28.0831 108.763 28.092 108.721 28.1094C108.678 28.1269 108.639 28.1526 108.606 28.1852C108.574 28.2177 108.548 28.2564 108.53 28.299C108.512 28.3408 108.503 28.3858 108.502 28.4313C108.502 28.4769 108.511 28.522 108.528 28.5642C108.545 28.6063 108.571 28.6446 108.603 28.6768C108.635 28.709 108.673 28.7344 108.715 28.7515C111.184 30.1073 113.468 31.7756 115.51 33.7152C115.555 33.7615 115.612 33.7948 115.675 33.8116C115.737 33.8285 115.803 33.8282 115.866 33.8109Z" fill="#787878"/>
<path d="M50.1815 50.2392C50.1815 50.2392 43.7164 52.8851 49.0082 65.8153C54.3001 78.7456 68.3809 103.93 70.5275 112.863C72.6742 121.797 68.3695 126.956 66.8706 126.059C65.3716 125.163 62.345 127.912 67.3561 130.012C72.3671 132.113 79.8756 130.172 84.591 119.562C89.3063 108.952 85.778 97.5645 81.0453 89.689C76.3126 81.8135 63.9953 58.1721 61.2171 51.3837C58.4389 44.5954 53.3692 43.2736 50.1815 50.2392Z" fill="#3A3D3E"/>
<path d="M75.3529 130.279C78.8634 128.842 82.329 125.507 84.9059 119.705C90.5032 107.118 84.2777 94.3967 81.3408 89.5075C76.75 81.8683 64.3449 58.1044 61.5402 51.2513C60.0029 47.4951 57.7582 45.3115 55.3903 45.2616C53.2976 45.2199 51.3626 46.91 49.9159 49.9778C48.9688 50.4485 43.6761 53.709 48.6848 65.9475C50.8677 71.2812 54.4577 78.5224 58.2508 86.1861C63.5058 96.7764 68.9311 107.727 70.1829 112.944C71.8129 119.712 69.6956 124.239 67.9712 125.503C67.596 125.785 67.2504 125.881 67.0496 125.76C66.7528 125.6 66.4183 125.524 66.0818 125.54C65.7452 125.555 65.4192 125.662 65.1382 125.847C64.8493 126.015 64.6125 126.259 64.4543 126.553C64.296 126.847 64.2226 127.179 64.2421 127.512C64.2933 128.246 64.8651 129.348 67.2157 130.334C68.5078 130.865 69.8927 131.134 71.2898 131.124C72.6868 131.115 74.068 130.828 75.3529 130.279ZM54.0747 46.2152C54.4862 46.0423 54.9289 45.9561 55.3752 45.9623C57.4238 46.0069 59.4781 48.0571 60.8937 51.5159C63.7063 58.3883 76.1444 82.2143 80.7431 89.8729C83.6221 94.6575 89.7314 107.132 84.2693 119.422C79.7884 129.498 72.6164 131.837 67.4895 129.693C65.9289 129.034 65.0001 128.221 64.9357 127.455C64.9326 127.253 64.9846 127.054 65.086 126.88C65.1875 126.705 65.3346 126.562 65.5115 126.465C65.6838 126.346 65.8848 126.275 66.0936 126.26C66.3024 126.245 66.5115 126.286 66.6991 126.379C66.9784 126.509 67.2909 126.55 67.5945 126.497C67.8981 126.445 68.1783 126.3 68.3974 126.084C70.2611 124.717 72.5759 119.898 70.8733 112.805C69.6026 107.505 64.155 96.5183 58.8867 85.8956C55.2585 78.5796 51.5142 71.0166 49.3392 65.7023C44.2591 53.2893 50.2569 50.6082 50.3216 50.5817C50.4036 50.5476 50.4691 50.4828 50.5043 50.4012C51.5012 48.1893 52.7429 46.7603 54.0747 46.2152Z" fill="#3A3D3E"/>
<path d="M73.2063 98.1807L72.9654 98.385C71.529 99.6521 64.1776 106.661 65.9822 115.977C67.9751 126.287 78.3788 159.859 80.0378 163.913C81.6968 167.967 93.3856 170.006 96.1246 166.168C98.8637 162.33 87.9582 138.412 85.1647 129.54C82.3712 120.667 73.2063 98.1807 73.2063 98.1807Z" fill="white"/>
<path d="M94.3545 167.911C95.1693 167.612 95.881 167.085 96.405 166.393C98.319 163.692 94.4952 153.15 89.2391 139.662C87.6403 135.516 86.2524 131.94 85.4765 129.472C82.7044 120.689 73.5975 98.3072 73.5049 98.081C73.4839 98.0311 73.4518 97.9866 73.411 97.951C73.3703 97.9153 73.322 97.8894 73.2697 97.8753C73.2161 97.8603 73.1597 97.8586 73.1053 97.8703C73.051 97.8821 73.0002 97.9069 72.9576 97.9426L72.7128 98.156C71.203 99.4834 63.7784 106.59 65.6142 116.074C67.5989 126.327 78.0414 160.05 79.6899 164.078C80.6927 166.528 84.8587 168.076 88.2867 168.485C90.3256 168.797 92.4102 168.6 94.3545 167.911ZM73.063 98.7902C74.3859 102.023 82.294 121.604 84.832 129.668C85.6185 132.162 87.0118 135.75 88.6132 139.903C92.4475 149.807 97.6988 163.357 95.8401 165.99C94.765 167.494 91.9191 168.176 88.4159 167.768C84.5024 167.316 81.1163 165.645 80.3622 163.803C78.7112 159.768 68.3071 126.158 66.3346 115.953C64.5993 107.047 71.3551 100.335 73.055 98.7708L73.063 98.7902Z" fill="#3A3D3E"/>
<path d="M106.715 79.5608L131.804 77.2181L170.5 171.5L170.5 262L124 296C124 296 108.779 221.772 94.9996 169C87.9612 142.043 79.0818 121.759 77.382 117.606C72.3548 105.322 71.4724 100.4 73.206 98.1807C74.9396 95.9616 84.0495 91.4785 89.4712 88.1274C94.8929 84.7763 106.715 79.5608 106.715 79.5608Z" fill="#C58B5D"/>
<path d="M96.2502 166.494L158.645 140.958C158.688 140.941 158.726 140.916 158.758 140.883C158.791 140.85 158.816 140.811 158.832 140.769C158.851 140.726 158.861 140.679 158.861 140.632C158.862 140.586 158.852 140.539 158.833 140.496L132.125 77.0793C132.094 77.0117 132.043 76.9552 131.979 76.9178C131.915 76.8804 131.841 76.864 131.768 76.8707L106.685 79.2107L106.581 79.253C106.465 79.3007 94.6743 84.5186 89.2861 87.8409C87.4762 88.9514 85.2381 90.2146 83.0568 91.4319C78.4643 94.0058 74.1301 96.4363 72.9048 97.9794C71.0081 100.409 72.1301 105.769 77.0356 117.755C82.0046 129.897 95.6336 165.946 95.7753 166.311C95.7902 166.355 95.8146 166.395 95.8466 166.429C95.8787 166.463 95.9178 166.489 95.9611 166.507C96.0075 166.525 96.0572 166.533 96.107 166.531C96.1568 166.529 96.2056 166.516 96.2502 166.494ZM158.051 140.447L96.3154 165.712C94.9147 162.013 82.4113 128.991 77.6989 117.476C72.9865 105.962 71.7826 100.567 73.4686 98.3978C74.5845 96.9749 79.0595 94.4642 83.3936 92.0337C85.575 90.8164 87.8325 89.5453 89.6462 88.4256C94.8046 85.2427 105.94 80.2856 106.799 79.896L131.57 77.5857L158.051 140.447Z" fill="#3A3D3E"/>
<path d="M151.673 124.421L158.513 140.635C136.217 158.062 122.611 163.824 96.1243 166.168C96.1243 166.168 93.1931 158.416 89.542 148.867C114.909 142.003 138.963 130.822 151.673 124.421Z" fill="#3A3D3E"/>
<path d="M82.7905 131.319C106.499 126.1 129.848 115.54 144.726 107.926L148.292 116.4C141.38 119.945 132.772 124.05 123.146 127.989C111.151 132.981 98.7674 136.982 86.1192 139.95C84.9958 137.021 83.866 134.094 82.7905 131.319Z" fill="#3A3D3E"/>
<path d="M138.383 118.893C138.383 118.893 126.793 98.0411 125.73 90.6864C124.667 83.3318 127.713 77.0886 131.798 77.2208C135.882 77.3531 142.341 81.6617 147.598 93.1419C152.855 104.622 163.025 127.444 163.875 131.549C164.725 135.655 159.985 141.761 155.027 141.284C150.069 140.807 143.277 130.242 142.01 127.145C140.742 124.049 138.383 118.893 138.383 118.893Z" fill="white"/>
<path d="M158.207 141.122C159.543 140.545 160.736 139.678 161.697 138.585C163.663 136.399 164.641 133.606 164.209 131.48C163.355 127.346 153.167 104.501 147.909 92.9991C142.566 81.3276 135.889 77.0182 131.799 76.873C131.072 76.874 130.356 77.0367 129.7 77.3493C129.045 77.662 128.467 78.1166 128.009 78.6803C125.725 81.2307 124.695 85.9621 125.394 90.733C126.451 98.0371 137.527 118.035 138.083 119.045C138.197 119.323 140.503 124.275 141.725 127.262C143.109 130.643 150.033 141.124 155.036 141.62C156.118 141.715 157.206 141.544 158.207 141.122ZM130.299 77.8189C130.766 77.6248 131.27 77.5344 131.775 77.5542C135.666 77.6906 142.061 81.8817 147.265 93.2702C152.522 104.75 162.676 127.533 163.51 131.6C163.914 133.526 162.986 136.072 161.17 138.091C159.354 140.109 157.129 141.126 155.077 140.909C150.428 140.449 143.646 130.166 142.344 126.986C141.088 123.915 138.705 118.776 138.684 118.724C138.594 118.504 127.118 97.8398 126.065 90.6395C125.408 86.0629 126.371 81.5551 128.526 79.1484C129.013 78.5826 129.622 78.1346 130.307 77.8383L130.299 77.8189Z" fill="#3A3D3E"/>
<path d="M103.046 65.9664C103.046 65.9664 108.014 79.029 109.469 82.5848C110.925 86.1406 112.968 90.2106 111.323 95.4127C109.678 100.615 104.948 109.344 95.5869 106.759C86.2262 104.174 84.7697 92.316 84.7697 92.316L77.8467 78.1664L103.046 65.9664Z" fill="white"/>
<path d="M102.765 106.795C107.148 105.001 110.124 100.341 111.647 95.5216C113.169 90.7019 111.577 86.7567 110.135 83.3085L109.773 82.4228C108.336 78.9122 103.398 65.9428 103.352 65.8109C103.333 65.7663 103.305 65.7259 103.271 65.6921C103.236 65.6583 103.195 65.6317 103.15 65.614C103.107 65.5951 103.059 65.5859 103.011 65.5872C102.964 65.5885 102.917 65.6001 102.874 65.6214L77.6751 77.8213C77.5903 77.8622 77.5251 77.935 77.4938 78.0238C77.4786 78.0668 77.4724 78.1124 77.4754 78.1579C77.4784 78.2034 77.4907 78.2478 77.5115 78.2883L84.4331 92.4159C84.5663 93.3502 86.3874 104.568 95.4959 107.09C97.8824 107.817 100.445 107.713 102.765 106.795ZM102.856 66.444C103.664 68.5663 107.838 79.5012 109.16 82.7338L109.526 83.626C110.88 86.9361 112.469 90.6712 111 95.3257C109.955 98.6367 105.756 109.217 95.6892 106.438C86.6601 103.944 85.1452 92.4038 85.1287 92.2897C85.1177 92.2541 85.1036 92.2194 85.0863 92.1863L78.315 78.352L102.856 66.444Z" fill="#3A3D3E"/>
<path d="M93.2748 70.6972L97.8661 68.4709L102.879 76.6244C102.879 76.6244 95.8633 98.8032 90.2126 103.697C85.5956 99.2767 84.7517 92.3458 84.7517 92.3458L78.4392 79.4484L93.2748 70.6972Z" fill="#3A3D3E"/>
<path d="M90.3672 104.019L90.4706 103.977C96.1172 99.0544 102.931 77.5997 103.235 76.7203C103.249 76.6713 103.252 76.62 103.246 76.5695C103.24 76.519 103.223 76.4703 103.198 76.4262L98.1685 68.2871C98.122 68.2136 98.0501 68.1596 97.9665 68.1354C97.8829 68.1113 97.7933 68.1185 97.7147 68.1558L93.1234 70.3821L78.241 79.1297C78.1645 79.1742 78.1077 79.246 78.0822 79.3308C78.0566 79.4155 78.0641 79.5068 78.1033 79.5862L84.4334 92.416C84.5234 93.134 85.5327 99.6575 90.0033 103.942C90.0501 103.988 90.1093 104.02 90.1738 104.034C90.2384 104.048 90.3055 104.043 90.3672 104.019ZM102.516 76.6599C101.897 78.5964 95.4688 98.2631 90.2427 103.217C85.9796 98.9236 85.1126 92.3419 85.1081 92.2757C85.0972 92.24 85.083 92.2054 85.0658 92.1723L78.8944 79.5643L93.4267 71.0127L97.7222 68.9302L102.516 76.6599Z" fill="#3A3D3E"/>
<path d="M84.3679 15.7549C84.3679 15.7549 96.1703 17.0763 103.259 27.6481C110.349 38.22 110.381 58.7523 109.249 62.0537C108.117 65.3551 104.308 68.4236 104.308 68.4236C104.308 68.4236 100.806 89.3758 93.8145 93.8524C86.823 98.3291 79.8881 93.9438 73.9584 90.3549C68.0287 86.7659 63.9069 78.5573 62.1673 75.45C60.4276 72.3427 56.6144 66.2346 56.6144 66.2346C56.6144 66.2346 49.4397 65.6158 48.4252 55.6676C47.4107 45.7194 47.1469 40.2796 50.1778 32.6913C53.2088 25.103 68.4781 14.2949 84.3679 15.7549Z" fill="white"/>
<path d="M91.9068 95.222C92.6389 94.9201 93.3427 94.5538 94.01 94.1273C100.855 89.7712 104.318 70.5329 104.649 68.5935C105.281 68.0709 108.513 65.2535 109.566 62.1655C110.701 58.8705 110.676 38.0787 103.541 27.4501C96.4057 16.8216 84.521 15.4282 84.4029 15.4162C68.3768 13.9364 53.0036 24.7493 49.9031 32.5548C46.8025 40.3603 47.1652 46.1521 48.1205 55.6792C49.067 64.908 55.2946 66.3295 56.4508 66.5356C57.0264 67.4625 60.334 72.7963 61.9131 75.6221C62.0296 75.9066 62.2303 76.1942 62.4146 76.5339C64.3404 80.0406 68.3407 87.3252 73.8324 90.6556L74.1948 90.8772C79.564 94.1294 85.6163 97.7965 91.9068 95.222ZM84.3319 16.1095C84.5773 16.1373 96.0993 17.6036 102.967 27.8361C109.986 38.293 110.021 58.7034 108.913 61.9346C107.805 65.1657 104.141 68.1072 104.107 68.136C104.04 68.1897 103.996 68.2671 103.984 68.3523C103.95 68.5627 100.44 89.2011 93.6381 93.5322C86.9587 97.7755 80.3539 93.791 74.5168 90.2623L74.1544 90.0407C68.8179 86.8129 64.882 79.6303 62.993 76.1765C62.8022 75.8394 62.6508 75.5617 62.4823 75.2608C60.765 72.1897 56.9609 66.0853 56.928 66.0233C56.898 65.9779 56.8582 65.9399 56.8115 65.912C56.7648 65.884 56.7124 65.867 56.6582 65.862C56.3778 65.8409 49.7577 65.1386 48.7867 55.6103C47.8029 45.9213 47.4277 40.5045 50.5227 32.8145C53.6176 25.1245 68.6173 14.6532 84.3319 16.1095Z" fill="#3A3D3E"/>
<path d="M43.7389 57.5327C42.7218 47.5781 47.1367 40.2914 50.1779 32.6913C53.2191 25.0913 68.4588 14.3028 84.3512 15.7694C84.3512 15.7694 96.1536 17.0907 103.243 27.6626C107.838 34.5001 109.456 45.4994 109.736 53.3403L109.309 53.236C109.309 53.236 108.382 45.8258 104.72 48.1095C101.058 50.3933 103.19 58.148 101.962 60.0167C100.734 61.8855 96.4885 54.4446 96.4885 54.4446C96.4885 54.4446 96.1359 56.7551 83.1072 56.1998C70.0785 55.6445 65.051 49.188 65.051 49.188C65.051 49.188 61.7414 62.6796 59.9604 63.9897C58.1793 65.2998 56.6145 66.2346 56.6145 66.2346C56.6145 66.2346 44.7857 67.4677 43.7389 57.5327Z" fill="#3A3D3E"/>
<path d="M101.813 60.5759C102 60.495 102.158 60.3594 102.266 60.187C102.772 59.4137 102.772 57.9569 102.769 56.124C102.765 53.2727 102.765 49.7325 104.889 48.395C105.133 48.2051 105.422 48.0826 105.728 48.0396C106.033 47.9966 106.345 48.0348 106.631 48.1503C108.092 48.843 108.804 52.0766 108.942 53.243C108.952 53.3115 108.981 53.3757 109.027 53.428C109.072 53.4802 109.132 53.5184 109.198 53.538L109.626 53.6423C109.678 53.6584 109.734 53.6609 109.787 53.6496C109.841 53.6382 109.89 53.6135 109.932 53.5776C109.973 53.5436 110.007 53.5007 110.03 53.452C110.053 53.4034 110.065 53.3502 110.066 53.2963C109.94 49.3018 109.041 35.6686 103.511 27.4323C96.4219 16.8605 84.4913 15.4104 84.3732 15.3984C68.3379 13.9148 52.9675 24.7341 49.8734 32.537C49.3111 33.9295 48.6906 35.3458 48.0957 36.7139C45.3561 42.93 42.5713 49.3307 43.3901 57.5097C43.4709 58.7498 43.8038 59.9602 44.3684 61.0672C44.9331 62.1741 45.7176 63.1543 46.674 63.9477C50.574 67.1144 56.407 66.5387 56.6533 66.5134C56.7042 66.5039 56.7526 66.4841 56.7955 66.4552C56.7955 66.4552 58.3965 65.498 60.1646 64.1932C61.8322 62.9748 64.4945 52.7522 65.2341 49.8379C66.7358 51.4047 72.0573 55.9973 83.0902 56.4712C92.6333 56.8831 95.5588 55.7688 96.4503 54.9964C97.3748 56.5729 99.8737 60.5394 101.411 60.5895C101.545 60.6121 101.682 60.6074 101.813 60.5759ZM105.113 47.5033C104.916 47.5829 104.726 47.6808 104.546 47.7958C102.061 49.3412 102.069 53.1044 102.074 56.1217C102.073 57.7069 102.076 59.2078 101.684 59.7986C101.664 59.8435 101.631 59.8815 101.589 59.9078C101.548 59.9342 101.5 59.9478 101.45 59.947C100.469 59.9107 98.1378 56.5928 96.8011 54.2489C96.7667 54.1855 96.7128 54.1349 96.6474 54.1046C96.5819 54.0743 96.5085 54.0659 96.4379 54.0806C96.3663 54.0927 96.3005 54.1272 96.2498 54.1791C96.1992 54.231 96.1663 54.2977 96.1561 54.3695C96.1561 54.3695 95.1924 56.349 83.1615 55.8156C70.4702 55.2731 65.4221 49.0062 65.3736 48.943C65.3323 48.8909 65.2773 48.8515 65.2148 48.8291C65.1522 48.8066 65.0847 48.8021 65.0197 48.8161C64.9556 48.8294 64.8966 48.8609 64.8498 48.9068C64.8031 48.9528 64.7704 49.0111 64.7559 49.075C63.4365 54.4457 61.0237 62.7698 59.7934 63.6734C58.2574 64.8077 56.8254 65.6429 56.543 65.8566C55.8585 65.9178 50.593 66.2386 47.1474 63.4445C46.2661 62.7068 45.5438 61.7978 45.0244 60.7726C44.5049 59.7474 44.1991 58.6274 44.1254 57.4805C43.3078 49.452 46.0735 43.0968 48.7608 36.9927C49.3622 35.622 49.9906 34.225 50.5488 32.804C53.6003 25.1922 68.6525 14.6465 84.3645 16.0963C84.4697 16.1137 96.0861 17.5338 102.993 27.8256C107.711 34.8541 108.986 45.9561 109.327 51.3265C108.952 49.9103 108.237 48.0895 107.001 47.4857C106.704 47.3485 106.381 47.2789 106.055 47.2819C105.729 47.285 105.407 47.3606 105.113 47.5033Z" fill="#3A3D3E"/>
<path d="M105.444 44.7337C105.529 44.6971 105.596 44.6293 105.631 44.5443C105.667 44.4594 105.668 44.364 105.635 44.2781C105.6 44.1924 105.532 44.1241 105.447 44.0883C105.361 44.0525 105.265 44.0521 105.179 44.0871C103.93 44.5473 102.646 44.9063 101.339 45.1607C101.294 45.1704 101.25 45.189 101.212 45.2154C101.174 45.2419 101.141 45.2756 101.115 45.3147C101.09 45.3538 101.073 45.3976 101.064 45.4434C101.056 45.4892 101.056 45.5363 101.066 45.5819C101.076 45.6274 101.094 45.6706 101.121 45.709C101.147 45.7474 101.181 45.7802 101.22 45.8056C101.259 45.8309 101.303 45.8483 101.349 45.8568C101.395 45.8652 101.442 45.8646 101.487 45.8548C102.834 45.5891 104.158 45.2142 105.444 44.7337Z" fill="#787878"/>
<path d="M97.2722 46.4927C97.3629 46.4696 97.4406 46.4115 97.4884 46.3311C97.5362 46.2506 97.55 46.1545 97.5269 46.0639C97.5039 45.9733 97.4457 45.8955 97.3653 45.8477C97.2849 45.7999 97.1888 45.7861 97.0981 45.8092C91.7452 46.3307 86.3442 46.0369 81.0794 44.9378C71.7788 43.0529 69.2343 40.6902 68.5447 39.4477C68.4162 39.2677 68.3264 39.063 68.2807 38.8467C68.235 38.6303 68.2344 38.4068 68.2791 38.1902C68.3136 38.1043 68.3132 38.0083 68.2782 37.9226C68.2431 37.837 68.176 37.7683 68.0912 37.7312C68.0501 37.7131 68.0057 37.7035 67.9607 37.703C67.9157 37.7024 67.8711 37.7109 67.8295 37.7279C67.7879 37.7449 67.7501 37.7702 67.7184 37.8021C67.6868 37.834 67.6618 37.872 67.6451 37.9138C67.5482 38.2171 67.5196 38.5381 67.5614 38.8538C67.6032 39.1694 67.7142 39.4719 67.8867 39.7396C68.7665 41.41 71.7457 43.7835 80.9267 45.6343C86.2569 46.7577 91.727 47.0641 97.1494 46.543L97.2722 46.4927Z" fill="#787878"/>
<path d="M102.091 36.5423C102.177 36.5072 102.245 36.4395 102.281 36.354C102.317 36.2686 102.317 36.1724 102.282 36.0867C102.247 36.001 102.18 35.9327 102.094 35.8969C102.009 35.8611 101.913 35.8607 101.827 35.8957C89.684 39.8841 74.2815 32.8277 74.1266 32.7628C74.085 32.7438 74.0398 32.7335 73.994 32.7325C73.9482 32.7316 73.9027 32.7401 73.8603 32.7575C73.8179 32.7748 73.7795 32.8007 73.7474 32.8335C73.7154 32.8662 73.6904 32.9052 73.6741 32.948C73.6561 32.9905 73.6467 33.0361 73.6464 33.0822C73.6461 33.1283 73.6549 33.174 73.6724 33.2167C73.6899 33.2594 73.7156 33.2981 73.7481 33.3308C73.7807 33.3635 73.8193 33.3894 73.8619 33.4071C74.0195 33.4784 89.6576 40.6497 102.073 36.5722L102.091 36.5423Z" fill="#787878"/>
<path d="M52.0391 60.5515C52.1189 60.5173 52.1831 60.4546 52.2191 60.3757C52.2552 60.2967 52.2606 60.2072 52.2342 60.1245C51.8622 58.8576 51.7095 57.5365 51.7828 56.2182C51.7856 56.1726 51.7793 56.1268 51.7641 56.0837C51.749 56.0405 51.7253 56.0008 51.6946 55.967C51.6639 55.9331 51.6266 55.9058 51.5852 55.8865C51.5437 55.8673 51.4987 55.8566 51.453 55.855C51.4069 55.8523 51.3606 55.8587 51.317 55.874C51.2733 55.8893 51.2331 55.913 51.1987 55.944C51.1643 55.9749 51.1364 56.0123 51.1166 56.0541C51.0968 56.0959 51.0855 56.1413 51.0834 56.1875C51.0074 57.5854 51.1721 58.986 51.5703 60.3282C51.5831 60.3722 51.6046 60.4131 51.6335 60.4486C51.6624 60.4842 51.6982 60.5135 51.7386 60.5349C51.7791 60.5564 51.8234 60.5695 51.869 60.5735C51.9147 60.5775 51.9606 60.5724 52.0042 60.5583L52.0391 60.5515Z" fill="#787878"/>
<path d="M52.0124 53.4221C52.0634 53.4016 52.1087 53.3688 52.1441 53.3267C52.1795 53.2846 52.204 53.2344 52.2154 53.1805C54.0807 45.1786 61.1572 37.2027 61.2319 37.1268C61.2936 37.0575 61.3252 36.9666 61.3199 36.8739C61.3145 36.7813 61.2726 36.6945 61.2033 36.6328C61.134 36.5711 61.043 36.5394 60.9504 36.5448C60.8577 36.5502 60.771 36.5921 60.7092 36.6614C60.6346 36.7372 53.445 44.8425 51.5512 53.0146C51.5406 53.0595 51.539 53.106 51.5465 53.1515C51.554 53.197 51.5704 53.2406 51.5949 53.2797C51.6193 53.3189 51.6513 53.3528 51.6889 53.3795C51.7265 53.4062 51.769 53.4252 51.814 53.4354C51.8801 53.4495 51.9488 53.4449 52.0124 53.4221Z" fill="#787878"/>
<path d="M82.0215 81.9678C82.2375 81.8779 82.4465 81.7721 82.6469 81.6514C82.6861 81.6272 82.7201 81.5954 82.747 81.5579C82.7739 81.5204 82.7931 81.4779 82.8034 81.433C82.8138 81.388 82.8152 81.3415 82.8075 81.296C82.7998 81.2505 82.7831 81.207 82.7585 81.168C82.7351 81.1287 82.7041 81.0945 82.6672 81.0674C82.6304 81.0403 82.5885 81.0209 82.5441 81.0102C82.4996 80.9996 82.4535 80.9979 82.4084 81.0054C82.3633 81.0129 82.3201 81.0293 82.2815 81.0537C80.1052 82.4124 78.1582 80.4768 78.0823 80.4022C78.0171 80.3358 77.9282 80.298 77.8352 80.2972C77.7421 80.2964 77.6525 80.3325 77.5861 80.3977C77.5197 80.4629 77.4819 80.5518 77.4811 80.6449C77.4802 80.738 77.5164 80.8276 77.5816 80.894C77.5816 80.894 79.623 82.9494 82.0215 81.9678Z" fill="#3A3D3E"/>
<path d="M85.7334 86.5926C89.4314 85.0792 89.9772 80.9535 89.9833 80.9132C89.9945 80.8206 89.9683 80.7273 89.9107 80.654C89.8531 80.5806 89.7687 80.5331 89.676 80.522C89.5834 80.5108 89.4901 80.537 89.4167 80.5946C89.3434 80.6522 89.2959 80.7367 89.2848 80.8293C89.2642 81.0189 88.6568 85.5471 84.1084 86.3292C81.3288 86.8092 78.4706 86.2142 76.1133 84.665C76.0768 84.6364 76.035 84.6153 75.9902 84.6031C75.9455 84.5908 75.8988 84.5876 75.8528 84.5936C75.8068 84.5996 75.7625 84.6147 75.7224 84.638C75.6823 84.6613 75.6472 84.6924 75.6193 84.7294C75.5913 84.7664 75.571 84.8086 75.5595 84.8535C75.5481 84.8985 75.5457 84.9452 75.5525 84.9911C75.5593 85.037 75.5751 85.081 75.5991 85.1207C75.6231 85.1604 75.6548 85.1949 75.6923 85.2222C78.198 86.9037 81.2592 87.5454 84.2293 87.0119C84.7443 86.9265 85.2485 86.7859 85.7334 86.5926Z" fill="#3A3D3E"/>
<path d="M83.6229 70.1487C84.0646 71.5229 85.0965 72.4215 85.9505 72.1474C86.8045 71.8734 87.0832 70.5441 86.6351 69.1726C86.1871 67.8011 85.1589 66.8934 84.3076 67.1739C83.4562 67.4544 83.1528 68.7787 83.6229 70.1487Z" fill="#3A3D3E"/>
<path d="M69.7585 74.4492C70.2001 75.8233 71.2321 76.7219 72.0538 76.4611C72.8755 76.2003 73.193 74.8551 72.7449 73.4836C72.2968 72.1121 71.2686 71.2045 70.4173 71.485C69.5659 71.7654 69.3078 73.0712 69.7585 74.4492Z" fill="#3A3D3E"/>
<path d="M89.2547 64.8399C89.3174 64.8137 89.3702 64.7683 89.4055 64.7103C89.4569 64.6339 89.4761 64.5402 89.4589 64.4497C89.4417 64.3593 89.3894 64.2793 89.3134 64.2271C89.1765 64.1322 85.7988 61.8916 80.4891 64.0042C80.4458 64.0199 80.406 64.0442 80.3723 64.0757C80.3385 64.1072 80.3115 64.1452 80.2928 64.1874C80.2741 64.2296 80.2641 64.2751 80.2635 64.3213C80.2629 64.3674 80.2716 64.4132 80.2891 64.4559C80.3056 64.4987 80.3304 64.5378 80.362 64.5711C80.3937 64.6043 80.4315 64.631 80.4735 64.6495C80.5154 64.6681 80.5606 64.6782 80.6065 64.6794C80.6524 64.6805 80.698 64.6725 80.7408 64.656C85.726 62.6912 88.8924 64.7844 88.9223 64.8023C88.9699 64.8365 89.0254 64.8579 89.0836 64.8645C89.1418 64.8711 89.2007 64.8626 89.2547 64.8399Z" fill="#3A3D3E"/>
<path d="M71.5478 67.9955C71.5924 67.9767 71.6327 67.9493 71.6665 67.9147C71.7003 67.8801 71.7269 67.8391 71.7447 67.7942C71.7627 67.7517 71.7721 67.7061 71.7724 67.66C71.7727 67.6139 71.7638 67.5682 71.7464 67.5255C71.7289 67.4828 71.7032 67.444 71.6706 67.4114C71.6381 67.3787 71.5994 67.3528 71.5568 67.3351C71.5245 67.3484 67.1124 65.6971 63.9476 70.1549C63.8947 70.2307 63.874 70.3244 63.89 70.4155C63.906 70.5065 63.9575 70.5875 64.0332 70.6407C64.109 70.6933 64.2023 70.7145 64.2934 70.6998C64.3845 70.685 64.4663 70.6354 64.5216 70.5616C67.3385 66.5631 71.1516 67.9312 71.3103 67.987C71.3862 68.0169 71.47 68.0199 71.5478 67.9955Z" fill="#3A3D3E"/>
<path d="M114.764 84.456L93.413 120.978C93.3777 121.044 93.3262 121.099 93.2633 121.139C93.2005 121.179 93.1285 121.201 93.0542 121.205C92.98 121.209 92.906 121.194 92.8393 121.161C92.7727 121.128 92.7157 121.078 92.6739 121.017L92.2186 120.365C92.1697 120.298 92.1414 120.219 92.137 120.136C92.1327 120.053 92.1525 119.971 92.1941 119.9L113.775 81.9849C113.775 81.9849 116.584 81.7108 114.764 84.456Z" fill="white"/>
<path d="M93.3146 121.494C93.4729 121.428 93.6058 121.313 93.6933 121.165L115.057 84.6379C115.724 83.6103 115.899 82.8591 115.565 82.3014C115.098 81.5268 113.891 81.6207 113.778 81.6216C113.722 81.6254 113.668 81.643 113.621 81.6728C113.574 81.7026 113.535 81.7438 113.508 81.7924L91.9227 119.716C91.8495 119.845 91.8145 119.992 91.8216 120.14C91.8288 120.288 91.8778 120.431 91.9631 120.553L92.4185 121.204C92.4957 121.31 92.5979 121.395 92.7161 121.452C92.8342 121.509 92.9646 121.536 93.0956 121.531C93.1701 121.53 93.244 121.518 93.3146 121.494ZM113.969 82.3284C114.279 82.3298 114.756 82.4064 114.951 82.6812C115.147 82.9559 114.949 83.5426 114.458 84.2794L93.1093 120.808C93.1011 120.819 93.0902 120.827 93.0777 120.832C93.0652 120.837 93.0516 120.839 93.0382 120.837C93.0234 120.839 93.0083 120.837 92.9949 120.83C92.9815 120.823 92.9703 120.813 92.9627 120.8L92.5035 120.158C92.494 120.144 92.4887 120.127 92.4884 120.11C92.488 120.092 92.4926 120.075 92.5015 120.061L113.969 82.3284Z" fill="#3A3D3E"/>
<path d="M93.4128 120.978C93.4128 120.978 92.8156 123.374 91.9952 123.951C91.1748 124.528 88.6975 126.055 88.6975 126.055C88.7789 124.593 89.1629 123.164 89.8251 121.858C90.8899 119.867 92.1924 119.877 92.1924 119.877L93.4128 120.978Z" fill="#C58B5D"/>
<path d="M88.8353 126.392L88.887 126.371C88.9969 126.326 91.3666 124.812 92.2041 124.258C93.0416 123.704 93.6987 121.344 93.7589 121.086C93.7745 121.024 93.7729 120.958 93.7544 120.897C93.7359 120.835 93.701 120.78 93.6536 120.736L92.4541 119.65C92.3911 119.592 92.308 119.561 92.2225 119.563C92.1708 119.585 90.7152 119.569 89.544 121.724C88.8553 123.079 88.4575 124.563 88.3762 126.082C88.3733 126.145 88.388 126.208 88.4186 126.263C88.4493 126.318 88.4948 126.364 88.5499 126.395C88.5952 126.414 88.6439 126.424 88.693 126.423C88.7421 126.423 88.7905 126.412 88.8353 126.392ZM93.0156 121.096C92.7763 121.986 92.2745 123.324 91.8011 123.661C91.3277 123.998 89.9092 124.903 89.1296 125.396C89.2686 124.221 89.6144 123.081 90.151 122.027C90.9166 120.596 91.7783 120.304 92.0956 120.249L93.0156 121.096Z" fill="#3A3D3E"/>
<path d="M124.89 108.277C124.89 108.277 114.206 93.7343 113.912 93.0166C113.619 92.299 104.014 92.6219 102.868 92.5324C101.721 92.443 97.9959 98.9796 97.8086 99.8865C97.6212 100.793 98.278 104.427 98.4537 108.25C98.6294 112.073 99.1616 114.074 99.7924 114.933C100.423 115.792 101.495 118.41 103.402 117.63C105.309 116.849 103.509 113.133 103.509 113.133L112.151 111.822C112.151 111.822 114.764 115.478 117.587 116.27C120.409 117.062 122.334 117.671 122.334 117.671C122.334 117.671 147.709 140.943 150.723 142.774C153.737 144.605 159.806 143.223 162.364 139.957C164.922 136.691 165.061 130.226 161.585 125.806C158.108 121.387 131.446 111.994 129.528 111.383C127.61 110.772 124.89 108.277 124.89 108.277Z" fill="white"/>
<path d="M158.615 143.024C160.159 142.433 161.527 141.458 162.588 140.19C165.15 136.877 165.458 130.252 161.807 125.61C158.155 120.968 129.848 111.169 129.583 111.074C127.851 110.53 125.423 108.286 125.124 108.053C120.868 102.247 114.479 93.4794 114.21 92.8952C113.941 92.3109 112.596 92.1595 105.208 92.2014C104.064 92.2092 103.161 92.2164 102.865 92.1941C101.308 92.0768 97.5861 99.1024 97.444 99.8248C97.3925 100.959 97.4602 102.095 97.6461 103.214C97.8003 104.661 97.991 106.455 98.0794 108.275C98.2357 111.774 98.7095 114.093 99.4884 115.148C99.5933 115.294 99.713 115.494 99.8497 115.718C100.527 116.837 101.677 118.744 103.519 117.99C103.735 117.905 103.929 117.775 104.09 117.609C104.252 117.442 104.375 117.244 104.454 117.026C104.886 115.906 104.313 114.23 103.997 113.439L111.977 112.226C112.553 112.987 114.891 115.917 117.481 116.638C120.071 117.36 121.772 117.901 122.14 118.007C123.798 119.533 147.528 141.311 150.491 143.11C152.482 144.341 155.809 144.172 158.615 143.024ZM113.599 93.2282C114.283 94.4577 123.515 107.036 124.58 108.495L124.604 108.553C124.721 108.656 127.383 111.122 129.354 111.749C131.676 112.482 157.875 121.777 161.234 126.056C164.688 130.439 164.428 136.682 162.015 139.768C159.602 142.854 153.741 144.301 150.831 142.503C147.922 140.705 122.777 117.664 122.522 117.428C122.485 117.395 122.441 117.369 122.393 117.353C122.393 117.353 120.441 116.733 117.639 115.955C114.964 115.208 112.416 111.677 112.391 111.634C112.353 111.582 112.302 111.542 112.242 111.517C112.183 111.492 112.118 111.484 112.054 111.493L103.399 112.771C103.345 112.781 103.294 112.803 103.25 112.836C103.206 112.868 103.169 112.91 103.143 112.958C103.117 113.006 103.103 113.059 103.102 113.113C103.1 113.168 103.112 113.222 103.136 113.271C103.439 113.901 104.144 115.734 103.756 116.723C103.714 116.849 103.645 116.964 103.554 117.061C103.464 117.158 103.354 117.234 103.231 117.285C102.035 117.774 101.215 116.6 100.434 115.32C100.283 115.08 100.155 114.86 100.047 114.724C99.5694 114.074 98.9608 112.421 98.7691 108.227C98.6819 106.391 98.4871 104.568 98.3329 103.122C98.1592 102.077 98.0775 101.02 98.0885 99.9611C98.2855 98.9671 101.917 92.9372 102.746 92.8995C103.058 92.9229 103.932 92.9199 105.136 92.9103C107.528 92.89 112.903 92.8563 113.599 93.2282Z" fill="#3A3D3E"/>
<path d="M99.4013 112.686C99.4572 112.663 99.5064 112.626 99.544 112.579C99.5815 112.532 99.6063 112.476 99.6158 112.417C99.7761 111.37 99.8887 111.331 100.636 111.055L101.153 110.844C102.35 110.354 109.691 106.014 110 105.827C110.04 105.804 110.075 105.773 110.104 105.736C110.132 105.7 110.153 105.657 110.164 105.613C110.176 105.568 110.179 105.521 110.173 105.475C110.166 105.429 110.151 105.385 110.127 105.345C110.078 105.266 110.001 105.21 109.911 105.188C109.822 105.165 109.727 105.178 109.647 105.224C109.563 105.258 102.04 109.726 100.889 110.197L100.398 110.398C99.505 110.726 99.1045 110.928 98.9184 112.317C98.9053 112.408 98.9284 112.5 98.9826 112.574C99.0368 112.647 99.1178 112.697 99.2082 112.712C99.2738 112.722 99.341 112.713 99.4013 112.686Z" fill="#3A3D3E"/>
<path d="M99.2169 107.477L99.288 107.448L109.031 100.676C109.109 100.622 109.163 100.54 109.181 100.447C109.199 100.354 109.179 100.258 109.126 100.18C109.073 100.101 108.991 100.047 108.898 100.03C108.805 100.012 108.709 100.031 108.63 100.085L98.8785 106.853C98.7966 106.898 98.7358 106.973 98.7094 107.062C98.683 107.152 98.6931 107.248 98.7377 107.33C98.7822 107.412 98.8574 107.473 98.9468 107.499C99.0361 107.525 99.1323 107.515 99.2142 107.471L99.2169 107.477Z" fill="#3A3D3E"/>
<path d="M99.0329 102.269L99.0782 102.25L108.262 96.8236C108.302 96.8008 108.338 96.7701 108.366 96.7333C108.394 96.6965 108.414 96.6544 108.425 96.6096C108.436 96.5648 108.438 96.5182 108.431 96.4725C108.424 96.4269 108.408 96.3832 108.383 96.344C108.36 96.3045 108.33 96.2699 108.294 96.2422C108.258 96.2146 108.216 96.1944 108.172 96.1829C108.128 96.1714 108.082 96.1688 108.037 96.1753C107.992 96.1818 107.949 96.1972 107.91 96.2206L98.7257 101.647C98.6424 101.689 98.5789 101.761 98.5491 101.849C98.5192 101.937 98.5256 102.033 98.5667 102.116C98.6077 102.2 98.6802 102.263 98.7682 102.293C98.8561 102.323 98.9523 102.316 99.0356 102.275L99.0329 102.269Z" fill="#3A3D3E"/>
<path d="M57.2654 147.886C63.2551 149.39 69.0819 146.734 70.2776 141.965C71.4733 137.196 67.5865 132.106 61.5995 130.609C55.6126 129.112 47.4055 131.135 46.223 135.936C45.0405 140.737 51.2785 146.389 57.2654 147.886Z" fill="#C58B5D"/>
<path d="M65.3163 147.769L65.7171 147.605C66.904 147.118 67.9631 146.364 68.8128 145.402C69.6625 144.441 70.2801 143.297 70.6181 142.059C71.8617 137.112 67.8552 131.823 61.6928 130.284C55.5303 128.745 47.1323 130.892 45.8643 135.871C45.3095 138.204 46.3167 140.887 48.7872 143.401C51.1058 145.736 54.0016 147.416 57.1801 148.269C59.8763 148.971 62.7263 148.796 65.3163 147.769ZM51.0766 131.64C54.4061 130.365 58.0425 130.124 61.5113 130.947C67.3046 132.395 71.0861 137.301 69.9198 141.847C69.6082 142.983 69.0395 144.033 68.2577 144.914C67.4759 145.796 66.5018 146.486 65.4108 146.93C62.8648 148.026 60.0238 148.232 57.3466 147.514C54.2969 146.699 51.517 145.092 49.2888 142.856C46.9988 140.525 46.0298 138.083 46.5514 135.983C47.0537 134.056 48.788 132.577 51.0766 131.64Z" fill="#3A3D3E"/>
<path d="M51.6464 151.862C51.7189 151.831 51.7792 151.777 51.8178 151.709C51.8475 151.656 51.8627 151.596 51.8618 151.535C51.8608 151.475 51.8438 151.416 51.8124 151.364L49.0533 146.651C49.0166 146.589 48.9623 146.541 48.8976 146.511C48.8328 146.481 48.7605 146.471 48.6901 146.482C47.0457 146.781 45.3868 146.994 43.7202 147.12C43.371 147.129 43.0378 147.269 42.7864 147.511C42.535 147.754 42.3836 148.082 42.3621 148.431C42.225 149.46 42.9187 150.731 44.7518 151.227C46.9675 151.741 49.2428 151.952 51.5154 151.855C51.5582 151.866 51.6027 151.868 51.6464 151.862ZM48.5688 147.219L50.9096 151.205C48.907 151.251 46.9067 151.043 44.9568 150.584C43.5111 150.187 42.9667 149.262 43.0621 148.537C43.0705 148.363 43.1431 148.199 43.2659 148.076C43.3886 147.953 43.5528 147.881 43.7262 147.872C45.3517 147.748 46.9686 147.53 48.5688 147.219Z" fill="#3A3D3E"/>
<path d="M75.1047 148.005C75.1047 148.005 71.1061 144.358 69.427 143.649C67.7479 142.94 64.0886 145.562 64.0886 145.562C64.0886 145.562 58.5289 138.1 57.8177 138.391C57.1066 138.683 56.7714 139.929 56.7714 139.929C56.7714 139.929 54.7034 138.27 53.5138 138.757C53.1613 138.928 52.864 139.195 52.6557 139.527C52.4474 139.859 52.3363 140.243 52.3353 140.635C52.3353 140.635 51.7506 139.206 50.1778 140.122C48.6051 141.037 48.858 142.338 48.858 142.338C48.1527 142.332 47.4593 142.519 46.8529 142.879C46.2396 143.409 52.2162 155.984 53.1814 156.978C54.1467 157.971 68.8411 154.463 68.8411 154.463C68.8411 154.463 78.5056 167.197 83.8785 169.444C89.2514 171.69 97.5046 169.43 95.9201 162.847C94.3357 156.265 92.3461 152.067 85.4005 150.736C78.4549 149.404 75.1047 148.005 75.1047 148.005Z" fill="white"/>
<path d="M92.453 169.867C93.2 169.571 93.8945 169.157 94.5097 168.64C95.3485 167.944 95.9622 167.015 96.2734 165.97C96.5846 164.925 96.5794 163.811 96.2583 162.769C94.5798 155.773 92.363 151.721 85.4694 150.406C82.0093 149.803 78.6086 148.899 75.3062 147.704C74.8279 147.273 71.2074 144.015 69.5738 143.325C67.9403 142.635 65.1293 144.434 64.1757 145.074C58.6425 137.677 57.9572 137.957 57.6986 138.063C57.1864 138.343 56.7989 138.806 56.6141 139.36C55.9163 138.891 54.4303 137.989 53.3894 138.415C53.0915 138.539 52.8246 138.726 52.6078 138.965C52.3911 139.204 52.2298 139.488 52.1356 139.796C51.9952 139.677 51.8327 139.587 51.6574 139.532C51.3797 139.453 51.0881 139.437 50.8035 139.485C50.5189 139.532 50.2483 139.642 50.0108 139.805C49.5942 140.01 49.2369 140.317 48.9729 140.699C48.7089 141.08 48.547 141.523 48.5026 141.985C47.8339 142.008 47.1851 142.219 46.6303 142.593C46.5779 142.641 46.5365 142.701 46.5088 142.767C46.4812 142.833 46.4679 142.904 46.4699 142.975C46.4055 144.662 52.041 156.274 52.9357 157.207C53.9154 158.217 64.1194 155.928 68.7068 154.836C69.9625 156.465 78.6467 167.615 83.7489 169.753C86.5313 170.892 89.6418 170.932 92.453 169.867ZM67.0727 144.296C67.75 143.928 68.5364 143.815 69.2898 143.977C70.8933 144.649 74.8058 148.233 74.8631 148.263C74.893 148.29 74.9274 148.312 74.9648 148.327C75.1041 148.391 78.4372 149.766 85.3399 151.085C91.8932 152.343 93.931 156.068 95.5851 162.932C95.8615 163.847 95.8634 164.824 95.5906 165.74C95.3178 166.657 94.7821 167.474 94.05 168.089C91.7062 170.09 87.3847 170.522 84.0071 169.112C78.7774 166.92 69.2063 154.359 69.1158 154.23C69.0731 154.178 69.0169 154.139 68.9532 154.117C68.8896 154.095 68.8211 154.091 68.7555 154.106C61.7974 155.769 54.168 157.193 53.4091 156.703C52.619 155.879 47.1802 144.526 47.1491 143.067C47.6741 142.796 48.2581 142.658 48.8492 142.666C48.9011 142.669 48.9529 142.66 49.001 142.64C49.0491 142.621 49.0922 142.591 49.1272 142.552C49.1597 142.513 49.183 142.467 49.1954 142.417C49.2078 142.368 49.209 142.316 49.1989 142.266C49.1856 142.234 49.0347 141.201 50.3556 140.427C50.5082 140.315 50.6829 140.238 50.8679 140.2C51.0529 140.162 51.2439 140.164 51.428 140.207C51.6876 140.312 51.8968 140.512 52.0123 140.768C52.0319 140.86 52.0874 140.94 52.1664 140.991C52.2453 141.042 52.3414 141.06 52.4335 141.041C52.5255 141.021 52.606 140.965 52.6572 140.886C52.7084 140.807 52.7261 140.711 52.7064 140.619C52.7079 140.297 52.799 139.981 52.9695 139.707C53.1401 139.434 53.3834 139.213 53.6722 139.069C54.4868 138.736 56.0895 139.793 56.583 140.188C56.6278 140.225 56.6813 140.25 56.7386 140.261C56.7959 140.272 56.8551 140.268 56.9104 140.25C56.9655 140.232 57.015 140.2 57.0543 140.157C57.0937 140.115 57.1216 140.063 57.1355 140.007C57.2539 139.513 57.5228 139.068 57.905 138.733C58.5875 139.073 61.4169 142.519 63.8037 145.769C63.8303 145.806 63.864 145.837 63.9028 145.861C63.9416 145.885 63.9848 145.901 64.0298 145.908C64.0748 145.915 64.1207 145.912 64.1648 145.901C64.209 145.89 64.2505 145.871 64.2869 145.843C65.16 145.233 66.0935 144.715 67.0727 144.296Z" fill="#3A3D3E"/>
<path d="M66.9531 149.296C66.9855 149.29 67.0164 149.278 67.0436 149.259C67.0803 149.231 67.111 149.196 67.1337 149.156C67.1565 149.116 67.1709 149.071 67.1761 149.026C67.1814 148.98 67.1772 148.933 67.1641 148.889C67.1509 148.845 67.1289 148.804 67.0994 148.768L64.3675 145.358C64.309 145.287 64.2249 145.242 64.1336 145.233C64.0422 145.224 63.9509 145.251 63.8794 145.308C63.8427 145.336 63.812 145.371 63.7893 145.412C63.7665 145.452 63.7521 145.496 63.7469 145.542C63.7417 145.588 63.7458 145.634 63.759 145.678C63.7721 145.722 63.7941 145.764 63.8236 145.799L66.5555 149.21C66.6038 149.265 66.6685 149.303 66.7401 149.319C66.8116 149.334 66.8863 149.326 66.9531 149.296Z" fill="#3A3D3E"/>
<path d="M55.5105 155.881C55.5668 155.858 55.6168 155.822 55.6563 155.776C55.6855 155.741 55.7073 155.7 55.7203 155.655C55.7333 155.611 55.7373 155.565 55.7319 155.519C55.7266 155.473 55.7121 155.429 55.6893 155.389C55.6665 155.349 55.6358 155.314 55.5992 155.286C53.962 153.979 50.4239 145.426 49.1973 142.244C49.1622 142.159 49.0945 142.09 49.0091 142.054C48.9237 142.019 48.8275 142.018 48.7418 142.053C48.656 142.088 48.5877 142.156 48.5519 142.242C48.5161 142.327 48.5157 142.423 48.5508 142.509C48.744 142.981 53.0528 154.155 55.1743 155.853C55.2234 155.885 55.28 155.905 55.3387 155.91C55.3975 155.915 55.4566 155.905 55.5105 155.881Z" fill="#3A3D3E"/>
<path d="M57.9723 153.726L58.0111 153.71C58.0509 153.688 58.0859 153.659 58.1141 153.623C58.1423 153.588 58.1632 153.547 58.1756 153.503C58.1879 153.46 58.1914 153.414 58.1859 153.369C58.1804 153.324 58.166 153.28 58.1436 153.241C57.1461 151.468 52.7063 140.619 52.6613 140.509C52.6262 140.424 52.5585 140.355 52.4731 140.32C52.3877 140.284 52.2915 140.283 52.2057 140.318C52.12 140.354 52.0517 140.421 52.0159 140.507C51.9801 140.592 51.9797 140.688 52.0148 140.774C52.1974 141.22 56.5129 151.765 57.5458 153.606C57.593 153.672 57.6607 153.719 57.7382 153.741C57.8156 153.762 57.8981 153.757 57.9723 153.726Z" fill="#3A3D3E"/>
<path d="M63.0281 152.487C63.0742 152.478 63.1182 152.46 63.1574 152.434C63.1896 152.402 63.2152 152.364 63.2325 152.322C63.2498 152.28 63.2586 152.235 63.2582 152.189C63.2578 152.144 63.2484 152.099 63.2304 152.057C63.2124 152.015 63.1863 151.977 63.1535 151.945C60.447 149.279 57.1503 139.933 57.1132 139.842C57.0985 139.799 57.0753 139.759 57.0449 139.724C57.0146 139.689 56.9778 139.661 56.9365 139.641C56.8953 139.621 56.8504 139.609 56.8045 139.606C56.7586 139.603 56.7126 139.609 56.6691 139.624C56.5813 139.656 56.5095 139.721 56.4691 139.805C56.4288 139.889 56.4232 139.986 56.4535 140.075C56.6096 140.456 59.8443 149.669 62.6619 152.441C62.7121 152.483 62.7733 152.51 62.8382 152.518C62.9031 152.526 62.969 152.515 63.0281 152.487Z" fill="#3A3D3E"/>
</svg>
