<svg width="159" height="307" viewBox="0 0 159 307" fill="none" xmlns="http://www.w3.org/2000/svg">
<path d="M37.5946 143.314C37.5946 143.314 32.9693 182.835 35.6794 186.502C38.3895 190.17 47.6305 186.119 51.6812 183.63C55.7319 181.14 61.1329 178.229 61.1329 178.229L63.2588 172.665C63.2588 172.665 58.0494 127.322 57.8578 126.172C57.6663 125.023 39.5386 132.876 38.1883 134.657C36.8381 136.438 37.5946 143.314 37.5946 143.314Z" fill="#3A3D3E"/>
<path d="M39.3183 188.446C38.5626 188.515 37.8014 188.401 37.0994 188.112C36.3975 187.824 35.7756 187.37 35.2867 186.79C32.5671 183.093 36.6083 147.623 37.1158 143.304C37.0105 142.347 36.3976 136.132 37.7957 134.341C39.1938 132.55 56.1054 125.148 57.8482 125.588C57.965 125.613 58.072 125.671 58.1555 125.757C58.239 125.842 58.2954 125.95 58.3175 126.067C58.509 127.226 63.5174 170.74 63.728 172.598C63.7471 172.67 63.7471 172.746 63.728 172.818L61.6021 178.382C61.5587 178.487 61.4812 178.575 61.3819 178.631C61.3244 178.631 55.9426 181.552 51.9589 184.013C49.5457 185.497 43.6276 188.446 39.3183 188.446ZM57.4077 126.517C54.9945 126.728 39.6439 133.527 38.5522 134.925C37.4605 136.323 37.8627 141.379 38.0734 143.256C38.0833 143.291 38.0833 143.327 38.0734 143.362C36.2252 159.182 34.1568 183.639 36.0528 186.215C38.5139 189.557 47.64 185.545 51.3747 183.199C55.0041 180.958 59.7731 178.411 60.6924 177.874L62.713 172.588C62.4831 170.118 57.9153 130.415 57.4077 126.517Z" fill="#3A3D3E"/>
<path d="M16.5843 264.979C14.5178 268.006 12.6497 271.163 10.9918 274.431C9.54006 278.012 8.31508 281.68 7.32412 285.415C6.74955 287.541 6.3665 287.924 4.45126 285.606C2.53603 283.289 0.209013 278.089 1.36773 269.605C2.52645 261.12 7.11345 252.061 8.07107 252.444C9.02869 252.827 17.3695 258.037 17.3695 258.037L16.5843 264.979Z" fill="white"/>
<path d="M6.29959 287.665C5.65799 287.665 4.97808 287.014 4.06834 285.922C2.97665 284.601 -0.489928 279.545 0.869892 269.547C1.952 261.647 6.06019 252.99 7.57323 252.08C7.66688 252.014 7.77544 251.973 7.88913 251.96C8.00281 251.946 8.11804 251.961 8.22441 252.004C9.18203 252.396 16.7089 257.098 17.5612 257.634C17.6367 257.683 17.6972 257.752 17.736 257.833C17.7749 257.914 17.7906 258.005 17.7814 258.094L17.0058 265.037C16.9993 265.113 16.9728 265.185 16.9292 265.247C14.8831 268.251 13.0312 271.383 11.3846 274.623C9.96247 278.187 8.76313 281.836 7.79348 285.549C7.49662 286.641 7.21891 287.464 6.51027 287.646L6.29959 287.665ZM8.03288 252.923C6.91247 253.708 2.89047 261.838 1.82751 269.653C0.515573 279.229 3.74275 284.017 4.80571 285.281C5.86866 286.545 6.22298 286.698 6.30917 286.689C6.39536 286.679 6.56772 286.363 6.86459 285.271C7.86506 281.512 9.09634 277.818 10.5514 274.211C12.2005 270.953 14.059 267.805 16.1152 264.788L16.843 258.266C13.6733 256.294 9.02881 253.43 8.03288 252.923Z" fill="#3A3D3E"/>
<path d="M9.06705 252.971C8.6074 252.703 8.25308 252.511 8.10943 252.444C7.15181 252.061 2.51694 261.12 1.4061 269.605C0.295261 278.089 2.56482 283.299 4.48963 285.606C5.51428 286.842 6.10801 287.301 6.51978 287.148C5.32276 284.199 3.04363 277.467 3.91506 270.955C4.78649 264.443 7.65935 256.514 9.06705 252.971Z" fill="white"/>
<path d="M6.29959 287.656C5.65799 287.656 4.9685 287.005 4.06834 285.922C2.97665 284.601 -0.489927 279.545 0.869892 269.547C1.952 261.647 6.06019 252.99 7.57323 252.08C7.66688 252.014 7.77544 251.973 7.88913 251.96C8.00281 251.946 8.11804 251.961 8.22441 252.004C8.58172 252.161 8.92734 252.343 9.25863 252.549C9.35793 252.608 9.43292 252.7 9.46985 252.809C9.50679 252.918 9.50319 253.037 9.45974 253.143C8.19568 256.332 5.16003 264.462 4.27902 271.022C3.39801 277.582 5.79205 284.342 6.85501 286.966C6.90248 287.086 6.90248 287.22 6.85501 287.34C6.82979 287.4 6.79197 287.454 6.74408 287.499C6.69619 287.544 6.63933 287.577 6.5773 287.598C6.4881 287.631 6.3945 287.651 6.29959 287.656ZM8.03288 252.923C6.90289 253.718 2.89047 261.838 1.82751 269.653C0.515573 279.229 3.74275 284.017 4.80571 285.281C5.04167 285.579 5.29425 285.863 5.56222 286.133C4.24071 282.552 2.61276 276.672 3.37885 270.878C4.21198 264.644 6.85501 257.251 8.47339 253.162L8.03288 252.923Z" fill="#3A3D3E"/>
<path d="M63.6321 170.692C63.6321 170.692 60.7592 183.036 61.1231 190.17C61.487 197.304 62.6649 205.779 62.6649 205.779L60.9316 238.176C60.9316 238.176 46.4715 239.334 43.9626 241.259C41.4536 243.184 23.7185 255.145 20.2424 256.495C18.5857 257.136 15.0425 258.812 15.0425 258.812C15.0425 258.812 11.5663 260.584 14.2668 264.414C16.9673 268.245 65.1739 253.804 66.7156 253.612C68.2574 253.421 77.508 250.146 79.0593 248.211C80.6107 246.277 91.202 210.232 91.202 210.232L113.955 243.011C113.955 243.011 113.572 252.454 119.164 259.205C124.757 265.956 135.549 284.85 135.549 284.85L135.166 288.125C135.166 288.125 131.336 291.955 132.083 295.068C132.83 298.18 137.091 297.577 139.792 299.31C142.492 301.043 149.052 304.711 149.052 304.711C149.052 304.711 159.078 308.541 157.919 304.711C157.498 303.303 152.729 297.644 150.977 295.068C147.752 290.456 145.096 285.473 143.067 280.225C141.333 275.436 132.466 241.661 131.307 237.227C130.148 232.794 124.604 210.232 120.314 197.314C116.023 184.396 113.179 179.186 113.179 179.186L109.904 170.319L63.6321 170.692Z" fill="white"/>
<path d="M156.09 306.885C153.562 306.885 149.808 305.506 148.88 305.152C148.746 305.084 142.176 301.426 139.533 299.703C138.512 299.133 137.411 298.72 136.268 298.477C134.257 297.941 132.169 297.385 131.614 295.173C130.857 292.147 134.036 288.604 134.707 287.905L135.061 284.936C134.104 283.222 124.049 265.841 118.782 259.502C113.515 253.162 113.438 244.477 113.467 243.146L91.3746 211.314C89.4593 217.826 80.8408 246.67 79.4235 248.499C77.7381 250.606 68.2672 253.89 66.7637 254.082C66.5052 254.082 64.4176 254.695 61.7841 255.432C29.8763 264.309 15.5407 267.077 13.9032 264.673C13.4665 264.146 13.1502 263.531 12.9765 262.869C12.8028 262.207 12.7759 261.516 12.8977 260.842C13.0415 260.332 13.2848 259.856 13.6135 259.44C13.9422 259.024 14.3498 258.677 14.8129 258.42C14.9757 258.343 18.4136 256.734 20.0607 256.083C23.374 254.8 40.9942 242.973 43.6564 240.924C46.0313 239.095 58.0207 237.984 60.4626 237.773L62.1768 205.799C62.1768 205.799 61.018 197.304 60.635 190.228C60.2519 183.151 63.0386 171.123 63.1535 170.616C63.1774 170.512 63.236 170.419 63.3195 170.353C63.4031 170.287 63.5066 170.251 63.6132 170.252L109.895 169.869C109.992 169.869 110.086 169.899 110.167 169.953C110.247 170.008 110.309 170.085 110.345 170.175L113.62 179.052C113.62 179.052 116.56 184.405 120.764 197.199C124.403 208.288 129.038 226.454 131.01 234.221C131.346 235.504 131.595 236.509 131.767 237.141C131.863 237.515 141.669 274.967 143.507 280.1C145.518 285.313 148.155 290.262 151.36 294.838C152.011 295.796 153.074 297.165 154.233 298.621C156.579 301.656 158.14 303.715 158.408 304.606C158.537 304.904 158.574 305.233 158.514 305.552C158.455 305.871 158.301 306.165 158.073 306.396C157.494 306.796 156.789 306.97 156.09 306.885ZM91.2022 209.744C91.2788 209.744 91.3543 209.763 91.4225 209.798C91.4907 209.833 91.5497 209.883 91.5948 209.945L114.348 242.724C114.405 242.813 114.435 242.916 114.434 243.021C114.434 243.107 114.128 252.368 119.529 258.889C125.083 265.592 135.808 284.409 135.971 284.601C136.019 284.692 136.039 284.795 136.028 284.898L135.645 288.173C135.627 288.281 135.577 288.381 135.502 288.46C135.502 288.46 131.853 292.157 132.543 294.943C132.964 296.61 134.611 297.04 136.517 297.558C137.759 297.813 138.952 298.266 140.05 298.898C142.713 300.603 149.215 304.242 149.282 304.28C152.059 305.343 156.474 306.502 157.383 305.64C157.45 305.592 157.632 305.42 157.46 304.835C157.22 304.041 155.133 301.331 153.447 299.157C152.317 297.692 151.245 296.284 150.575 295.326C147.322 290.685 144.646 285.666 142.607 280.378C140.749 275.207 130.934 237.706 130.838 237.333L130.082 234.403C128.109 226.655 123.484 208.547 119.854 197.448C115.679 184.74 112.787 179.464 112.758 179.407L109.56 170.788L64.0058 171.171C63.5366 173.259 61.2479 183.84 61.5926 190.141C61.9757 197.17 63.1152 205.636 63.1344 205.722L61.4202 238.204C61.4136 238.32 61.3654 238.429 61.2844 238.512C61.2034 238.595 61.0952 238.645 60.9797 238.654C56.996 238.97 46.2228 240.129 44.2597 241.642C42.0189 243.366 24.0731 255.528 20.4246 256.964C18.8062 257.596 15.2917 259.243 15.2534 259.262C14.5541 259.652 14.0326 260.297 13.7978 261.063C13.7118 261.609 13.7452 262.168 13.8956 262.7C14.0461 263.232 14.31 263.726 14.6693 264.146C16.0004 266.062 31.7723 262.806 61.5926 254.522C64.9251 253.565 66.3807 253.182 66.7159 253.143C68.2193 252.961 77.2497 249.725 78.734 247.924C79.8257 246.564 86.5482 224.558 90.8 210.108C90.8253 210.02 90.8747 209.942 90.9423 209.881C91.01 209.82 91.0934 209.779 91.183 209.763L91.2022 209.744Z" fill="#3A3D3E"/>
<path d="M82.0569 240.551C82.0095 240.56 81.9607 240.56 81.9132 240.551L61.0467 233.771C60.9458 233.739 60.8582 233.675 60.7976 233.588C60.737 233.502 60.7067 233.397 60.7116 233.292L62.1863 205.799C62.1863 205.799 61.0276 197.304 60.6445 190.228C60.2615 183.151 63.0481 171.123 63.1631 170.616C63.187 170.512 63.2455 170.419 63.3291 170.353C63.4126 170.287 63.5162 170.251 63.6227 170.252L109.904 169.869C110.001 169.869 110.096 169.899 110.176 169.953C110.256 170.008 110.318 170.085 110.355 170.175L113.63 179.052C113.63 179.052 116.569 184.405 120.773 197.199C124.317 207.982 128.817 225.583 130.292 231.367C130.319 231.465 130.313 231.568 130.277 231.663C130.241 231.758 130.176 231.838 130.091 231.894C124.376 235.469 118.187 238.222 111.705 240.072C111.608 240.101 111.505 240.098 111.41 240.063C111.315 240.029 111.234 239.965 111.178 239.88L91.3745 211.362C90.2062 215.327 85.6288 230.649 82.5165 240.273C82.4765 240.36 82.4113 240.433 82.3293 240.482C82.2474 240.532 82.1525 240.555 82.0569 240.551ZM61.6883 232.89L81.7983 239.43C85.4086 228.331 90.7329 210.232 90.7904 210.05C90.8157 209.963 90.865 209.884 90.9327 209.823C91.0004 209.762 91.0838 209.722 91.1734 209.706C91.2626 209.691 91.354 209.703 91.4371 209.738C91.5201 209.774 91.5914 209.832 91.6427 209.907L111.82 238.97C117.981 237.182 123.871 234.563 129.325 231.185C127.774 225.085 123.378 207.963 119.912 197.41C115.736 184.702 112.844 179.426 112.816 179.368L109.617 170.75L64.0632 171.133C63.594 173.22 61.3053 183.802 61.65 190.103C62.0331 197.132 63.1726 205.597 63.1918 205.684L61.6883 232.89Z" fill="#3A3D3E"/>
<path d="M91.2022 210.701H91.1065C91.0437 210.694 90.9831 210.675 90.9281 210.644C90.8731 210.613 90.825 210.571 90.7865 210.521C90.7481 210.471 90.7201 210.414 90.7043 210.352C90.6886 210.291 90.6853 210.228 90.6947 210.165L92.2365 198.406C92.2435 198.343 92.2631 198.282 92.2941 198.227C92.3251 198.172 92.3669 198.124 92.417 198.086C92.4671 198.047 92.5244 198.019 92.5855 198.004C92.6466 197.988 92.7103 197.984 92.7727 197.994C92.8984 198.011 93.0123 198.076 93.0894 198.177C93.1666 198.277 93.2008 198.404 93.1845 198.53L91.6427 210.29C91.626 210.398 91.5735 210.497 91.4936 210.572C91.4137 210.646 91.3112 210.692 91.2022 210.701Z" fill="#3A3D3E"/>
<path d="M93.711 207.81C93.6113 207.811 93.5136 207.781 93.4316 207.724C93.3496 207.668 93.2873 207.587 93.2536 207.493C93.2198 207.399 93.2162 207.297 93.2433 207.201C93.2704 207.105 93.3268 207.02 93.4046 206.957L99.3801 201.949C99.4265 201.9 99.4827 201.861 99.545 201.835C99.6073 201.81 99.6744 201.797 99.7418 201.799C99.8092 201.801 99.8755 201.817 99.9362 201.847C99.9969 201.876 100.051 201.918 100.094 201.969C100.138 202.021 100.17 202.081 100.188 202.146C100.207 202.211 100.212 202.279 100.202 202.346C100.192 202.413 100.169 202.476 100.133 202.534C100.097 202.591 100.049 202.639 99.993 202.677L93.9792 207.695C93.9043 207.76 93.8103 207.801 93.711 207.81Z" fill="#3A3D3E"/>
<path d="M83.685 221.111H83.5509L64.4656 215.71C64.4027 215.693 64.3438 215.664 64.2922 215.624C64.2406 215.584 64.1973 215.535 64.1648 215.478C64.1324 215.422 64.1114 215.359 64.103 215.295C64.0946 215.23 64.099 215.165 64.116 215.102C64.133 215.039 64.1622 214.98 64.2019 214.928C64.2417 214.877 64.2912 214.833 64.3477 214.801C64.4041 214.769 64.4664 214.748 64.531 214.739C64.5956 214.731 64.6612 214.735 64.7241 214.752L83.1295 219.952C83.0137 219.217 83.0365 218.467 83.1966 217.74C81.2047 217.108 73.2278 215.154 68.1428 213.91C68.0204 213.876 67.9155 213.796 67.8497 213.688C67.7838 213.579 67.7619 213.45 67.7885 213.325C67.8202 213.202 67.8991 213.095 68.0083 213.029C68.1175 212.963 68.2483 212.942 68.3726 212.971C84.3362 216.802 84.3457 216.993 84.3649 217.453C84.3696 217.541 84.3497 217.629 84.3074 217.707C84.2652 217.785 84.2022 217.849 84.1255 217.893C83.9834 218.759 83.9834 219.642 84.1255 220.508C84.1387 220.587 84.1305 220.669 84.102 220.745C84.0734 220.821 84.0253 220.887 83.9627 220.938C83.895 221.029 83.7959 221.09 83.685 221.111Z" fill="#3A3D3E"/>
<path d="M78.801 236.059C78.0828 236.059 76.1101 235.619 69.6749 233.311C69.5589 233.265 69.4653 233.176 69.414 233.062C69.3627 232.949 69.3577 232.82 69.4001 232.702C69.4425 232.585 69.529 232.489 69.6411 232.435C69.7532 232.38 69.8821 232.372 70.0004 232.411C76.292 234.671 78.1306 235.054 78.619 235.102C79.1553 233.253 82.0665 224.941 82.4495 223.945C82.4929 223.826 82.5812 223.728 82.6957 223.672C82.8101 223.617 82.9417 223.608 83.0624 223.648C83.1223 223.669 83.1774 223.701 83.2245 223.743C83.2716 223.785 83.3098 223.836 83.3366 223.894C83.3634 223.951 83.3784 224.013 83.3807 224.076C83.3829 224.139 83.3724 224.202 83.3497 224.261C82.3346 227.134 79.6724 234.795 79.5192 235.571C79.4701 235.728 79.3687 235.863 79.2319 235.954C79.102 236.031 78.9519 236.068 78.801 236.059Z" fill="#3A3D3E"/>
<path d="M67.7213 232.574H67.5489C64.8292 231.568 62.6842 230.744 62.6842 230.744C62.587 230.707 62.5045 230.64 62.4492 230.552C62.3939 230.463 62.3688 230.36 62.3777 230.256L63.5365 218.449C63.5479 218.322 63.6093 218.204 63.7072 218.123C63.805 218.041 63.9314 218.001 64.0584 218.013C64.1853 218.024 64.3026 218.086 64.3843 218.184C64.466 218.281 64.5055 218.408 64.4941 218.535L63.3354 229.94C64.0344 230.208 65.7677 230.898 67.8457 231.625C67.9651 231.669 68.0624 231.758 68.1162 231.872C68.1701 231.987 68.1762 232.119 68.133 232.238C68.103 232.327 68.0484 232.406 67.9755 232.465C67.9027 232.525 67.8145 232.562 67.7213 232.574Z" fill="#3A3D3E"/>
<path d="M66.9073 188.331C66.8074 188.332 66.7099 188.301 66.6289 188.242C66.548 188.184 66.4878 188.101 66.4572 188.006C66.4172 187.885 66.4258 187.754 66.4812 187.639C66.5367 187.525 66.6346 187.436 66.7541 187.393L67.0893 187.307C68.9098 186.876 70.5422 185.868 71.7433 184.434C73.0974 182.736 74.1767 180.836 74.9417 178.803C74.9911 178.694 75.0795 178.607 75.1897 178.56C75.2998 178.513 75.4236 178.509 75.5367 178.549C75.6497 178.588 75.7438 178.669 75.8003 178.774C75.8568 178.88 75.8716 179.003 75.8419 179.119C75.0489 181.267 73.9138 183.271 72.4807 185.056C71.1481 186.635 69.3408 187.74 67.3287 188.207L67.0605 188.284C67.0129 188.309 66.9609 188.325 66.9073 188.331Z" fill="#3A3D3E"/>
<path d="M65.7486 211.276C65.683 211.28 65.6172 211.27 65.5556 211.247C65.494 211.224 65.4379 211.189 65.3909 211.143C65.344 211.097 65.3072 211.041 65.2831 210.98C65.2589 210.919 65.2479 210.853 65.2507 210.788C65.2507 210.788 65.3464 209.897 65.4709 208.413C65.4811 208.286 65.5413 208.168 65.6383 208.085C65.7352 208.003 65.861 207.962 65.988 207.972C66.115 207.982 66.2328 208.043 66.3154 208.14C66.398 208.237 66.4387 208.362 66.4285 208.489C66.2945 210.002 66.1987 210.903 66.1987 210.903C66.174 211.005 66.1169 211.097 66.0358 211.164C65.9546 211.231 65.8539 211.271 65.7486 211.276Z" fill="#3A3D3E"/>
<path d="M66.1412 206.842C66.0783 206.837 66.0169 206.82 65.9606 206.791C65.9044 206.763 65.8543 206.723 65.8134 206.675C65.7724 206.627 65.7414 206.572 65.7221 206.511C65.7027 206.451 65.6955 206.388 65.7007 206.325C65.8511 202.613 65.5293 198.896 64.7431 195.265C63.7855 190.017 66.9265 178.2 67.0605 177.702C67.076 177.641 67.1036 177.584 67.1416 177.534C67.1796 177.484 67.2272 177.442 67.2817 177.411C67.3362 177.379 67.3964 177.359 67.4587 177.352C67.5211 177.344 67.5843 177.349 67.6447 177.367C67.7057 177.382 67.7631 177.41 67.8135 177.448C67.8639 177.486 67.9063 177.533 67.9383 177.587C67.9703 177.641 67.9913 177.702 68.0001 177.764C68.0089 177.826 68.0052 177.89 67.9894 177.951C67.9894 178.066 64.7527 190.055 65.6815 195.092C66.4831 198.802 66.805 202.6 66.6392 206.392C66.6367 206.455 66.6218 206.516 66.5954 206.573C66.5689 206.629 66.5313 206.68 66.4849 206.722C66.4385 206.764 66.3842 206.796 66.3252 206.817C66.2662 206.837 66.2036 206.846 66.1412 206.842Z" fill="#3A3D3E"/>
<path d="M97.8098 194.882C97.756 194.891 97.7009 194.891 97.647 194.882C97.5872 194.861 97.532 194.829 97.4849 194.787C97.4378 194.745 97.3997 194.694 97.3728 194.636C97.346 194.579 97.331 194.517 97.3288 194.454C97.3265 194.391 97.3371 194.328 97.3598 194.269C97.3598 194.269 98.1258 192.143 98.6908 190.065C98.7675 189.797 98.6908 189.701 98.643 189.663C98.1642 189.145 96.0765 189.27 94.8125 189.509C94.7251 189.526 94.6349 189.517 94.552 189.485C94.4692 189.453 94.3969 189.398 94.3433 189.327C94.2869 189.258 94.2523 189.174 94.2438 189.086C94.2352 188.997 94.2532 188.908 94.2954 188.829L97.762 181.695C97.7885 181.638 97.8265 181.586 97.8735 181.544C97.9205 181.501 97.9757 181.468 98.0357 181.448C98.0956 181.427 98.1592 181.419 98.2224 181.424C98.2856 181.428 98.3472 181.446 98.4036 181.475C98.4602 181.502 98.5109 181.541 98.5527 181.588C98.5944 181.635 98.6264 181.69 98.6469 181.75C98.6674 181.81 98.6759 181.873 98.6719 181.936C98.6679 181.998 98.6516 182.06 98.6238 182.117L95.5499 188.427C96.7277 188.284 98.6047 188.207 99.3803 189.011C99.537 189.187 99.6443 189.401 99.6914 189.631C99.7385 189.862 99.7237 190.1 99.6485 190.323C99.0739 192.44 98.2886 194.575 98.2886 194.604C98.2463 194.693 98.1779 194.768 98.0924 194.817C98.0069 194.867 97.9084 194.889 97.8098 194.882Z" fill="#3A3D3E"/>
<path d="M111.638 236.145C111.56 236.147 111.482 236.129 111.414 236.092C111.345 236.055 111.287 236.001 111.245 235.935L108.535 231.855C108.501 231.802 108.477 231.743 108.465 231.681C108.453 231.619 108.454 231.555 108.467 231.494C108.48 231.432 108.505 231.373 108.54 231.321C108.576 231.269 108.621 231.224 108.674 231.19C108.727 231.155 108.786 231.131 108.848 231.119C108.91 231.108 108.974 231.108 109.035 231.121C109.097 231.134 109.156 231.159 109.208 231.195C109.26 231.23 109.305 231.276 109.339 231.329L112.04 235.446C112.109 235.552 112.134 235.68 112.109 235.804C112.084 235.928 112.011 236.037 111.906 236.107C111.822 236.146 111.729 236.16 111.638 236.145Z" fill="#3A3D3E"/>
<path d="M107.501 229.844C107.422 229.844 107.344 229.824 107.274 229.787C107.204 229.751 107.144 229.698 107.099 229.634L93.8835 209.524C93.8136 209.417 93.789 209.287 93.8151 209.162C93.8411 209.037 93.9157 208.928 94.0223 208.858C94.129 208.788 94.259 208.764 94.3839 208.79C94.5087 208.816 94.618 208.89 94.6879 208.997L107.903 229.107C107.938 229.159 107.962 229.218 107.974 229.28C107.986 229.342 107.985 229.406 107.972 229.468C107.958 229.53 107.933 229.588 107.896 229.639C107.86 229.691 107.813 229.735 107.759 229.768C107.684 229.82 107.593 229.847 107.501 229.844Z" fill="#3A3D3E"/>
<path d="M63.6321 170.692C63.6321 170.692 60.7592 183.036 61.1231 190.17C61.487 197.304 62.6649 205.779 62.6649 205.779L60.9316 238.176C60.9316 238.176 46.4715 239.334 43.9626 241.259C41.4536 243.184 23.7185 255.145 20.2424 256.495C18.5857 257.136 15.0425 258.812 15.0425 258.812C15.0425 258.812 11.5663 260.584 14.2668 264.414C16.9673 268.245 65.1739 253.804 66.7156 253.612C68.2574 253.421 77.508 250.146 79.0593 248.211C80.6107 246.277 91.202 210.232 91.202 210.232L113.955 243.011C113.955 243.011 113.572 252.454 119.164 259.205C124.757 265.956 135.549 284.85 135.549 284.85L135.166 288.125C135.166 288.125 131.336 291.955 132.083 295.068C132.83 298.18 137.091 297.577 139.792 299.31C142.492 301.043 149.052 304.711 149.052 304.711C149.052 304.711 159.078 308.541 157.919 304.711C157.498 303.303 152.729 297.644 150.977 295.068C147.752 290.456 145.096 285.473 143.067 280.225C141.333 275.436 132.466 241.661 131.307 237.227C130.148 232.794 124.604 210.232 120.314 197.314C116.023 184.396 113.179 179.186 113.179 179.186L109.904 170.319L63.6321 170.692Z" fill="white"/>
<path d="M156.09 306.885C153.562 306.885 149.808 305.506 148.88 305.152C148.746 305.084 142.176 301.426 139.533 299.703C138.512 299.133 137.411 298.72 136.268 298.477C134.257 297.941 132.169 297.385 131.614 295.173C130.857 292.147 134.036 288.604 134.707 287.905L135.061 284.936C134.104 283.222 124.049 265.841 118.782 259.502C113.515 253.162 113.438 244.477 113.467 243.146L91.3746 211.314C89.4593 217.826 80.8408 246.67 79.4235 248.499C77.7381 250.606 68.2672 253.89 66.7637 254.082C66.5052 254.082 64.4176 254.695 61.7841 255.432C29.8763 264.309 15.5407 267.077 13.9032 264.673C13.4665 264.146 13.1502 263.531 12.9765 262.869C12.8028 262.207 12.7759 261.516 12.8977 260.842C13.0415 260.332 13.2848 259.856 13.6135 259.44C13.9422 259.024 14.3498 258.677 14.8129 258.42C14.9757 258.343 18.4136 256.734 20.0607 256.083C23.374 254.8 40.9942 242.973 43.6564 240.924C46.0313 239.095 58.0207 237.984 60.4626 237.773L62.1768 205.799C62.1768 205.799 61.018 197.304 60.635 190.228C60.2519 183.151 63.0386 171.123 63.1535 170.616C63.1774 170.512 63.236 170.419 63.3195 170.353C63.4031 170.287 63.5066 170.251 63.6132 170.252L109.895 169.869C109.992 169.869 110.086 169.899 110.167 169.953C110.247 170.008 110.309 170.085 110.345 170.175L113.62 179.052C113.62 179.052 116.56 184.405 120.764 197.199C124.403 208.288 129.038 226.454 131.01 234.221C131.346 235.504 131.595 236.509 131.767 237.141C131.863 237.515 141.669 274.967 143.507 280.1C145.518 285.313 148.155 290.262 151.36 294.838C152.011 295.796 153.074 297.165 154.233 298.621C156.579 301.656 158.14 303.715 158.408 304.606C158.537 304.904 158.574 305.233 158.514 305.552C158.455 305.871 158.301 306.165 158.073 306.396C157.494 306.796 156.789 306.97 156.09 306.885ZM91.2022 209.744C91.2788 209.744 91.3543 209.763 91.4225 209.798C91.4907 209.833 91.5497 209.883 91.5948 209.945L114.348 242.724C114.405 242.813 114.435 242.916 114.434 243.021C114.434 243.107 114.128 252.368 119.529 258.889C125.083 265.592 135.808 284.409 135.971 284.601C136.019 284.692 136.039 284.795 136.028 284.898L135.645 288.173C135.627 288.281 135.577 288.381 135.502 288.46C135.502 288.46 131.853 292.157 132.543 294.943C132.964 296.61 134.611 297.04 136.517 297.558C137.759 297.813 138.952 298.266 140.05 298.898C142.713 300.603 149.215 304.242 149.282 304.28C152.059 305.343 156.474 306.502 157.383 305.64C157.45 305.592 157.632 305.42 157.46 304.835C157.22 304.041 155.133 301.331 153.447 299.157C152.317 297.692 151.245 296.284 150.575 295.326C147.322 290.685 144.646 285.666 142.607 280.378C140.749 275.207 130.934 237.706 130.838 237.333L130.082 234.403C128.109 226.655 123.484 208.547 119.854 197.448C115.679 184.74 112.787 179.464 112.758 179.407L109.56 170.788L64.0058 171.171C63.5366 173.259 61.2479 183.84 61.5926 190.141C61.9757 197.17 63.1152 205.636 63.1344 205.722L61.4202 238.204C61.4136 238.32 61.3654 238.429 61.2844 238.512C61.2034 238.595 61.0952 238.645 60.9797 238.654C56.996 238.97 46.2228 240.129 44.2597 241.642C42.0189 243.366 24.0731 255.528 20.4246 256.964C18.8062 257.596 15.2917 259.243 15.2534 259.262C14.5541 259.652 14.0326 260.297 13.7978 261.063C13.7118 261.609 13.7452 262.168 13.8956 262.7C14.0461 263.232 14.31 263.726 14.6693 264.146C16.0004 266.062 31.7723 262.806 61.5926 254.522C64.9251 253.565 66.3807 253.182 66.7159 253.143C68.2193 252.961 77.2497 249.725 78.734 247.924C79.8257 246.564 86.5482 224.558 90.8 210.108C90.8253 210.02 90.8747 209.942 90.9423 209.881C91.01 209.82 91.0934 209.779 91.183 209.763L91.2022 209.744Z" fill="#3A3D3E"/>
<path d="M157.919 304.701C157.498 303.294 152.729 297.634 150.977 295.058C149.722 293.22 148.535 291.323 147.443 289.418C142.052 291.419 135.166 288.115 135.166 288.115C135.166 288.115 131.336 291.946 132.083 295.058C132.83 298.17 137.091 297.567 139.792 299.3C142.492 301.034 149.052 304.701 149.052 304.701C149.052 304.701 159.097 308.561 157.919 304.701Z" fill="white"/>
<path d="M156.09 306.885C153.562 306.885 149.808 305.506 148.88 305.151C148.745 305.084 142.176 301.426 139.533 299.703C138.512 299.133 137.411 298.72 136.268 298.477C134.257 297.941 132.169 297.385 131.614 295.173C130.79 291.869 134.659 287.943 134.831 287.78C134.901 287.71 134.991 287.663 135.089 287.645C135.187 287.628 135.287 287.642 135.377 287.684C135.444 287.684 142.138 290.873 147.271 288.968C147.377 288.93 147.494 288.93 147.601 288.968C147.707 289.007 147.797 289.081 147.855 289.178C148.918 291.036 150.105 292.923 151.369 294.79C152.021 295.748 153.083 297.117 154.242 298.573C156.588 301.608 158.149 303.667 158.417 304.558C158.546 304.856 158.584 305.185 158.524 305.504C158.464 305.823 158.31 306.117 158.082 306.349C157.508 306.768 156.798 306.959 156.09 306.885ZM135.281 288.69C134.496 289.542 131.949 292.52 132.543 294.934C132.964 296.6 134.611 297.031 136.517 297.548C137.759 297.803 138.952 298.256 140.05 298.889C142.712 300.593 149.215 304.232 149.282 304.27C152.059 305.333 156.473 306.492 157.383 305.63C157.45 305.582 157.632 305.41 157.46 304.826C157.22 304.031 155.123 301.321 153.447 299.147C152.317 297.682 151.245 296.274 150.575 295.317C149.368 293.545 148.238 291.764 147.213 289.992C142.387 291.572 136.689 289.312 135.281 288.7V288.69Z" fill="#3A3D3E"/>
<path d="M142.492 298.142C139.619 295.834 134.458 294.177 132.045 293.488C131.934 294.005 131.934 294.54 132.045 295.058C132.811 298.142 137.053 297.567 139.753 299.3C142.454 301.034 149.014 304.701 149.014 304.701C149.014 304.701 153.601 306.463 156.205 306.406C152.538 304.424 145.432 300.497 142.492 298.142Z" fill="white"/>
<path d="M156.129 306.894C153.447 306.894 149.062 305.218 148.88 305.151C148.698 305.084 142.176 301.426 139.533 299.702C138.512 299.133 137.411 298.72 136.268 298.477C134.257 297.94 132.169 297.385 131.614 295.173C131.493 294.592 131.493 293.992 131.614 293.411C131.623 293.343 131.647 293.279 131.686 293.222C131.724 293.166 131.775 293.119 131.834 293.085C131.89 293.048 131.953 293.023 132.019 293.013C132.085 293.003 132.153 293.008 132.217 293.028C134.937 293.804 139.935 295.46 142.827 297.768C145.892 300.22 153.419 304.337 156.512 305.984C156.605 306.036 156.678 306.116 156.721 306.213C156.764 306.309 156.775 306.417 156.751 306.521C156.726 306.624 156.667 306.715 156.584 306.781C156.5 306.847 156.398 306.883 156.292 306.885L156.129 306.894ZM149.282 304.28C150.759 304.824 152.268 305.275 153.802 305.63C150.163 303.638 144.724 300.545 142.195 298.515C139.667 296.485 134.851 294.819 132.466 294.11C132.452 294.39 132.478 294.67 132.543 294.943C132.964 296.609 134.611 297.04 136.517 297.557C137.759 297.813 138.952 298.265 140.05 298.898C142.713 300.603 149.215 304.242 149.282 304.28Z" fill="#3A3D3E"/>
<path d="M120.314 197.304C116.072 184.377 113.18 179.177 113.18 179.177L109.905 170.309L63.6324 170.692C63.6324 170.692 60.7595 183.036 61.1234 190.17C61.4873 197.304 62.6652 205.779 62.6652 205.779L61.1905 233.273L82.057 240.072C85.7151 228.887 91.2022 210.223 91.2022 210.223L111.571 239.564C118.008 237.725 124.156 234.992 129.833 231.444C127.601 222.7 123.56 207.187 120.314 197.304Z" fill="#DD7F34"/>
<path d="M82.0569 240.551C82.0095 240.56 81.9607 240.56 81.9132 240.551L61.0467 233.771C60.9458 233.739 60.8582 233.675 60.7976 233.588C60.737 233.502 60.7067 233.397 60.7116 233.292L62.1863 205.799C62.1863 205.799 61.0276 197.304 60.6445 190.228C60.2615 183.151 63.0481 171.123 63.1631 170.616C63.187 170.512 63.2455 170.419 63.3291 170.353C63.4126 170.287 63.5162 170.251 63.6227 170.252L109.904 169.869C110.001 169.869 110.096 169.899 110.176 169.953C110.256 170.008 110.318 170.085 110.355 170.175L113.63 179.052C113.63 179.052 116.569 184.405 120.773 197.199C124.317 207.982 128.817 225.583 130.292 231.367C130.319 231.465 130.313 231.568 130.277 231.663C130.241 231.758 130.176 231.838 130.091 231.894C124.376 235.469 118.187 238.222 111.705 240.072C111.608 240.101 111.505 240.098 111.41 240.063C111.315 240.029 111.234 239.965 111.178 239.88L91.3745 211.362C90.2062 215.327 85.6288 230.649 82.5165 240.273C82.4765 240.36 82.4113 240.433 82.3293 240.482C82.2474 240.532 82.1525 240.555 82.0569 240.551ZM61.6883 232.89L81.7983 239.43C85.4086 228.331 90.7329 210.232 90.7904 210.05C90.8157 209.963 90.865 209.884 90.9327 209.823C91.0004 209.762 91.0838 209.722 91.1734 209.706C91.2626 209.691 91.354 209.703 91.4371 209.738C91.5201 209.774 91.5914 209.832 91.6427 209.907L111.82 238.97C117.981 237.182 123.871 234.563 129.325 231.185C127.774 225.085 123.378 207.963 119.912 197.41C115.736 184.702 112.844 179.426 112.816 179.368L109.617 170.75L64.0632 171.133C63.594 173.22 61.3053 183.802 61.65 190.103C62.0331 197.132 63.1726 205.597 63.1918 205.684L61.6883 232.89Z" fill="#3A3D3E"/>
<path d="M91.2022 210.701H91.1065C91.0437 210.694 90.9831 210.675 90.9281 210.644C90.8731 210.613 90.825 210.571 90.7865 210.521C90.7481 210.471 90.7201 210.414 90.7043 210.352C90.6886 210.291 90.6853 210.228 90.6947 210.165L92.2365 198.406C92.2435 198.343 92.2631 198.282 92.2941 198.227C92.3251 198.172 92.3669 198.124 92.417 198.086C92.4671 198.047 92.5244 198.019 92.5855 198.004C92.6466 197.988 92.7103 197.984 92.7727 197.994C92.8984 198.011 93.0123 198.076 93.0894 198.177C93.1666 198.277 93.2008 198.404 93.1845 198.53L91.6427 210.29C91.626 210.398 91.5735 210.497 91.4936 210.572C91.4137 210.646 91.3112 210.692 91.2022 210.701Z" fill="#3A3D3E"/>
<path d="M93.711 207.81C93.6113 207.811 93.5136 207.781 93.4316 207.724C93.3496 207.668 93.2873 207.587 93.2536 207.493C93.2198 207.399 93.2162 207.297 93.2433 207.201C93.2704 207.105 93.3268 207.02 93.4046 206.957L99.3801 201.949C99.4265 201.9 99.4827 201.861 99.545 201.835C99.6073 201.81 99.6744 201.797 99.7418 201.799C99.8092 201.801 99.8755 201.817 99.9362 201.847C99.9969 201.876 100.051 201.918 100.094 201.969C100.138 202.021 100.17 202.081 100.188 202.146C100.207 202.211 100.212 202.279 100.202 202.346C100.192 202.413 100.169 202.476 100.133 202.534C100.097 202.591 100.049 202.639 99.993 202.677L93.9792 207.695C93.9043 207.76 93.8103 207.801 93.711 207.81Z" fill="#3A3D3E"/>
<path d="M83.685 221.111H83.5509L64.4656 215.71C64.4027 215.693 64.3438 215.664 64.2922 215.624C64.2406 215.584 64.1973 215.535 64.1648 215.478C64.1324 215.422 64.1114 215.359 64.103 215.295C64.0946 215.23 64.099 215.165 64.116 215.102C64.133 215.039 64.1622 214.98 64.2019 214.928C64.2417 214.877 64.2912 214.833 64.3477 214.801C64.4041 214.769 64.4664 214.748 64.531 214.739C64.5956 214.731 64.6612 214.735 64.7241 214.752L83.1295 219.952C83.0137 219.217 83.0365 218.467 83.1966 217.74C81.2047 217.108 73.2278 215.154 68.1428 213.91C68.0204 213.876 67.9155 213.796 67.8497 213.688C67.7838 213.579 67.7619 213.45 67.7885 213.325C67.8202 213.202 67.8991 213.095 68.0083 213.029C68.1175 212.963 68.2483 212.942 68.3726 212.971C84.3362 216.802 84.3457 216.993 84.3649 217.453C84.3696 217.541 84.3497 217.629 84.3074 217.707C84.2652 217.785 84.2022 217.849 84.1255 217.893C83.9834 218.759 83.9834 219.642 84.1255 220.508C84.1387 220.587 84.1305 220.669 84.102 220.745C84.0734 220.821 84.0253 220.887 83.9627 220.938C83.895 221.029 83.7959 221.09 83.685 221.111Z" fill="#3A3D3E"/>
<path d="M78.801 236.059C78.0828 236.059 76.1101 235.619 69.6749 233.311C69.5589 233.265 69.4653 233.176 69.414 233.062C69.3627 232.949 69.3577 232.82 69.4001 232.702C69.4425 232.585 69.529 232.489 69.6411 232.435C69.7532 232.38 69.8821 232.372 70.0004 232.411C76.292 234.671 78.1306 235.054 78.619 235.102C79.1553 233.253 82.0665 224.941 82.4495 223.945C82.4929 223.826 82.5812 223.728 82.6957 223.672C82.8101 223.617 82.9417 223.608 83.0624 223.648C83.1223 223.669 83.1774 223.701 83.2245 223.743C83.2716 223.785 83.3098 223.836 83.3366 223.894C83.3634 223.951 83.3784 224.013 83.3807 224.076C83.3829 224.139 83.3724 224.202 83.3497 224.261C82.3346 227.134 79.6724 234.795 79.5192 235.571C79.4701 235.728 79.3687 235.863 79.2319 235.954C79.102 236.031 78.9519 236.068 78.801 236.059Z" fill="#3A3D3E"/>
<path d="M67.7213 232.574H67.5489C64.8292 231.568 62.6842 230.744 62.6842 230.744C62.587 230.707 62.5045 230.64 62.4492 230.552C62.3939 230.463 62.3688 230.36 62.3777 230.256L63.5365 218.449C63.5479 218.322 63.6093 218.204 63.7072 218.123C63.805 218.041 63.9314 218.001 64.0584 218.013C64.1853 218.024 64.3026 218.086 64.3843 218.184C64.466 218.281 64.5055 218.408 64.4941 218.535L63.3354 229.94C64.0344 230.208 65.7677 230.898 67.8457 231.625C67.9651 231.669 68.0624 231.758 68.1162 231.872C68.1701 231.987 68.1762 232.119 68.133 232.238C68.103 232.327 68.0484 232.406 67.9755 232.465C67.9027 232.525 67.8145 232.562 67.7213 232.574Z" fill="#3A3D3E"/>
<path d="M66.9073 188.331C66.8074 188.332 66.7099 188.301 66.6289 188.242C66.548 188.184 66.4878 188.101 66.4572 188.006C66.4172 187.885 66.4258 187.754 66.4812 187.639C66.5367 187.525 66.6346 187.436 66.7541 187.393L67.0893 187.307C68.9098 186.876 70.5422 185.868 71.7433 184.434C73.0974 182.736 74.1767 180.836 74.9417 178.803C74.9911 178.694 75.0795 178.607 75.1897 178.56C75.2998 178.513 75.4236 178.509 75.5367 178.549C75.6497 178.588 75.7438 178.669 75.8003 178.774C75.8568 178.88 75.8716 179.003 75.8419 179.119C75.0489 181.267 73.9138 183.271 72.4807 185.056C71.1481 186.635 69.3408 187.74 67.3287 188.207L67.0605 188.284C67.0129 188.309 66.9609 188.325 66.9073 188.331Z" fill="#3A3D3E"/>
<path d="M65.7486 211.276C65.683 211.28 65.6172 211.27 65.5556 211.247C65.494 211.224 65.4379 211.189 65.3909 211.143C65.344 211.097 65.3072 211.041 65.2831 210.98C65.2589 210.919 65.2479 210.853 65.2507 210.788C65.2507 210.788 65.3464 209.897 65.4709 208.413C65.4811 208.286 65.5413 208.168 65.6383 208.085C65.7352 208.003 65.861 207.962 65.988 207.972C66.115 207.982 66.2328 208.043 66.3154 208.14C66.398 208.237 66.4387 208.362 66.4285 208.489C66.2945 210.002 66.1987 210.903 66.1987 210.903C66.174 211.005 66.1169 211.097 66.0358 211.164C65.9546 211.231 65.8539 211.271 65.7486 211.276Z" fill="#3A3D3E"/>
<path d="M66.1412 206.842C66.0783 206.837 66.0169 206.82 65.9606 206.791C65.9044 206.763 65.8543 206.723 65.8134 206.675C65.7724 206.627 65.7414 206.572 65.7221 206.511C65.7027 206.451 65.6955 206.388 65.7007 206.325C65.8511 202.613 65.5293 198.896 64.7431 195.265C63.7855 190.017 66.9265 178.2 67.0605 177.702C67.076 177.641 67.1036 177.584 67.1416 177.534C67.1796 177.484 67.2272 177.442 67.2817 177.411C67.3362 177.379 67.3964 177.359 67.4587 177.352C67.5211 177.344 67.5843 177.349 67.6447 177.367C67.7057 177.382 67.7631 177.41 67.8135 177.448C67.8639 177.486 67.9063 177.533 67.9383 177.587C67.9703 177.641 67.9913 177.702 68.0001 177.764C68.0089 177.826 68.0052 177.89 67.9894 177.951C67.9894 178.066 64.7527 190.055 65.6815 195.092C66.4831 198.802 66.805 202.6 66.6392 206.392C66.6367 206.455 66.6218 206.516 66.5954 206.573C66.5689 206.629 66.5313 206.68 66.4849 206.722C66.4385 206.764 66.3842 206.796 66.3252 206.817C66.2662 206.837 66.2036 206.846 66.1412 206.842Z" fill="#3A3D3E"/>
<path d="M97.8098 194.882C97.756 194.891 97.7009 194.891 97.647 194.882C97.5872 194.861 97.532 194.829 97.4849 194.787C97.4378 194.745 97.3997 194.694 97.3728 194.636C97.346 194.579 97.331 194.517 97.3288 194.454C97.3265 194.391 97.3371 194.328 97.3598 194.269C97.3598 194.269 98.1258 192.143 98.6908 190.065C98.7675 189.797 98.6908 189.701 98.643 189.663C98.1642 189.145 96.0765 189.27 94.8125 189.509C94.7251 189.526 94.6349 189.517 94.552 189.485C94.4692 189.453 94.3969 189.398 94.3433 189.327C94.2869 189.258 94.2523 189.174 94.2438 189.086C94.2352 188.997 94.2532 188.908 94.2954 188.829L97.762 181.695C97.7885 181.638 97.8265 181.586 97.8735 181.544C97.9205 181.501 97.9757 181.468 98.0357 181.448C98.0956 181.427 98.1592 181.419 98.2224 181.424C98.2856 181.428 98.3472 181.446 98.4036 181.475C98.4602 181.502 98.5109 181.541 98.5527 181.588C98.5944 181.635 98.6264 181.69 98.6469 181.75C98.6674 181.81 98.6759 181.873 98.6719 181.936C98.6679 181.998 98.6516 182.06 98.6238 182.117L95.5499 188.427C96.7277 188.284 98.6047 188.207 99.3803 189.011C99.537 189.187 99.6443 189.401 99.6914 189.631C99.7385 189.862 99.7237 190.1 99.6485 190.323C99.0739 192.44 98.2886 194.575 98.2886 194.604C98.2463 194.693 98.1779 194.768 98.0924 194.817C98.0069 194.867 97.9084 194.889 97.8098 194.882Z" fill="#3A3D3E"/>
<path d="M111.638 236.145C111.56 236.147 111.482 236.129 111.414 236.092C111.345 236.055 111.287 236.001 111.245 235.935L108.535 231.855C108.501 231.802 108.477 231.743 108.465 231.681C108.453 231.619 108.454 231.555 108.467 231.494C108.48 231.432 108.505 231.373 108.54 231.321C108.576 231.269 108.621 231.224 108.674 231.19C108.727 231.155 108.786 231.131 108.848 231.119C108.91 231.108 108.974 231.108 109.035 231.121C109.097 231.134 109.156 231.159 109.208 231.195C109.26 231.23 109.305 231.276 109.339 231.329L112.04 235.446C112.109 235.552 112.134 235.68 112.109 235.804C112.084 235.928 112.011 236.037 111.906 236.107C111.822 236.146 111.729 236.16 111.638 236.145Z" fill="#3A3D3E"/>
<path d="M107.501 229.844C107.422 229.844 107.344 229.824 107.274 229.787C107.204 229.751 107.144 229.698 107.099 229.634L93.8835 209.524C93.8136 209.417 93.789 209.287 93.8151 209.162C93.8411 209.037 93.9157 208.928 94.0223 208.858C94.129 208.788 94.259 208.764 94.3839 208.79C94.5087 208.816 94.618 208.89 94.6879 208.997L107.903 229.107C107.938 229.159 107.962 229.218 107.974 229.28C107.986 229.342 107.985 229.406 107.972 229.468C107.958 229.53 107.933 229.588 107.896 229.639C107.86 229.691 107.813 229.735 107.759 229.768C107.684 229.82 107.593 229.847 107.501 229.844Z" fill="#3A3D3E"/>
<path d="M67.5586 100.824C67.5586 100.824 60.3381 102.069 59.505 102.069C58.6719 102.069 51.1641 101.38 50.0533 102.347C48.9424 103.314 22.8186 131.803 22.8186 131.803L32.6917 139.167L53.7593 128.748L56.5364 128.882L64.8677 166.957C64.8677 166.957 62.7896 171.535 63.2014 172.646C63.6259 173.478 64.2472 174.195 65.0113 174.733C65.0113 174.733 86.3183 180.565 92.064 180.431C97.8098 180.297 107.759 177.51 109.014 176.821C110.268 176.131 113.314 173.479 112.758 170.979C112.203 168.48 110.68 163.481 110.68 163.481L106.601 107.365L122.018 74.2982L110.766 66.1871L93.5292 86.6132C93.5292 86.6132 81.0227 93.5559 80.3332 94.8104C79.6437 96.0649 67.5586 100.824 67.5586 100.824Z" fill="#ADADAD"/>
<path d="M91.8054 180.91C85.8299 180.91 65.7965 175.432 64.9346 175.164C64.8797 175.152 64.8277 175.129 64.7814 175.097C63.9415 174.505 63.2633 173.711 62.8087 172.789C62.3682 171.631 63.8525 168.135 64.4175 166.871L56.1916 129.39L53.9028 129.275L32.9023 139.598C32.8269 139.643 32.7409 139.666 32.6533 139.666C32.5657 139.666 32.4797 139.643 32.4043 139.598L22.5312 132.234C22.4791 132.194 22.436 132.144 22.4047 132.086C22.3733 132.028 22.3545 131.964 22.3493 131.899C22.3411 131.831 22.348 131.763 22.3695 131.698C22.3911 131.634 22.4267 131.575 22.4738 131.525C23.5367 130.367 48.6168 103.017 49.7372 102.031C50.6182 101.265 53.8741 101.303 58.4898 101.581L59.5049 101.619C60.0795 101.619 64.542 100.882 67.434 100.384C73.1797 98.1237 79.4521 95.3658 79.8831 94.638C80.6013 93.3548 90.9148 87.5612 93.194 86.2971L110.364 65.9477C110.441 65.8557 110.549 65.7957 110.668 65.7798C110.787 65.7638 110.907 65.793 111.006 65.8615L122.267 73.9247C122.357 73.9913 122.421 74.0865 122.449 74.1945C122.477 74.3025 122.467 74.4168 122.421 74.5184L107.051 107.47L111.063 163.424C111.236 163.989 112.614 168.528 113.141 170.903C113.764 173.718 110.441 176.553 109.157 177.261C107.874 177.97 97.666 180.795 91.9874 180.939L91.8054 180.91ZM65.2506 174.293C66.7254 174.695 86.5672 180.096 91.9778 179.952C97.6756 179.809 107.625 177.003 108.707 176.4C109.79 175.796 112.729 173.335 112.231 171.085C111.686 168.633 110.173 163.673 110.153 163.615C110.148 163.58 110.148 163.545 110.153 163.51L106.122 107.365C106.104 107.286 106.104 107.204 106.122 107.125L121.377 74.4227L110.843 66.8479L93.893 86.9579C93.8596 87.0054 93.813 87.042 93.759 87.0632C88.6549 89.9361 81.2429 94.2645 80.7545 95.0785C80.0267 96.3809 70.5942 100.144 67.7213 101.265H67.6351C66.8882 101.389 60.338 102.519 59.4953 102.519C59.3325 102.519 58.9495 102.519 58.4228 102.462C53.5773 102.165 50.8672 102.241 50.3597 102.682C49.5074 103.429 32.6437 121.767 23.5463 131.707L32.749 138.574L53.606 128.289C53.6808 128.265 53.761 128.265 53.8358 128.289L56.6129 128.423C56.7195 128.429 56.8212 128.469 56.9025 128.539C56.9837 128.608 57.0401 128.702 57.063 128.806L65.3943 166.871C65.4271 166.967 65.4271 167.072 65.3943 167.168C64.4367 169.284 63.479 171.956 63.7376 172.502C64.0935 173.21 64.612 173.824 65.2506 174.293Z" fill="#3A3D3E"/>
<path d="M106.601 107.824C106.481 107.825 106.366 107.779 106.279 107.697C106.191 107.615 106.139 107.503 106.131 107.384L105.174 91.679C105.166 91.552 105.209 91.4272 105.294 91.332C105.378 91.2368 105.497 91.1791 105.624 91.1714C105.751 91.1638 105.876 91.207 105.971 91.2914C106.066 91.3758 106.124 91.4945 106.131 91.6215L106.706 100.767L107.817 87.4367C107.831 87.3123 107.893 87.1982 107.989 87.118C108.085 87.0378 108.209 86.9976 108.334 87.0058C108.397 87.0106 108.458 87.0279 108.514 87.0565C108.571 87.0852 108.621 87.1247 108.662 87.1727C108.703 87.2208 108.734 87.2765 108.753 87.3366C108.772 87.3967 108.78 87.46 108.774 87.5229L107.079 107.365C107.078 107.426 107.065 107.487 107.04 107.544C107.015 107.6 106.98 107.651 106.935 107.694C106.891 107.736 106.838 107.77 106.781 107.792C106.723 107.815 106.662 107.826 106.601 107.824Z" fill="#3A3D3E"/>
<path d="M62.9716 133.671C62.8757 133.669 62.7824 133.639 62.7035 133.584L56.3161 129.285C56.2267 129.225 56.1601 129.136 56.1271 129.034C56.094 128.931 56.0966 128.821 56.1342 128.72C56.1722 128.622 56.2422 128.541 56.3327 128.489C56.4232 128.436 56.5289 128.417 56.6322 128.432L65.8061 129.39C65.9317 129.405 66.0464 129.468 66.1253 129.567C66.2042 129.665 66.241 129.791 66.2275 129.917C66.2131 130.042 66.1496 130.157 66.0509 130.236C65.9523 130.315 65.8264 130.352 65.7008 130.338L58.4516 129.572L63.2397 132.809C63.3447 132.879 63.4177 132.988 63.4428 133.112C63.4679 133.235 63.4431 133.364 63.3738 133.47C63.3272 133.532 63.2666 133.583 63.1967 133.618C63.1268 133.653 63.0497 133.671 62.9716 133.671Z" fill="#3A3D3E"/>
<path d="M102.1 131.775C101.976 131.775 101.857 131.727 101.768 131.641C101.679 131.555 101.626 131.439 101.621 131.315C101.248 121.93 94.6208 99.2059 94.5634 98.9856C94.5442 98.9259 94.5373 98.863 94.5429 98.8006C94.5485 98.7381 94.5666 98.6774 94.596 98.6221C94.6255 98.5667 94.6657 98.5178 94.7144 98.4783C94.7631 98.4388 94.8192 98.4094 94.8794 98.3919C94.9404 98.3729 95.0045 98.3662 95.0681 98.3723C95.1317 98.3784 95.1934 98.3972 95.2497 98.4276C95.3059 98.4579 95.3555 98.4992 95.3955 98.549C95.4355 98.5988 95.4652 98.6561 95.4827 98.7175C95.7508 99.6751 102.186 121.777 102.579 131.277C102.581 131.339 102.571 131.402 102.55 131.461C102.528 131.52 102.495 131.575 102.452 131.621C102.409 131.667 102.358 131.704 102.301 131.731C102.244 131.757 102.182 131.772 102.119 131.775H102.1Z" fill="#3A3D3E"/>
<path d="M94.6878 140.01H94.592C94.4688 139.982 94.361 139.908 94.2914 139.803C94.2218 139.697 94.1957 139.569 94.2185 139.445C95.8866 131.177 96.7684 122.77 96.852 114.336C96.852 114.208 96.9021 114.086 96.9916 113.994C97.0812 113.903 97.2029 113.85 97.3308 113.848C97.394 113.847 97.4569 113.858 97.5156 113.882C97.5742 113.905 97.6275 113.94 97.6723 113.985C97.717 114.03 97.7522 114.083 97.7758 114.142C97.7994 114.201 97.8109 114.263 97.8096 114.327C97.7273 122.821 96.8424 131.289 95.1666 139.617C95.1462 139.729 95.0869 139.83 94.9992 139.902C94.9115 139.973 94.8011 140.012 94.6878 140.01Z" fill="#3A3D3E"/>
<path d="M88.7601 91.4396C88.7601 91.4396 95.0613 95.6819 91.7766 119.402C88.492 143.122 56.6895 175.701 56.6895 175.701L61.1232 178.209C61.1232 178.209 79.8255 158.54 87.5344 141.571C95.2432 124.602 96.603 110.142 96.22 105.517C95.8369 100.891 92.5523 89.8978 92.5523 89.8978L88.7601 91.4396Z" fill="#3A3D3E"/>
<path d="M61.1233 178.688C61.0402 178.688 60.9583 178.668 60.8839 178.631L56.4501 176.122C56.3873 176.083 56.3334 176.032 56.2921 175.971C56.2508 175.91 56.2231 175.84 56.2107 175.768C56.2021 175.695 56.2097 175.621 56.2328 175.551C56.256 175.482 56.2942 175.418 56.3448 175.365C56.6608 175.049 88.0899 142.624 91.3075 119.335C94.4868 96.3522 88.5495 91.8801 88.4346 91.8322C88.3648 91.7826 88.3096 91.7151 88.2748 91.6369C88.2399 91.5587 88.2267 91.4725 88.2365 91.3874C88.2463 91.3023 88.2787 91.2214 88.3304 91.1531C88.3821 91.0848 88.4511 91.0316 88.5304 90.9991L92.3609 89.4574C92.423 89.4313 92.4898 89.4178 92.5572 89.4178C92.6246 89.4178 92.6913 89.4313 92.7535 89.4574C92.813 89.4872 92.8659 89.529 92.9087 89.58C92.9515 89.6311 92.9834 89.6904 93.0025 89.7542C93.1365 90.2043 96.2967 100.843 96.6797 105.469C97.0149 109.491 96.1052 123.855 87.9654 141.763C80.3044 158.607 61.65 178.334 61.4585 178.535C61.3711 178.628 61.2508 178.683 61.1233 178.688ZM57.4556 175.595L61.0276 177.606C63.2971 175.183 79.998 157.008 87.1035 141.379C95.1188 123.74 96.0477 109.242 95.7221 105.555C95.3869 101.59 92.8492 92.7516 92.2268 90.5395L89.6029 91.6024C91.1543 93.3644 94.9464 99.8475 92.2364 119.469C89.1911 141.561 61.2765 171.573 57.4556 175.595Z" fill="#3A3D3E"/>
<path d="M70.3259 93.1537C70.3259 93.1537 67.4531 93.9964 66.8498 95.7967C66.2465 97.597 64.6855 101.188 64.6855 101.188C64.6855 101.188 68.6405 108.025 71.0441 111.262C73.4478 114.499 76.1961 120.369 77.0388 119.048C77.8815 117.726 82.0663 110.056 82.1908 109.471C82.4235 108.711 82.9371 108.067 83.6273 107.671C84.1061 107.547 92.5044 110.783 94.0557 111.147C95.6071 111.511 94.8984 110.305 94.1802 108.389C93.462 106.474 87.1034 98.2003 85.4276 96.2851C83.7517 94.3698 71.8773 91.9566 70.3259 93.1537Z" fill="#ADADAD"/>
<path d="M76.7421 119.718C75.8419 119.718 74.8268 118.196 73.1031 115.284C72.2987 113.972 71.4656 112.613 70.6803 111.54C68.2671 108.322 64.293 101.495 64.293 101.428C64.2601 101.361 64.2429 101.287 64.2429 101.212C64.2429 101.137 64.2601 101.064 64.293 100.997C64.293 100.997 65.8539 97.396 66.4381 95.6436C67.0222 93.8911 69.6748 92.8761 70.1632 92.7707C72.2317 91.4971 83.9912 93.9007 85.8394 96.0075C87.544 97.9227 93.9313 106.273 94.6783 108.265C94.7836 108.543 94.8794 108.801 94.9847 109.05C95.4348 110.19 95.7317 110.966 95.3103 111.435C95.1311 111.585 94.915 111.685 94.6843 111.723C94.4537 111.762 94.2168 111.739 93.9984 111.655C93.2706 111.483 91.2021 110.697 89.0188 109.97C86.8354 109.242 84.1157 108.217 83.704 108.188C83.2659 108.569 82.9356 109.057 82.7463 109.606C82.6027 110.343 78.3126 118.119 77.5273 119.354C77.4431 119.482 77.325 119.583 77.1863 119.648C77.0477 119.712 76.8938 119.736 76.7421 119.718ZM65.2506 101.159C65.9305 102.328 69.3301 108.112 71.456 110.975C72.27 112.076 73.1127 113.455 73.9267 114.806C74.8843 116.347 76.1483 118.435 76.7038 118.751C77.6614 117.209 81.578 110.008 81.7504 109.376C81.8856 108.912 82.1142 108.481 82.4222 108.109C82.7301 107.737 83.1109 107.431 83.5412 107.212C83.8572 107.135 84.4988 107.307 89.2869 109.031C91.3553 109.768 93.4908 110.535 94.1612 110.688C94.2741 110.717 94.3895 110.737 94.5059 110.745C94.3937 110.276 94.2398 109.818 94.0463 109.376C93.9441 109.114 93.8388 108.846 93.7302 108.571C93.0695 106.8 86.9503 98.7559 85.0638 96.6108C83.4167 94.6956 71.8008 92.6367 70.6133 93.556C70.5675 93.5909 70.5155 93.6169 70.4601 93.6326C70.4601 93.6326 67.8075 94.4274 67.2999 95.9596C66.7924 97.4918 65.5762 100.336 65.2506 101.159Z" fill="#3A3D3E"/>
<path d="M61.9562 78.0425C60.0761 74.6101 58.7815 70.8882 58.1257 67.0299C57.1681 60.9298 61.4774 54.2265 62.9138 53.9871C64.3503 53.7477 64.7046 56.6205 64.7046 56.6205C64.7046 56.6205 75.7172 45.0142 79.7871 46.4506C83.857 47.8871 80.3808 51.6026 80.3808 51.6026C80.3808 51.6026 89.5931 49.2086 88.76 54.1116C87.9268 59.0146 86.2414 59.4934 86.2414 59.4934C82.623 59.3775 79.0364 60.2024 75.8321 61.8875C69.9715 64.7603 69.4927 65.2391 70.0864 66.4361C70.6801 67.6332 70.9195 66.915 69.4831 71.4636C68.0467 76.0123 67.5679 76.8455 68.8894 79.4789C70.2109 82.1124 70.3258 82.2273 68.7649 82.4667C67.204 82.7061 64.3407 80.0726 64.3407 80.0726L61.9562 78.0425Z" fill="#3A3D3E"/>
<path d="M68.5833 82.955C66.8405 82.955 64.3219 80.6951 64.0251 80.4269L61.6502 78.4063C61.6075 78.3719 61.5717 78.3297 61.5448 78.2819C59.6286 74.816 58.314 71.0502 57.6569 67.1448C56.6993 60.9106 60.9511 53.8721 62.8376 53.5561C63.0304 53.5222 63.2282 53.5294 63.4179 53.5772C63.6077 53.6251 63.7853 53.7126 63.9389 53.8338C64.4733 54.3218 64.8417 54.9647 64.9923 55.6725C67.5587 53.0582 76.1389 44.6982 79.9407 46.0388C80.4593 46.1621 80.9373 46.4173 81.3282 46.7797C81.7192 47.1422 82.0098 47.5995 82.1719 48.1073C82.3114 49.0745 82.0824 50.0589 81.5303 50.8652C83.4456 50.5205 86.9217 50.1279 88.4922 51.5643C88.836 51.8977 89.086 52.3156 89.2171 52.7762C89.3482 53.2368 89.3558 53.7237 89.2392 54.1882C88.3773 59.2444 86.5866 59.9339 86.3663 59.9339C86.3061 59.9439 86.2446 59.9439 86.1844 59.9339C82.656 59.8366 79.1615 60.6443 76.0336 62.28C72.4425 64.0421 70.5848 65.038 70.3837 65.6413C70.3837 65.7466 70.3837 65.8711 70.5081 66.1776C70.5848 66.3404 70.6614 66.4553 70.7188 66.5606C71.2455 67.4416 71.1976 67.6044 69.9432 71.5689L69.5793 72.6894C68.4397 76.2613 68.2003 76.9987 69.3111 79.2203L69.4452 79.4885C70.2592 81.1068 70.5656 81.7101 70.2879 82.2464C70.0102 82.7827 69.4548 82.8018 68.8419 82.8976C68.758 82.9257 68.6713 82.945 68.5833 82.955ZM62.378 77.7264L64.705 79.7087C65.7679 80.6663 67.8077 82.1506 68.7557 81.9974C69.0174 81.9672 69.2745 81.9061 69.5218 81.8155C69.2701 81.1757 68.9791 80.552 68.6504 79.9481L68.5163 79.6896C67.2331 77.1136 67.5587 76.0315 68.727 72.4404L69.0909 71.3104C70.2592 67.6044 70.2496 67.5948 69.9527 67.0873C69.8857 66.9628 69.7995 66.8287 69.7133 66.6468C69.5965 66.4587 69.5199 66.2483 69.4886 66.0291C69.4573 65.8098 69.4719 65.5865 69.5314 65.3731C69.8474 64.4155 71.2742 63.6111 75.6697 61.4565C78.9178 59.7634 82.5416 58.92 86.2035 59.005C86.4621 58.8518 87.6591 57.9516 88.3199 54.0349C88.4068 53.7261 88.411 53.3999 88.332 53.0889C88.253 52.7779 88.0936 52.4932 87.8698 52.2634C86.4046 50.9227 82.1241 51.66 80.544 52.0622C80.4429 52.0895 80.3356 52.0829 80.2386 52.0434C80.1416 52.0039 80.0602 51.9336 80.0069 51.8434C79.9537 51.7532 79.9315 51.648 79.9437 51.544C79.956 51.4399 80.002 51.3428 80.0748 51.2674C80.4961 50.8173 81.5399 49.3522 81.2814 48.2988C81.1281 47.6955 80.5823 47.2358 79.663 46.9007C76.5603 45.809 68.0949 53.786 65.0976 56.9557C65.0343 57.0206 64.9542 57.0666 64.8663 57.0886C64.7783 57.1106 64.686 57.1077 64.5996 57.0802C64.5127 57.0542 64.4353 57.003 64.3774 56.9332C64.3194 56.8633 64.2835 56.7778 64.2741 56.6875C64.208 55.9064 63.9038 55.1644 63.4026 54.5616C63.3529 54.5164 63.2929 54.484 63.2278 54.4673C63.1627 54.4506 63.0945 54.4501 63.0291 54.4659C61.9279 54.6478 57.7144 61.0734 58.6432 66.9149C59.2886 70.6987 60.5502 74.3511 62.378 77.7264Z" fill="#3A3D3E"/>
<path d="M69.6175 63.3143C69.6175 63.3143 64.59 70.1325 65.6626 69.8931C66.7351 69.6537 68.7748 67.499 68.6599 69.6537C68.545 71.8083 65.902 75.16 66.2659 75.8782C66.6298 76.5964 68.6599 80.1875 67.8172 80.6663C66.9745 81.1451 66.5053 81.26 66.1414 80.9057C65.7775 80.5514 63.9867 78.5117 61.9566 78.0329C59.9264 77.554 58.6049 81.0206 59.687 83.5296C60.7691 86.0386 66.5053 87.3601 66.5053 87.3601L69.1387 88.0783L69.6175 95.7392C69.6175 95.7392 78.351 106.407 80.0268 108.322C81.7027 110.238 83.9722 112.383 84.4511 111.071C84.9299 109.759 88.7603 91.4491 88.7603 91.4491C88.7603 91.4491 94.9753 90.2521 95.3392 86.0673C95.7031 81.8825 94.7359 72.5457 91.6332 66.8C88.5305 61.0543 87.1994 59.2635 82.4209 59.0241C77.6424 58.7847 70.8146 61.399 69.6175 63.3143Z" fill="white"/>
<path d="M83.8954 111.952C83.3975 111.952 82.2579 111.597 79.6627 108.629C78.0061 106.714 69.33 96.1798 69.2438 96.0553C69.179 95.9769 69.1419 95.8793 69.1385 95.7776L68.6788 88.4614L66.3806 87.8294C66.1507 87.8294 60.405 86.4408 59.2463 83.7308C58.8797 82.8648 58.7427 81.919 58.8484 80.9847C58.954 80.0503 59.2989 79.159 59.8496 78.3968C60.0998 78.0611 60.4417 77.8047 60.8341 77.6586C61.2266 77.5125 61.6528 77.4829 62.0617 77.5733C63.7262 78.1289 65.211 79.121 66.3614 80.4461L66.4859 80.5706C66.5529 80.6376 66.6774 80.7717 67.5776 80.2546C67.5776 80.1397 67.5776 79.4406 66.0262 76.472L65.8347 76.0985C65.5762 75.5718 65.9305 74.844 66.7061 73.3693C67.4217 72.2249 67.9215 70.9591 68.1809 69.6346C68.2214 69.4776 68.2214 69.3128 68.1809 69.1558C67.821 69.3248 67.4724 69.5168 67.1371 69.7304C66.7314 70.0095 66.2858 70.2258 65.8156 70.372C65.6984 70.4025 65.5746 70.3958 65.4614 70.3529C65.3482 70.3101 65.2511 70.233 65.1835 70.1326C64.992 69.8453 64.6473 69.3186 69.263 63.0557C70.5941 60.9777 77.6326 58.2676 82.4877 58.5358C87.3428 58.8039 88.9229 60.7 92.0639 66.5606C95.1283 72.2202 96.22 81.5474 95.8369 86.0961C95.4922 90.0798 90.5126 91.5258 89.1815 91.8418C88.6644 94.3124 85.351 109.97 84.9201 111.224C84.8653 111.399 84.7644 111.557 84.628 111.68C84.4915 111.803 84.3245 111.887 84.1444 111.923C84.0626 111.941 83.9792 111.951 83.8954 111.952ZM70.0865 95.5669C71.0442 96.7448 78.8296 106.216 80.381 108.016C82.5548 110.496 83.7326 111.1 83.9529 111.004C83.9734 110.978 83.9895 110.949 84.0008 110.918C84.3646 109.902 86.9694 97.6833 88.2909 91.363C88.3085 91.2704 88.3535 91.1853 88.4201 91.1187C88.4867 91.0521 88.5718 91.0071 88.6644 90.9895C88.7218 90.9895 94.5346 89.8116 94.8602 86.0386C95.2432 81.5953 94.1802 72.5362 91.2116 67.0394C88.0132 61.1405 86.8162 59.7328 82.392 59.5126C77.6039 59.2732 71.0633 61.9258 70.0195 63.592C68.6965 65.3495 67.4659 67.1746 66.3327 69.06L66.6104 68.8877C67.3765 68.428 68.0947 67.9971 68.6788 68.3418C69.263 68.6866 69.1672 69.4239 69.1577 69.6729C68.8993 71.1369 68.3629 72.5379 67.5776 73.8002C67.2091 74.3976 66.9224 75.0418 66.7253 75.7155L66.8977 76.0123C68.3628 78.8086 69.0332 80.5323 68.0755 81.0781C67.3286 81.4995 66.4859 81.9017 65.8251 81.2409L65.6911 81.0973C64.6578 79.916 63.339 79.0193 61.8606 78.4926C61.621 78.4442 61.3724 78.4674 61.1459 78.5594C60.9194 78.6514 60.725 78.808 60.587 79.0097C60.1504 79.6354 59.8801 80.3617 59.8014 81.1205C59.7227 81.8794 59.8381 82.6457 60.1369 83.3477C60.9413 85.2629 65.0878 86.5461 66.62 86.8909L69.2726 87.6187C69.3673 87.6481 69.4513 87.7045 69.5142 87.7811C69.5772 87.8577 69.6164 87.951 69.6269 88.0496L70.0865 95.5669Z" fill="#3A3D3E"/>
<path d="M88.76 91.4396L77.2686 91.3247L87.4385 97.6641L88.76 91.4396Z" fill="#3A3D3E"/>
<path d="M87.4385 98.1429C87.3501 98.1408 87.2639 98.1143 87.1896 98.0663L77.0197 91.7268C76.9303 91.6708 76.8615 91.5873 76.8235 91.4889C76.7856 91.3906 76.7805 91.2825 76.809 91.181C76.8471 91.0862 76.9116 91.0043 76.9947 90.945C77.0778 90.8856 77.1762 90.8512 77.2782 90.8458L88.7696 90.9607C88.8406 90.9607 88.9108 90.9765 88.9749 91.0069C89.0391 91.0374 89.0957 91.0817 89.1406 91.1367C89.1855 91.1917 89.2176 91.256 89.2346 91.3249C89.2516 91.3939 89.2531 91.4657 89.2389 91.5353L87.9174 97.7598C87.9022 97.8354 87.8691 97.9062 87.8207 97.9662C87.7724 98.0263 87.7103 98.0737 87.6397 98.1046C87.5752 98.1284 87.5072 98.1413 87.4385 98.1429ZM78.9732 91.813L87.113 96.8884L88.1663 91.9088L78.9732 91.813Z" fill="#3A3D3E"/>
<path d="M89.9573 73.9727C89.8887 73.9721 89.821 73.9573 89.7584 73.9293C89.6957 73.9013 89.6396 73.8606 89.5934 73.8099C89.5112 73.7127 89.4702 73.5872 89.4791 73.4602C89.4881 73.3332 89.5463 73.2147 89.6413 73.13C91.3554 71.6361 92.8014 69.9411 92.744 69.5006C92.3801 69.0888 88.9135 68.4951 85.964 68.227C85.9015 68.2222 85.8405 68.2049 85.7847 68.1761C85.7289 68.1474 85.6795 68.1077 85.6393 68.0595C85.5991 68.0113 85.569 67.9555 85.5508 67.8954C85.5325 67.8354 85.5265 67.7723 85.5331 67.7098C85.5379 67.6469 85.5552 67.5855 85.5838 67.5293C85.6125 67.473 85.652 67.423 85.7 67.382C85.7481 67.3411 85.8038 67.31 85.8639 67.2907C85.924 67.2714 85.9873 67.2641 86.0502 67.2694C88.6454 67.5088 93.0887 68.0546 93.6154 69.0888C94.1421 70.1231 91.7576 72.5554 90.2637 73.8769C90.176 73.9439 90.0675 73.9778 89.9573 73.9727Z" fill="#3A3D3E"/>
<path d="M82.095 84.3244C81.8821 84.3224 81.6702 84.2967 81.463 84.2478C78.3316 83.4626 78.0156 77.104 77.9868 76.3858C77.9836 76.2855 78.0112 76.1868 78.066 76.1028C78.1209 76.0189 78.2002 75.9538 78.2933 75.9165C78.3859 75.8834 78.4863 75.8785 78.5817 75.9023C78.6772 75.9262 78.7634 75.9778 78.8295 76.0506C82.4015 80.063 88.3195 78.3201 88.4057 78.301C88.5005 78.2716 88.6022 78.2724 88.6965 78.3032C88.7909 78.3341 88.8733 78.3936 88.9324 78.4734C88.991 78.5559 89.0224 78.6547 89.0224 78.7559C89.0224 78.8571 88.991 78.9558 88.9324 79.0384C88.5015 79.5938 85.0732 84.3244 82.095 84.3244ZM79.0402 77.6211C79.2892 79.7374 79.9978 82.9263 81.6928 83.3668C83.3878 83.8073 85.8968 81.3079 87.3428 79.5363C85.4467 79.8045 81.8748 79.9481 79.0402 77.5924V77.6211Z" fill="#3A3D3E"/>
<path d="M75.4779 71.8179C75.4149 71.8323 75.3494 71.8323 75.2864 71.8179C75.2284 71.7929 75.1759 71.7567 75.132 71.7114C75.0881 71.666 75.0535 71.6125 75.0304 71.5537C75.0073 71.495 74.996 71.4322 74.9972 71.3691C74.9984 71.306 75.012 71.2437 75.0374 71.1859C75.4545 70.2358 76.2097 69.4746 77.1563 69.0499C78.103 68.6253 79.1737 68.5674 80.1607 68.8876C80.2876 68.9245 80.3948 69.0102 80.4585 69.126C80.5223 69.2419 80.5374 69.3783 80.5006 69.5053C80.4638 69.6323 80.378 69.7394 80.2622 69.8032C80.1464 69.8669 80.0099 69.8821 79.8829 69.8452C79.1211 69.5982 78.2949 69.6415 77.5631 69.9667C76.8313 70.292 76.2455 70.8763 75.9184 71.6073C75.8699 71.6779 75.8037 71.7346 75.7264 71.7716C75.649 71.8086 75.5634 71.8246 75.4779 71.8179Z" fill="#3A3D3E"/>
<path d="M87.6781 67.8629C87.6118 67.8766 87.5434 67.8766 87.477 67.8629C87.4199 67.8372 87.3684 67.8003 87.3258 67.7543C87.2831 67.7084 87.2501 67.6543 87.2287 67.5954C87.2073 67.5365 87.1979 67.4739 87.201 67.4113C87.2042 67.3487 87.2199 67.2873 87.2472 67.2309C87.5036 66.736 87.9223 66.3443 88.433 66.1211C88.9438 65.898 89.5157 65.8571 90.053 66.0051C90.18 66.0318 90.2912 66.1078 90.3621 66.2165C90.4331 66.3251 90.4579 66.4575 90.4313 66.5845C90.4046 66.7115 90.3286 66.8227 90.2199 66.8936C90.1113 66.9646 89.9789 66.9894 89.8519 66.9628C89.5281 66.8546 89.1765 66.8645 88.8592 66.9906C88.542 67.1168 88.2796 67.3512 88.1186 67.6523C88.0701 67.7229 88.0039 67.7796 87.9266 67.8166C87.8493 67.8536 87.7636 67.8696 87.6781 67.8629Z" fill="#3A3D3E"/>
<path d="M73.2563 67.9875H73.1797C73.1174 67.9781 73.0576 67.9566 73.0036 67.9241C72.9497 67.8916 72.9027 67.8487 72.8653 67.798C72.8279 67.7473 72.801 67.6897 72.7859 67.6286C72.7708 67.5674 72.768 67.5039 72.7775 67.4416C72.7775 67.4416 73.3042 64.0995 77.6996 64.0038C77.8252 64.006 77.9453 64.0556 78.0359 64.1426C78.1264 64.2296 78.1808 64.3476 78.188 64.473C78.1906 64.5362 78.1804 64.5993 78.1579 64.6585C78.1355 64.7176 78.1014 64.7716 78.0575 64.8173C78.0137 64.8629 77.9611 64.8992 77.9029 64.9239C77.8447 64.9487 77.782 64.9615 77.7188 64.9614C74.166 65.038 73.7447 67.4799 73.7255 67.5853C73.7093 67.6978 73.6528 67.8006 73.5665 67.8745C73.4802 67.9485 73.3699 67.9886 73.2563 67.9875Z" fill="#3A3D3E"/>
<path d="M84.7765 63.5345C84.6471 63.5342 84.5231 63.4825 84.4318 63.3909C84.3441 63.3014 84.2949 63.181 84.2949 63.0557C84.2949 62.9304 84.3441 62.81 84.4318 62.7205C84.9583 62.214 85.6348 61.8918 86.3599 61.802C87.085 61.7122 87.8196 61.8598 88.4538 62.2226C88.5094 62.2525 88.5583 62.2933 88.5978 62.3426C88.6372 62.3919 88.6663 62.4487 88.6833 62.5095C88.7003 62.5703 88.7048 62.6339 88.6966 62.6965C88.6885 62.759 88.6678 62.8193 88.6357 62.8737C88.5734 62.9841 88.4698 63.0652 88.3478 63.0993C88.2257 63.1334 88.0951 63.1177 87.9846 63.0557C87.5328 62.7949 87.0087 62.6876 86.4907 62.7497C85.9728 62.8119 85.489 63.0402 85.1117 63.4004C85.0207 63.4855 84.9011 63.5333 84.7765 63.5345Z" fill="#3A3D3E"/>
<path d="M23.5368 139.694C21.5659 138.696 19.6481 137.596 17.7911 136.4C16.8334 135.576 21.8992 124.372 22.3972 124.047C22.8952 123.721 34.5877 124.707 36.2348 125.694C37.8819 126.68 40.6782 134.59 40.0653 136.725C39.4524 138.861 35.4591 140.355 34.6356 140.68C33.812 141.006 23.5368 139.694 23.5368 139.694Z" fill="#ADADAD"/>
<path d="M33.9461 141.197C31.7531 141.197 26.1127 140.508 23.4793 140.163C23.4219 140.161 23.3661 140.144 23.3165 140.115C21.3086 139.107 19.3585 137.988 17.475 136.764C17.3539 136.638 17.264 136.487 17.2124 136.32C17.1608 136.154 17.1491 135.978 17.1782 135.806C17.3027 133.393 21.4013 124.123 22.1195 123.635C23.0771 123.022 34.9803 124.382 36.4838 125.272C38.399 126.421 41.2048 134.542 40.4866 136.859C40.0174 138.382 38.1883 139.732 34.8941 141.073H34.7696C34.504 141.16 34.2256 141.202 33.9461 141.197ZM23.69 139.225C27.7694 139.751 33.7546 140.412 34.4153 140.182H34.5206C38.2171 138.717 39.3087 137.415 39.5481 136.582C40.1706 134.561 37.336 126.91 35.9762 126.048C34.6164 125.186 24.006 124.209 22.627 124.42C21.813 125.473 17.8389 134.791 18.1358 136.017C19.9279 137.186 21.782 138.256 23.69 139.225Z" fill="#3A3D3E"/>
<path d="M46.7591 148.753C46.7591 148.753 38.3608 135.576 36.7136 133.268C35.0665 130.96 27.9897 129.151 24.5327 130.635C21.0757 132.119 18.4327 136.888 19.2563 138.708C20.0798 140.527 37.2116 150.726 37.2116 150.726C37.2116 150.726 35.2389 160.302 36.0625 161.106C37.8148 162.644 39.7436 163.969 41.8082 165.052C43.1297 165.55 45.1024 163.74 45.1024 163.74C45.8692 163.827 46.6435 163.827 47.4103 163.74C48.2338 163.577 49.2202 162.255 49.2202 162.255C49.2202 162.255 50.1778 163.903 51.2024 162.418C52.2271 160.934 52.3516 159.785 51.528 159.287C50.7045 158.789 50.0437 155.504 50.0437 155.504C50.0437 155.504 51.0013 152.871 50.2161 151.051C49.4308 149.232 46.7591 148.753 46.7591 148.753Z" fill="white"/>
<path d="M42.3157 165.617C42.0901 165.621 41.8657 165.582 41.6549 165.502C39.5181 164.395 37.5242 163.031 35.7177 161.442C34.875 160.589 35.9188 154.662 36.6753 150.965C33.2279 148.906 19.6393 140.699 18.8253 138.899C18.5257 137.919 18.6078 136.862 19.0551 135.94C20.0525 133.441 21.9339 131.396 24.3412 130.194C28.0855 128.586 35.3634 130.549 37.1062 132.991C38.6576 135.164 46.0408 146.723 47.0559 148.313C47.7454 148.485 49.8713 149.127 50.6566 150.85C51.4418 152.574 50.7523 154.939 50.5512 155.523C50.8577 156.989 51.4131 158.645 51.7865 158.875C51.9658 158.977 52.1222 159.114 52.2458 159.279C52.3694 159.444 52.4575 159.632 52.5048 159.833C52.5538 160.347 52.4994 160.867 52.3448 161.36C52.1902 161.853 51.9385 162.311 51.6046 162.706C51.4834 162.951 51.2969 163.159 51.0655 163.306C50.8341 163.453 50.5667 163.534 50.2927 163.539C49.8874 163.508 49.5082 163.327 49.2297 163.031C48.7804 163.581 48.1869 163.996 47.5156 164.228C46.7711 164.313 46.0192 164.313 45.2747 164.228C44.4562 164.987 43.4221 165.472 42.3157 165.617ZM27.6737 130.577C26.6643 130.549 25.6592 130.718 24.7146 131.075C22.5308 132.167 20.8261 134.025 19.9265 136.294C19.5763 136.977 19.4877 137.764 19.6776 138.507C20.233 139.723 30.8626 146.397 37.4318 150.314C37.5183 150.364 37.587 150.44 37.6282 150.531C37.6694 150.622 37.6811 150.724 37.6617 150.822C36.7711 155.112 36.0433 160.139 36.3976 160.79C38.1043 162.274 39.9741 163.559 41.9709 164.621C42.8232 164.946 44.3171 163.826 44.7768 163.405C44.8266 163.359 44.8857 163.324 44.9501 163.302C45.0145 163.281 45.0827 163.273 45.1502 163.28C45.8658 163.367 46.5893 163.367 47.3049 163.28C47.9295 162.984 48.4623 162.524 48.8467 161.949C48.8962 161.888 48.959 161.839 49.0304 161.806C49.1017 161.772 49.1797 161.756 49.2584 161.758C49.3363 161.761 49.4122 161.784 49.4791 161.824C49.5459 161.864 49.6018 161.92 49.6415 161.987C49.7755 162.208 50.082 162.533 50.3118 162.543C50.5416 162.552 50.714 162.294 50.8098 162.131C51.3017 161.551 51.5701 160.814 51.5663 160.053C51.5486 159.975 51.5148 159.901 51.4669 159.837C51.4191 159.773 51.3584 159.719 51.2886 159.68C50.331 159.124 49.7564 156.395 49.584 155.581C49.5604 155.493 49.5604 155.401 49.584 155.313C49.584 155.313 50.4842 152.842 49.7564 151.233C49.0286 149.624 46.6729 149.203 46.6441 149.203C46.517 149.173 46.4048 149.098 46.3281 148.992C46.2419 148.858 37.9202 135.796 36.3018 133.527C35.191 131.956 31.0445 130.577 27.6737 130.577Z" fill="#3A3D3E"/>
<path d="M49.2297 162.734C49.1166 162.734 49.0074 162.693 48.9215 162.619C48.8356 162.545 48.7786 162.444 48.7605 162.332L47.6113 154.748C47.6019 154.685 47.6049 154.621 47.6203 154.559C47.6356 154.497 47.663 154.439 47.7008 154.388C47.7386 154.337 47.7861 154.294 47.8405 154.261C47.895 154.228 47.9554 154.207 48.0183 154.197C48.0812 154.188 48.1453 154.191 48.207 154.206C48.2687 154.221 48.3268 154.249 48.3779 154.287C48.429 154.324 48.4722 154.372 48.505 154.426C48.5378 154.481 48.5595 154.541 48.5689 154.604L49.7277 162.179C49.7372 162.241 49.7343 162.305 49.7192 162.366C49.7042 162.427 49.6772 162.485 49.6398 162.535C49.6024 162.586 49.5555 162.629 49.5015 162.661C49.4476 162.694 49.3877 162.715 49.3255 162.725L49.2297 162.734Z" fill="#3A3D3E"/>
<path d="M129.114 6.62324C129.114 6.62324 130.589 1.02116 131.413 2.3331C132.236 3.64504 130.455 9.58228 130.455 9.58228C130.455 9.58228 132.763 5.13893 132.926 7.44679C133.088 9.75466 129.306 14.6864 129.306 14.6864L129.114 6.62324Z" fill="white"/>
<path d="M129.277 15.1652H129.124C129.029 15.1333 128.947 15.0728 128.889 14.9922C128.831 14.9115 128.799 14.8146 128.798 14.7151L128.635 6.65192C128.625 6.60778 128.625 6.562 128.635 6.51786C129.2 4.39194 130.072 1.82552 131.02 1.72976C131.18 1.7101 131.341 1.73997 131.484 1.81534C131.626 1.8907 131.741 2.0079 131.815 2.15111C132.332 2.98424 132.035 5.08142 131.633 6.9392C132.226 6.32633 132.59 6.39336 132.696 6.42209C133.098 6.4987 133.318 6.87218 133.366 7.51378C133.538 9.92698 130.043 14.5619 129.641 15.0885C129.589 15.1254 129.529 15.1513 129.467 15.1644C129.404 15.1776 129.34 15.1779 129.277 15.1652ZM129.593 6.68065L129.727 13.2499C130.914 11.5166 132.514 8.84487 132.418 7.5042V7.43717C131.801 8.1676 131.276 8.97175 130.857 9.83122C130.801 9.93846 130.707 10.0207 130.594 10.0616C130.48 10.1024 130.355 10.0988 130.244 10.0515C130.134 10.0084 130.044 9.92521 129.993 9.81866C129.941 9.71211 129.932 9.59004 129.966 9.4769C130.656 7.22649 131.412 3.79821 131.077 2.77356C130.408 4.00276 129.909 5.31712 129.593 6.68065Z" fill="#3A3D3E"/>
<path d="M113.132 64.7603C113.132 64.7603 128.291 27.8632 128.616 26.7141C128.942 25.5649 124.001 13.7 123.665 11.2294C123.33 8.7587 122.181 1.65316 123.665 1.65316C125.15 1.65316 124.623 2.96509 124.623 3.78865C124.623 4.6122 126.27 11.3634 126.27 11.3634C126.27 11.3634 127.228 3.46306 127.429 2.63951C127.63 1.81595 128.386 0.494441 129.239 1.48079C130.091 2.46714 129.564 3.62585 129.564 4.44941C129.564 5.27296 129.727 11.8614 129.727 12.3498C130.353 14.0906 131.069 15.7975 131.872 17.4635C131.872 17.4635 134.18 12.8477 134.506 10.7122C134.831 8.57675 136.153 5.43576 136.651 8.40438C136.999 10.6094 136.828 12.8652 136.153 14.9928C135.827 15.8163 138.298 21.246 137.474 22.8932C136.651 24.5403 134.199 27.8823 134.199 28.524C134.199 29.1656 124.154 70.8507 124.154 70.8507L113.132 64.7603Z" fill="white"/>
<path d="M124.173 71.3296C124.09 71.33 124.008 71.3103 123.934 71.2721L112.902 65.1721C112.799 65.1169 112.721 65.0256 112.682 64.9158C112.643 64.8061 112.646 64.6858 112.691 64.5784C117.929 51.8229 127.898 27.4706 128.157 26.58C128.233 25.9672 126.759 21.8877 125.686 18.9191C124.692 16.4381 123.86 13.895 123.196 11.306L123.081 10.4633C122.411 5.6752 122.124 2.47676 122.976 1.53829C123.06 1.43457 123.167 1.35135 123.288 1.29495C123.409 1.23854 123.541 1.21042 123.675 1.2127C123.896 1.19507 124.118 1.22529 124.326 1.30131C124.535 1.37733 124.724 1.49736 124.882 1.65321C125.047 1.90114 125.158 2.18076 125.21 2.47423C125.261 2.76771 125.25 3.06861 125.179 3.35777C125.17 3.51406 125.17 3.67071 125.179 3.827C125.179 4.2292 125.686 6.50834 126.203 8.73001C126.51 6.34554 126.931 3.10879 127.036 2.5821C127.142 2.05541 127.64 0.925415 128.434 0.724315C128.667 0.67127 128.91 0.689493 129.132 0.776604C129.354 0.863716 129.545 1.01568 129.679 1.2127C129.956 1.58927 130.145 2.02278 130.233 2.48167C130.321 2.94055 130.305 3.41324 130.187 3.8653C130.147 4.07055 130.125 4.27876 130.12 4.48776C130.12 4.94742 130.177 7.23613 130.216 9.27585C130.216 10.8368 130.283 12.2157 130.283 12.4264C130.283 12.6371 131.116 14.5523 131.958 16.4101C132.881 14.5779 133.603 12.6515 134.113 10.6644C134.113 10.6644 134.774 6.74774 136.115 6.73816C136.919 6.73816 137.072 7.90646 137.187 8.34696C137.559 10.6381 137.382 12.9847 136.67 15.1939C136.777 15.9902 136.967 16.7732 137.235 17.5305C137.848 19.6181 138.547 21.9739 137.963 23.1422C137.599 23.87 136.928 24.9042 136.277 25.9001C135.683 26.7333 135.164 27.6178 134.726 28.5432C134.726 29.1848 127.065 61.1788 124.661 70.9657C124.645 71.0368 124.612 71.1032 124.565 71.1596C124.519 71.216 124.46 71.2611 124.393 71.2913C124.322 71.3149 124.248 71.3278 124.173 71.3296ZM113.745 64.5401L123.847 70.123C127.304 55.7587 133.625 29.4433 133.74 28.4857C133.74 28.0548 134.238 27.2408 135.454 25.3734C136.086 24.4158 136.737 23.4007 137.082 22.7113C137.426 22.0218 136.766 19.4266 136.287 17.7987C135.808 16.1707 135.559 15.2993 135.751 14.8396C136.393 12.7938 136.55 10.6268 136.21 8.50976C136.177 8.26824 136.12 8.03078 136.038 7.80112C135.511 8.72952 135.166 9.75017 135.023 10.808C134.678 13.001 132.437 17.5114 132.342 17.7029C132.295 17.7799 132.231 17.8445 132.154 17.8912C132.078 17.9379 131.991 17.9653 131.901 17.971C131.812 17.9675 131.726 17.9398 131.652 17.8908C131.577 17.8419 131.518 17.7736 131.48 17.6933C130.603 15.9853 129.87 14.2076 129.287 12.3785C129.287 12.1679 129.287 10.7985 129.22 9.24713C129.22 7.2457 129.124 4.94742 129.124 4.45903C129.132 4.20542 129.158 3.95267 129.201 3.70251C129.298 3.3815 129.322 3.04258 129.271 2.71098C129.219 2.37938 129.094 2.06364 128.904 1.78727C128.827 1.70109 128.722 1.59575 128.626 1.6149C128.441 1.74549 128.285 1.91208 128.167 2.10463C128.048 2.29718 127.97 2.51171 127.936 2.73531C127.802 3.36734 127.122 8.70128 126.787 11.4209C126.774 11.5329 126.721 11.6366 126.639 11.7137C126.557 11.7908 126.45 11.8363 126.337 11.8423C126.225 11.8517 126.114 11.8198 126.024 11.7528C125.934 11.6858 125.872 11.5882 125.849 11.4784C125.571 10.3388 124.183 4.6314 124.183 3.81743C124.183 3.64506 124.183 3.44395 124.183 3.24285C124.183 2.88853 124.269 2.43845 124.125 2.28523C123.981 2.13201 123.886 2.16074 123.637 2.16074C123.177 2.51506 123.282 5.26343 123.991 10.3197L124.116 11.1624C124.769 13.6849 125.582 16.1637 126.548 18.5839C128.463 23.7934 129.239 26.1491 129.038 26.8482C128.76 27.959 115.459 60.3553 113.745 64.5401Z" fill="#3A3D3E"/>
<path d="M105.557 68.3801C105.557 68.3801 110.498 74.1258 112.26 75.6293C114.022 77.1327 121.654 80.4173 121.654 80.4173L126.442 70.7071C126.442 70.7071 121.338 66.4265 117.881 64.9614C114.424 63.4962 111.293 61.83 111.293 61.83L105.557 68.3801Z" fill="#ADADAD"/>
<path d="M121.75 80.877C121.687 80.8914 121.622 80.8914 121.559 80.877C121.243 80.743 113.898 77.5445 112.059 76.0315C109.66 73.7166 107.385 71.2777 105.241 68.7248C105.165 68.639 105.123 68.5283 105.123 68.4136C105.123 68.2989 105.165 68.1882 105.241 68.1024L110.987 61.514C111.059 61.4347 111.155 61.3814 111.261 61.3624C111.366 61.3433 111.475 61.3596 111.571 61.4086C111.571 61.4086 114.731 63.0653 118.13 64.5209C121.53 65.9765 126.605 70.1804 126.816 70.3528C126.896 70.4248 126.95 70.5205 126.97 70.6258C126.991 70.731 126.977 70.8402 126.931 70.9369L122.143 80.6472C122.102 80.7151 122.044 80.7716 121.976 80.8117C121.907 80.8518 121.83 80.8743 121.75 80.877ZM106.237 68.3801C107.3 69.5963 111.149 74.0109 112.662 75.2558C114.175 76.5007 119.912 79.0863 121.52 79.7758L125.925 70.8124C124.805 69.8548 120.659 66.5989 117.767 65.3636C114.875 64.1283 112.385 62.8546 111.485 62.3854L106.237 68.3801Z" fill="#3A3D3E"/>
</svg>
