<svg width="188" height="317" viewBox="0 0 188 317" fill="none" xmlns="http://www.w3.org/2000/svg">
<path d="M73.9784 43.3429C73.9784 43.3429 76.3344 61.9802 75.0105 70.499C73.6866 79.0178 73.613 81.3767 73.613 81.3767C79.7855 81.0656 85.9319 80.3628 92.0153 79.2727C101.468 77.5082 104 75.0288 104 75.0288L101.434 70.7688C101.434 70.7688 95.1598 75.3183 91.6374 72.9484C88.1151 70.5786 81.9427 59.963 80.707 57.3718C79.4714 54.7806 77.1995 42.6751 77.1995 42.6751L73.9784 43.3429Z" fill="#3A3D3E" stroke="#3A3D3E" stroke-miterlimit="10"/>
<path d="M99.6014 69.7781C99.6014 69.7781 103.229 76.1669 103.878 78.3132C104.526 80.4595 104.424 81.0391 103.489 82.176C101.416 84.6753 96.7652 89.3564 91.9734 91.5851C87.1816 93.8139 83.8514 96.2176 83.3761 98.2396C80.6295 109.989 87.5038 145.993 87.5038 145.993C87.5038 145.993 86.0787 147.98 80.5176 150.752C74.9565 153.525 73.1444 154.231 73.1444 154.231L74.4363 163.673C74.4363 163.673 79.9404 162.791 89.2045 160.908C98.4685 159.025 104.073 156.415 104.073 156.415L103.741 181.641C103.65 188.061 104.844 196.131 104.844 196.131L179.923 173.443C179.923 173.443 159.951 137.815 157.567 133.54C155.184 129.264 150.155 113.149 150.155 113.149L171.866 107.522C171.866 107.522 161.005 85.5256 154.566 77.6438C148.128 69.762 146.887 71.8513 141.173 72.6388C135.459 73.4263 126.054 74.2429 121.742 72.8924C117.43 71.542 112.212 58.9179 112.212 58.9179L99.6014 69.7781Z" fill="#C58B5D" stroke="#3A3D3E" stroke-linecap="round" stroke-linejoin="round"/>
<path d="M104.661 151.451C106.99 155.415 106.194 158.789 104.027 161.56L104.1 156.446C104.1 156.446 98.5014 159.077 89.2311 160.939C79.9608 162.801 74.4629 163.705 74.4629 163.705L73.1711 154.262C73.1711 154.262 74.9847 153.561 80.5442 150.784C86.1037 148.006 87.5305 146.025 87.5305 146.025C87.5305 146.025 97.4259 139.023 104.661 151.451Z" fill="white" stroke="#3A3D3E" stroke-linecap="round" stroke-linejoin="round"/>
<path d="M103.761 181.652L104.093 156.426C104.093 156.426 102.733 147.785 102.157 146.403C101.581 145.021 95.0602 138.403 93.3746 132.825C91.6889 127.246 91.6411 109.021 91.722 107.734C91.8027 106.579 94.9505 91.8509 95.4398 89.5758C95.8801 89.273 96.3158 88.9546 96.7348 88.6187L95.5394 107.973L129.498 96.9303L128.321 73.6199C129.222 73.6249 130.168 73.6277 131.106 73.5703C131.229 76.5772 132.195 97.7673 133.675 100.364C135.298 103.149 150.182 113.163 150.182 113.163C150.182 113.163 155.211 129.279 157.595 133.554C159.978 137.83 179.95 173.458 179.95 173.458L191.5 284L110.5 293.5C110.5 293.5 103.671 188.072 103.761 181.652Z" fill="#3A3D3E" stroke="#3A3D3E" stroke-linecap="round" stroke-linejoin="round"/>
<path d="M103.239 76.7412C101.988 74.0074 99.5755 69.786 99.5755 69.786L112.213 58.9403C113.619 62.2729 115.304 65.4809 117.25 68.5301L103.239 76.7412Z" fill="white" stroke="#3A3D3E" stroke-linecap="round" stroke-linejoin="round"/>
<path d="M75.1627 43.63C75.1627 43.63 76.8489 50.764 78.146 55.0566C79.4431 59.3492 79.9794 63.7076 83.6615 68.6656C87.3436 73.6236 91.3771 76.6367 93.3077 76.8284C95.2383 77.0201 99.5962 74.9281 101.628 73.3751C103.659 71.8221 113.32 60.9538 113.32 60.9538C113.32 60.9538 103.854 41.5003 102.991 40.1994C102.341 39.2908 101.569 38.4752 100.697 37.7753L75.1627 43.63Z" fill="white" stroke="#3A3D3E" stroke-linecap="round" stroke-linejoin="round"/>
<path d="M81.6432 49.5925C81.6432 49.5925 83.4375 51.3926 83.8548 53.2976C84.272 55.2026 81.9079 60.2791 82.1241 60.9945C82.3403 61.7099 84.7299 62.3909 87.1614 61.6562" stroke="#3A3D3E" stroke-linecap="round" stroke-linejoin="round"/>
<path d="M90.1642 65.9199C90.1642 65.9199 96.1289 63.959 97.7222 59.421" stroke="#3A3D3E" stroke-linecap="round" stroke-linejoin="round"/>
<path d="M95.7321 46.1329C95.7321 46.1329 91.6531 45.0288 88.8285 46.5217" stroke="#3A3D3E" stroke-linecap="round" stroke-linejoin="round"/>
<path d="M80.6302 48.8236C79.9541 48.6346 79.2349 48.6697 78.5804 48.9236C77.9258 49.1775 77.3711 49.6365 76.9993 50.232" stroke="#3A3D3E" stroke-linecap="round" stroke-linejoin="round"/>
<path d="M90.5042 52.5725C90.8378 53.6768 91.6532 54.4092 92.322 54.2071C92.9907 54.005 93.2641 52.9436 92.9304 51.8394C92.5967 50.7351 91.7813 50.0027 91.1126 50.2048C90.4438 50.4069 90.1642 51.4476 90.5042 52.5725Z" fill="#3A3D3E"/>
<path d="M80.179 55.3248C80.519 56.4498 81.239 57.2223 81.7989 57.0531C82.3588 56.8839 82.5305 55.842 82.1905 54.717C81.8506 53.592 81.1238 52.8159 80.5691 52.9835C80.0144 53.1511 79.8391 54.1998 80.179 55.3248Z" fill="#3A3D3E"/>
<path d="M98.2106 38.8323C98.2106 38.8323 108.755 60.3021 111.271 66.5686C112.769 70.2703 113.88 74.1171 114.587 78.0474C114.587 78.0474 118.423 74.2291 126.33 68.9035C134.237 63.5778 139.566 56.9491 139.048 55.2331C138.529 53.5171 118.827 33.253 118.827 33.253L98.2106 38.8323Z" fill="#3A3D3E" stroke="#3A3D3E" stroke-miterlimit="10"/>
<path d="M133.064 106.167C133.064 106.167 145.855 106.669 150.961 106.529C156.067 106.389 168.189 104.152 171.874 107.565C175.558 110.978 176.972 115.076 177.888 118.704C178.803 122.331 176.155 124.84 173.455 125.192C170.755 125.544 160.779 127.149 150.201 123.636C139.623 120.122 129.68 115.636 129.68 115.636L133.064 106.167Z" fill="white" stroke="#3A3D3E" stroke-linecap="round" stroke-linejoin="round"/>
<path d="M92.0407 94.8406L95.1875 93.8896L96.7431 99.0376L93.5963 99.9885L92.0407 94.8406Z" fill="white" stroke="#3A3D3E" stroke-linecap="round" stroke-linejoin="round"/>
<path d="M88.8537 97.2124L92.5708 96.0891L93.3478 98.6605L89.6307 99.7838L88.8537 97.2124Z" fill="white" stroke="#3A3D3E" stroke-linecap="round" stroke-linejoin="round"/>
<path d="M95.1875 93.8897L100.621 92.2479L103.516 101.828L98.0825 103.47L95.1875 93.8897Z" fill="white" stroke="#3A3D3E" stroke-linecap="round" stroke-linejoin="round"/>
<path d="M111.482 137.497C106.042 139.141 99.92 134.808 97.808 127.819C95.6961 120.83 98.394 113.831 103.834 112.188C109.274 110.544 115.396 114.877 117.508 121.866C119.62 128.855 116.922 135.853 111.482 137.497Z" stroke="#3A3D3E" stroke-linecap="round" stroke-linejoin="round"/>
<path d="M135.396 104.523C135.985 106.81 136.173 109.182 135.953 111.534C135.607 115.537 132.151 119.546 132.151 119.546L125.623 118.09L117.686 118.146C117.686 118.146 113.251 117.925 112.783 117.93C112.315 117.936 102.374 121.698 100.142 122.061C97.9094 122.425 95.2111 120.723 95.4027 119.278C95.5944 117.834 98.1272 116.424 98.1272 116.424C98.1272 116.424 97.0457 111.291 97.0133 110.679C96.981 110.066 93.7417 111.198 92.7317 108.38C91.7218 105.562 92.8519 104.134 92.8519 104.134C92.8519 104.134 91.9161 100.513 93.6587 99.0532C95.4014 97.5931 97.7665 96.1146 103.496 95.4526C109.225 94.7907 114.86 94.8474 120.052 98.0988C125.244 101.35 128.038 103.465 128.038 103.465L135.396 104.523Z" fill="white" stroke="#3A3D3E" stroke-linecap="round" stroke-linejoin="round"/>
<path d="M98.0914 116.418C98.0914 116.418 102.836 114.051 105.914 113.901" stroke="#3A3D3E" stroke-linecap="round" stroke-linejoin="round"/>
<path d="M96.9775 110.673C96.9775 110.673 101.72 106.745 104.948 106.567" stroke="#3A3D3E" stroke-linecap="round" stroke-linejoin="round"/>
<path d="M92.816 104.128C92.816 104.128 97.6978 99.6883 103.567 99.9401" stroke="#3A3D3E" stroke-linecap="round" stroke-linejoin="round"/>
<path d="M57.3744 118.725C57.3744 118.725 49.7467 123.327 49.406 137.121" stroke="#3A3D3E" stroke-linecap="round" stroke-linejoin="round"/>
<path d="M43.1582 112.215C43.1582 112.215 45.4648 129.209 48.7928 137.901" stroke="#3A3D3E" stroke-linecap="round" stroke-linejoin="round"/>
<path d="M31.0623 120.322C31.0623 120.322 41.5324 125.407 47.0214 137.955" stroke="#3A3D3E" stroke-linecap="round" stroke-linejoin="round"/>
<path d="M44.2531 106.945C44.2531 106.945 45.1416 104.006 46.7888 104.102C48.4359 104.198 50.0989 106.219 49.6088 107.555C49.1187 108.892 46.7685 107.967 47.0981 108.608C47.4278 109.25 50.3948 109.688 49.8937 111.475C49.3925 113.261 47.6121 114.241 46.7387 113.316C45.8654 112.392 45.0506 111.156 45.0218 112.053C44.9929 112.95 46.5803 114.253 45.3665 115.066C44.1527 115.88 41.5451 116.668 41.133 115.305C40.721 113.941 41.7706 113.483 40.8329 113.319C39.8952 113.155 39.5178 115.351 38.2349 114.551C36.952 113.751 35.2875 110.695 36.5272 109.873C37.7669 109.052 38.0907 110.142 38.7934 109.041C39.4962 107.941 36.6957 107.005 38.9908 105.276C41.2859 103.547 44.392 103.491 44.2531 106.945Z" fill="white" stroke="#3A3D3E" stroke-linecap="round" stroke-linejoin="round"/>
<path d="M32.7355 118.351C32.7355 118.351 35.4509 116.908 36.5567 118.153C37.6626 119.397 37.3887 121.992 36.0972 122.586C34.8056 123.18 33.7988 120.859 33.589 121.55C33.3793 122.242 35.1426 124.651 33.5192 125.532C31.8957 126.413 29.9478 125.864 29.9889 124.596C30.0299 123.327 30.3315 121.873 29.675 122.49C29.0184 123.107 29.2093 125.142 27.7546 124.841C26.3 124.539 23.9325 123.258 24.6069 122.007C25.2814 120.757 26.3472 121.176 25.816 120.391C25.2848 119.607 23.4479 120.886 23.1161 119.414C22.7842 117.941 23.7798 114.608 25.2277 114.906C26.6756 115.204 26.1417 116.208 27.424 115.939C28.7063 115.671 27.3886 113.014 30.2347 113.427C33.0808 113.84 35.2877 116.013 32.7355 118.351Z" fill="white" stroke="#3A3D3E" stroke-linecap="round" stroke-linejoin="round"/>
<path d="M61.9213 115.761C61.9213 115.761 64.6382 114.323 65.7425 115.562C66.8467 116.802 66.5692 119.403 65.2829 119.995C63.9966 120.588 62.9861 118.274 62.7712 118.967C62.5563 119.66 64.3232 122.062 62.7014 122.948C61.0795 123.834 59.1351 123.279 59.1762 122.011C59.2172 120.742 59.5136 119.289 58.8623 119.905C58.2109 120.52 58.3966 122.557 56.9435 122.261C55.4904 121.964 53.1198 120.672 53.7958 119.427C54.4718 118.182 55.5345 118.59 55.0033 117.806C54.4721 117.022 52.6368 118.306 52.3034 116.829C51.97 115.351 52.9619 112.024 54.4166 112.326C55.8712 112.627 55.329 113.623 56.6129 113.359C57.8968 113.096 56.579 110.439 59.4236 110.847C62.2681 111.254 64.4751 113.428 61.9213 115.761Z" fill="white" stroke="#3A3D3E" stroke-linecap="round" stroke-linejoin="round"/>
<path d="M52.4013 136.38C52.4013 136.38 52.4301 135.483 54.3438 134.458C55.2891 133.909 56.3096 133.502 57.3729 133.248C57.3729 133.248 58.2563 132.24 56.1188 131.551L53.9812 130.862C54.6067 130.139 55.4396 129.627 56.3666 129.394C57.3179 129.224 58.2814 129.132 59.2476 129.118C58.9777 128.32 58.5014 127.608 57.867 127.055C57.2326 126.501 56.4628 126.125 55.6361 125.966C52.8194 125.482 51.7218 126.792 51.7218 126.792L53.9026 123.168C53.4194 122.927 52.8853 122.806 52.3453 122.815C51.8054 122.823 51.2754 122.961 50.8001 123.218C49.5629 123.86 48.468 124.745 47.5808 125.82C47.5808 125.82 50.4279 120.507 50.5346 119.886C50.6412 119.266 48.1283 120.761 46.5013 122.735C45.5511 123.844 44.8815 125.166 44.5487 126.589C44.5487 126.589 43.5805 124.358 42.3509 123.248C41.3934 122.449 40.3426 121.769 39.2214 121.223C39.2214 121.223 40.6425 124.952 40.9699 126.036C41.2973 127.119 39.8467 125.464 37.4191 125.519C35.7911 125.639 34.2164 126.152 32.8297 127.013C32.8297 127.013 36.3507 127.431 37.3388 128.174C38.3269 128.916 39.75 130.274 39.75 130.274C39.75 130.274 39.6388 129.419 37.3156 130.568C34.9924 131.717 32.9196 135.155 32.9196 135.155C32.9196 135.155 36.6842 133.871 38.2684 134.133C39.3904 134.396 40.4469 134.886 41.3733 135.571C40.9187 135.449 40.444 135.419 39.9775 135.483C39.511 135.547 39.0621 135.704 38.6575 135.945C37.7605 136.59 36.9399 137.336 36.2114 138.166C36.2114 138.166 40.0463 137.602 42.0617 137.887C44.077 138.171 44.9081 138.956 44.9081 138.956L52.4013 136.38Z" fill="#C58B5D" stroke="#3A3D3E" stroke-linecap="round" stroke-linejoin="round"/>
<path d="M50.721 161.787L60.426 158.855C62.3563 158.271 64.0126 157.013 65.0933 155.311C66.1739 153.608 66.6069 151.574 66.3133 149.579L63.6929 131.808L33.0227 141.076L40.6823 157.324C41.5427 159.148 43.0297 160.602 44.8723 161.421C46.715 162.241 48.7906 162.37 50.721 161.787Z" fill="#3A3D3E" stroke="#3A3D3E" stroke-linecap="round" stroke-linejoin="round"/>
<path d="M32.871 139.713L63.199 130.549C64.0207 130.3 64.8882 130.765 65.1365 131.587L65.3464 132.282C65.5947 133.103 65.1299 133.971 64.3082 134.219L33.9802 143.384C33.1584 143.632 32.291 143.167 32.0427 142.345L31.8328 141.651C31.5844 140.829 32.0493 139.962 32.871 139.713Z" fill="#A1A1A1" stroke="#3A3D3E" stroke-linecap="round" stroke-linejoin="round"/>
<path d="M77.7305 151.283C77.7305 151.283 80.0986 151.818 81.5305 156.556C82.9623 161.295 78.1715 165.062 77.2571 165.65C76.3427 166.237 65.4321 167.82 56.6187 168.61C47.8054 169.401 43.5081 166.021 42.4444 163.53C41.3806 161.04 42.4345 158.854 43.9687 159.794C45.503 160.733 45.6701 161.305 48.7229 162.103C51.7758 162.9 52.2432 162.912 55.7717 161.67C59.3003 160.428 66.1289 154.642 66.0944 152.469C66.06 150.295 66.2226 147.276 69.6946 148.88C71.809 149.874 73.8037 151.105 75.6405 152.549L77.7305 151.283Z" fill="white" stroke="#3A3D3E" stroke-linecap="round" stroke-linejoin="round"/>
<path d="M68.1339 144.82C68.1339 144.82 73.7993 153.252 73.1601 154.226C72.5209 155.2 71.3872 156.634 70.0054 157.21C68.6236 157.786 66.7781 154.282 65.1557 151.496C63.5332 148.711 61.4313 146.398 62.295 144.089C63.1588 141.78 66.7965 141.948 68.1339 144.82Z" fill="white" stroke="#3A3D3E" stroke-linecap="round" stroke-linejoin="round"/>
<path d="M62.6877 148.497C62.6877 148.497 68.6455 158.402 68.5938 160.29C68.5421 162.179 66.155 164.614 64.5142 164.352C62.8735 164.09 61.8357 161.105 59.404 156.222C56.9722 151.338 56.3402 150.726 58.2755 148.874C60.2109 147.022 61.4861 147.609 62.6877 148.497Z" fill="white" stroke="#3A3D3E" stroke-linecap="round" stroke-linejoin="round"/>
<path d="M52.4471 155.948C53.7 153.447 57.3314 153.538 58.6285 156.015C60.2735 159.155 62.9614 164.493 62.8682 165.607C62.7251 167.212 57.3954 170.226 56.5917 168.596C55.788 166.966 52.8533 160.362 52.1561 158.055C51.9845 157.341 52.0884 156.588 52.4471 155.948Z" fill="white" stroke="#3A3D3E" stroke-linecap="round" stroke-linejoin="round"/>
<path d="M117.915 33.8114C117.915 33.8114 116.495 18.7951 115.035 17.0525C113.575 15.3098 102.665 13.2998 89.6351 16.1452C76.6054 18.9906 72.4485 22.2722 72.6568 25.0211C72.8652 27.77 73.9784 43.3429 73.9784 43.3429L90.1471 41.5801L104.404 38.6751L119.063 35.026L117.915 33.8114Z" fill="white" stroke="#3A3D3E" stroke-linecap="round" stroke-linejoin="round"/>
<path d="M104.403 38.6752L90.1471 41.5802L73.9783 43.343C73.9783 43.343 73.546 37.2503 73.1651 32.0019C89.7047 31.2981 108.267 27.4031 116.927 25.3917C117.517 29.6094 117.915 33.8115 117.915 33.8115L119.063 35.0262L104.403 38.6752Z" fill="#C58B5D" stroke="#3A3D3E" stroke-linecap="round" stroke-linejoin="round"/>
<path d="M132.596 29.2223C132.596 29.2223 133.405 30.8506 132.259 31.1968C131.114 31.543 123.482 35.7217 102.99 40.1943C82.4971 44.6669 72.7437 45.436 66.3618 45.4918C59.9798 45.5476 57.8163 45.1094 57.7181 43.736C57.6199 42.3626 56.0272 43.3078 57.6132 42.359C59.1991 41.4101 61.219 41.8973 62.7732 41.8916C63.6719 41.8874 64.5702 41.9294 65.4647 42.0175L65.2902 39.8863L67.0062 39.3678L67.9133 42.3695L70.3181 42.5763L69.4721 40.8065L71.0158 39.7177L72.5182 41.6003L73.2508 42.4709L80.6871 41.7853L79.9038 39.1931L82.0063 38.3994L83.3436 41.2711L86.8043 40.8533L89.4812 38.3471L91.0317 38.8347L89.4729 40.3977L95.2673 39.4275L98.2152 38.8478L99.0764 34.995L100.981 34.5777L100.7 37.7857L104.305 37.3189L102.845 35.5762L105.431 34.325L107.838 36.0928L116.059 34.3894L113.023 33.123L113.166 31.5182L118.382 32.2672L117.915 28.6629L120.507 27.8796L120.86 30.6018L124.42 27.0086L126.568 27.9209L125.329 31.5712L132.596 29.2223Z" fill="white" stroke="#3A3D3E" stroke-linecap="round" stroke-linejoin="round"/>
</svg>
