<svg width="179" height="270" viewBox="0 0 179 270" fill="none" xmlns="http://www.w3.org/2000/svg">
<path d="M213.837 137.593C209.432 134.253 163.499 81.4041 163.499 81.4041C164.444 91.8041 183 136.532 183 136.532L195.82 158.846L197.536 163.354C200.604 158.138 208.72 146.882 219.854 151.528C219.762 151.052 219.682 150.647 219.595 150.345C217.777 144.027 218.229 140.906 213.837 137.593Z" fill="#C58B5D" stroke="#3A3D3E" stroke-linecap="round" stroke-linejoin="round"/>
<path d="M167.278 313.693L146.443 266.712L137.723 239.657L213.361 200.79L228.827 215.842L259.887 270.772L220.975 289.118L195.856 254.88L195.459 259.501L210.338 293.148L167.278 313.693Z" fill="#3A3D3E" stroke="#3A3D3E" stroke-linecap="round" stroke-linejoin="round"/>
<path d="M97.1069 102.081C97.1069 102.081 67.819 126.723 66.2434 128.705C64.6678 130.686 83.5311 158.995 91.9123 168.564C100.293 178.134 127.193 215.258 127.193 215.258L140.554 244.934C140.554 244.934 173.781 230.263 186.16 222.448C194.824 216.84 203.183 210.773 211.201 204.274C211.201 204.274 203.595 176.064 193.917 159.688C184.239 143.311 168.838 98.544 167.579 95.7102C166.321 92.8763 163.45 81.3941 163.45 81.3941C163.45 81.3941 134.819 85.5282 128.009 87.7552C117.301 91.5975 106.959 96.3919 97.1069 102.081Z" fill="#C58B5D" stroke="#3A3D3E" stroke-linecap="round" stroke-linejoin="round"/>
<path d="M94.3418 112.561C94.3418 112.561 103.932 122.091 117.019 124.312" stroke="#3A3D3E" stroke-linecap="round" stroke-linejoin="round"/>
<path d="M127.917 94.2439C128.094 98.0699 127.995 101.904 127.621 105.716" stroke="#3A3D3E" stroke-linecap="round" stroke-linejoin="round"/>
<path d="M128.14 108.412L127.551 111.641" stroke="#3A3D3E" stroke-linecap="round" stroke-linejoin="round"/>
<path d="M169.469 227.332C177.03 223.204 190.706 215.23 198.441 207.625" stroke="#3A3D3E" stroke-linecap="round" stroke-linejoin="round"/>
<path d="M164.048 230.186C164.048 230.186 164.953 229.76 166.421 228.957" stroke="#3A3D3E" stroke-linecap="round" stroke-linejoin="round"/>
<path d="M192.027 206.471C182.441 212.615 167.523 221.119 154.238 224.198" stroke="#3A3D3E" stroke-linecap="round" stroke-linejoin="round"/>
<path d="M194.521 185.803C190.049 192.334 181.094 203.941 170.303 211.373" stroke="#3A3D3E" stroke-linecap="round" stroke-linejoin="round"/>
<path d="M86.9136 92.7243L95.9447 108.245C95.9447 108.245 106.436 117.671 117.58 111.456C128.509 105.396 123.411 90.2435 123.411 90.2435L113.076 74.2319C113.076 74.2319 107.028 87.1991 101.16 89.081C95.2926 90.963 86.9136 92.7243 86.9136 92.7243Z" fill="white" stroke="#3A3D3E" stroke-linecap="round" stroke-linejoin="round"/>
<path d="M66.408 78.9649C66.408 78.9649 63.1223 77.3189 62.6705 80.4174C62.2187 83.516 67.0666 88.9914 70.5459 89.0315C74.0252 89.0716 74.7627 88.7129 74.7627 88.7129C74.7627 88.7129 80.9588 93.5306 83.5372 94.6146C86.1157 95.6985 102.652 98.6928 105.883 97.8326C109.115 96.9723 112.94 94.0411 113.777 91.5241C114.613 89.007 114.249 74.5632 113.715 71.3211C113.182 68.079 113.028 67.3776 112.246 65.6239C111.463 63.8702 110.674 62.4071 110.674 62.4071C110.674 62.4071 111.585 56.6486 110.278 53.0084C108.971 49.3683 106.933 47.1337 104.845 47.5105C102.756 47.8872 102.423 52.5989 102.423 52.5989L87.1368 36.3789C87.1368 36.3789 82.4979 32.1205 80.3946 32.3493C78.2913 32.5781 65.663 40.5218 61.1138 45.5521C56.5645 50.5824 52.215 55.6845 53.0042 58.5075C53.7934 61.3305 66.408 78.9649 66.408 78.9649Z" fill="white" stroke="#3A3D3E" stroke-linecap="round" stroke-linejoin="round"/>
<path d="M63.9988 47.3098C63.9988 47.3098 54.3096 54.476 54.5043 56.5069C54.6989 58.5378 55.4009 62.2311 57.6899 64.2254C59.9789 66.2196 67.3157 78.5923 67.3157 78.5923C67.3157 78.5923 70.8677 81.8817 69.4417 81.8354C68.0158 81.789 64.8931 77.3465 64.2579 76.9605C63.6227 76.5746 54.4358 69.5406 51.3287 66.749C48.2216 63.9575 49.8485 59.1773 50.2777 58.0241C50.5754 57.151 50.804 56.2559 50.9613 55.347C50.9613 55.347 47.4852 50.1313 48.8691 46.3833C50.2529 42.6353 67.1129 30.0431 68.3702 28.6764C69.6274 27.3098 69.7332 23.3131 70.7051 21.9041C71.677 20.4951 76.6823 20.5122 81.3112 24.2336C85.9402 27.955 86.3989 29.397 86.0593 30.7401L85.8127 32.1167C85.8127 32.1167 88.7097 31.2263 91.4993 34.3997C94.2889 37.5731 97.4008 40.3513 98.6974 43.2889C99.9939 46.2265 102.196 51.9988 102.446 52.5771C102.697 53.1555 101.777 52.8927 100.348 51.2448C98.9185 49.5969 87.3555 37.7574 85.9027 36.5518C84.6992 35.5774 83.4417 34.6717 82.1362 33.839C81.4482 33.4116 65.9134 41.4984 63.9988 47.3098Z" fill="#3A3D3E" stroke="#3A3D3E" stroke-linecap="round" stroke-linejoin="round"/>
<path d="M105.883 97.8327C109.094 96.9272 112.94 94.0412 113.777 91.5242C114.613 89.0071 114.249 74.5633 113.715 71.3212C113.182 68.0791 113.028 67.3778 112.246 65.624C111.463 63.8703 110.674 62.4072 110.674 62.4072L102.507 51.8852L102.447 52.3446C104.451 55.8219 108.303 62.5851 108.668 63.6402C108.853 64.4943 108.789 65.3835 108.483 66.202C108.177 67.0205 107.642 67.7338 106.942 68.2571C105.56 69.2183 97.9499 71.391 94.9657 73.1517C91.9816 74.9124 91.476 76.4664 89.6676 78.8447C87.8591 81.223 84.3325 86.5229 83.2634 87.4913C82.1942 88.4597 79.4108 88.6996 77.8725 87.8991C76.3343 87.0987 67.3328 78.6285 67.3328 78.6285C67.5381 79.3662 67.6157 80.1335 67.5622 80.8973L74.7888 88.7449C74.7888 88.7449 80.9849 93.5627 83.5633 94.6466C86.1418 95.7306 102.652 98.693 105.883 97.8327Z" fill="#3A3D3E" stroke="#3A3D3E" stroke-linecap="round" stroke-linejoin="round"/>
<path d="M84.6093 56.5311C84.6093 56.5311 83.6823 59.8647 84.3848 60.44C85.0872 61.0154 96.2098 72.5541 96.7379 74.0961C97.2659 75.6382 95.6203 77.3537 93.7848 77.6111C91.9493 77.8684 88.8163 73.8729 88.8163 73.8729" fill="white"/>
<path d="M84.6093 56.5311C84.6093 56.5311 83.6823 59.8647 84.3848 60.44C85.0872 61.0154 96.2098 72.5541 96.7379 74.0961C97.2659 75.6382 95.6203 77.3538 93.7848 77.6111C91.9493 77.8684 88.8163 73.8729 88.8163 73.8729" stroke="#3A3D3E" stroke-linecap="round" stroke-linejoin="round"/>
<path d="M86.1777 54.277C86.1777 54.277 89.1338 49.0802 94.0663 49.3417" stroke="#3A3D3E" stroke-width="3" stroke-linecap="round" stroke-linejoin="round"/>
<path d="M75.8153 62.5012C75.8153 62.5012 68.3098 64.2156 67.7807 70.8553" stroke="#3A3D3E" stroke-width="3" stroke-linecap="round" stroke-linejoin="round"/>
<path d="M78.126 69.184C78.8563 70.1 79.0003 71.2262 78.4439 71.6875C77.8875 72.1488 76.8446 71.7892 76.1142 70.8732C75.3838 69.9572 75.2351 68.8444 75.7872 68.374C76.3394 67.9037 77.4227 68.2552 78.126 69.184Z" fill="#3A3D3E" stroke="#3A3D3E" stroke-linecap="round" stroke-linejoin="round"/>
<path d="M92.4582 57.1866C93.1885 58.1026 93.3282 59.2197 92.7718 59.681C92.2154 60.1423 91.1725 59.7828 90.4422 58.8668C89.7118 57.9507 89.563 56.8379 90.1194 56.3766C90.6758 55.9153 91.7278 56.2706 92.4582 57.1866Z" fill="#3A3D3E" stroke="#3A3D3E" stroke-linecap="round" stroke-linejoin="round"/>
<path d="M91.8548 85.8288C91.8548 85.8288 101.283 83.3625 103.704 75.2233" stroke="#858585" stroke-linecap="round" stroke-linejoin="round"/>
<path d="M219.841 151.501C208.707 146.855 200.555 158.128 197.523 163.327L205.288 185.846L206.086 190.401C206.086 190.401 201.98 203.171 201.788 205.484C201.513 207.613 200.857 209.676 199.849 211.572C199.096 213.165 196.831 215.206 197.167 216.529C197.503 217.852 201.81 216.551 202.749 215.379C203.689 214.206 205.278 209.51 205.278 209.51L205.802 215.664L224.792 215.092C224.792 215.092 223.508 210.025 222.666 206.973C221.824 203.92 219.441 196.918 219.104 195.595C218.768 194.272 221.44 158.972 219.712 150.876L219.841 151.501Z" fill="white" stroke="#3A3D3E" stroke-linecap="round" stroke-linejoin="round"/>
<path d="M66.2347 128.687C66.2347 128.687 63.914 134.457 64.8267 138.715C65.7393 142.972 74.6555 197.363 74.8778 206.136C75.1002 214.909 77.3123 221.008 80.3885 223.007C83.4647 225.006 125.563 232.554 125.563 232.554C125.563 232.554 134.241 242.26 136.503 244.643C138.765 247.026 142.756 251.059 142.756 251.059L152.661 239.237C154.526 240.03 156.445 240.691 158.403 241.217C160.558 241.683 162.874 241.32 162.705 239.93C162.536 238.539 158.618 236.185 158.618 236.185C157.3 235.092 156.156 233.805 155.226 232.367C154.121 230.422 149.471 228.181 147.447 226.913C145.423 225.645 132.602 223.564 132.602 223.564L98.1313 201.828L91.9617 168.552C91.9617 168.552 68.7299 137.637 66.2347 128.687Z" fill="white" stroke="#3A3D3E" stroke-linecap="round" stroke-linejoin="round"/>
<path d="M98.0946 201.868L95.2208 172.51C95.2208 172.51 68.7257 137.628 66.2347 128.687C66.2347 128.687 63.914 134.457 64.8267 138.715C65.7393 142.972 74.6555 197.363 74.8778 206.136C75.1002 214.909 77.3123 221.008 80.3885 223.007C84.1041 224.99 88.223 226.099 92.4318 226.251C92.5863 221.889 93.5337 211.47 103.544 205.877L98.0946 201.868Z" fill="#C58B5D" stroke="#3A3D3E" stroke-linecap="round" stroke-linejoin="round"/>
<path d="M82.5411 207.476C86.2865 205.198 90.5008 203.8 94.8656 203.39" stroke="#3A3D3E" stroke-linecap="round" stroke-linejoin="round"/>
<path d="M89.7974 201.833C89.7974 201.833 95.4646 200.886 98.0946 201.868" stroke="#3A3D3E" stroke-linecap="round" stroke-linejoin="round"/>
</svg>
