<svg width="119" height="225" viewBox="0 0 119 225" fill="none" xmlns="http://www.w3.org/2000/svg">
<path d="M51.2264 83.4978L47.6641 112.715H42.7515C42.7515 112.715 38.5188 152.178 39.1892 152.408C39.8595 152.638 88.0277 163.555 88.0277 163.555L92.7105 114.046L52.1266 111.824L55.6985 83.0956L51.2264 83.4978Z" fill="#3A3D3E"/>
<path d="M88.0184 164.034H87.9609C83.0292 162.913 39.7544 153.088 39.1223 152.868C38.6052 152.695 38.3371 152.609 40.3289 132.432C41.2865 122.655 42.3495 112.772 42.3687 112.667C42.3806 112.551 42.4352 112.444 42.5219 112.366C42.6087 112.288 42.7213 112.245 42.8379 112.246H47.3196L50.8436 83.4499C50.8545 83.3428 50.9026 83.2429 50.9796 83.1676C51.0566 83.0924 51.1576 83.0466 51.2649 83.0381L55.7274 82.5881C55.7993 82.5827 55.8715 82.5928 55.9392 82.6176C56.0069 82.6423 56.0686 82.6812 56.1201 82.7317C56.1682 82.7841 56.2042 82.8464 56.2257 82.9142C56.2472 82.9821 56.2537 83.0538 56.2446 83.1243L52.7397 111.384L92.8161 113.586C92.8803 113.588 92.9435 113.603 93.0013 113.631C93.0591 113.659 93.1102 113.699 93.1512 113.749C93.1931 113.797 93.2248 113.854 93.2445 113.915C93.2643 113.975 93.2716 114.04 93.2661 114.103L88.5834 163.612C88.577 163.678 88.5567 163.743 88.5237 163.8C88.4906 163.858 88.4457 163.908 88.3919 163.947C88.3398 163.988 88.2793 164.017 88.2147 164.032C88.1502 164.047 88.0831 164.048 88.0184 164.034ZM39.5916 152.015C42.6751 152.762 71.6239 159.341 87.597 162.971L92.184 114.458L52.0981 112.255C52.0324 112.254 51.9678 112.238 51.9084 112.21C51.849 112.182 51.7962 112.142 51.7533 112.092C51.7107 112.041 51.6793 111.981 51.6611 111.917C51.643 111.852 51.6385 111.785 51.648 111.719L55.1433 83.5552L51.6576 83.9L48.1335 112.734C48.1196 112.849 48.0644 112.955 47.9781 113.033C47.8918 113.11 47.7803 113.154 47.6643 113.155H43.1826C41.6217 127.797 39.4575 149.363 39.5916 152.015Z" fill="#3A3D3E"/>
<path d="M31.5188 133.936C31.5188 133.936 32.7924 126.121 31.8348 124.053C30.8772 121.984 21.1478 120.385 15.0956 121.659C9.04344 122.933 1.21969 126.763 0.731308 128.994C0.242922 131.225 2.33053 131.072 5.35661 131.388C8.38269 131.704 14.4444 132.03 16.6757 132.825C18.3441 133.602 19.8168 134.744 20.9849 136.167C20.9849 136.167 24.6622 130.737 31.5188 133.936Z" fill="white"/>
<path d="M20.9945 136.646C20.9234 136.647 20.853 136.631 20.7884 136.602C20.7238 136.572 20.6666 136.528 20.6211 136.473C19.5106 135.115 18.1102 134.022 16.5225 133.275C14.8945 132.691 11.0545 132.317 7.96135 132.107C7.00373 132.02 6.0461 131.944 5.31831 131.867L4.18833 131.752C2.41673 131.599 1.13352 131.484 0.520645 130.661C0.35188 130.403 0.242046 130.112 0.199003 129.807C0.155961 129.503 0.180765 129.192 0.271655 128.899C0.817498 126.342 8.95727 122.463 14.9903 121.19C21.0233 119.916 31.1549 121.439 32.2274 123.852C33.185 125.997 32.0742 133.198 31.9401 134.012C31.9294 134.087 31.9012 134.158 31.858 134.219C31.8147 134.281 31.7576 134.331 31.6912 134.367C31.6252 134.397 31.5533 134.413 31.4805 134.413C31.4077 134.413 31.3358 134.397 31.2698 134.367C24.8729 131.388 21.4829 136.224 21.3393 136.435C21.2983 136.497 21.2429 136.547 21.1777 136.582C21.1126 136.617 21.0398 136.636 20.9658 136.636L20.9945 136.646ZM20.1231 121.669C18.4651 121.652 16.8096 121.803 15.1818 122.119C8.68913 123.488 1.57402 127.328 1.20055 129.09C1.14872 129.247 1.12879 129.412 1.14195 129.577C1.15511 129.741 1.20108 129.901 1.27716 130.048C1.64105 130.536 2.85724 130.641 4.26494 130.766L5.40449 130.871L8.03795 131.111C11.1789 131.379 15.086 131.704 16.8385 132.336C18.4251 133.034 19.8354 134.078 20.9658 135.391C22.1924 133.973 23.848 132.993 25.6816 132.601C27.5152 132.209 29.4267 132.425 31.1261 133.217C31.4996 130.737 32.0838 125.671 31.3943 124.216C30.8197 122.99 25.4187 121.669 20.1231 121.669Z" fill="#3A3D3E"/>
<path d="M28.4831 125.327C29.8813 125.892 31.1453 126.284 32.1891 126.667C32.2404 125.781 32.1201 124.893 31.8348 124.053C30.8772 121.975 21.1478 120.385 15.0956 121.659C9.04346 122.933 1.21972 126.763 0.73133 128.994C0.520654 129.952 0.798354 130.488 1.43996 130.795C3.14547 128.482 5.51316 126.742 8.22949 125.805C14.454 123.411 24.4994 123.737 28.4831 125.327Z" fill="white"/>
<path d="M1.43997 131.273C1.3704 131.271 1.30201 131.255 1.23888 131.226C0.825178 131.019 0.500302 130.669 0.32428 130.241C0.148258 129.814 0.132983 129.337 0.281262 128.899C0.827105 126.342 8.96686 122.463 14.9999 121.19C21.0329 119.916 31.1645 121.439 32.237 123.852C32.5471 124.753 32.6804 125.706 32.6296 126.658C32.6323 126.734 32.6163 126.809 32.5832 126.878C32.5501 126.947 32.5007 127.006 32.4394 127.051C32.3782 127.097 32.3068 127.126 32.2315 127.138C32.1562 127.149 32.0792 127.142 32.0072 127.117C30.7623 126.715 29.4982 126.265 28.2725 125.777C24.5952 124.302 14.6072 123.861 8.37314 126.256C5.75006 127.151 3.4598 128.821 1.80387 131.044C1.76427 131.107 1.71101 131.16 1.64803 131.2C1.58506 131.24 1.51396 131.265 1.43997 131.273ZM20.1231 121.697C18.4661 121.671 16.8106 121.812 15.1818 122.119C8.68916 123.488 1.57404 127.328 1.20057 129.09C1.1354 129.261 1.11185 129.444 1.13183 129.626C1.15182 129.807 1.21478 129.982 1.31549 130.134C3.06269 127.947 5.3836 126.289 8.01883 125.346C14.1667 122.98 24.2983 123.153 28.6172 124.877C29.5748 125.269 30.6378 125.643 31.6433 125.987C31.6564 125.394 31.559 124.803 31.356 124.245C30.8197 122.99 25.4188 121.669 20.1231 121.669V121.697Z" fill="#3A3D3E"/>
<path d="M50.6136 128.994C50.6136 128.994 45.9883 139.04 45.5095 144.623C45.0307 150.206 44.2359 156.421 44.2359 156.421L41.8418 168.228C41.8418 168.228 32.438 138.542 31.9592 136.014C31.8458 134.963 31.3972 133.976 30.6798 133.2C29.9623 132.424 29.0141 131.9 27.9755 131.704C25.8974 131.226 21.4349 131.551 20.6401 133.141C20.4169 133.627 20.3285 134.165 20.3841 134.697C20.4397 135.229 20.6372 135.737 20.9561 136.167C20.9561 136.167 20.1613 136.492 20.7933 138.408C21.3465 139.774 22.1595 141.019 23.1874 142.075C23.1874 142.075 29.0863 173.801 30.8483 180.983C32.6104 188.166 43.4506 201.237 45.0402 199.954C46.6299 198.671 70.896 161.209 71.3556 160.893C71.8153 160.577 75.1861 155.463 75.1861 155.463C75.1861 155.463 78.059 178.905 80.6062 188.319C83.1535 197.732 85.8636 209.204 85.8636 209.204C85.8636 209.204 83.1535 216.54 83.4695 222.439C83.7855 228.338 89.5313 246.676 89.5313 246.676C89.5313 246.676 88.4204 248.275 88.5736 248.917C88.7269 249.559 89.0524 250.507 89.0524 250.507C89.7845 250.682 90.5316 250.788 91.2837 250.823C92.7184 250.803 94.1323 250.477 95.4302 249.865L97.3454 249.233C97.5892 247.646 97.7491 246.048 97.8242 244.445C97.8242 242.855 100.697 207.289 100.86 204.225C101.023 201.16 105.16 177.115 103.407 165.154C101.655 153.193 99.0979 140.122 99.0979 140.122L99.2606 134.223L52.2224 126.725L50.6136 128.994Z" fill="#3A3D3E"/>
<path d="M91.6764 251.321H91.2742C90.4831 251.28 89.6975 251.164 88.9281 250.976C88.8586 250.953 88.7954 250.915 88.7437 250.863C88.6921 250.812 88.6535 250.748 88.6312 250.679C88.6312 250.679 88.3056 249.721 88.1428 249.051C87.98 248.381 88.6312 247.232 89.0334 246.619C88.3535 244.426 83.2877 228.098 83.0291 222.487C82.7706 216.875 85.0114 210.267 85.3944 209.195C85.0784 207.864 82.5216 197.196 80.1658 188.462C77.9824 180.399 75.5405 161.869 74.8989 156.861C73.9329 158.41 72.8576 159.889 71.6813 161.285C71.4132 161.601 67.6881 167.251 63.7522 173.236C53.9558 188.108 46.381 199.542 45.4043 200.327C45.2526 200.438 45.074 200.506 44.8871 200.525C44.7002 200.543 44.5118 200.511 44.3413 200.433C41.2865 199.389 32.0742 187.773 30.4462 181.098C28.7704 174.232 23.2449 144.623 22.7853 142.305C21.7452 141.224 20.9284 139.948 20.3817 138.551C19.9316 137.201 20.1231 136.473 20.3817 136.1C20.0993 135.624 19.9392 135.085 19.9158 134.532C19.8924 133.979 20.0064 133.428 20.2476 132.93C21.2052 131.015 25.9933 130.737 28.1192 131.235C29.246 131.459 30.2732 132.033 31.0541 132.876C31.8349 133.719 32.3294 134.787 32.4668 135.927C32.869 138.063 39.7543 159.868 41.7845 166.313L43.805 156.325C43.805 156.325 44.5999 150.091 45.0691 144.584C45.5383 139.078 50.0296 129.205 50.2211 128.793C50.2211 128.793 50.2211 128.745 50.2211 128.717L51.8203 126.485C51.8702 126.41 51.9417 126.351 52.0254 126.317C52.1091 126.283 52.2011 126.275 52.2895 126.294L99.3278 133.782C99.4428 133.801 99.547 133.861 99.6211 133.951C99.6951 134.041 99.7338 134.154 99.73 134.271L99.5768 140.122C99.7492 141.032 102.191 153.672 103.867 165.125C105.265 174.596 102.976 191.642 101.875 199.829C101.578 202.051 101.358 203.66 101.329 204.292C101.253 205.623 100.649 213.351 100.017 221.529C99.2129 231.852 98.2936 243.554 98.2936 244.435C98.2205 246.061 98.0607 247.682 97.8148 249.29C97.8013 249.378 97.7638 249.46 97.7063 249.528C97.6488 249.596 97.5736 249.646 97.4892 249.673L95.5739 250.315C94.3476 250.887 93.0264 251.228 91.6764 251.321ZM89.4547 250.104C90.0883 250.221 90.7276 250.304 91.37 250.353C92.7209 250.304 94.0473 249.978 95.2675 249.396L96.9529 248.831C97.1755 247.365 97.3194 245.888 97.3838 244.407C97.3838 243.497 98.2649 232.274 99.1076 221.424C99.7492 213.246 100.343 205.527 100.419 204.187C100.419 203.526 100.668 201.898 100.975 199.657C102.067 191.508 104.346 174.558 102.976 165.183C101.243 153.375 98.6958 140.285 98.667 140.17C98.6383 140.055 98.667 140.103 98.667 140.064L98.8203 134.587L52.4811 127.204L51.0925 129.119C50.7669 129.827 46.4959 139.289 46.0459 144.546C45.5766 150.072 44.7722 156.306 44.7722 156.373L42.3686 168.209C42.3749 168.336 42.3306 168.46 42.2453 168.554C42.16 168.649 42.0407 168.705 41.9137 168.712C41.7867 168.718 41.6624 168.674 41.5681 168.588C41.4739 168.503 41.4173 168.384 41.411 168.257C41.0279 167.041 31.988 138.57 31.5092 135.985C31.4109 135.026 31.0039 134.124 30.3494 133.416C29.6949 132.708 28.8283 132.232 27.8798 132.059C25.8401 131.589 21.7032 131.992 21.0807 133.237C20.8991 133.644 20.8283 134.093 20.8754 134.537C20.9225 134.98 21.0858 135.404 21.3489 135.765C21.3962 135.823 21.429 135.891 21.4446 135.964C21.4601 136.037 21.458 136.113 21.4383 136.185C21.4186 136.257 21.382 136.324 21.3315 136.379C21.2809 136.434 21.2179 136.476 21.1478 136.502C21.0807 136.559 20.8892 137 21.2722 138.14C21.8003 139.432 22.5706 140.612 23.5418 141.616C23.6084 141.685 23.6547 141.771 23.6759 141.865C23.7333 142.19 29.594 173.667 31.3368 180.754C33.0797 187.84 43.2209 199.753 44.8009 199.446C45.7586 198.69 56.0626 182.985 62.9095 172.633C70.2162 161.553 70.8961 160.557 71.1068 160.414C71.3174 160.27 73.2327 157.541 74.8032 155.128C74.8552 155.044 74.9325 154.98 75.0238 154.944C75.1152 154.907 75.2157 154.902 75.3107 154.927C75.4055 154.948 75.4915 154.998 75.5567 155.07C75.6218 155.142 75.6631 155.232 75.6746 155.329C75.6746 155.568 78.5475 178.848 81.0852 188.118C83.6228 197.387 86.3233 208.908 86.3521 209.023C86.3806 209.11 86.3806 209.204 86.3521 209.291C86.3521 209.367 83.6803 216.607 83.9867 222.343C84.2932 228.079 89.9719 246.283 90.0293 246.456C90.0522 246.526 90.0581 246.601 90.0464 246.675C90.0348 246.748 90.006 246.817 89.9623 246.877C89.5323 247.419 89.231 248.051 89.0813 248.725C89.177 249.214 89.3494 249.779 89.4547 250.104Z" fill="#3A3D3E"/>
<path d="M41.7269 169.655C40.348 175.533 39.388 181.501 38.854 187.514L41.7269 169.655Z" fill="white"/>
<path d="M38.854 187.993C38.7907 187.991 38.7285 187.976 38.6711 187.949C38.6138 187.921 38.5626 187.883 38.5205 187.836C38.4784 187.788 38.4464 187.733 38.4264 187.673C38.4064 187.612 38.3987 187.549 38.4039 187.486C38.9377 181.447 39.8977 175.453 41.2768 169.549C41.2913 169.487 41.318 169.427 41.3554 169.375C41.3928 169.322 41.4402 169.277 41.4949 169.243C41.5496 169.209 41.6105 169.186 41.6741 169.175C41.7377 169.164 41.8029 169.166 41.8657 169.181C41.9286 169.195 41.988 169.222 42.0406 169.259C42.0931 169.297 42.1378 169.344 42.172 169.399C42.2063 169.454 42.2294 169.514 42.2401 169.578C42.2508 169.642 42.2489 169.707 42.2344 169.77C40.8629 175.623 39.903 181.565 39.3616 187.553C39.3517 187.678 39.293 187.794 39.198 187.877C39.1031 187.959 38.9795 188.001 38.854 187.993Z" fill="#3A3D3E"/>
<path d="M62.9287 52.289C62.9287 52.289 53.6877 62.1812 50.1732 65.5329C46.6587 68.8846 24.1834 98.092 23.8674 98.8581C23.5514 99.6242 23.2258 107.946 30.0823 106.193C36.9389 104.441 52.2512 89.7702 52.2512 89.7702C52.2512 89.7702 60.6974 94.07 62.4499 96.6268C63.148 97.7015 63.5845 98.9249 63.7242 100.199C63.8639 101.473 63.7029 102.762 63.2543 103.962C62.6127 106.031 51.1308 126.284 50.652 128.994C50.652 128.994 55.4401 138.408 73.1369 138.887C90.8337 139.365 98.8107 135.698 99.2895 134.261C99.6146 132.903 99.7754 131.511 99.7683 130.115C99.7683 130.115 100.563 108.587 100.084 99.9689C99.6055 91.3503 100.41 84.0245 98.0159 70.7902C95.6218 57.5559 95.3058 55.4683 95.3058 55.4683C95.3058 55.4683 104.078 38.5663 110.771 25.4948C117.465 12.4233 118.902 5.07839 117.149 2.84714C115.397 0.615889 108.856 -0.0257159 104.556 6.67762C100.257 13.381 94.6642 27.0941 92.4329 30.1297C89.383 33.9846 85.782 37.3694 81.7459 40.1751C77.9154 42.7224 72.6581 45.4325 72.6581 45.4325C72.6581 45.4325 64.3651 49.1002 62.9287 52.289Z" fill="white"/>
<path d="M76.2012 139.404C75.2436 139.404 74.1806 139.404 73.1272 139.404C55.3442 138.915 50.4317 129.645 50.2306 129.253C50.1977 129.153 50.1977 129.046 50.2306 128.946C50.5274 127.28 54.559 119.705 58.1309 113.031C60.4196 108.731 62.5934 104.661 62.8424 103.857C63.6755 101.137 63.4361 98.8676 62.105 96.9332C60.6207 94.7785 53.8886 91.1875 52.3756 90.3831C50.3072 92.3558 36.7473 105.035 30.245 106.663C27.9467 107.256 26.1464 106.845 24.9207 105.437C23.0054 103.273 23.197 99.356 23.4651 98.7335C23.8864 97.6897 46.5533 68.4249 49.8954 65.2168C53.2375 62.0088 61.8273 52.8635 62.5743 52.0591C64.1543 48.7649 72.1504 45.1834 72.5143 45.0398C72.5143 45.0398 77.7717 42.3202 81.5351 39.8112C85.516 37.0375 89.0656 33.6913 92.0689 29.8807C93.8093 26.957 95.3668 23.9284 96.7325 20.812C98.9468 15.8908 101.431 11.0954 104.173 6.44774C106.347 3.0482 109.478 1.01804 112.792 0.864822C113.668 0.763914 114.556 0.866046 115.386 1.1633C116.216 1.46055 116.967 1.94494 117.58 2.57896C119.715 5.28902 117.408 13.7352 111.25 25.7438C104.958 38.0396 96.723 53.9265 95.8611 55.5832C95.9664 56.2535 96.5027 59.4137 98.5424 70.7231C99.8612 77.9704 100.502 85.3248 100.458 92.6909C100.458 95.1616 100.525 97.479 100.659 99.9688C101.138 108.501 100.352 129.933 100.343 130.153C100.349 131.592 100.179 133.027 99.8352 134.424C99.1457 136.196 91.4369 139.404 76.2012 139.404ZM51.1594 128.87C51.8585 130.038 57.1733 137.919 73.1847 138.36C90.9485 138.848 98.5424 135.066 98.8776 134.06C99.181 132.751 99.332 131.411 99.3277 130.067C99.3277 129.827 100.123 108.444 99.6437 99.9497C99.5096 97.4599 99.4809 95.1137 99.4426 92.6335C99.4799 85.3379 98.8419 78.0544 97.5369 70.8764C95.1716 57.7857 94.8269 55.5545 94.8173 55.5545C94.8052 55.453 94.8217 55.3501 94.8652 55.2576C94.9609 55.0948 103.714 38.212 110.34 25.2841C117.264 11.753 118.202 4.98258 116.766 3.15353C116.243 2.6451 115.613 2.26 114.922 2.02638C114.231 1.79276 113.497 1.71654 112.773 1.80329C109.814 1.93736 106.96 3.8143 104.949 6.94571C102.218 11.5523 99.7438 16.3062 97.5369 21.1855C95.5451 25.3703 93.8309 28.9901 92.7488 30.4074C89.6704 34.3097 86.0302 37.7337 81.9469 40.5677C78.1164 43.1054 72.8687 45.8346 72.8112 45.8633C72.7537 45.8921 64.6427 49.5023 63.302 52.4901C63.2826 52.5401 63.2533 52.5856 63.2159 52.6241C63.1201 52.7199 53.9174 62.5547 50.4412 65.8776C46.9651 69.2005 24.8441 97.91 24.2312 99.0591C24.1067 99.4038 23.8481 102.937 25.5527 104.805C26.5103 105.887 27.985 106.184 29.9003 105.695C36.5557 104 51.6957 89.5404 51.8489 89.4159C51.9198 89.3469 52.0104 89.3015 52.1082 89.2861C52.2059 89.2707 52.306 89.2859 52.3948 89.3297C52.7491 89.5116 61.0133 93.7252 62.7849 96.3395C63.5256 97.473 63.9887 98.7652 64.1368 100.111C64.2849 101.457 64.1137 102.819 63.6372 104.087C63.3787 104.939 61.6549 108.195 58.8491 113.433C55.6698 119.533 51.6478 127.069 51.1594 128.918V128.87Z" fill="#3A3D3E"/>
<path d="M99.2893 134.261C99.6144 132.903 99.7751 131.511 99.7681 130.115C99.7681 130.115 100.563 108.587 100.084 99.9688C99.6053 91.3503 100.41 84.0245 98.0156 70.7902C95.6216 57.5559 95.3056 55.4683 95.3056 55.4683C95.3056 55.4683 99.2701 47.8073 103.924 38.8248L94.7789 25.9066C94.1011 27.3648 93.3203 28.7729 92.4423 30.1201C89.3923 33.9749 85.7913 37.3597 81.7552 40.1655C77.9248 42.7128 72.6675 45.4228 72.6675 45.4228C72.6675 45.4228 64.3745 49.0905 62.938 52.2794C62.938 52.2794 53.697 62.1716 50.1826 65.5233C47.9896 67.6109 38.4038 79.7822 31.4324 88.8126L46.6968 94.7977C49.9336 91.9823 52.2606 89.7606 52.2606 89.7606C52.2606 89.7606 60.7068 94.0603 62.4592 96.6171C63.1574 97.6918 63.5939 98.9153 63.7336 100.189C63.8732 101.463 63.7123 102.752 63.2636 103.953C62.622 106.021 51.1402 126.275 50.6614 128.985C50.6614 128.985 55.4495 138.398 73.1463 138.877C90.8431 139.356 98.8104 135.698 99.2893 134.261Z" fill="#DD7F34"/>
<path d="M76.2015 139.404C75.2439 139.404 74.1809 139.404 73.1276 139.404C55.3446 138.915 50.432 129.645 50.2309 129.253C50.198 129.153 50.198 129.046 50.2309 128.946C50.5277 127.28 54.5593 119.705 58.1312 113.031C60.4199 108.731 62.5937 104.661 62.8427 103.857C63.6758 101.137 63.4364 98.8676 62.1053 96.9332C60.621 94.7786 53.889 91.1875 52.3759 90.3831C51.696 91.0343 49.6563 92.9399 47.0516 95.1712C46.9858 95.2288 46.9055 95.2673 46.8194 95.2825C46.7333 95.2977 46.6447 95.289 46.5632 95.2574L31.2892 89.2723C31.2205 89.2421 31.1593 89.1973 31.1097 89.1411C31.0601 89.0849 31.0233 89.0185 31.0019 88.9467C30.9824 88.8761 30.9801 88.802 30.9951 88.7303C31.0101 88.6587 31.042 88.5917 31.0881 88.5349C36.9583 80.8739 47.5304 67.4673 49.8957 65.1786C53.2186 62.0088 61.8276 52.8253 62.5746 52.0209C64.1547 48.7267 72.1508 45.1452 72.5147 45.0015C72.5147 45.0015 77.772 42.2819 81.5354 39.7729C85.5164 36.9993 89.0659 33.653 92.0693 29.8424C92.9334 28.522 93.6984 27.1392 94.358 25.7055C94.3951 25.6311 94.4507 25.5674 94.5194 25.5204C94.5882 25.4735 94.6677 25.4449 94.7506 25.4374C94.8334 25.4331 94.9159 25.4493 94.9911 25.4843C95.0662 25.5194 95.1316 25.5723 95.1815 25.6385L104.327 38.5568C104.371 38.6321 104.395 38.7181 104.395 38.8057C104.395 38.8933 104.371 38.9793 104.327 39.0547C100.056 47.3381 96.3498 54.482 95.7944 55.5641C95.8997 56.2344 96.436 59.3945 98.4757 70.704C99.7945 77.9513 100.436 85.3057 100.391 92.6718C100.391 95.1425 100.458 97.4599 100.592 99.9497C101.071 108.482 100.286 129.914 100.276 130.134C100.283 131.573 100.112 133.007 99.7685 134.405C99.146 136.196 91.4372 139.404 76.2015 139.404ZM51.1598 128.87C51.8588 130.038 57.1736 137.919 73.185 138.36C90.9393 138.839 98.5427 135.066 98.8779 134.06C99.1813 132.751 99.3324 131.411 99.328 130.067C99.328 129.827 100.123 108.444 99.644 99.9497C99.51 97.4599 99.4812 95.1137 99.4429 92.6335C99.4802 85.3379 98.8423 78.0545 97.5373 70.8764C95.1719 57.7858 94.8272 55.5545 94.8176 55.5545C94.8055 55.453 94.822 55.3501 94.8655 55.2576C94.8655 55.2576 98.763 47.7499 103.34 38.8728L94.8272 26.8451C94.2448 28.0819 93.5693 29.2728 92.8066 30.4074C89.7282 34.3097 86.0879 37.7338 82.0047 40.5678C78.1742 43.1054 72.9264 45.8347 72.869 45.8634C72.8115 45.8921 64.7005 49.5023 63.3598 52.4901C63.3403 52.5401 63.311 52.5857 63.2736 52.6242C63.1779 52.7199 53.9752 62.5547 50.499 65.8776C48.4976 67.7929 39.9652 78.5757 32.1797 88.6115L46.544 94.2519C49.6276 91.5705 51.8492 89.4638 51.8684 89.4638C51.9393 89.3948 52.0299 89.3494 52.1276 89.334C52.2254 89.3186 52.3255 89.3338 52.4142 89.3776C52.7686 89.5595 61.0328 93.7731 62.8044 96.3874C63.5451 97.521 64.0082 98.8131 64.1563 100.159C64.3044 101.505 64.1332 102.867 63.6567 104.135C63.3981 104.987 61.6744 108.243 58.8686 113.481C55.6701 119.533 51.6482 127.07 51.1598 128.918V128.87Z" fill="#3A3D3E"/>
<path d="M52.2512 90.249C52.1653 90.2483 52.0811 90.2248 52.0071 90.1811C51.9331 90.1374 51.872 90.075 51.8299 90.0001C51.7723 89.9019 51.7531 89.7859 51.7761 89.6745C51.7991 89.563 51.8626 89.4641 51.9543 89.3968L58.9641 83.8138C59.064 83.7474 59.1852 83.7209 59.3037 83.7396C59.4222 83.7583 59.5294 83.8207 59.604 83.9146C59.6786 84.0085 59.7153 84.127 59.7068 84.2467C59.6982 84.3663 59.6451 84.4784 59.5578 84.5608L54.7697 88.3912L63.599 85.3269C63.7196 85.285 63.852 85.2927 63.9669 85.3484C64.0819 85.404 64.17 85.5031 64.2119 85.6237C64.2538 85.7444 64.246 85.8767 64.1904 85.9916C64.1347 86.1066 64.0357 86.1947 63.915 86.2366L52.4236 90.2203C52.3687 90.2416 52.31 90.2513 52.2512 90.249Z" fill="#3A3D3E"/>
<path d="M95.3058 55.9567C95.1854 55.9519 95.0712 55.902 94.986 55.8168C94.9008 55.7316 94.8509 55.6174 94.8462 55.497L94.3673 41.9467C94.3648 41.8838 94.3746 41.821 94.3964 41.7619C94.4181 41.7029 94.4512 41.6486 94.4939 41.6024C94.5366 41.5561 94.588 41.5188 94.6451 41.4924C94.7023 41.466 94.7641 41.4512 94.827 41.4487C94.9534 41.446 95.0758 41.4924 95.1687 41.5781C95.2615 41.6639 95.3176 41.7822 95.325 41.9084L95.574 49.0522L96.7614 38.6812C96.7689 38.6183 96.7888 38.5575 96.8198 38.5023C96.8508 38.4471 96.8925 38.3986 96.9423 38.3595C96.9921 38.3203 97.0491 38.2914 97.11 38.2743C97.171 38.2572 97.2348 38.2523 97.2977 38.2598C97.3605 38.2674 97.4213 38.2873 97.4765 38.3183C97.5317 38.3493 97.5803 38.3909 97.6194 38.4407C97.6585 38.4905 97.6875 38.5475 97.7045 38.6085C97.7216 38.6695 97.7266 38.7332 97.719 38.7961L95.8038 55.5353C95.7916 55.6564 95.7329 55.768 95.64 55.8467C95.5471 55.9253 95.4273 55.9647 95.3058 55.9567Z" fill="#3A3D3E"/>
<path d="M117.647 8.10443C117.647 8.10443 118.394 4.50378 117.187 2.85667C115.981 1.20957 112.083 0.740335 107.276 2.69388C102.469 4.64742 78.2602 16.3782 76.0002 18.6287C73.7402 20.8791 68.186 28.406 68.186 28.406L77.5037 36.3734C78.4766 34.5978 79.2813 32.7351 79.9073 30.8096C80.5106 28.5496 79.4572 22.191 79.4572 22.191C79.4572 22.191 95.5452 16.3304 99.7587 16.3304C103.972 16.3304 112.687 12.7201 114.487 10.9198" fill="white"/>
<path d="M77.4271 36.8905C77.3151 36.8871 77.2074 36.8467 77.1207 36.7756L67.851 28.7699C67.7577 28.6914 67.6979 28.5804 67.6837 28.4595C67.6695 28.3385 67.7019 28.2166 67.7744 28.1187C68.0042 27.8123 73.386 20.5439 75.6364 18.2935C78.04 15.8899 102.584 4.07288 107.065 2.2534C112.237 0.146637 116.259 0.826544 117.542 2.57899C118.825 4.33143 118.116 8.047 118.088 8.20979C118.061 8.33678 117.985 8.44797 117.876 8.51891C117.768 8.58985 117.635 8.61472 117.508 8.58805C117.381 8.56138 117.27 8.48536 117.199 8.37671C117.128 8.26806 117.103 8.13567 117.13 8.00869C117.322 7.05107 117.638 4.34101 116.757 3.14399C115.713 1.72671 112.074 1.22875 107.401 3.14399C102.287 5.22202 78.4518 16.8092 76.2972 18.9734C74.3819 20.8887 69.9194 26.8068 68.7894 28.3294L77.3122 35.6168C78.1575 34.0403 78.8563 32.3894 79.3998 30.6851C79.9648 28.5592 78.9497 22.3826 78.9402 22.3155C78.9221 22.2058 78.9429 22.0932 78.9988 21.9971C79.0547 21.901 79.1423 21.8274 79.2466 21.7888C79.9074 21.5494 95.4591 15.8995 99.7109 15.8995C103.81 15.8995 112.361 12.3659 114.075 10.623C114.165 10.5353 114.285 10.4861 114.41 10.4861C114.536 10.4861 114.656 10.5353 114.746 10.623C114.79 10.6675 114.826 10.7205 114.85 10.7788C114.875 10.8372 114.887 10.8997 114.887 10.9629C114.887 11.0262 114.875 11.0887 114.85 11.1471C114.826 11.2054 114.79 11.2584 114.746 11.3029C112.83 13.2181 104.059 16.8571 99.6822 16.8571C95.9475 16.8571 82.3493 21.6452 79.917 22.5549C80.1468 23.9914 80.8746 28.9135 80.3 30.9341C79.6599 32.8955 78.8392 34.7934 77.8485 36.6032C77.8134 36.6651 77.7653 36.7186 77.7074 36.76C77.6495 36.8013 77.5833 36.8295 77.5133 36.8426L77.4271 36.8905Z" fill="#3A3D3E"/>
<path d="M57.6619 50.4025C57.6619 50.4025 61.7509 54.3574 62.7085 55.9854C63.9782 57.707 65.7377 59.0055 67.7572 59.7111C69.7766 60.4167 71.962 60.4966 74.0276 59.9403C79.8882 58.3028 77.159 50.1247 76.7472 49.7225C76.3354 49.3203 70.2067 52.854 66.3858 52.3081C63.4465 51.826 60.5345 51.1899 57.6619 50.4025Z" fill="white"/>
<path d="M71.2217 60.8309C69.4804 60.8154 67.7668 60.3935 66.2173 59.5988C64.6679 58.8041 63.3254 57.6586 62.2967 56.2535C61.387 54.6926 57.3745 50.8047 57.3362 50.7664C57.2553 50.6935 57.2016 50.5952 57.184 50.4877C57.1664 50.3802 57.1861 50.2699 57.2396 50.175C57.2932 50.0802 57.3775 50.0064 57.4786 49.9659C57.5798 49.9255 57.6917 49.9207 57.7959 49.9524C60.6473 50.7498 63.5405 51.3892 66.4623 51.8676C68.8372 52.2124 72.3421 50.8047 74.4393 49.9524C76.1918 49.2437 76.728 48.9948 77.0919 49.397C78.1725 51.621 78.4759 54.1431 77.9538 56.56C77.7309 57.4897 77.2552 58.3397 76.5791 59.0157C75.903 59.6918 75.0531 60.1676 74.1233 60.3904C73.1806 60.6686 72.2044 60.8168 71.2217 60.8309ZM59.2323 51.3122C60.6407 52.6712 61.9228 54.1552 63.0628 55.746C64.2857 57.3667 65.963 58.5871 67.8813 59.2521C69.7996 59.9171 71.8724 59.9967 73.836 59.4807C74.5206 59.3174 75.1531 58.9844 75.6752 58.5125C76.1973 58.0406 76.5923 57.4449 76.8238 56.7802C77.7239 54.3 76.7663 51.0345 76.412 50.1918C76.0673 50.2876 75.3682 50.5653 74.7362 50.8142C72.4092 51.7719 68.8947 53.1604 66.2612 52.7869C63.9151 52.4422 61.0518 51.7623 59.2323 51.3122Z" fill="#3A3D3E"/>
<path d="M45.5288 24.9011C45.5288 24.9011 43.2114 32.1311 40.7407 33.7686C38.2701 35.4061 28.8758 29.6796 20.5637 31.997C12.2515 34.3145 10.3363 42.5308 10.614 44.6759C10.7284 45.8776 11.1008 47.0404 11.7057 48.085C11.8383 46.1893 12.4477 44.3579 13.4773 42.7607C14.6652 41.2332 16.2065 40.0172 17.9685 39.2175C17.9685 39.2175 10.7481 48.899 15.7947 55.4395C17.1639 57.2861 18.9876 58.747 21.0885 59.68C23.1895 60.613 25.4961 60.9864 27.7841 60.7639C27.3819 60.7639 25.0645 58.9923 25.4667 57.2207C25.8689 55.4491 28.7418 53.2657 28.7418 53.2657C28.7418 53.2657 26.9702 59.0114 29.4217 60.7639C31.8732 62.5163 40.9131 66.7586 47.9612 64.4412C55.0092 62.1237 60.7837 51.9921 59.2802 48.6309C57.7768 45.2696 51.9161 36.1818 53.9654 32.9451C55.1365 31.1866 55.8839 29.1805 56.1488 27.0844C56.1488 27.0844 54.3772 23.5412 50.9681 23.1295C49.9869 23.0052 48.9904 23.0996 48.05 23.4059C47.1096 23.7122 46.2486 24.2228 45.5288 24.9011Z" fill="#3A3D3E"/>
<path d="M43.4603 65.619C38.3828 65.4442 33.4452 63.9097 29.163 61.1757C27.2478 59.8159 27.5734 56.5408 27.9469 54.6256C27.0668 55.356 26.3823 56.2939 25.955 57.3548C25.639 58.705 27.4489 60.2276 27.8702 60.3138C27.9736 60.3152 28.073 60.3537 28.1503 60.4222C28.2277 60.4908 28.2778 60.5849 28.2916 60.6873C28.3146 60.7939 28.3006 60.9051 28.2519 61.0026C28.2031 61.1001 28.1225 61.1781 28.0235 61.2236C27.5064 61.4725 20.3625 62.1142 15.4308 55.7651C11.4471 50.594 14.6551 43.7374 16.5225 40.6156C15.5022 41.2685 14.6071 42.0988 13.8794 43.0671C12.9106 44.5919 12.3318 46.3316 12.194 48.1329C12.1915 48.2336 12.1565 48.3308 12.0945 48.4101C12.0324 48.4895 11.9464 48.5467 11.8493 48.5734C11.7566 48.5945 11.6598 48.5875 11.5712 48.5534C11.4825 48.5193 11.4059 48.4596 11.3513 48.3819C10.7054 47.2771 10.3068 46.0454 10.183 44.7717C9.90531 42.5691 11.7056 34.0176 20.487 31.5757C25.4666 30.1775 30.8772 31.6236 34.8513 32.6769C37.456 33.3664 39.6968 33.9697 40.5395 33.4047C42.4548 32.1407 44.4945 26.7588 45.1265 24.7862C45.1483 24.7187 45.1842 24.6567 45.2319 24.6042C46.0045 23.8687 46.9316 23.3151 47.9456 22.9837C48.9595 22.6524 50.0347 22.5517 51.0925 22.689C54.7123 23.1199 56.5605 26.7493 56.6371 26.9025C56.6753 26.9765 56.695 27.0586 56.6946 27.1419C56.425 29.3202 55.6512 31.4055 54.4346 33.2323C52.9982 35.5402 56.1583 41.5062 58.2651 45.4516C58.9067 46.6486 59.4525 47.6924 59.7973 48.4681C60.3623 49.7417 60.075 51.791 58.9833 54.2138C57.1734 58.2645 53.0269 63.3303 48.1909 64.92C46.6612 65.4028 45.0643 65.6387 43.4603 65.619ZM28.7608 52.7869C28.8599 52.7874 28.9566 52.8174 29.0385 52.8731C29.1212 52.93 29.1834 53.0118 29.2162 53.1065C29.2489 53.2013 29.2504 53.3041 29.2205 53.3998C28.7513 54.9033 27.9469 59.0881 29.728 60.3713C32.1508 62.1237 40.9513 66.2319 47.8366 63.9911C52.3949 62.4972 56.3307 57.6612 58.0544 53.802C59.012 51.6857 59.2993 49.8183 58.8588 48.8224C58.5332 48.0755 57.9874 47.0508 57.3649 45.8729C55.0283 41.4775 51.8395 35.4732 53.5344 32.6961C54.627 31.0357 55.3428 29.1563 55.6316 27.1898C55.306 26.6056 53.6589 23.9435 50.8914 23.6083C49.9985 23.4906 49.0908 23.5684 48.231 23.8363C47.3712 24.1042 46.5798 24.5557 45.9118 25.1596C45.5958 26.1172 43.4028 32.5524 40.9896 34.1612C39.783 34.9656 37.5805 34.3719 34.5161 33.5579C30.4558 32.4854 25.4092 31.1352 20.6689 32.4567C12.6058 34.7071 10.8246 42.6745 11.0928 44.6185C11.1668 45.2099 11.295 45.7933 11.4758 46.3613C11.7588 44.9907 12.3087 43.6891 13.0942 42.5308C14.3356 40.9279 15.9496 39.6524 17.7961 38.8153C17.8932 38.7724 18.0018 38.763 18.1049 38.7886C18.2079 38.8142 18.2995 38.8733 18.3653 38.9566C18.4311 39.0399 18.4673 39.1427 18.4683 39.2489C18.4693 39.3551 18.4349 39.4586 18.3707 39.5431C18.2941 39.6388 11.4183 49.0139 16.1777 55.1906C17.3678 56.7722 18.9016 58.063 20.6633 58.9654C22.425 59.8678 24.3687 60.3584 26.3476 60.4C26.1586 60.215 25.9796 60.02 25.8114 59.8159C25.4822 59.4617 25.2392 59.0364 25.1013 58.573C24.9635 58.1096 24.9345 57.6206 25.0165 57.1441C25.457 55.2289 28.3395 53.0168 28.464 52.921C28.5427 52.8408 28.6486 52.793 28.7608 52.7869Z" fill="#3A3D3E"/>
<path d="M77.9046 41.2843C79.234 40.4984 78.8826 37.4439 77.1197 34.4618C75.3568 31.4798 72.85 29.6994 71.5206 30.4853C70.1912 31.2712 70.5426 34.3258 72.3055 37.3078C74.0684 40.2899 76.5752 42.0702 77.9046 41.2843Z" fill="white"/>
<path d="M77.1684 41.9467C75.5787 41.9467 73.4911 40.2613 71.8823 37.5512C71.0535 36.1999 70.5063 34.695 70.2735 33.127C70.1011 31.6331 70.4554 30.551 71.2311 30.0722C72.8399 29.1146 75.5308 30.8957 77.494 34.2091C79.4571 37.5225 79.7156 40.7401 78.1068 41.6881C77.8215 41.8537 77.4982 41.9427 77.1684 41.9467ZM72.7059 37.0628C74.4487 40.0027 76.7087 41.4295 77.6567 40.8933C78.6048 40.357 78.442 37.6661 76.6991 34.7262C74.9562 31.7863 72.7058 30.369 71.7578 30.8957C71.2981 31.1639 71.097 31.9395 71.2215 33.0121C71.4409 34.4479 71.9456 35.8252 72.7059 37.0628Z" fill="#3A3D3E"/>
<path d="M53.3047 25.9927C53.3047 25.9927 48.124 32.1024 48.6985 34.9752C49.2731 37.8481 50.7383 37.4267 50.7383 38.8057C50.7383 40.1847 50.4701 42.3489 50.4701 42.3489C50.4701 42.3489 57.6906 50.0098 59.6058 51.9251C61.5211 53.8403 73.0987 56.7132 76.3737 54.2425C79.6488 51.7719 76.7759 40.8358 75.5502 37.8864C74.3244 34.9369 69.9673 28.3102 68.5979 26.5673C67.2285 24.8245 55.0763 22.5836 53.3047 25.9927Z" fill="white"/>
<path d="M72.055 55.6406C67.219 55.6406 60.7455 53.7254 59.2324 52.2411C57.3172 50.3259 50.1638 42.7607 50.0872 42.6649C50.0399 42.6139 50.0042 42.5533 49.9827 42.4871C49.9612 42.421 49.9544 42.3509 49.9627 42.2819C49.9627 42.2819 50.2308 40.1081 50.2308 38.7961C50.2308 38.4322 50.1063 38.2982 49.7424 37.963C48.8926 37.2276 48.3437 36.2048 48.2007 35.0901C47.6357 32.1407 52.2227 26.5482 52.9026 25.7342C53.4963 24.6521 54.9519 24.0009 57.2119 23.819C61.3488 23.4551 67.8223 24.7766 68.9523 26.28C70.1972 27.8984 74.698 34.5251 75.9716 37.7044C77.1687 40.6443 80.2714 51.8964 76.6324 54.6256C75.2438 55.4176 73.6482 55.7715 72.055 55.6406ZM50.9873 42.1861C52.0503 43.3065 58.2365 49.8471 59.9602 51.5612C61.8276 53.4764 73.0892 56.0907 76.1057 53.8307C79.1222 51.5708 76.3738 41.0848 75.1481 38.0396C73.9702 35.1667 69.6801 28.6837 68.2628 26.8355C67.4871 25.83 61.5595 24.3648 57.3555 24.7383C55.4403 24.9106 54.205 25.4182 53.7932 26.213L53.7357 26.3088C52.3376 27.9654 48.7944 32.744 49.2062 34.9273C49.309 35.8491 49.7573 36.6977 50.4607 37.3022C50.7038 37.4776 50.9024 37.7076 51.0405 37.9737C51.1785 38.2398 51.2522 38.5346 51.2555 38.8344C51.1884 39.9453 51.0065 41.5924 50.9395 42.1861H50.9873Z" fill="#3A3D3E"/>
<path d="M57.2594 40.3762C57.2056 40.3861 57.1504 40.3861 57.0966 40.3762C56.9771 40.3328 56.8792 40.2445 56.8237 40.13C56.7683 40.0156 56.7597 39.884 56.7998 39.7633C57.0915 38.9987 57.5591 38.3134 58.1646 37.7628C58.7701 37.2121 59.4966 36.8116 60.2855 36.5936C60.3484 36.5798 60.4133 36.5785 60.4767 36.5897C60.5401 36.601 60.6007 36.6247 60.6549 36.6594C60.7092 36.694 60.756 36.7391 60.7929 36.7919C60.8297 36.8447 60.8558 36.9042 60.8696 36.9671C60.8835 37.03 60.8848 37.0949 60.8735 37.1583C60.8622 37.2217 60.8386 37.2823 60.8039 37.3365C60.7692 37.3907 60.7242 37.4376 60.6714 37.4745C60.6186 37.5113 60.559 37.5374 60.4962 37.5512C59.8675 37.7368 59.2896 38.0637 58.8066 38.5068C58.3236 38.95 57.9484 39.4977 57.7095 40.1081C57.6686 40.1917 57.6043 40.2615 57.5244 40.3091C57.4444 40.3568 57.3524 40.3801 57.2594 40.3762Z" fill="#3A3D3E"/>
<path d="M54.6643 38.6046C54.539 38.5996 54.4207 38.5456 54.3347 38.4543C54.2488 38.363 54.2021 38.2416 54.2047 38.1162C54.2349 36.95 54.6259 35.8219 55.3239 34.8872C56.0219 33.9525 56.9926 33.2572 58.1022 32.8972C58.1651 32.8802 58.2307 32.8757 58.2953 32.8841C58.3599 32.8925 58.4222 32.9135 58.4786 32.946C58.5351 32.9784 58.5846 33.0217 58.6244 33.0733C58.6641 33.1249 58.6933 33.1838 58.7103 33.2467C58.7273 33.3096 58.7317 33.3752 58.7233 33.4398C58.7149 33.5044 58.6939 33.5666 58.6615 33.6231C58.629 33.6796 58.5858 33.7291 58.5342 33.7689C58.4826 33.8086 58.4236 33.8378 58.3608 33.8548C57.4427 34.1524 56.6407 34.7297 56.0672 35.5059C55.4936 36.2821 55.1772 37.2182 55.1623 38.1832C55.1479 38.3034 55.0886 38.4136 54.9962 38.4918C54.9038 38.57 54.7852 38.6103 54.6643 38.6046Z" fill="#3A3D3E"/>
<path d="M68.9808 40.2421C68.9143 40.2432 68.8482 40.23 68.7872 40.2036C68.7261 40.1772 68.6713 40.1381 68.6265 40.0889C68.5816 40.0444 68.546 39.9914 68.5217 39.9331C68.4974 39.8747 68.4849 39.8122 68.4849 39.7489C68.4849 39.6857 68.4974 39.6232 68.5217 39.5648C68.546 39.5065 68.5816 39.4535 68.6265 39.409C69.6799 38.4514 69.2298 37.7044 69.2298 37.7044C69.1951 37.6514 69.1714 37.5919 69.1603 37.5295C69.1492 37.4671 69.1509 37.4031 69.1652 37.3413C69.1795 37.2796 69.2062 37.2213 69.2436 37.1702C69.2811 37.119 69.3285 37.076 69.383 37.0437C69.4353 37.0091 69.4941 36.9857 69.5557 36.9747C69.6174 36.9637 69.6807 36.9654 69.7417 36.9797C69.8026 36.9941 69.8601 37.0208 69.9104 37.0581C69.9607 37.0954 70.0028 37.1427 70.0342 37.1969C70.2807 37.6942 70.3389 38.2639 70.1981 38.8007C70.0573 39.3376 69.7269 39.8053 69.2681 40.1176C69.1908 40.1929 69.0886 40.2372 68.9808 40.2421Z" fill="#3A3D3E"/>
<path d="M68.4445 47.7595C66.127 47.7595 63.0148 44.9536 62.6987 44.6185C62.6191 44.5423 62.5681 44.441 62.5545 44.3316C62.5408 44.2222 62.5653 44.1115 62.6238 44.0181C62.6823 43.9247 62.7713 43.8544 62.8757 43.8189C62.98 43.7835 63.0934 43.7852 63.1967 43.8236C66.7495 45.2122 71.7291 42.3776 71.8153 42.3489C71.8925 42.2949 71.9844 42.266 72.0786 42.266C72.1728 42.266 72.2648 42.2949 72.342 42.3489C72.418 42.4048 72.4758 42.4818 72.5081 42.5704C72.5405 42.659 72.546 42.7552 72.5239 42.8469C72.3994 43.3065 71.279 47.3955 68.8467 47.702L68.4445 47.7595ZM64.8342 45.1451C66.0504 46.0262 67.6018 46.9167 68.6647 46.7923C69.7277 46.6678 70.6949 44.9919 71.1833 43.7183C69.2089 44.6874 67.0334 45.1762 64.8342 45.1451Z" fill="#3A3D3E"/>
<path d="M68.1572 33.8357C68.0399 33.836 67.9268 33.7915 67.8412 33.7112C67.7535 33.6217 67.7043 33.5013 67.7043 33.376C67.7043 33.2507 67.7535 33.1303 67.8412 33.0408C68.3202 32.5597 68.912 32.206 69.5626 32.0119C70.2132 31.8179 70.9021 31.7898 71.5664 31.93C71.628 31.9426 71.6865 31.9671 71.7387 32.0023C71.7908 32.0375 71.8355 32.0827 71.8701 32.1351C71.9048 32.1876 71.9288 32.2464 71.9408 32.3081C71.9527 32.3699 71.9524 32.4334 71.9398 32.495C71.9143 32.62 71.8409 32.73 71.7354 32.8016C71.6298 32.8732 71.5004 32.9006 71.3748 32.878C70.8742 32.7675 70.3539 32.7831 69.8608 32.9235C69.3677 33.0639 68.9172 33.3247 68.5499 33.6824C68.5 33.7357 68.4389 33.7771 68.3709 33.8036C68.303 33.8301 68.23 33.8411 68.1572 33.8357Z" fill="#3A3D3E"/>
<path d="M65.1601 30.8383C65.0975 30.838 65.0356 30.8251 64.978 30.8004C64.9204 30.7758 64.8684 30.7398 64.8249 30.6947C64.7803 30.651 64.7449 30.5989 64.7207 30.5413C64.6965 30.4838 64.6841 30.422 64.6841 30.3595C64.6841 30.2971 64.6965 30.2353 64.7207 30.1778C64.7449 30.1202 64.7803 30.0681 64.8249 30.0244C65.5526 29.3746 66.4551 28.9528 67.4204 28.8115C68.3857 28.6702 69.3712 28.8156 70.2546 29.2296C70.3718 29.2802 70.4644 29.3747 70.5127 29.4929C70.561 29.611 70.5612 29.7433 70.5132 29.8616C70.4644 29.978 70.3717 30.0705 70.2552 30.1189C70.1386 30.1674 70.0076 30.1678 69.8907 30.1201C69.1824 29.7816 68.3911 29.6558 67.6127 29.7577C66.8343 29.8597 66.1021 30.1852 65.5048 30.6947C65.4135 30.7864 65.2895 30.838 65.1601 30.8383Z" fill="#3A3D3E"/>
<path d="M50.0294 28.9997C50.0294 28.9997 54.2525 25.0447 59.6056 26.9504C64.9587 28.856 69.1818 29.9477 71.0492 28.3102C72.9165 26.6726 72.6867 23.2731 71.7387 23.5221C70.7906 23.7711 70.5129 24.3456 69.6894 23.1103C68.8658 21.875 64.5086 18.3222 57.4223 17.9296C50.3359 17.537 45.4233 21.3387 45.5574 24.8819C45.6914 28.4251 48.0089 28.9805 48.0089 28.9805" fill="#3A3D3E"/>
<path d="M68.3296 29.5838C66.0792 29.5838 63.0436 28.7028 59.4142 27.4004C54.4442 25.6193 50.3934 29.3157 50.3551 29.3157C50.3114 29.3603 50.2593 29.3957 50.2017 29.4199C50.1442 29.4441 50.0824 29.4565 50.02 29.4565C49.9575 29.4565 49.8957 29.4441 49.8382 29.4199C49.7806 29.3957 49.7285 29.3603 49.6848 29.3157C49.6399 29.2712 49.6043 29.2182 49.58 29.1599C49.5557 29.1015 49.5432 29.0389 49.5432 28.9757C49.5432 28.9125 49.5557 28.8499 49.58 28.7916C49.6043 28.7332 49.6399 28.6803 49.6848 28.6358C49.8667 28.4634 54.1856 24.5084 59.7111 26.4907C64.3555 28.157 68.8946 29.488 70.695 27.9367C71.1042 27.5482 71.4273 27.0781 71.6434 26.5568C71.8595 26.0356 71.9638 25.4747 71.9494 24.9106C71.9699 24.5769 71.8934 24.2443 71.7292 23.953C71.6065 24.035 71.4748 24.1024 71.3366 24.1541C70.6088 24.451 70.0438 24.5659 69.2394 23.3689C68.435 22.1718 64.1544 18.7915 57.3457 18.3988C53.4004 18.1786 49.7614 19.299 47.6068 21.4153C47.1155 21.8487 46.7184 22.3782 46.4401 22.9712C46.1617 23.5642 46.008 24.208 45.9884 24.8628C46.1129 27.9654 47.9994 28.4826 48.076 28.5017C48.1977 28.5335 48.3024 28.6109 48.3684 28.7179C48.4344 28.825 48.4566 28.9533 48.4303 29.0763C48.4168 29.1378 48.3911 29.196 48.3547 29.2474C48.3183 29.2988 48.2718 29.3423 48.2182 29.3754C48.1646 29.4084 48.1049 29.4304 48.0426 29.4399C47.9803 29.4493 47.9168 29.4462 47.8557 29.4306C47.7504 29.4306 45.184 28.7603 45.0308 24.8915C45.0435 24.1023 45.2204 23.3243 45.5501 22.6072C45.8798 21.89 46.3552 21.2493 46.946 20.7258C49.2922 18.4275 53.1993 17.2018 57.4128 17.4508C64.4513 17.853 69.0383 21.2813 70.0533 22.8422C70.4747 23.4742 70.5034 23.4646 71.011 23.2635C71.2016 23.1826 71.3967 23.1123 71.5951 23.0529C71.8057 23.0084 72.0251 23.0362 72.218 23.1318C72.4108 23.2273 72.5659 23.3851 72.6581 23.5796C72.9557 24.4593 72.991 25.4065 72.7597 26.306C72.5285 27.2054 72.0407 28.0182 71.3557 28.6454C70.4949 29.3162 69.4189 29.6499 68.3296 29.5838Z" fill="#3A3D3E"/>
<path d="M46.8598 45.5569C45.12 41.9769 43.6725 38.2619 42.5314 34.4485C40.8939 28.7028 45.4043 23.5413 45.4043 23.5413C45.4043 23.5413 44.1785 26.9504 45.9501 33.1175C47.2871 37.3989 49.0182 41.5472 51.1212 45.509L46.8598 45.5569Z" fill="white"/>
<path d="M46.8599 46.0357C46.7704 46.0348 46.6829 46.0093 46.6069 45.9621C46.5309 45.9148 46.4694 45.8475 46.429 45.7676C44.6776 42.1628 43.2205 38.4223 42.0718 34.5826C40.3864 28.6741 44.8394 23.4455 45.0309 23.2252C45.1046 23.1415 45.2051 23.0861 45.3153 23.0687C45.4254 23.0512 45.5382 23.0727 45.6342 23.1295C45.7308 23.1856 45.8048 23.2738 45.8433 23.3787C45.8818 23.4837 45.8823 23.5988 45.8449 23.7041C45.8449 23.7041 44.6957 27.0653 46.4003 32.9547C47.736 37.2089 49.4673 41.3287 51.5714 45.2601C51.6117 45.3317 51.6328 45.4125 51.6328 45.4947C51.6328 45.5769 51.6117 45.6577 51.5714 45.7293C51.532 45.8016 51.4738 45.8619 51.4031 45.904C51.3323 45.9461 51.2516 45.9685 51.1692 45.9687L46.9078 46.0357H46.8599ZM44.5425 25.6097C43.4029 27.525 42.0048 30.8479 42.9912 34.3145C44.0944 38.0032 45.4873 41.5991 47.1568 45.0685H50.3361C48.371 41.2877 46.7462 37.3395 45.481 33.2707C44.7121 30.7938 44.3942 28.199 44.5425 25.6097Z" fill="#3A3D3E"/>
<path d="M45.002 43.5937C45.002 43.5937 40.0319 51.4079 39.8883 53.9648C39.7447 56.5216 39.4382 61.9322 39.4382 61.9322C39.4382 61.9322 28.0138 84.6373 24.5568 92.576C21.0998 100.515 23.3502 105.197 26.3571 106.251C29.3641 107.304 34.9757 104.144 36.1249 101.597C37.274 99.0495 44.6956 64.4603 45.002 63.7133C45.3084 62.9664 49.9625 61.6066 50.4125 60.5532C51.466 58.8519 52.6711 57.2493 54.0132 55.7651C54.4728 55.315 53.113 54.5585 51.7628 55.0086C50.4125 55.4586 49.9625 55.9087 49.3592 56.062C48.7559 56.2152 48.6505 52.9784 48.6505 52.9784C48.6505 52.9784 48.3058 44.4843 47.8557 42.3872C47.4056 40.29 45.002 43.5937 45.002 43.5937Z" fill="white"/>
<path d="M27.7074 106.959C27.1931 106.966 26.6814 106.885 26.1943 106.72C25.4821 106.448 24.8341 106.031 24.2917 105.495C23.7494 104.959 23.3244 104.317 23.0438 103.608C21.818 100.802 22.1915 96.8279 24.1163 92.4037C27.4297 84.7427 38.1741 63.3687 38.9594 61.7598C38.9594 61.0129 39.2658 56.244 39.4095 53.8882C39.5627 51.2452 44.3891 43.613 44.5902 43.2874C44.9924 42.7415 46.3618 40.9795 47.4631 41.2093C47.7695 41.2668 48.1717 41.5062 48.3345 42.2627C48.7846 44.3791 49.1293 52.5954 49.1389 52.9402C49.1521 53.8051 49.2613 54.6658 49.4645 55.5066C49.6297 55.4385 49.7897 55.3585 49.9433 55.2672C50.479 54.9749 51.0398 54.7313 51.6191 54.5394C52.1024 54.3397 52.6345 54.2895 53.1467 54.3953C53.6588 54.5012 54.1274 54.7582 54.492 55.1331C54.5884 55.2801 54.6307 55.4561 54.6114 55.6309C54.5922 55.8056 54.5127 55.9682 54.3866 56.0907C53.0868 57.5419 51.9142 59.1022 50.8818 60.7543C50.5849 61.4438 49.4262 61.9993 47.5684 62.8228C46.8231 63.1077 46.113 63.4772 45.4521 63.9241C45.3659 64.2018 44.4944 68.061 43.5368 72.5426C40.4533 86.4473 37.3793 100.16 36.6036 101.827C35.397 104.297 30.9633 106.959 27.7074 106.959ZM45.3946 43.8524C44.0252 46.007 40.482 51.9921 40.3671 53.984C40.2139 56.5408 39.917 61.9514 39.917 61.9514C39.9081 62.0179 39.8888 62.0825 39.8596 62.1429C39.7446 62.3631 28.3681 84.9151 24.9877 92.7867C23.1778 96.9619 22.7948 100.668 23.9152 103.225C24.1463 103.812 24.496 104.346 24.9425 104.793C25.389 105.239 25.9227 105.589 26.5103 105.82C29.2013 106.778 34.5256 103.905 35.6939 101.405C36.4983 99.7007 40.2905 82.5689 42.56 72.332C43.9582 66.0308 44.4753 63.7996 44.5519 63.5506C44.753 63.0526 45.5861 62.66 47.147 61.9609C48.1047 61.5204 49.7996 60.7831 50.0199 60.3809C51.062 58.6792 52.2576 57.0765 53.5918 55.5928C53.3411 55.4673 53.0675 55.3942 52.7877 55.3777C52.5078 55.3612 52.2275 55.4018 51.9639 55.497C51.434 55.6739 50.9212 55.8983 50.4317 56.1674C50.1441 56.3319 49.8389 56.4636 49.5219 56.56C49.4258 56.58 49.3266 56.5792 49.2308 56.5577C49.135 56.5363 49.0449 56.4946 48.9665 56.4355C48.4302 56.0333 48.2675 54.3575 48.2196 53.0264C48.2196 52.9498 47.8748 44.5514 47.4343 42.4926C47.3769 42.2244 47.3003 42.167 47.3003 42.167C47.0225 42.0999 46.132 42.8469 45.3946 43.8524Z" fill="#3A3D3E"/>
<path d="M54.4441 46.4666C57.0392 48.7649 57.8436 52.0879 56.2444 53.8882C54.6452 55.6885 51.2456 55.2863 48.6505 52.988C46.0553 50.6897 45.2605 47.3668 46.8597 45.5665C48.459 43.7662 51.8585 44.1588 54.4441 46.4666Z" fill="white"/>
<path d="M53.4865 55.4778C51.5779 55.4031 49.7598 54.6452 48.3632 53.3423C47.097 52.2524 46.1864 50.8082 45.7489 49.1959C45.5162 48.5268 45.4661 47.8078 45.6038 47.1129C45.7415 46.418 46.062 45.7725 46.5323 45.2427C47.0025 44.7129 47.6055 44.3181 48.2792 44.099C48.9528 43.8798 49.6727 43.8443 50.3646 43.996C52.0165 44.235 53.5581 44.9658 54.7888 46.0932C57.5755 48.5638 58.399 52.2028 56.6274 54.1946C56.2262 54.6209 55.7382 54.956 55.1963 55.1774C54.6545 55.3988 54.0713 55.5012 53.4865 55.4778ZM49.656 44.944C49.2071 44.921 48.7586 44.9946 48.3406 45.1598C47.9227 45.325 47.545 45.578 47.2332 45.9016C46.8955 46.3329 46.6676 46.8397 46.5692 47.3785C46.4708 47.9173 46.5047 48.472 46.6682 48.9948C47.0542 50.4222 47.8659 51.6982 48.9952 52.6529C51.3797 54.7692 54.4824 55.1906 55.8997 53.6105C57.3169 52.0304 56.5317 48.9852 54.1472 46.9071C53.0696 45.8868 51.7068 45.2187 50.2401 44.9919C50.0477 44.9491 49.8525 44.9203 49.656 44.9057V44.944Z" fill="#3A3D3E"/>
<path d="M52.9694 48.6308C54.8847 50.3833 55.5454 52.9018 54.3293 54.2712C53.1131 55.6406 50.4988 55.3342 48.5835 53.5913C46.6683 51.8484 46.0076 49.3203 47.2237 47.9509C48.4399 46.5815 51.0063 46.888 52.9694 48.6308Z" fill="white"/>
<path d="M52.2223 55.6023H51.6765C50.4111 55.3972 49.2292 54.8391 48.267 53.992C47.3047 53.145 46.6011 52.0435 46.2372 50.8142C46.0538 50.2881 46.0141 49.7226 46.1223 49.176C46.2304 48.6294 46.4823 48.1216 46.8522 47.7049C47.2221 47.2882 47.6964 46.9777 48.2263 46.8055C48.7562 46.6333 49.3224 46.6056 49.8666 46.7252C51.1435 46.9133 52.3344 47.4804 53.2853 48.3532C55.4495 50.2684 56.072 53.1413 54.693 54.6639C54.3707 54.9858 53.984 55.2359 53.5581 55.3976C53.1323 55.5594 52.6771 55.6291 52.2223 55.6023ZM49.3495 47.5775C49.0251 47.5609 48.701 47.6139 48.3987 47.7328C48.0965 47.8517 47.8232 48.0338 47.5971 48.267C47.3515 48.5808 47.1864 48.9499 47.1163 49.3422C47.0462 49.7345 47.0732 50.1379 47.1948 50.5174C47.5044 51.5652 48.1022 52.5051 48.92 53.2297C49.7377 53.9544 50.7426 54.4347 51.8201 54.616C52.2104 54.6927 52.6134 54.6726 52.9941 54.5574C53.3747 54.4422 53.7213 54.2355 54.0035 53.9552C55.0377 52.7869 54.444 50.5557 52.682 48.9948C51.8854 48.2541 50.8844 47.7703 49.8092 47.6062L49.3495 47.5775Z" fill="#3A3D3E"/>
<path d="M85.8925 65.0541C85.7864 65.0529 85.6837 65.0166 85.6005 64.9507C85.5173 64.8848 85.4583 64.7932 85.4328 64.6902C83.8726 59.1337 81.6948 53.7695 78.9402 48.6979C78.8781 48.5874 78.8625 48.4568 78.8966 48.3347C78.9307 48.2127 79.0118 48.1091 79.1221 48.0467C79.2326 47.9847 79.3633 47.969 79.4853 48.0031C79.6074 48.0372 79.711 48.1184 79.7733 48.2287C82.5667 53.3738 84.7765 58.8149 86.3617 64.4508C86.3911 64.5738 86.3716 64.7035 86.3073 64.8124C86.243 64.9214 86.1389 65.0012 86.017 65.0349L85.8925 65.0541Z" fill="#3A3D3E"/>
<path d="M85.2604 56.1195C85.1645 56.1196 85.0708 56.0915 84.9907 56.0388C84.9107 55.986 84.8479 55.9108 84.8103 55.8226C83.1058 51.6186 78.854 45.7772 78.8061 45.7197C78.769 45.6688 78.7423 45.611 78.7275 45.5498C78.7127 45.4885 78.7101 45.425 78.7199 45.3627C78.7297 45.3005 78.7517 45.2408 78.7845 45.187C78.8174 45.1332 78.8605 45.0865 78.9114 45.0494C78.9623 45.0123 79.0201 44.9856 79.0813 44.9708C79.1426 44.956 79.2062 44.9534 79.2684 44.9632C79.3307 44.973 79.3904 44.9949 79.4441 45.0278C79.4979 45.0607 79.5447 45.1038 79.5818 45.1547C79.7637 45.3941 83.9485 51.1494 85.701 55.4587C85.7486 55.5756 85.7481 55.7066 85.6997 55.8231C85.6513 55.9397 85.5588 56.0324 85.4424 56.0811C85.3851 56.1067 85.3231 56.1198 85.2604 56.1195Z" fill="#3A3D3E"/>
<path d="M54.0037 61.7024C54.0037 61.7024 84.9348 90.881 99.7683 116.402V108.109L72.6389 73.8163C67.9798 68.1364 63.0287 62.7026 57.8054 57.5367L54.0037 61.7024Z" fill="#3A3D3E"/>
<path d="M99.7681 116.88C99.685 116.878 99.6037 116.855 99.5318 116.813C99.4598 116.771 99.3995 116.712 99.3564 116.641C84.7239 91.4747 53.9844 62.3439 53.6684 62.0567C53.5806 61.9672 53.5315 61.8468 53.5315 61.7215C53.5315 61.5962 53.5806 61.4758 53.6684 61.3863L57.4988 57.2398C57.5434 57.195 57.5963 57.1593 57.6547 57.135C57.713 57.1107 57.7756 57.0982 57.8388 57.0982C57.902 57.0982 57.9646 57.1107 58.0229 57.135C58.0813 57.1593 58.1342 57.195 58.1787 57.2398C63.4152 62.4046 68.3792 67.8384 73.0506 73.5194L100.161 107.812C100.229 107.896 100.266 108 100.266 108.109V116.373C100.266 116.478 100.231 116.579 100.167 116.662C100.103 116.745 100.013 116.805 99.9118 116.832L99.7681 116.88ZM54.6739 61.6832C58.0351 64.9008 85.1453 91.1779 99.2893 114.649V108.271C97.6997 106.26 78.0972 81.458 72.2845 74.1227C67.7452 68.587 62.9253 63.2876 57.8436 58.2453L54.6739 61.6832Z" fill="#3A3D3E"/>
<path d="M41.2388 54.1276C41.2388 54.1276 42.2921 50.3737 42.8954 49.9141C43.4987 49.4544 48.6412 43.6034 48.9093 45.7101C49.1774 47.8169 47.8559 48.8703 47.0994 49.6172C46.3429 50.3642 44.5426 52.3273 44.5426 52.3273C44.5166 53.4847 44.4175 54.6394 44.2457 55.7843C43.8849 57.5419 43.3292 59.2539 42.589 60.8884" fill="white"/>
<path d="M42.5889 61.348C42.5259 61.3624 42.4604 61.3624 42.3974 61.348C42.3394 61.3232 42.287 61.2869 42.2433 61.2413C42.1997 61.1958 42.1657 61.1419 42.1433 61.0829C42.121 61.0239 42.1107 60.961 42.1133 60.8979C42.1158 60.8349 42.131 60.773 42.158 60.716C42.8759 59.1195 43.4186 57.4499 43.7763 55.7364C43.9438 54.6136 44.0397 53.4813 44.0636 52.3464C44.0635 52.286 44.0752 52.2261 44.0982 52.1703C44.1213 52.1144 44.1551 52.0636 44.1977 52.0208C44.2647 51.9346 46.0172 50.0481 46.7641 49.3012L47.0035 49.0713C47.5086 48.6994 47.9066 48.2007 48.1572 47.6256C48.4077 47.0505 48.5019 46.4195 48.4304 45.7963C48.0186 45.6909 46.5151 46.9263 44.1115 49.4161C43.8096 49.734 43.4899 50.0346 43.1539 50.3162C42.496 51.5674 41.9973 52.8961 41.6696 54.2712C41.6366 54.3982 41.5545 54.5069 41.4413 54.5733C41.3282 54.6398 41.1933 54.6585 41.0663 54.6255C40.9393 54.5925 40.8306 54.5104 40.7642 54.3973C40.6977 54.2841 40.6789 54.1492 40.712 54.0222C41.0376 52.8444 41.8803 50.0481 42.541 49.5501C42.6368 49.4831 43.0007 49.1096 43.355 48.7457C46.0651 45.9687 47.7313 44.5226 48.6985 44.8387C48.8683 44.9036 49.0161 45.0155 49.1246 45.1614C49.2332 45.3072 49.2979 45.4809 49.3114 45.6622C49.4095 46.4357 49.3028 47.2213 49.002 47.9405C48.7011 48.6598 48.2168 49.2875 47.5973 49.7608L47.377 49.9715C46.7545 50.594 45.3756 52.0783 44.9542 52.5379C44.9195 53.6535 44.8203 54.7662 44.6574 55.8704C44.292 57.6749 43.7234 59.4322 42.9624 61.1086C42.9234 61.1752 42.8693 61.2316 42.8044 61.2732C42.7395 61.3148 42.6656 61.3404 42.5889 61.348Z" fill="#3A3D3E"/>
</svg>
