<svg width="80" height="266" viewBox="0 0 80 266" fill="none" xmlns="http://www.w3.org/2000/svg">
<path d="M58.4697 227.471C59.0313 225.155 59.7774 222.887 60.701 220.691C61.7448 218.661 66.4467 218.661 69.2334 221.572C72.0201 224.483 73.6863 229.788 73.6863 229.788C75.9638 231.874 77.5394 234.614 78.1967 237.631C78.9915 242.247 79.2309 245.024 77.8807 244.851C76.5304 244.679 72.5659 238.684 69.2621 236.702C65.9583 234.72 64.5985 234.729 64.5985 234.729L58.4697 227.471Z" fill="white"/>
<path d="M77.9956 245.34H77.8137C77.038 245.244 76.0516 244.162 74.2226 242.093C72.6617 240.331 70.7177 238.129 69.0323 237.114C65.9679 235.266 64.6368 235.199 64.6177 235.199C64.5491 235.198 64.4813 235.183 64.4187 235.155C64.3561 235.127 64.2999 235.086 64.2538 235.036L58.1059 227.777C58.0548 227.719 58.0186 227.649 58.0003 227.574C57.9819 227.499 57.982 227.421 58.0005 227.346C58.5699 224.993 59.3289 222.691 60.2701 220.461C60.5542 219.993 60.9475 219.602 61.4162 219.32C61.8849 219.038 62.415 218.874 62.961 218.842C64.1733 218.7 65.402 218.842 66.5503 219.256C67.6986 219.669 68.7351 220.344 69.5781 221.227C72.1924 223.966 73.83 228.658 74.1077 229.51C76.4193 231.652 78.0143 234.454 78.6755 237.535C79.4991 242.323 79.5278 244.238 78.8 244.985C78.6985 245.098 78.5744 245.188 78.4358 245.249C78.2971 245.31 78.1471 245.341 77.9956 245.34ZM64.8571 234.27C66.5314 234.633 68.1188 235.319 69.5303 236.29C71.3306 237.382 73.2458 239.546 74.9408 241.452C76.0708 242.735 77.4785 244.325 77.9381 244.382C78.0626 244.382 78.0914 244.382 78.1105 244.334C78.7521 243.673 78.0339 239.489 77.7275 237.708C77.0778 234.806 75.5616 232.171 73.3799 230.152C73.3128 230.093 73.2631 230.017 73.2362 229.932C73.2362 229.932 71.5508 224.684 68.8886 221.897C68.1457 221.13 67.2381 220.542 66.2344 220.177C65.2307 219.812 64.1573 219.68 63.095 219.79C62.7032 219.812 62.3216 219.924 61.9796 220.117C61.6376 220.309 61.3443 220.578 61.1224 220.901C60.2392 222.991 59.5282 225.15 58.9964 227.356L64.8571 234.27Z" fill="#3A3D3E"/>
<path d="M63.9282 219.273C64.9202 219.289 65.8993 219.5 66.8097 219.894C67.72 220.289 68.5436 220.859 69.2334 221.572C72.0105 224.444 73.6864 229.788 73.6864 229.788C75.9639 231.874 77.5395 234.613 78.1967 237.631C78.9916 242.247 79.231 245.024 77.8807 244.851C77.8142 244.838 77.7498 244.815 77.6892 244.784C77.6158 243.002 77.4463 241.224 77.1817 239.46C76.5401 235.256 72.2116 232.153 69.2239 226.283C67.9404 223.619 66.1403 221.236 63.9282 219.273Z" fill="white"/>
<path d="M77.9957 245.34H77.8138C77.7184 245.321 77.6253 245.292 77.536 245.254C77.4466 245.217 77.3689 245.157 77.3115 245.079C77.2541 245.001 77.2191 244.909 77.2105 244.813C77.137 243.05 76.9708 241.292 76.7125 239.546C76.3582 237.277 74.7973 235.285 73.0735 232.967C71.4495 230.952 70.0195 228.788 68.8026 226.503C67.5446 223.899 65.7839 221.568 63.6218 219.647C63.5468 219.582 63.4936 219.496 63.4696 219.4C63.4456 219.304 63.452 219.203 63.4878 219.111C63.5294 219.025 63.5929 218.951 63.6719 218.897C63.7509 218.843 63.8426 218.811 63.9379 218.804C66.0669 218.84 68.0949 219.718 69.5782 221.246C72.1925 223.985 73.8301 228.677 74.1078 229.529C76.4194 231.671 78.0144 234.473 78.6756 237.554C79.4992 242.342 79.5279 244.258 78.8001 245.005C78.697 245.114 78.5721 245.2 78.4335 245.258C78.2949 245.315 78.1458 245.343 77.9957 245.34ZM65.3264 219.915C67.0785 221.728 68.5388 223.802 69.6549 226.063C70.8479 228.294 72.2456 230.41 73.8301 232.383C75.6783 234.796 77.2679 236.884 77.6605 239.393C77.8904 240.916 78.0532 242.563 78.1394 244.296C78.7235 243.53 78.0244 239.508 77.7276 237.708C77.078 234.806 75.5617 232.171 73.38 230.152C73.3129 230.093 73.2632 230.017 73.2363 229.932C73.2363 229.932 71.5509 224.684 68.8887 221.897C67.9194 220.904 66.6814 220.215 65.3264 219.915Z" fill="#3A3D3E"/>
<path d="M4.2398 180.796C4.2398 180.796 3.85673 184.043 6.25078 185.326C8.61527 186.413 11.0616 187.313 13.567 188.017L13.0307 175.185C13.0307 175.185 6.0114 177.33 4.2398 180.796Z" fill="#3A3D3E"/>
<path d="M13.567 188.495H13.433C10.8956 187.774 8.41766 186.859 6.021 185.757C3.37797 184.339 3.74188 180.892 3.76104 180.748C3.76675 180.692 3.78298 180.636 3.8089 180.585C5.65711 176.985 12.5903 174.84 12.8871 174.734C12.958 174.714 13.0324 174.71 13.1052 174.722C13.1779 174.733 13.2473 174.76 13.3085 174.801C13.3661 174.846 13.4137 174.903 13.4483 174.967C13.4829 175.031 13.5038 175.102 13.5096 175.175L14.0459 188.007C14.0485 188.084 14.0334 188.16 14.0019 188.229C13.9703 188.299 13.9231 188.361 13.8639 188.409C13.7772 188.47 13.6728 188.5 13.567 188.495ZM4.69948 180.93C4.69948 181.419 4.60373 183.899 6.47108 184.904C8.5999 185.897 10.8027 186.723 13.0595 187.375L12.5807 175.884C10.8953 176.429 6.13591 178.297 4.69948 180.93Z" fill="#3A3D3E"/>
<path d="M10.3684 174.457L11.2207 186.35C11.2207 186.35 4.1726 203.329 2.20948 221.936C0.24636 240.542 1.08908 246.345 1.56789 248.749C2.0467 251.153 6.49005 254.868 9.97579 255.309C13.4615 255.749 15.6257 255.625 26.6288 252.503C37.6318 249.381 45.2257 245.225 52.8197 241.078C60.4136 236.932 64.6463 234.729 64.6463 234.729C64.6463 234.729 60.9594 228.179 58.4983 227.471C56.0373 226.762 53.1548 229.194 53.1548 229.194C53.1548 229.194 52.6473 228.543 50.7608 229.482C49.5861 230.064 48.3448 230.502 47.0644 230.784L23.6602 234.078C23.6602 234.078 46.825 187.509 49.3722 181.352C51.9195 175.194 48.7977 171.852 48.7977 171.852L10.3684 174.457Z" fill="#DD7F34"/>
<path d="M12.5328 256.008C11.6549 256.001 10.7784 255.937 9.90889 255.816C6.42315 255.376 1.64465 251.612 1.09881 248.873C0.74449 247.083 -0.337646 241.624 1.73081 221.907C3.59817 204.21 10.1387 187.768 10.742 186.293L9.88975 174.514C9.88361 174.386 9.92447 174.26 10.0047 174.16C10.0905 174.063 10.211 174.005 10.3398 173.997L48.7691 171.392C48.8406 171.385 48.9129 171.395 48.9797 171.421C49.0464 171.448 49.1056 171.491 49.1521 171.546C49.2862 171.689 52.4463 175.185 49.8129 181.553C47.4763 187.203 27.5961 227.241 24.4934 233.494L46.9879 230.296C48.2158 230.013 49.4077 229.592 50.5407 229.041C50.9141 228.789 51.3366 228.618 51.7806 228.541C52.2245 228.463 52.6798 228.48 53.1167 228.591C53.9306 227.988 56.363 226.388 58.6038 227.03C61.1798 227.767 64.656 233.829 65.039 234.519C65.0652 234.577 65.0787 234.641 65.0787 234.705C65.0787 234.77 65.0652 234.833 65.039 234.892C65.0216 234.953 64.9923 235.009 64.9528 235.059C64.9134 235.108 64.8646 235.149 64.8092 235.179C64.8092 235.179 60.5095 237.439 53.0113 241.538C45.5132 245.637 37.7756 249.86 26.7247 253.029C18.5083 255.328 15.1662 256.008 12.5328 256.008ZM10.8856 174.926L11.6996 186.331C11.7187 186.403 11.7187 186.479 11.6996 186.552C11.623 186.724 4.64197 203.683 2.71716 221.983C0.658277 241.557 1.75955 246.882 2.06598 248.663C2.50649 250.856 6.71044 254.408 10.0621 254.839C13.4138 255.27 15.6355 255.146 26.5236 252.053C37.4117 248.96 45.178 244.736 52.6187 240.667C58.757 237.315 62.7216 235.208 63.9856 234.528C62.8078 232.527 60.0977 228.419 58.3644 227.921C56.1715 227.298 53.5093 229.491 53.4806 229.52C53.4314 229.56 53.3748 229.59 53.314 229.608C53.2532 229.626 53.1893 229.632 53.1262 229.625C53.062 229.621 52.9995 229.602 52.9432 229.57C52.887 229.539 52.8383 229.496 52.8007 229.443C52.7241 229.386 52.1686 229.28 51.0003 229.865C49.7832 230.467 48.4967 230.917 47.1699 231.205L23.7465 234.538C23.6597 234.551 23.5709 234.54 23.4898 234.507C23.4087 234.473 23.3385 234.417 23.2868 234.346C23.2422 234.271 23.2186 234.185 23.2186 234.097C23.2186 234.01 23.2422 233.924 23.2868 233.848C23.5167 233.389 46.4708 187.231 48.9798 181.179C51.0865 176.085 49.2 173.078 48.6446 172.35L10.8856 174.926Z" fill="#3A3D3E"/>
<path d="M22.0705 191.148C21.9742 191.149 21.8803 191.119 21.8024 191.062L17.2824 187.94C17.177 187.868 17.1047 187.756 17.0813 187.631C17.058 187.505 17.0856 187.375 17.1579 187.27C17.2303 187.164 17.3416 187.092 17.4673 187.069C17.593 187.045 17.7229 187.073 17.8283 187.145L22.3387 190.277C22.3909 190.311 22.4356 190.356 22.4703 190.408C22.5049 190.461 22.5287 190.519 22.5403 190.581C22.5519 190.642 22.5511 190.706 22.5378 190.767C22.5246 190.828 22.4992 190.886 22.4632 190.937C22.4197 191.002 22.3612 191.054 22.2928 191.091C22.2244 191.128 22.1482 191.147 22.0705 191.148Z" fill="#3A3D3E"/>
<path d="M31.4075 182.032C21.8313 184.904 19.8107 197.65 17.7231 203.281C15.6355 208.912 9.63119 237.803 9.55458 239.958C9.47797 242.113 13.385 249.678 14.8406 251.028C16.2962 252.378 36.8659 272.67 38.8481 275.476C40.8304 278.282 48.9127 286.01 48.9127 286.01L50.7801 286.833C55.4916 285.272 55.98 279.833 56.1523 278.483C56.3247 277.133 53.3752 275.61 52.1016 273.254C50.828 270.899 43.7128 255.701 40.9645 251.028C38.2161 246.355 30.2966 242.218 29.1858 240.111C28.8231 239.255 28.3251 238.463 27.711 237.765C27.711 237.765 37.0095 223.228 44.7279 216.544C52.4464 209.86 58.192 197.037 58.9773 187.662C59.7625 178.287 55.9033 173.183 55.9033 173.183L35.19 173.901" fill="#DD7F34"/>
<path d="M50.7802 287.274C50.7139 287.288 50.6455 287.288 50.5791 287.274L48.7213 286.45C48.6709 286.427 48.6254 286.395 48.5873 286.355C48.2521 286.048 40.4667 278.598 38.4653 275.821C36.4638 273.044 15.9516 252.838 14.5248 251.44C13.0979 250.042 9.01845 242.275 9.09506 240.006C9.17167 237.736 15.1281 209.046 17.3019 203.176C17.6562 202.218 18.0201 201.002 18.4127 199.719C20.2801 193.504 23.1146 184.119 31.2927 181.639C31.4197 181.602 31.5561 181.617 31.6719 181.681C31.7877 181.745 31.8735 181.852 31.9103 181.979C31.9472 182.106 31.932 182.242 31.8683 182.358C31.8045 182.474 31.6974 182.56 31.5704 182.597C23.9094 184.933 21.2473 193.667 19.3225 200.035C18.9394 201.337 18.5659 202.563 18.1924 203.559C16.0378 209.372 10.1197 238.33 10.0527 240.082C9.98564 242.074 13.8257 249.486 15.1855 250.798C15.4058 251.009 37.1246 272.306 39.2601 275.313C41.1274 277.918 48.4628 284.976 49.2097 285.684L50.8185 286.402C54.9171 284.918 55.4917 280.226 55.6737 278.665V278.502C55.7407 278.004 54.9172 277.209 54.1223 276.443C53.171 275.611 52.3481 274.643 51.6804 273.57C51.2112 272.728 50.0237 270.267 48.5107 267.154C45.8964 261.744 42.3053 254.332 40.5529 251.363C38.9824 248.691 35.602 246.154 32.8919 244.114C30.8617 242.591 29.2625 241.385 28.7646 240.427C28.4034 239.642 27.9501 238.903 27.4143 238.225C27.3645 238.191 27.3221 238.148 27.2896 238.098C27.2571 238.047 27.2352 237.991 27.2254 237.931C27.2155 237.872 27.2178 237.812 27.2322 237.753C27.2466 237.695 27.2727 237.64 27.309 237.593C27.4048 237.449 36.732 222.922 44.4216 216.276C52.3124 209.439 57.7804 196.377 58.4986 187.71C59.169 179.657 56.3248 174.773 55.6258 173.748L35.171 174.466C35.0453 174.467 34.9242 174.42 34.8318 174.334C34.7394 174.249 34.6828 174.132 34.6731 174.007C34.6705 173.944 34.6804 173.881 34.7021 173.822C34.7238 173.763 34.757 173.709 34.7997 173.662C34.8424 173.616 34.8937 173.579 34.9509 173.552C35.008 173.526 35.0698 173.511 35.1327 173.509L55.846 172.791C55.9236 172.787 56.0007 172.803 56.0708 172.837C56.1408 172.87 56.2017 172.92 56.2482 172.982C56.411 173.193 60.2032 178.335 59.418 187.787C58.6902 196.53 53.3849 209.735 45.0058 216.994C38.0439 223.027 29.6839 235.687 28.2762 237.813C28.7642 238.499 29.1965 239.222 29.569 239.977C29.9712 240.753 31.6566 242.007 33.3994 243.348C36.1765 245.436 39.6431 248.04 41.3094 250.875C43.081 253.882 46.6816 261.313 49.3055 266.733C50.809 269.836 51.9964 272.287 52.4561 273.111C53.0736 274.102 53.8353 274.996 54.716 275.763C55.7694 276.778 56.6887 277.679 56.5642 278.636V278.799C55.9993 283.434 54.084 286.326 50.876 287.418L50.7802 287.274Z" fill="#3A3D3E"/>
<path d="M34.558 10.6273H34.491C34.4114 10.6168 34.3359 10.5857 34.272 10.5369C34.2082 10.4882 34.1582 10.4236 34.1271 10.3496L33.3227 8.53008C32.9921 7.94002 32.8601 7.25922 32.9464 6.58836C33.0326 5.9175 33.3324 5.2922 33.8015 4.80494C33.926 4.67087 34.2324 4.31655 37.8522 2.99504L38.3694 2.81309C38.4506 2.78563 38.5375 2.78003 38.6216 2.79684C38.7056 2.81365 38.7838 2.85227 38.8482 2.90885C38.9106 2.968 38.9566 3.04231 38.9818 3.12454C39.007 3.20678 39.0104 3.29413 38.9918 3.37809L38.2736 6.37543C38.2541 6.44956 38.2181 6.51831 38.1683 6.57653L34.9602 10.4549C34.9103 10.5118 34.8483 10.5568 34.7787 10.5867C34.7091 10.6165 34.6337 10.6304 34.558 10.6273ZM37.8331 4.01011C36.6769 4.37178 35.5603 4.84984 34.5006 5.43696C34.151 5.78347 33.9295 6.23835 33.8721 6.72717C33.8147 7.21599 33.9248 7.70982 34.1846 8.12788L34.673 9.24829L37.3639 6.06899L37.8331 4.01011Z" fill="#3A3D3E"/>
<path d="M52.9349 127.294C52.9349 127.294 42.7841 143.717 42.6213 144.732C42.4585 145.747 57.3878 173.461 58.1635 175.376C58.1635 175.376 24.2542 177.109 15.8367 177.081C7.41926 177.052 4.20166 180.767 4.20166 180.767C4.20166 180.767 8.80781 168.797 8.77908 158.139C8.75035 147.481 3.4164 131.163 4.84325 123.952C6.2701 116.741 11.2785 104.302 11.2785 104.302C11.2785 104.302 11.1635 92.9442 13.6534 84.1437C16.1432 75.3432 18.7766 66.7437 19.4757 61.1608C20.1747 55.5779 25.0299 39.0015 27.3377 34.3475C29.6456 29.6935 34.472 14.6205 34.472 14.6205C34.472 14.6205 33.6102 11.9296 34.5199 10.158C35.4339 8.7083 36.5496 7.39599 37.8332 6.26051C37.8332 6.26051 38.6664 2.43003 40.0358 1.03191C41.4052 -0.366213 42.1138 0.955301 41.8169 1.98953L41.5201 2.94715C41.5201 2.94715 44.029 7.56287 44.4695 9.51642C44.91 11.47 38.3791 16.6028 38.3791 16.6028C38.3791 16.6028 36.0425 41.9222 35.2956 47.8499C34.5486 53.7776 31.1299 61.6109 31.1299 61.6109L30.7277 66.1979L26.2077 92.4462C26.2077 92.4462 39.4421 96.5257 43.081 99.0442C46.72 101.563 56.4111 109.157 57.5219 115.324C58.6327 121.491 52.9349 127.294 52.9349 127.294Z" fill="white"/>
<path d="M4.23976 181.313C4.15128 181.311 4.06509 181.285 3.99077 181.237C3.89442 181.18 3.82124 181.092 3.78439 180.986C3.74754 180.881 3.74943 180.766 3.78968 180.662C3.83756 180.538 8.35752 168.654 8.33837 158.206C8.33837 153.418 7.20836 147.375 6.13583 141.572C4.84304 134.553 3.6173 127.936 4.41213 123.923C5.77194 117.067 10.3877 105.412 10.8377 104.282C10.8377 103.152 10.8377 92.4175 13.2318 84.0862C13.6244 82.6785 14.0266 81.2804 14.4288 79.8919C16.4973 72.6618 18.4508 65.8244 19.0445 61.1704C19.7532 55.53 24.6371 38.8675 26.9545 34.1655C29.0996 29.7988 33.5142 16.1815 34.0121 14.6397C33.8398 14.0172 33.2652 11.6615 34.1366 9.96651C35.0176 8.50929 36.1082 7.18961 37.3734 6.04985C37.5457 5.29333 38.331 2.047 39.6717 0.735059C40.6293 -0.222561 41.3379 -0.0406114 41.6731 0.160489C41.9538 0.382176 42.1596 0.68488 42.2623 1.02751C42.3651 1.37015 42.36 1.73611 42.2476 2.07573L42.0082 2.88012C43.1599 4.95983 44.1214 7.13929 44.8811 9.39194C45.3408 11.4317 40.2271 15.741 38.8098 16.8805C38.5895 19.2937 36.4445 42.3532 35.7454 47.9361C35.0464 53.519 31.915 60.8927 31.5894 61.7354L31.1872 66.2554L26.7438 92.1111C29.0229 92.8293 40.0068 96.3342 43.3393 98.6516C44.7087 99.6092 56.746 108.103 57.9909 115.228C59.0922 121.357 53.8444 126.997 53.289 127.572C49.516 133.672 43.5213 143.574 43.1095 144.751C43.4351 146.015 49.2383 157.095 53.0975 164.459C55.9703 170.033 58.3165 174.428 58.6229 175.213C58.6482 175.284 58.6568 175.359 58.6482 175.434C58.6395 175.508 58.6138 175.58 58.5731 175.643C58.5323 175.706 58.4776 175.759 58.4132 175.797C58.3488 175.835 58.2764 175.859 58.2016 175.864C57.8664 175.864 24.8094 177.569 16.0663 177.569H15.8078C7.82124 177.569 4.66109 181.055 4.63236 181.093C4.58999 181.159 4.53203 181.214 4.46356 181.252C4.39509 181.291 4.31825 181.312 4.23976 181.313ZM41.0889 0.917009C40.7975 0.980565 40.537 1.14296 40.3516 1.37666C39.0875 2.63114 38.2831 6.31798 38.2735 6.35629C38.2515 6.45668 38.1978 6.54733 38.1203 6.61484C36.8991 7.7146 35.8356 8.97783 34.9602 10.3687C34.1462 11.9488 34.9602 14.4386 34.9602 14.4673C34.989 14.5609 34.989 14.661 34.9602 14.7546C34.7591 15.3675 30.105 29.8754 27.7972 34.5486C25.4893 39.2218 20.6916 55.6162 19.983 61.247C19.3893 65.9776 17.4166 72.8438 15.3386 80.1121C14.9364 81.5007 14.5437 82.8988 14.1415 84.3065C11.6996 92.9251 11.7858 104.215 11.7858 104.33C11.7993 104.39 11.7993 104.452 11.7858 104.512C11.7858 104.637 6.77743 116.961 5.3793 124.067C4.62278 127.897 5.82941 134.438 7.11262 141.361C8.18515 147.212 9.30556 153.255 9.32472 158.168C9.32472 166.48 6.53802 175.654 5.29312 179.321C6.97853 178.191 10.2919 176.631 15.8269 176.631H16.1813C24.1678 176.631 52.6761 175.213 57.5408 174.964C56.7747 173.384 54.668 169.42 52.341 164.928C44.2491 149.453 42.171 145.288 42.2476 144.675C42.3817 143.641 50.2055 130.923 52.5995 127.045L52.6665 126.959C52.7144 126.901 58.192 121.213 57.1386 115.42C56.181 109.942 47.7157 102.808 42.8893 99.456C39.3556 97.0045 26.2841 92.9634 26.1501 92.9251C26.0389 92.888 25.9444 92.813 25.8831 92.7132C25.8218 92.6133 25.7977 92.4951 25.8149 92.3792L30.3349 66.1404L30.7371 61.5822C30.7327 61.5344 30.7327 61.4863 30.7371 61.4385C30.7371 61.3619 34.1175 53.6052 34.8453 47.8212C35.5731 42.0372 37.9096 16.8518 37.9384 16.6028C37.9497 16.4728 38.0116 16.3525 38.1108 16.2676C40.7155 14.1896 44.2587 10.7518 44.0001 9.56431C43.5788 7.64907 41.1272 3.16741 41.1272 3.11953C41.1013 3.06237 41.0879 3.00034 41.0879 2.93759C41.0879 2.87483 41.1013 2.81279 41.1272 2.75564L41.4241 1.79802C41.4819 1.65284 41.4981 1.49446 41.4711 1.34057C41.444 1.18668 41.3747 1.04335 41.2709 0.92658L41.0889 0.917009Z" fill="#3A3D3E"/>
<path d="M40.9071 7.98421C40.8442 7.98296 40.7822 7.96934 40.7246 7.94412C40.6669 7.9189 40.6149 7.88258 40.5713 7.83723C40.5277 7.79187 40.4935 7.73838 40.4706 7.6798C40.4477 7.62122 40.4366 7.5587 40.4378 7.49582C40.5342 5.93637 40.7325 4.38491 41.0316 2.85137C41.0419 2.78927 41.0646 2.72988 41.0984 2.67674C41.1321 2.6236 41.1762 2.5778 41.228 2.54206C41.2799 2.50632 41.3384 2.48138 41.4 2.46871C41.4617 2.45604 41.5253 2.4559 41.587 2.46832C41.712 2.49382 41.822 2.5672 41.8936 2.67279C41.9652 2.77837 41.9926 2.90777 41.97 3.03332C41.6862 4.51714 41.4943 6.01707 41.3955 7.52455C41.3942 7.587 41.3806 7.64859 41.3552 7.70569C41.3299 7.76279 41.2934 7.81426 41.2479 7.85707C41.2024 7.89988 41.1488 7.93318 41.0903 7.95501C41.0318 7.97685 40.9695 7.98677 40.9071 7.98421Z" fill="#3A3D3E"/>
<path d="M4.88156 123.981C6.30841 116.77 11.3168 104.33 11.3168 104.33C11.3168 104.33 11.2019 92.9729 13.6917 84.1724C13.9407 83.3105 14.18 82.4487 14.429 81.5868L29.2434 74.8835L26.2269 92.4271C26.2269 92.4271 39.4612 96.5065 43.1002 99.0251C46.7391 101.544 56.4302 109.138 57.541 115.305C58.6519 121.472 52.9349 127.265 52.9349 127.265C52.9349 127.265 42.7841 143.717 42.6213 144.732C42.4585 145.747 57.3878 173.461 58.1635 175.376C58.1635 175.376 24.2542 177.109 15.8367 177.081C7.41926 177.052 4.20166 180.767 4.20166 180.767C4.20166 180.767 8.80781 168.797 8.77908 158.139C8.75035 147.481 3.45471 131.191 4.88156 123.981Z" fill="#ADADAD"/>
<path d="M4.23976 181.313C4.15128 181.311 4.06509 181.285 3.99077 181.237C3.89442 181.18 3.82124 181.092 3.78439 180.986C3.74754 180.881 3.74943 180.766 3.78968 180.662C3.83756 180.538 8.35752 168.654 8.33837 158.206C8.33837 153.418 7.20836 147.375 6.13583 141.572C4.84304 134.562 3.6173 127.936 4.41213 123.923C5.76237 117.067 10.3877 105.412 10.8377 104.282C10.8377 103.152 10.8377 92.4175 13.2318 84.0862L13.9691 81.4911C13.9881 81.4246 14.021 81.3629 14.0655 81.3101C14.1101 81.2573 14.1654 81.2145 14.2277 81.1846L29.0517 74.4813C29.1301 74.4437 29.2177 74.4291 29.3042 74.4392C29.3906 74.4494 29.4724 74.4839 29.54 74.5388C29.6084 74.592 29.6607 74.6631 29.6911 74.7443C29.7216 74.8254 29.7289 74.9134 29.7124 74.9984L26.7725 92.1207C29.0517 92.8389 40.0356 96.3438 43.3681 98.6612C44.7375 99.6188 56.7747 108.113 58.0196 115.238C59.1209 121.366 53.8732 127.016 53.3177 127.581C49.5447 133.681 43.55 143.583 43.1383 144.761C43.4638 146.025 49.267 157.105 53.1262 164.469C55.9991 170.042 58.3452 174.438 58.6517 175.223C58.6769 175.293 58.6855 175.369 58.6769 175.443C58.6682 175.518 58.6426 175.59 58.6018 175.652C58.5611 175.715 58.5063 175.768 58.4419 175.807C58.3775 175.845 58.3051 175.868 58.2303 175.874C57.8951 175.874 24.8381 177.579 16.0951 177.579H15.8078C7.82124 177.579 4.66109 181.064 4.63236 181.103C4.58889 181.167 4.53047 181.22 4.46207 181.256C4.39367 181.293 4.31738 181.313 4.23976 181.313ZM14.8502 81.9316L14.1703 84.3065C11.7283 92.9251 11.8145 104.215 11.8145 104.33C11.8281 104.39 11.8281 104.452 11.8145 104.512C11.8145 104.637 6.80618 116.961 5.40806 124.067C4.65154 127.897 5.85814 134.438 7.14135 141.361C8.21388 147.212 9.33429 153.255 9.35344 158.168C9.35344 166.48 6.56675 175.654 5.32185 179.321C7.00726 178.191 10.3206 176.631 15.8557 176.631H16.21C24.1965 176.631 52.7048 175.213 57.5696 174.964C56.8035 173.384 54.6967 169.42 52.3697 164.928C44.2778 149.453 42.1998 145.288 42.2764 144.675C42.4105 143.641 50.2342 130.923 52.6283 127.045L52.6953 126.959C52.7432 126.901 58.2207 121.213 57.1674 115.42C56.2098 109.942 47.7444 102.808 42.918 99.456C39.3844 97.0045 26.3129 92.9634 26.1788 92.9251C26.0676 92.888 25.9731 92.813 25.9118 92.7132C25.8505 92.6133 25.8264 92.4951 25.8436 92.3792L28.7165 75.7262L14.8502 81.9316Z" fill="#3A3D3E"/>
<path d="M32.5087 142.558C32.421 142.56 32.3346 142.537 32.2597 142.491C32.0969 142.396 15.9227 132.848 13.0595 131.306C12.9477 131.246 12.8647 131.143 12.8288 131.021C12.7929 130.898 12.807 130.767 12.8679 130.655C12.9289 130.544 13.0317 130.461 13.1539 130.425C13.276 130.389 13.4074 130.403 13.5191 130.464C16.392 132.015 32.5853 141.572 32.7481 141.668C32.8029 141.699 32.8509 141.74 32.8894 141.79C32.9279 141.839 32.956 141.896 32.9721 141.957C32.9881 142.018 32.9919 142.081 32.983 142.143C32.9741 142.205 32.9529 142.265 32.9205 142.319C32.878 142.391 32.8178 142.45 32.7457 142.492C32.6737 142.534 32.5921 142.557 32.5087 142.558Z" fill="#3A3D3E"/>
<path d="M18.1253 137.991C18.0216 137.991 17.9206 137.958 17.838 137.895C14.563 135.434 7.30422 128.865 7.30422 128.798C7.25934 128.753 7.22373 128.7 7.19942 128.642C7.17511 128.583 7.1626 128.521 7.1626 128.458C7.1626 128.394 7.17511 128.332 7.19942 128.273C7.22373 128.215 7.25934 128.162 7.30422 128.118C7.39534 128.029 7.51727 127.98 7.64418 127.98C7.77109 127.98 7.893 128.029 7.98412 128.118C8.05115 128.185 15.2524 134.716 18.5179 137.158C18.6195 137.234 18.6867 137.347 18.7046 137.473C18.7226 137.599 18.6899 137.726 18.6137 137.828C18.5555 137.898 18.479 137.95 18.3927 137.979C18.3064 138.008 18.2138 138.012 18.1253 137.991Z" fill="#3A3D3E"/>
<path d="M23.1144 161.136C23.0095 161.137 22.9073 161.104 22.8228 161.042C22.7383 160.979 22.676 160.892 22.6452 160.792C22.6126 160.668 22.6294 160.537 22.692 160.427C22.7546 160.316 22.8581 160.234 22.9803 160.198C31.1392 157.88 40.9548 147.615 41.0602 147.519C41.1032 147.473 41.1551 147.437 41.2127 147.412C41.2704 147.387 41.3325 147.374 41.3953 147.374C41.4582 147.374 41.5203 147.387 41.578 147.412C41.6356 147.437 41.6875 147.473 41.7305 147.519C41.7751 147.563 41.8105 147.615 41.8347 147.672C41.8589 147.73 41.8713 147.792 41.8713 147.854C41.8713 147.917 41.8589 147.978 41.8347 148.036C41.8105 148.093 41.7751 148.146 41.7305 148.189C41.3187 148.62 31.6276 158.723 23.2197 161.136C23.1849 161.143 23.1492 161.143 23.1144 161.136Z" fill="#3A3D3E"/>
<path d="M35.7169 159.288C35.644 159.287 35.5724 159.27 35.5075 159.236C35.4427 159.203 35.3865 159.155 35.3434 159.097C35.2662 158.996 35.2319 158.869 35.2481 158.744C35.2642 158.618 35.3295 158.504 35.4296 158.426C37.4608 156.455 39.379 154.37 41.1753 152.183C41.2557 152.085 41.3712 152.024 41.4967 152.011C41.6222 151.999 41.7476 152.036 41.8457 152.116C41.9414 152.199 42.0017 152.316 42.0142 152.442C42.0266 152.569 41.9903 152.695 41.9127 152.795C41.7307 153.006 37.6034 157.986 36.0521 159.183C35.9573 159.258 35.8378 159.296 35.7169 159.288Z" fill="#3A3D3E"/>
<path d="M36.5977 59.7914C36.502 60.5383 37.2872 57.3399 42.2477 57.2058C47.2081 57.0718 52.6857 58.9008 55.5011 61.6683C58.3165 64.4359 67.864 72.2021 67.3564 85.2258C66.8489 98.2494 60.7297 96.564 59.9253 99.8773C59.1209 103.191 62.5779 104.024 62.5779 104.024C62.5779 104.024 60.7776 108.228 51.278 107.155C41.7785 106.083 44.2395 95.6159 45.1972 94.0933C46.1548 92.5707 44.68 79.0683 42.4583 75.6113C41.1488 73.5669 39.083 72.1242 36.7126 71.5988C36.7126 71.5988 27.8355 81.6347 27.1364 88.2614C26.4374 94.8881 28.3143 96.0181 28.1707 99.1687C28.027 102.319 23.7656 104.914 20.0788 103.957C16.392 102.999 16.0951 101.429 16.0951 101.429C16.0951 101.429 20.7396 99.7337 19.8586 97.7227C18.9775 95.7117 13.7489 89.8511 14.946 82.4008C16.143 74.9505 18.7764 68.8217 25.4798 64.9721C32.1831 61.1225 35.2283 61.0076 35.2283 61.0076L36.5977 59.7914Z" fill="#3A3D3E"/>
<path d="M54.218 107.806C53.2164 107.806 52.2157 107.748 51.2206 107.634C48.0126 107.27 45.7909 105.853 44.613 103.411C42.8414 99.7528 44.1343 94.8786 44.7854 93.8348C45.6377 92.4654 44.2013 79.2023 42.0562 75.8794C40.8702 74.0347 39.0408 72.6967 36.9234 72.1255C35.6593 73.6003 28.3048 82.4295 27.644 88.3093C27.2734 90.8338 27.4564 93.4086 28.1803 95.8553C28.5315 96.9305 28.6998 98.057 28.6783 99.1879C28.6003 99.9819 28.3468 100.749 27.9361 101.433C27.5253 102.117 26.9676 102.701 26.3034 103.143C25.4092 103.805 24.3814 104.265 23.2916 104.49C22.2018 104.715 21.076 104.699 19.9927 104.445C16.1622 103.421 15.693 101.726 15.6546 101.572C15.6296 101.46 15.647 101.342 15.7035 101.241C15.7601 101.14 15.8518 101.064 15.9611 101.026C16.7655 100.73 18.9776 99.7241 19.4373 98.6324C19.4867 98.5276 19.5124 98.4132 19.5124 98.2973C19.5124 98.1814 19.4867 98.0669 19.4373 97.9621C19.1534 97.3994 18.8336 96.8556 18.4796 96.3341C16.7463 93.5858 13.5096 88.4817 14.4959 82.3625C15.9036 73.5524 19.2362 68.0748 25.2979 64.5986C31.1777 61.2183 34.3091 60.6724 35.0848 60.5862L36.2626 59.4658C36.3062 59.4232 36.3584 59.3905 36.4158 59.3701C37.6512 57.7038 39.6047 56.8228 42.2286 56.7557C47.3518 56.6121 52.9252 58.5082 55.8268 61.3523C56.0566 61.5821 56.3248 61.8407 56.6408 62.128C60.1265 65.4126 68.295 73.1215 67.8258 85.2737C67.481 94.371 64.3209 96.564 62.2237 98.01C61.2661 98.6707 60.5957 99.14 60.385 100.021C59.7051 102.827 62.5588 103.555 62.6738 103.583C62.7424 103.597 62.8069 103.626 62.8618 103.67C62.9168 103.713 62.9606 103.769 62.9898 103.832C63.0202 103.895 63.0361 103.964 63.0361 104.033C63.0361 104.103 63.0202 104.172 62.9898 104.235C62.9419 104.369 61.381 107.806 54.218 107.806ZM36.751 71.12H36.8755C38.11 71.391 39.2787 71.9037 40.3142 72.6285C41.3496 73.3533 42.2313 74.2759 42.9085 75.3431C45.111 78.7523 46.7869 92.5037 45.6473 94.3327C45.0823 95.2425 43.9331 99.705 45.5228 102.951C46.5474 105.068 48.5202 106.313 51.3739 106.629C58.4602 107.433 61.0841 105.211 61.9077 104.225C61.0835 103.897 60.3786 103.326 59.8871 102.587C59.6346 102.158 59.4729 101.682 59.412 101.188C59.351 100.694 59.3921 100.192 59.5328 99.7145C59.8296 98.4792 60.7202 97.8568 61.7544 97.1386C63.8038 95.7117 66.6191 93.7677 66.9447 85.1492C67.3948 73.4375 59.4466 65.9393 56.0566 62.7409C55.7406 62.444 55.4629 62.1855 55.2331 61.9556C52.5038 59.2743 47.1986 57.4835 42.3243 57.6272C39.9495 57.6942 38.2162 58.4795 37.1724 59.9829C37.1271 60.0652 37.0656 60.1373 36.9915 60.195C36.9174 60.2526 36.8323 60.2945 36.7414 60.3181L35.6976 61.2757C35.6569 61.3185 35.6079 61.3525 35.5535 61.3756C35.4992 61.3986 35.4407 61.4103 35.3816 61.4098C35.3816 61.4098 32.3172 61.6013 25.8533 65.3169C20.1076 68.6302 16.8804 73.9354 15.5206 82.4008C14.563 88.1465 17.5795 92.8867 19.3511 95.7021C19.7247 96.2669 20.0667 96.852 20.3757 97.4546C20.4774 97.682 20.5299 97.9284 20.5299 98.1776C20.5299 98.4267 20.4774 98.6731 20.3757 98.9006C19.8203 100.213 17.8189 101.199 16.8421 101.611C17.1868 102.051 18.0774 102.846 20.2895 103.43C21.2351 103.65 22.2172 103.662 23.168 103.466C24.1187 103.269 25.0153 102.868 25.7958 102.291C26.3427 101.931 26.8037 101.455 27.1463 100.898C27.4889 100.34 27.7046 99.7137 27.7781 99.0634C27.7825 98.0511 27.6208 97.045 27.2993 96.0852C26.5479 93.5225 26.3553 90.8284 26.7343 88.1848C27.4525 81.4815 36.0615 71.6659 36.435 71.2541C36.5191 71.1703 36.6323 71.1222 36.751 71.12Z" fill="#3A3D3E"/>
<path d="M29.2721 97.6557C29.2721 97.6557 28.7262 103.038 28.0367 104.474C27.3473 105.91 24.6563 108.103 25.4895 108.592C26.3226 109.08 34.9699 106.743 39.4229 104.646C43.8758 102.549 43.0043 98.3739 43.2533 97.5216C43.5023 96.6693 35.104 100.672 29.2721 97.6557Z" fill="white"/>
<path d="M25.9107 109.118C25.6813 109.134 25.4515 109.095 25.2403 109.003C25.1421 108.945 25.0578 108.866 24.9933 108.772C24.9288 108.678 24.8857 108.57 24.8669 108.458C24.7615 107.854 25.2978 107.194 26.2554 106.073C26.7694 105.52 27.2222 104.913 27.6057 104.263C28.1419 103.152 28.6495 99.0825 28.8027 97.6078C28.8097 97.5297 28.8361 97.4546 28.8796 97.3894C28.9231 97.3241 28.9822 97.2708 29.0516 97.2343C29.1189 97.1966 29.1948 97.1768 29.2719 97.1768C29.349 97.1768 29.4249 97.1966 29.4922 97.2343C33.4376 99.2741 38.5896 97.9717 41.3475 97.2343C42.8127 96.8704 43.2627 96.7555 43.5692 97.0715C43.6281 97.1483 43.6704 97.2364 43.6935 97.3304C43.7166 97.4243 43.7199 97.5221 43.7032 97.6174C43.683 97.8308 43.683 98.0456 43.7032 98.259C43.7032 99.8678 43.5788 103.2 39.6717 105.048C36.1859 106.705 28.4196 109.118 25.9107 109.118ZM25.8436 108.161C27.1556 108.257 34.7782 106.246 39.2503 104.187C42.6211 102.587 42.6977 99.7529 42.736 98.2398C42.736 98.1153 42.736 98.0004 42.736 97.8951L41.606 98.1632C39.0492 98.8144 33.8685 100.126 29.6933 98.3452C29.5209 99.8582 29.0612 103.459 28.4867 104.656C28.0734 105.383 27.5752 106.058 27.0024 106.667C26.5684 107.136 26.1804 107.646 25.8436 108.189V108.161Z" fill="#3A3D3E"/>
<path d="M38.4939 66.8778C38.4939 66.8778 44.2396 74.826 46.5379 78.4171C48.449 81.5474 50.2005 84.7723 51.7857 88.0795C51.7857 88.0795 51.3643 91.4503 50.0045 92.1589C48.9841 92.6101 47.8725 92.8167 46.7582 92.7623C46.7582 92.7623 45.5803 97.0524 39.8825 100.011C35.0369 102.52 31.4841 102.243 28.1995 99.1687C24.9149 96.0948 23.1241 87.1219 24.7425 81.3666C26.3609 75.6113 33.4185 69.8752 34.5293 69.1569C35.6402 68.4387 38.4939 66.8778 38.4939 66.8778Z" fill="white"/>
<path d="M34.0025 102.185C31.6785 102.148 29.4643 101.19 27.845 99.5231C24.4263 96.315 22.6068 87.074 24.2539 81.2325C25.901 75.3911 32.8725 69.6549 34.2323 68.7835C35.3431 68.0365 38.1202 66.5331 38.2352 66.4756C38.3364 66.4205 38.454 66.4037 38.5666 66.4283C38.6792 66.4529 38.7791 66.5173 38.848 66.6097C38.9055 66.6959 44.5938 74.6154 46.9112 78.1681C49.2286 81.7209 52.1972 87.8114 52.1972 87.8688C52.2369 87.9523 52.2534 88.0449 52.2451 88.137C52.1972 88.5104 51.7376 91.7759 50.2054 92.5899C49.224 93.041 48.154 93.2668 47.074 93.2507C46.6526 94.3806 45.0055 97.8855 40.0834 100.433C38.2269 101.498 36.1409 102.099 34.0025 102.185ZM38.3213 67.5003C37.5169 67.9408 35.6017 68.9942 34.759 69.5592C33.5716 70.3636 26.715 75.9944 25.1828 81.4911C23.6506 86.9878 25.2977 95.8554 28.5057 98.8144C31.7138 101.773 34.9888 102.003 39.6429 99.5901C45.0917 96.7172 46.26 92.6761 46.2792 92.6378C46.3091 92.5325 46.3735 92.4404 46.4621 92.3762C46.5506 92.3119 46.6582 92.2793 46.7675 92.2835C47.7923 92.3363 48.8154 92.1494 49.7553 91.7376C50.5501 91.3163 51.096 89.3723 51.2683 88.1561C49.7153 84.9094 47.9957 81.7451 46.1163 78.6757C44.1149 75.5539 39.4705 69.0612 38.3501 67.5003H38.3213Z" fill="#3A3D3E"/>
<path d="M34.9602 89.6117C34.5304 89.6368 34.1068 89.5001 33.7727 89.2287C33.2094 88.6868 32.7054 88.0865 32.2693 87.4379C32.2275 87.386 32.1969 87.326 32.1797 87.2617C32.1624 87.1973 32.1588 87.1301 32.169 87.0642C32.1792 86.9984 32.203 86.9354 32.2389 86.8793C32.2749 86.8232 32.3221 86.7752 32.3776 86.7384C32.4332 86.7016 32.4958 86.6768 32.5615 86.6656C32.6271 86.6544 32.6944 86.657 32.759 86.6732C32.8236 86.6895 32.8841 86.7191 32.9366 86.7601C32.9892 86.801 33.0326 86.8525 33.0641 86.9112C33.464 87.4934 33.9194 88.0354 34.4239 88.5296C34.7878 88.8648 36.2242 88.5296 37.1148 88.0891C37.2304 88.0373 37.3618 88.0334 37.4803 88.0783C37.5987 88.1231 37.6946 88.2131 37.7468 88.3285C37.7738 88.3855 37.789 88.4474 37.7915 88.5105C37.7941 88.5735 37.7839 88.6364 37.7615 88.6954C37.7392 88.7544 37.7051 88.8083 37.6615 88.8539C37.6178 88.8994 37.5654 88.9357 37.5074 88.9605C36.7069 89.3361 35.8427 89.557 34.9602 89.6117Z" fill="#3A3D3E"/>
<path d="M35.4008 93.3177C34.9239 93.3145 34.4488 93.2599 33.9836 93.1549C33.0906 92.9331 32.2676 92.4908 31.59 91.8684C30.9124 91.246 30.4018 90.4635 30.1052 89.5925C30.0684 89.4655 30.0835 89.3291 30.1472 89.2133C30.211 89.0975 30.3182 89.0117 30.4451 88.9749C30.5721 88.938 30.7086 88.9532 30.8244 89.0169C30.9402 89.0807 31.026 89.1878 31.0628 89.3148C31.3098 90.0199 31.7292 90.6521 32.2828 91.1539C32.8363 91.6556 33.5066 92.011 34.2325 92.1877C36.6361 92.7239 37.6512 91.5844 37.6704 91.5652C37.7108 91.5174 37.7604 91.4781 37.8162 91.4497C37.872 91.4213 37.933 91.4044 37.9955 91.3999C38.0579 91.3955 38.1206 91.4036 38.1799 91.4237C38.2392 91.4439 38.2939 91.4757 38.3407 91.5173C38.4357 91.6021 38.4939 91.7206 38.5029 91.8476C38.5118 91.9746 38.4708 92.1001 38.3886 92.1973C37.9974 92.5837 37.5292 92.8833 37.0143 93.0764C36.4995 93.2695 35.9496 93.3517 35.4008 93.3177Z" fill="#3A3D3E"/>
<path d="M44.4119 85.7238C44.3446 85.7243 44.2779 85.71 44.2167 85.6818C44.1554 85.6537 44.1011 85.6124 44.0576 85.561C43.5407 85.0368 42.8865 84.6689 42.17 84.4996C41.4535 84.3302 40.7038 84.3662 40.0069 84.6034C39.8799 84.6427 39.7425 84.6301 39.6249 84.5681C39.5072 84.5061 39.419 84.4 39.3797 84.273C39.3403 84.146 39.353 84.0086 39.415 83.891C39.4769 83.7733 39.583 83.6851 39.71 83.6458C40.5813 83.341 41.5221 83.2945 42.4192 83.512C43.3162 83.7295 44.1313 84.2016 44.7663 84.8715C44.8121 84.9145 44.8486 84.9664 44.8735 85.0241C44.8985 85.0817 44.9114 85.1439 44.9114 85.2067C44.9114 85.2695 44.8985 85.3316 44.8735 85.3893C44.8486 85.4469 44.8121 85.4989 44.7663 85.5419C44.7256 85.5979 44.6724 85.6436 44.6108 85.6752C44.5493 85.7068 44.4811 85.7234 44.4119 85.7238Z" fill="#3A3D3E"/>
<path d="M32.6235 82.6785C32.5371 82.6798 32.4521 82.6573 32.3778 82.6133C32.3034 82.5694 32.2426 82.5058 32.2021 82.4296C31.8055 81.7209 31.1757 81.1715 30.4197 80.8747C29.6638 80.5779 28.8285 80.5521 28.0556 80.8016C27.9928 80.8205 27.9268 80.8268 27.8615 80.8201C27.7962 80.8135 27.7328 80.7941 27.675 80.7629C27.6172 80.7318 27.5661 80.6896 27.5246 80.6387C27.4831 80.5879 27.4521 80.5293 27.4332 80.4664C27.4143 80.4036 27.408 80.3376 27.4147 80.2723C27.4213 80.207 27.4407 80.1436 27.4719 80.0858C27.503 80.028 27.5452 79.9769 27.5961 79.9354C27.6469 79.8939 27.7055 79.8628 27.7683 79.844C28.762 79.5284 29.835 79.5722 30.7996 79.9679C31.7642 80.3635 32.559 81.0858 33.0448 82.0082C33.0746 82.0634 33.093 82.1239 33.099 82.1863C33.105 82.2487 33.0984 82.3116 33.0797 82.3714C33.0609 82.4313 33.0304 82.4867 32.9899 82.5345C32.9493 82.5823 32.8997 82.6215 32.8437 82.6498C32.774 82.678 32.6981 82.6879 32.6235 82.6785Z" fill="#3A3D3E"/>
<path d="M46.3464 82.4199C46.2735 82.4192 46.2019 82.4015 46.137 82.3683C46.0722 82.335 46.016 82.2871 45.9729 82.2284C45.2783 81.4051 44.3886 80.7687 43.385 80.3773C42.3814 79.9859 41.2958 79.8519 40.2272 79.9876C40.1015 80.0039 39.9745 79.9697 39.874 79.8925C39.7734 79.8153 39.7076 79.7014 39.6909 79.5758C39.6744 79.4516 39.7073 79.3258 39.7825 79.2255C39.8577 79.1253 39.9692 79.0585 40.0931 79.0395C41.3243 78.8894 42.5734 79.049 43.7273 79.5038C44.8811 79.9587 45.9032 80.6944 46.7007 81.6443C46.7779 81.7447 46.8122 81.8716 46.7961 81.9972C46.7799 82.1229 46.7146 82.237 46.6145 82.3146C46.5378 82.3759 46.4443 82.4126 46.3464 82.4199Z" fill="#3A3D3E"/>
<path d="M34.558 78.3884C34.4468 78.39 34.3384 78.3528 34.2516 78.2831C34.1367 78.1873 31.3213 75.889 29.0996 77.8043C29.0031 77.8868 28.8778 77.9276 28.7512 77.9178C28.6246 77.9079 28.507 77.8481 28.4245 77.7516C28.342 77.6551 28.3011 77.5297 28.311 77.4031C28.3209 77.2765 28.3807 77.159 28.4772 77.0765C30.7467 75.1134 33.6483 76.5306 34.8645 77.5457C34.9617 77.6261 35.0233 77.7416 35.0358 77.8671C35.0484 77.9926 35.0109 78.118 34.9315 78.2161C34.8856 78.2702 34.8283 78.3137 34.7638 78.3435C34.6993 78.3732 34.6291 78.3886 34.558 78.3884Z" fill="#3A3D3E"/>
<path d="M48.8551 87.9646H48.7306C48.571 87.9315 48.4266 87.8472 48.3194 87.7244C48.2122 87.6017 48.1481 87.4472 48.1369 87.2847C48.0113 85.5952 48.0113 83.8987 48.1369 82.2093C48.1448 82.1044 48.1863 82.0049 48.2554 81.9255C48.3244 81.8461 48.4172 81.7912 48.52 81.7688C48.6238 81.7506 48.7307 81.7658 48.8254 81.8123C48.9201 81.8587 48.9975 81.934 49.0466 82.0273L50.8661 85.6854C50.9055 85.7574 50.9262 85.838 50.9262 85.9201C50.9262 86.0021 50.9055 86.0828 50.8661 86.1547C50.0425 87.3517 49.3818 87.9646 48.8551 87.9646ZM48.9988 84.1341C48.9427 85.0494 48.9427 85.9672 48.9988 86.8825C49.3053 86.5922 49.5812 86.2714 49.8223 85.9248L48.9988 84.1341Z" fill="#3A3D3E"/>
<path d="M69.5303 202.793L40.6006 207.217L36.4541 178.852L66.7436 177.176L69.5303 202.793Z" fill="white"/>
<path d="M40.6102 207.696C40.5078 207.698 40.4073 207.668 40.3229 207.61C40.2716 207.572 40.2283 207.525 40.1954 207.471C40.1626 207.416 40.1408 207.356 40.1314 207.294L35.9849 178.919C35.9675 178.787 36.0018 178.653 36.0807 178.546C36.1218 178.493 36.174 178.451 36.2336 178.421C36.2932 178.391 36.3588 178.375 36.4254 178.373L66.7245 176.698C66.8459 176.69 66.9657 176.729 67.0586 176.808C67.1515 176.886 67.2103 176.998 67.2224 177.119L69.9995 202.745C70.0133 202.868 69.9792 202.991 69.9043 203.089C69.8293 203.187 69.7194 203.253 69.5973 203.271L40.706 207.696H40.6102ZM37 179.293L41.0124 206.671L69.0036 202.381L66.3223 177.665L37 179.293Z" fill="#3A3D3E"/>
<path d="M40.6007 207.217L34.0027 179.226L36.4542 178.852L40.6007 207.217Z" fill="white"/>
<path d="M40.6102 207.696C40.502 207.698 40.3962 207.664 40.3107 207.597C40.2252 207.531 40.1652 207.437 40.141 207.332L33.5334 179.341C33.507 179.209 33.5309 179.072 33.6004 178.958C33.6371 178.903 33.6851 178.856 33.7413 178.822C33.7975 178.787 33.8605 178.765 33.926 178.756L36.3775 178.373C36.5052 178.358 36.6344 178.388 36.7414 178.46C36.842 178.538 36.9102 178.65 36.9329 178.776L41.0795 207.169C41.0989 207.291 41.0696 207.415 40.9979 207.516C40.9262 207.616 40.8179 207.684 40.6964 207.705L40.6102 207.696ZM34.5868 179.618L38.5322 196.338L36.052 179.398L34.5868 179.618Z" fill="#3A3D3E"/>
<path d="M46.0496 117.833L56.277 148.477C56.277 148.477 56.5643 154.366 56.4877 159.01C56.4111 163.655 58.671 171.661 58.987 177.368C59.1594 180.643 59.4946 184.349 58.987 187.605C58.604 190.028 56.2961 191.847 54.7161 193.839C53.0115 195.984 53.1743 198.79 51.5559 200.849C50.943 201.634 51.6038 201.883 52.5902 202.18C53.5765 202.477 54.582 201.404 54.582 201.404C54.2312 202.2 53.9555 203.027 53.7585 203.875C53.5133 204.842 53.1633 205.78 52.7147 206.671C53.5539 207.069 54.4428 207.353 55.3577 207.514C56.5451 207.667 57.5985 206.077 57.5985 206.077L59.2935 206.298C59.8051 206.242 60.2967 206.068 60.7299 205.79C61.1579 205.889 61.6026 205.891 62.0316 205.797C62.4606 205.702 62.8632 205.514 63.2101 205.244C64.1678 204.334 64.6945 203.023 64.953 200.992C65.2116 198.962 68.3909 177.875 69.54 168.74C70.6891 159.604 68.908 150.612 68.3621 146.762C67.8163 142.913 66.648 135.884 64.8477 121.558C63.0473 107.232 59.4467 104.378 59.4467 104.378C59.4467 104.378 55.9897 100.5 51.3069 100.768C46.6242 101.036 43.646 106.849 43.646 106.849" fill="#ADADAD"/>
<path d="M55.5107 208.021H55.2905C54.3242 207.845 53.3844 207.546 52.4942 207.131C52.4371 207.101 52.3865 207.061 52.3453 207.011C52.3042 206.962 52.2734 206.905 52.2548 206.843C52.2287 206.785 52.2152 206.721 52.2152 206.657C52.2152 206.592 52.2287 206.529 52.2548 206.47C52.6707 205.614 52.9918 204.715 53.2125 203.789C53.3178 203.358 53.4327 202.965 53.538 202.63C53.1611 202.75 52.7563 202.75 52.3793 202.63C51.7282 202.438 50.9908 202.218 50.8088 201.672C50.7627 201.48 50.7657 201.279 50.8176 201.088C50.8695 200.898 50.9686 200.723 51.1057 200.581C51.7857 199.595 52.2761 198.49 52.5517 197.325C52.874 195.974 53.4562 194.699 54.2658 193.571C54.6872 193.035 55.166 192.517 55.6256 192.01C56.8801 190.631 58.1729 189.214 58.4411 187.557C58.769 184.637 58.7947 181.691 58.5177 178.766L58.4411 177.425C58.19 174.418 57.7616 171.428 57.1578 168.472C56.4899 165.367 56.0831 162.212 55.9417 159.039C56.0087 154.73 55.7597 149.271 55.731 148.62L45.5324 117.976C45.4917 117.856 45.5007 117.724 45.5572 117.61C45.6138 117.496 45.7134 117.409 45.834 117.368C45.9547 117.328 46.0865 117.337 46.2005 117.393C46.3146 117.45 46.4014 117.549 46.4421 117.67L56.6599 148.314V148.438C56.6599 148.496 56.9472 154.385 56.8706 158.972C57.0119 162.084 57.4156 165.179 58.0772 168.223C58.6777 171.222 59.1093 174.253 59.3699 177.301L59.4466 178.632C59.7307 181.628 59.6986 184.645 59.3508 187.634C59.0444 189.549 57.6558 191.1 56.3056 192.575C55.8555 193.073 55.348 193.58 54.9841 194.088C54.2786 195.151 53.7874 196.342 53.538 197.593C53.2325 198.874 52.6865 200.087 51.9293 201.165C51.7952 201.328 51.7952 201.395 51.7952 201.395C52.0982 201.55 52.4201 201.666 52.7528 201.739C53.3274 201.921 54.0456 201.318 54.2563 201.098C54.3329 201.015 54.4365 200.961 54.5487 200.947C54.6609 200.933 54.7744 200.959 54.8691 201.021C54.9656 201.084 55.0355 201.18 55.0656 201.292C55.0956 201.403 55.0836 201.521 55.0319 201.624C54.6968 202.394 54.4308 203.192 54.2371 204.009C54.0294 204.848 53.7441 205.665 53.3848 206.451C54.0409 206.736 54.729 206.942 55.4341 207.064C56.1715 207.159 56.9759 206.211 57.2249 205.838C57.2734 205.763 57.3424 205.703 57.4239 205.665C57.5054 205.628 57.5958 205.615 57.6846 205.627L59.3699 205.838C59.7712 205.764 60.1547 205.615 60.5 205.397C60.6107 205.336 60.7395 205.316 60.8638 205.34C61.2147 205.421 61.579 205.425 61.9314 205.35C62.2837 205.276 62.6155 205.125 62.9036 204.909C63.7654 204.105 64.2442 202.917 64.4932 200.954C64.5794 200.303 64.9529 197.746 65.4508 194.251C66.5808 186.59 68.2758 174.964 69.061 168.74C70.0187 160.849 68.8216 152.901 68.1034 148.63C68.0077 147.969 67.9119 147.385 67.8449 146.887C67.7108 145.929 67.548 144.857 67.3373 143.506C66.6862 139.149 65.6902 132.57 64.3208 121.682C62.578 107.845 59.1401 104.838 59.1018 104.809C59.0635 104.78 55.6544 101.055 51.2876 101.304C46.9209 101.553 44.0768 107.05 44.048 107.127C43.9888 107.24 43.8873 107.326 43.7655 107.365C43.6437 107.404 43.5114 107.394 43.3969 107.337C43.2858 107.278 43.2024 107.178 43.1647 107.058C43.1271 106.938 43.1383 106.808 43.1958 106.696C43.3203 106.447 46.3463 100.634 51.2398 100.347C56.1332 100.059 59.6094 103.947 59.7626 104.12C59.9158 104.292 63.4686 107.203 65.2689 121.558C66.6383 132.436 67.6342 139.015 68.2854 143.363C68.4865 144.713 68.6588 145.824 68.7929 146.753C68.8599 147.241 68.9557 147.825 69.0515 148.486C69.7314 152.795 70.9667 160.83 70.0091 168.855C69.2143 175.089 67.5193 186.705 66.3893 194.385C65.8722 197.918 65.4987 200.466 65.4317 201.088C65.154 203.3 64.589 204.66 63.5164 205.637C63.1415 205.941 62.7053 206.161 62.2376 206.282C61.77 206.402 61.2818 206.421 60.8064 206.336C60.3275 206.631 59.7788 206.792 59.2167 206.805L57.7995 206.633C57.5368 207.012 57.1973 207.332 56.803 207.571C56.4086 207.81 55.9683 207.964 55.5107 208.021Z" fill="#3A3D3E"/>
<path d="M56.4875 159.03C56.5641 154.404 56.2768 148.496 56.2768 148.496L51.0674 132.858L65.9967 130.56C67.1554 139.054 67.9119 143.861 68.3524 146.839C68.8982 150.67 70.689 159.681 69.5303 168.816C68.3716 177.952 65.1923 199.039 64.9433 201.069C64.6943 203.099 64.1772 204.411 63.2004 205.321C62.8534 205.59 62.4508 205.779 62.0218 205.873C61.5928 205.968 61.1482 205.966 60.7202 205.867C60.287 206.145 59.7953 206.318 59.2837 206.374L57.5888 206.154C57.5888 206.154 56.5354 207.744 55.3479 207.59C54.4331 207.429 53.5441 207.146 52.7049 206.748C53.1535 205.856 53.5035 204.919 53.7487 203.951C53.9458 203.104 54.2215 202.277 54.5723 201.481C54.5723 201.481 53.6146 202.553 52.5804 202.256C51.5462 201.96 50.9333 201.711 51.5462 200.925C53.1646 198.867 53.0018 196.061 54.7063 193.916C56.2864 191.924 58.5942 190.085 58.9773 187.681C59.4944 184.426 59.1592 180.72 58.9773 177.445C58.6709 171.68 56.4205 163.664 56.4875 159.03Z" fill="white"/>
<path d="M55.5109 208.021H55.2907C54.3243 207.845 53.3846 207.546 52.4944 207.131C52.4373 207.101 52.3866 207.061 52.3455 207.011C52.3044 206.962 52.2736 206.905 52.255 206.843C52.2289 206.785 52.2154 206.721 52.2154 206.657C52.2154 206.592 52.2289 206.529 52.255 206.47C52.6709 205.614 52.992 204.715 53.2126 203.789C53.3179 203.358 53.4329 202.965 53.5382 202.63C53.1612 202.75 52.7565 202.75 52.3795 202.63C51.7283 202.438 50.9909 202.218 50.809 201.672C50.7629 201.48 50.7659 201.279 50.8178 201.089C50.8696 200.898 50.9687 200.723 51.1058 200.581C51.7859 199.595 52.2762 198.49 52.5518 197.325C52.8741 195.974 53.4564 194.699 54.266 193.571C54.6873 193.035 55.1661 192.518 55.6258 192.01C56.8803 190.631 58.1731 189.214 58.4412 187.557C58.7692 184.637 58.7949 181.691 58.5178 178.766L58.4412 177.425C58.1902 174.418 57.7617 171.428 57.158 168.472C56.49 165.367 56.0832 162.212 55.9418 159.039C56.0089 154.73 55.7599 149.271 55.7311 148.62L50.5408 133.04C50.5202 132.973 50.5138 132.903 50.522 132.834C50.5303 132.764 50.553 132.698 50.5887 132.638C50.6254 132.579 50.6743 132.529 50.7321 132.491C50.79 132.453 50.8554 132.428 50.9239 132.417L65.8627 130.071C65.9246 130.061 65.9879 130.063 66.0488 130.078C66.1098 130.092 66.167 130.12 66.2171 130.157C66.2694 130.196 66.3134 130.244 66.3463 130.3C66.3792 130.356 66.4004 130.418 66.4086 130.483C67.2034 136.315 67.8163 140.385 68.2664 143.363C68.4675 144.704 68.6303 145.805 68.7643 146.724C68.8314 147.213 68.9271 147.797 69.0229 148.457C69.7028 152.767 70.9381 160.801 69.9805 168.826C69.1857 175.06 67.4907 186.676 66.3607 194.356C65.8436 197.89 65.4701 200.437 65.4031 201.059C65.1254 203.272 64.5604 204.631 63.4879 205.608C63.1129 205.913 62.6767 206.133 62.209 206.253C61.7414 206.374 61.2532 206.392 60.7778 206.307C60.2989 206.602 59.7503 206.764 59.1881 206.776L57.7709 206.604C57.5143 206.985 57.1805 207.308 56.7912 207.552C56.4019 207.797 55.9658 207.956 55.5109 208.021ZM53.3562 206.451C54.0124 206.736 54.7004 206.942 55.4056 207.064C56.1429 207.16 56.9473 206.211 57.1963 205.838C57.2448 205.763 57.3139 205.703 57.3953 205.665C57.4768 205.628 57.5672 205.615 57.656 205.627L59.3414 205.838C59.7426 205.764 60.1261 205.615 60.4714 205.397C60.5821 205.336 60.711 205.316 60.8352 205.34C61.1861 205.421 61.5505 205.425 61.9028 205.35C62.2551 205.276 62.5869 205.125 62.875 204.909C63.7368 204.105 64.2157 202.917 64.4646 200.954C64.5508 200.303 64.9243 197.746 65.4223 194.251C66.5522 186.59 68.2472 174.964 69.0325 168.74C69.9901 160.849 68.7931 152.901 68.0748 148.63C67.9791 147.969 67.8833 147.385 67.8163 146.887C67.6822 145.929 67.5194 144.866 67.3183 143.535C66.8778 140.662 66.2841 136.707 65.5276 131.086L51.6325 133.26L56.66 148.371V148.496C56.66 148.553 56.9473 154.443 56.8707 159.03C57.0121 162.142 57.4157 165.236 58.0773 168.28C58.6778 171.28 59.1094 174.31 59.3701 177.358L59.4467 178.689C59.7308 181.685 59.6987 184.702 59.3509 187.691C59.0445 189.606 57.656 191.158 56.3057 192.632C55.8556 193.13 55.3481 193.638 54.9842 194.145C54.2856 195.191 53.7947 196.362 53.5382 197.593C53.2326 198.875 52.6867 200.087 51.9294 201.165C51.7953 201.328 51.7953 201.395 51.7953 201.395C52.0983 201.55 52.4202 201.666 52.7529 201.739C53.3275 201.921 54.0266 201.337 54.2564 201.098C54.3332 201.014 54.4376 200.962 54.5503 200.949C54.6629 200.937 54.7763 200.966 54.8693 201.031C54.9651 201.092 55.0347 201.187 55.0648 201.296C55.0948 201.406 55.0832 201.523 55.0321 201.624C54.6969 202.394 54.4309 203.192 54.2373 204.009C54.0203 204.849 53.7253 205.666 53.3562 206.451Z" fill="#3A3D3E"/>
<path d="M54.5724 201.902C54.5093 201.916 54.444 201.916 54.3809 201.902C54.2655 201.85 54.1755 201.754 54.1307 201.636C54.0858 201.517 54.0897 201.386 54.1415 201.27L55.5779 198.014C55.6029 197.956 55.6391 197.904 55.6845 197.86C55.7298 197.816 55.7834 197.781 55.8421 197.758C55.9009 197.735 55.9636 197.724 56.0268 197.725C56.0899 197.726 56.1521 197.74 56.21 197.765C56.3254 197.818 56.4159 197.913 56.4623 198.031C56.5088 198.149 56.5076 198.28 56.4589 198.397L55.0129 201.653C54.9701 201.732 54.9061 201.797 54.8283 201.841C54.7504 201.885 54.6618 201.906 54.5724 201.902Z" fill="#3A3D3E"/>
</svg>
