<svg width="275" height="345" viewBox="0 0 275 345" fill="none" xmlns="http://www.w3.org/2000/svg">
<path d="M213.837 150.593C209.432 147.253 163.499 94.4041 163.499 94.4041C164.444 104.804 183 149.532 183 149.532L195.82 171.846L197.536 176.354C200.604 171.138 208.72 159.882 219.854 164.528C219.762 164.052 219.682 163.647 219.595 163.345C217.777 157.027 218.229 153.906 213.837 150.593Z" fill="#C58B5D" stroke="#3A3D3E" stroke-linecap="round" stroke-linejoin="round"/>
<path d="M211.047 159.05C212.294 158.694 213.58 158.492 214.877 158.45" stroke="#3A3D3E" stroke-linecap="round" stroke-linejoin="round"/>
<path d="M195.93 168.798C199.085 165.594 202.707 162.888 206.673 160.77" stroke="#3A3D3E" stroke-linecap="round" stroke-linejoin="round"/>
<path d="M212.13 155.555C212.13 155.555 205.615 154.868 202.116 157.999" stroke="#3A3D3E" stroke-linecap="round" stroke-linejoin="round"/>
<path d="M167.278 326.693L146.443 279.712L137.723 252.657L213.361 213.79L228.827 228.842L259.887 283.772L220.975 302.118L195.856 267.88L195.459 272.501L210.338 306.148L167.278 326.693Z" fill="#3A3D3E" stroke="#3A3D3E" stroke-linecap="round" stroke-linejoin="round"/>
<path d="M97.1069 115.081C97.1069 115.081 67.819 139.723 66.2434 141.705C64.6678 143.686 83.5311 171.995 91.9123 181.564C100.293 191.134 127.193 228.258 127.193 228.258L140.554 257.934C140.554 257.934 173.781 243.263 186.16 235.448C194.824 229.84 203.183 223.773 211.201 217.274C211.201 217.274 203.595 189.064 193.917 172.688C184.239 156.311 168.838 111.544 167.579 108.71C166.321 105.876 163.45 94.3941 163.45 94.3941C163.45 94.3941 134.819 98.5282 128.009 100.755C117.301 104.598 106.959 109.392 97.1069 115.081Z" fill="#C58B5D" stroke="#3A3D3E" stroke-linecap="round" stroke-linejoin="round"/>
<path d="M94.3418 125.561C94.3418 125.561 103.932 135.091 117.019 137.312" stroke="#3A3D3E" stroke-linecap="round" stroke-linejoin="round"/>
<path d="M127.917 107.244C128.094 111.07 127.995 114.904 127.621 118.716" stroke="#3A3D3E" stroke-linecap="round" stroke-linejoin="round"/>
<path d="M128.14 121.412L127.551 124.641" stroke="#3A3D3E" stroke-linecap="round" stroke-linejoin="round"/>
<path d="M169.469 240.332C177.03 236.204 190.706 228.23 198.441 220.625" stroke="#3A3D3E" stroke-linecap="round" stroke-linejoin="round"/>
<path d="M164.048 243.186C164.048 243.186 164.953 242.76 166.421 241.957" stroke="#3A3D3E" stroke-linecap="round" stroke-linejoin="round"/>
<path d="M192.027 219.471C182.441 225.615 167.523 234.119 154.238 237.198" stroke="#3A3D3E" stroke-linecap="round" stroke-linejoin="round"/>
<path d="M202.037 212.54C202.037 212.54 199.711 214.289 195.862 216.866" stroke="#3A3D3E" stroke-linecap="round" stroke-linejoin="round"/>
<path d="M194.521 198.803C190.049 205.334 181.094 216.941 170.303 224.373" stroke="#3A3D3E" stroke-linecap="round" stroke-linejoin="round"/>
<path d="M197.665 194.027C197.665 194.027 197.097 194.98 196.036 196.575" stroke="#3A3D3E" stroke-linecap="round" stroke-linejoin="round"/>
<path d="M86.9136 105.724L95.9447 121.245C95.9447 121.245 106.436 130.671 117.58 124.456C128.509 118.396 123.411 103.244 123.411 103.244L113.076 87.2319C113.076 87.2319 107.028 100.199 101.16 102.081C95.2926 103.963 86.9136 105.724 86.9136 105.724Z" fill="white" stroke="#3A3D3E" stroke-linecap="round" stroke-linejoin="round"/>
<path d="M66.408 91.9649C66.408 91.9649 63.1223 90.3189 62.6705 93.4174C62.2187 96.516 67.0666 101.991 70.5459 102.032C74.0252 102.072 74.7627 101.713 74.7627 101.713C74.7627 101.713 80.9588 106.531 83.5372 107.615C86.1157 108.699 102.652 111.693 105.883 110.833C109.115 109.972 112.94 107.041 113.777 104.524C114.613 102.007 114.249 87.5632 113.715 84.3211C113.182 81.079 113.028 80.3776 112.246 78.6239C111.463 76.8702 110.674 75.4071 110.674 75.4071C110.674 75.4071 111.585 69.6486 110.278 66.0084C108.971 62.3683 106.933 60.1337 104.845 60.5105C102.756 60.8872 102.423 65.5989 102.423 65.5989L87.1368 49.3789C87.1368 49.3789 82.4979 45.1205 80.3946 45.3493C78.2913 45.5781 65.663 53.5218 61.1138 58.5521C56.5645 63.5824 52.215 68.6845 53.0042 71.5075C53.7934 74.3305 66.408 91.9649 66.408 91.9649Z" fill="white" stroke="#3A3D3E" stroke-linecap="round" stroke-linejoin="round"/>
<path d="M63.9988 60.3098C63.9988 60.3098 54.3096 67.476 54.5043 69.5069C54.6989 71.5378 55.4009 75.2311 57.6899 77.2254C59.9789 79.2196 67.3157 91.5923 67.3157 91.5923C67.3157 91.5923 70.8677 94.8817 69.4417 94.8354C68.0158 94.789 64.8931 90.3465 64.2579 89.9605C63.6227 89.5746 54.4358 82.5406 51.3287 79.749C48.2216 76.9575 49.8485 72.1773 50.2777 71.0241C50.5754 70.151 50.804 69.2559 50.9613 68.347C50.9613 68.347 47.4852 63.1313 48.8691 59.3833C50.2529 55.6353 67.1129 43.0431 68.3702 41.6764C69.6274 40.3098 69.7332 36.3131 70.7051 34.9041C71.677 33.4951 76.6823 33.5122 81.3112 37.2336C85.9402 40.955 86.3989 42.397 86.0593 43.7401L85.8127 45.1167C85.8127 45.1167 88.7097 44.2263 91.4993 47.3997C94.2889 50.5731 97.4008 53.3513 98.6974 56.2889C99.9939 59.2265 102.196 64.9988 102.446 65.5771C102.697 66.1555 101.777 65.8927 100.348 64.2448C98.9185 62.5969 87.3555 50.7574 85.9027 49.5518C84.6992 48.5774 83.4417 47.6717 82.1362 46.839C81.4482 46.4116 65.9134 54.4984 63.9988 60.3098Z" fill="#3A3D3E" stroke="#3A3D3E" stroke-linecap="round" stroke-linejoin="round"/>
<path d="M105.883 110.833C109.094 109.927 112.94 107.041 113.777 104.524C114.613 102.007 114.249 87.5633 113.715 84.3212C113.182 81.0791 113.028 80.3778 112.246 78.624C111.463 76.8703 110.674 75.4072 110.674 75.4072L102.507 64.8852L102.447 65.3446C104.451 68.8219 108.303 75.5851 108.668 76.6402C108.853 77.4943 108.789 78.3835 108.483 79.202C108.177 80.0205 107.642 80.7338 106.942 81.2571C105.56 82.2183 97.9499 84.391 94.9657 86.1517C91.9816 87.9124 91.476 89.4664 89.6676 91.8447C87.8591 94.223 84.3325 99.5229 83.2634 100.491C82.1942 101.46 79.4108 101.7 77.8725 100.899C76.3343 100.099 67.3328 91.6285 67.3328 91.6285C67.5381 92.3662 67.6157 93.1335 67.5622 93.8973L74.7888 101.745C74.7888 101.745 80.9849 106.563 83.5633 107.647C86.1418 108.731 102.652 111.693 105.883 110.833Z" fill="#3A3D3E" stroke="#3A3D3E" stroke-linecap="round" stroke-linejoin="round"/>
<path d="M84.6093 69.5311C84.6093 69.5311 83.6823 72.8647 84.3848 73.44C85.0872 74.0154 96.2098 85.5541 96.7379 87.0961C97.2659 88.6382 95.6203 90.3537 93.7848 90.6111C91.9493 90.8684 88.8163 86.8729 88.8163 86.8729" fill="white"/>
<path d="M84.6093 69.5311C84.6093 69.5311 83.6823 72.8647 84.3848 73.44C85.0872 74.0154 96.2098 85.5541 96.7379 87.0961C97.2659 88.6382 95.6203 90.3538 93.7848 90.6111C91.9493 90.8684 88.8163 86.8729 88.8163 86.8729" stroke="#3A3D3E" stroke-linecap="round" stroke-linejoin="round"/>
<path d="M86.1777 67.277C86.1777 67.277 89.1338 62.0802 94.0663 62.3417" stroke="#3A3D3E" stroke-width="3" stroke-linecap="round" stroke-linejoin="round"/>
<path d="M75.8153 75.5012C75.8153 75.5012 68.3098 77.2156 67.7807 83.8553" stroke="#3A3D3E" stroke-width="3" stroke-linecap="round" stroke-linejoin="round"/>
<path d="M78.126 82.184C78.8563 83.1 79.0003 84.2262 78.4439 84.6875C77.8875 85.1488 76.8446 84.7892 76.1142 83.8732C75.3838 82.9572 75.2351 81.8444 75.7872 81.374C76.3394 80.9037 77.4227 81.2552 78.126 82.184Z" fill="#3A3D3E" stroke="#3A3D3E" stroke-linecap="round" stroke-linejoin="round"/>
<path d="M92.4582 70.1866C93.1885 71.1026 93.3282 72.2197 92.7718 72.681C92.2154 73.1423 91.1725 72.7828 90.4422 71.8668C89.7118 70.9507 89.563 69.8379 90.1194 69.3766C90.6758 68.9153 91.7278 69.2706 92.4582 70.1866Z" fill="#3A3D3E" stroke="#3A3D3E" stroke-linecap="round" stroke-linejoin="round"/>
<path d="M91.8548 98.8288C91.8548 98.8288 101.283 96.3625 103.704 88.2233" stroke="#858585" stroke-linecap="round" stroke-linejoin="round"/>
<path d="M219.599 163.354C219.659 163.481 219.677 163.66 219.713 163.831C219.66 163.624 219.615 163.458 219.599 163.354Z" stroke="#3A3D3E" stroke-linecap="round" stroke-linejoin="round"/>
<path d="M219.841 164.501C208.707 159.855 200.555 171.128 197.523 176.327L205.288 198.846L206.086 203.401C206.086 203.401 201.98 216.171 201.788 218.484C201.513 220.613 200.857 222.676 199.849 224.572C199.096 226.165 196.831 228.206 197.167 229.529C197.503 230.852 201.81 229.551 202.749 228.379C203.689 227.206 205.278 222.51 205.278 222.51L205.802 228.664L224.792 228.092C224.792 228.092 223.508 223.025 222.666 219.973C221.824 216.92 219.441 209.918 219.104 208.595C218.768 207.272 221.44 171.972 219.712 163.876L219.841 164.501Z" fill="white" stroke="#3A3D3E" stroke-linecap="round" stroke-linejoin="round"/>
<path d="M66.2347 141.687C66.2347 141.687 63.914 147.457 64.8267 151.715C65.7393 155.972 74.6555 210.363 74.8778 219.136C75.1002 227.909 77.3123 234.008 80.3885 236.007C83.4647 238.006 125.563 245.554 125.563 245.554C125.563 245.554 134.241 255.26 136.503 257.643C138.765 260.026 142.756 264.059 142.756 264.059L152.661 252.237C154.526 253.03 156.445 253.691 158.403 254.217C160.558 254.683 162.874 254.32 162.705 252.93C162.536 251.539 158.618 249.185 158.618 249.185C157.3 248.092 156.156 246.805 155.226 245.367C154.121 243.422 149.471 241.181 147.447 239.913C145.423 238.645 132.602 236.564 132.602 236.564L98.1313 214.828L91.9617 181.552C91.9617 181.552 68.7299 150.637 66.2347 141.687Z" fill="white" stroke="#3A3D3E" stroke-linecap="round" stroke-linejoin="round"/>
<path d="M98.0946 214.868L95.2208 185.51C95.2208 185.51 68.7257 150.628 66.2347 141.687C66.2347 141.687 63.914 147.457 64.8267 151.715C65.7393 155.972 74.6555 210.363 74.8778 219.136C75.1002 227.909 77.3123 234.008 80.3885 236.007C84.1041 237.99 88.223 239.099 92.4318 239.251C92.5863 234.889 93.5337 224.47 103.544 218.877L98.0946 214.868Z" fill="#C58B5D" stroke="#3A3D3E" stroke-linecap="round" stroke-linejoin="round"/>
<path d="M82.5411 220.476C86.2865 218.198 90.5008 216.8 94.8656 216.39" stroke="#3A3D3E" stroke-linecap="round" stroke-linejoin="round"/>
<path d="M89.7974 214.833C89.7974 214.833 95.4646 213.886 98.0946 214.868" stroke="#3A3D3E" stroke-linecap="round" stroke-linejoin="round"/>
</svg>
