<svg width="20" height="20" viewBox="0 0 20 20" fill="none" xmlns="http://www.w3.org/2000/svg">
<path fill-rule="evenodd" clip-rule="evenodd" d="M5.09505 11.5946C5.12961 11.6062 5.16449 11.6145 5.19934 11.6196C5.23734 11.7089 5.28644 11.8244 5.34372 11.9595C5.48352 12.2892 5.67188 12.7351 5.86631 13.2003C6.26281 14.149 6.66277 15.127 6.75111 15.4069C6.86046 15.7529 6.97604 15.9882 7.10223 16.1488C7.16747 16.2319 7.24293 16.3044 7.33123 16.3593C7.37568 16.387 7.42263 16.4096 7.47164 16.4265C7.4738 16.4273 7.47596 16.428 7.47811 16.4287C7.73076 16.5241 7.96109 16.4843 8.10531 16.4358C8.18247 16.4098 8.2449 16.3784 8.28915 16.353C8.31171 16.34 8.33077 16.3279 8.34598 16.3177L8.34957 16.3152L10.5808 14.9238L13.158 16.8997C13.1961 16.9289 13.2375 16.9533 13.2815 16.9725C13.5911 17.1076 13.8909 17.1547 14.173 17.1162C14.4545 17.0777 14.6781 16.9594 14.8445 16.8263C15.0074 16.6959 15.1179 16.5499 15.1867 16.4414C15.2218 16.386 15.2482 16.337 15.2668 16.2995C15.2762 16.2806 15.2837 16.2643 15.2895 16.2513L15.2969 16.2341L15.2997 16.2273L15.3009 16.2244L15.3014 16.2231L15.3019 16.2219C15.3155 16.188 15.3259 16.153 15.333 16.1172L17.6858 4.25497C17.6933 4.21704 17.6971 4.17845 17.6971 4.13978C17.6971 3.7924 17.5662 3.46208 17.2584 3.26164C16.9954 3.09033 16.7024 3.08295 16.5172 3.09701C16.3174 3.11217 16.1329 3.16149 16.0091 3.2009C15.9447 3.2214 15.8906 3.24119 15.8517 3.25629C15.8321 3.26387 15.8161 3.27038 15.8041 3.27535L15.7951 3.27913L2.60009 8.45535L2.59838 8.45596C2.58997 8.45902 2.57918 8.46305 2.56635 8.46804C2.5408 8.47799 2.50656 8.49201 2.46657 8.51013C2.38859 8.54548 2.27918 8.60071 2.16691 8.6776C1.98755 8.80042 1.57506 9.13682 1.64452 9.69206C1.69993 10.135 2.00339 10.407 2.18828 10.5379C2.2898 10.6097 2.38624 10.6611 2.45648 10.6945C2.48907 10.71 2.55672 10.7375 2.58608 10.7494L2.59348 10.7524L5.09505 11.5946ZM16.2569 4.36955L16.2551 4.37035C16.2485 4.3732 16.2419 4.37594 16.2352 4.37856L3.02416 9.56106C3.01726 9.56377 3.01031 9.56634 3.00331 9.56879L2.99596 9.57158C2.98751 9.57487 2.97328 9.58064 2.95542 9.58874C2.94529 9.59333 2.93472 9.59833 2.92395 9.60371C2.93875 9.61205 2.95292 9.61929 2.96551 9.62529C2.9776 9.63104 2.98682 9.63497 2.99186 9.63704L5.47289 10.4723C5.5183 10.4876 5.56063 10.5078 5.59949 10.5323L13.7917 5.73661L13.7993 5.73208C13.8053 5.72855 13.8131 5.72402 13.8225 5.71871C13.8412 5.70817 13.8668 5.69414 13.8973 5.67863C13.9541 5.64969 14.0451 5.60674 14.1476 5.57506C14.2189 5.55301 14.4293 5.49089 14.6567 5.56384C14.7971 5.60886 14.9425 5.70566 15.037 5.86964C15.0839 5.95111 15.109 6.03294 15.1211 6.10785C15.1533 6.22587 15.1482 6.3424 15.123 6.443C15.0687 6.65972 14.9165 6.82876 14.7779 6.95806C14.6592 7.06891 13.1234 8.54985 11.6083 10.0118C10.8527 10.7408 10.1048 11.4627 9.54585 12.0022L9.17871 12.3567L13.8144 15.9108C13.9208 15.9488 13.9836 15.9469 14.0127 15.9429C14.0473 15.9382 14.0757 15.9248 14.1047 15.9016C14.137 15.8757 14.1654 15.8407 14.1866 15.8074L14.1874 15.806L16.4694 4.30098C16.4355 4.30912 16.4013 4.31882 16.3683 4.32932C16.3309 4.34122 16.3001 4.35255 16.2796 4.36047C16.2695 4.36439 16.2622 4.36737 16.2583 4.36901L16.2569 4.36955ZM9.57697 14.1542L8.65211 13.4451L8.42801 14.8707L9.57697 14.1542ZM7.80367 12.0381L8.72339 11.1502C9.28241 10.6106 10.0303 9.8887 10.786 9.15958L11.5537 8.41887L6.40636 11.4321L6.43398 11.4972C6.57427 11.8281 6.76347 12.276 6.95893 12.7437C7.10508 13.0934 7.25792 13.4616 7.39712 13.8025L7.62057 12.3811C7.64211 12.2441 7.70906 12.1254 7.80367 12.0381Z" fill="white"/>
</svg>
