<svg width="17" height="15" viewBox="0 0 17 15" fill="none" xmlns="http://www.w3.org/2000/svg">
<path fill-rule="evenodd" clip-rule="evenodd" d="M4.09505 8.59461C4.12961 8.60625 4.16449 8.61451 4.19934 8.61959C4.23734 8.70888 4.28644 8.82441 4.34372 8.95951C4.48352 9.28922 4.67188 9.73513 4.86631 10.2003C5.26281 11.149 5.66277 12.127 5.75111 12.4069C5.86046 12.7529 5.97604 12.9882 6.10223 13.1488C6.16747 13.2319 6.24293 13.3044 6.33123 13.3593C6.37568 13.387 6.42263 13.4096 6.47164 13.4265C6.4738 13.4273 6.47596 13.428 6.47811 13.4287C6.73076 13.5241 6.96109 13.4843 7.10531 13.4358C7.18247 13.4098 7.2449 13.3784 7.28915 13.353C7.31171 13.34 7.33077 13.3279 7.34598 13.3177L7.34957 13.3152L9.5808 11.9238L12.158 13.8997C12.1961 13.9289 12.2375 13.9533 12.2815 13.9725C12.5911 14.1076 12.8909 14.1547 13.173 14.1162C13.4545 14.0777 13.6781 13.9594 13.8445 13.8263C14.0074 13.6959 14.1179 13.5499 14.1867 13.4414C14.2218 13.386 14.2482 13.337 14.2668 13.2995C14.2762 13.2806 14.2837 13.2643 14.2895 13.2513L14.2969 13.2341L14.2997 13.2273L14.3009 13.2244L14.3014 13.2231L14.3019 13.2219C14.3155 13.188 14.3259 13.153 14.333 13.1172L16.6858 1.25497C16.6933 1.21704 16.6971 1.17845 16.6971 1.13978C16.6971 0.792399 16.5662 0.462081 16.2584 0.261639C15.9954 0.0903255 15.7024 0.0829515 15.5172 0.0970081C15.3174 0.112171 15.1329 0.161487 15.0091 0.200895C14.9447 0.221403 14.8906 0.241191 14.8517 0.256286C14.8321 0.263873 14.8161 0.270382 14.8041 0.275347L14.7951 0.279126L1.60009 5.45535L1.59838 5.45596C1.58997 5.45902 1.57918 5.46305 1.56635 5.46804C1.5408 5.47799 1.50656 5.49201 1.46657 5.51013C1.38859 5.54548 1.27918 5.60071 1.16691 5.6776C0.987552 5.80042 0.575059 6.13682 0.644518 6.69206C0.69993 7.13501 1.00339 7.40705 1.18828 7.53787C1.2898 7.6097 1.38624 7.66107 1.45648 7.69451C1.48907 7.71002 1.55672 7.73751 1.58608 7.74943L1.59348 7.75245L4.09505 8.59461ZM15.2569 1.36955L15.2551 1.37035C15.2485 1.3732 15.2419 1.37594 15.2352 1.37856L2.02416 6.56106C2.01726 6.56377 2.01031 6.56634 2.00331 6.56879L1.99596 6.57158C1.98751 6.57487 1.97328 6.58064 1.95542 6.58874C1.94529 6.59333 1.93472 6.59833 1.92395 6.60371C1.93875 6.61205 1.95292 6.61929 1.96551 6.62529C1.9776 6.63104 1.98682 6.63497 1.99186 6.63704L4.47289 7.4723C4.5183 7.48759 4.56063 7.50784 4.59949 7.53226L12.7917 2.73661L12.7993 2.73208C12.8053 2.72855 12.8131 2.72402 12.8225 2.71871C12.8412 2.70817 12.8668 2.69414 12.8973 2.67863C12.9541 2.64969 13.0451 2.60674 13.1476 2.57506C13.2189 2.55301 13.4293 2.49089 13.6567 2.56384C13.7971 2.60886 13.9425 2.70566 14.037 2.86964C14.0839 2.95111 14.109 3.03294 14.1211 3.10785C14.1533 3.22587 14.1482 3.3424 14.123 3.443C14.0687 3.65972 13.9165 3.82876 13.7779 3.95806C13.6592 4.06891 12.1234 5.54985 10.6083 7.01177C9.85269 7.74081 9.10483 8.46265 8.54585 9.00224L8.17871 9.35668L12.8144 12.9108C12.9208 12.9488 12.9836 12.9469 13.0127 12.9429C13.0473 12.9382 13.0757 12.9248 13.1047 12.9016C13.137 12.8757 13.1654 12.8407 13.1866 12.8074L13.1874 12.806L15.4694 1.30098C15.4355 1.30912 15.4013 1.31882 15.3683 1.32932C15.3309 1.34122 15.3001 1.35255 15.2796 1.36047C15.2695 1.36439 15.2622 1.36737 15.2583 1.36901L15.2569 1.36955ZM8.57697 11.1542L7.65211 10.4451L7.42801 11.8707L8.57697 11.1542ZM6.80367 9.03813L7.72339 8.15023C8.28241 7.61061 9.03034 6.8887 9.78599 6.15958L10.5537 5.41887L5.40636 8.43212L5.43398 8.49724C5.57427 8.82811 5.76347 9.27601 5.95893 9.74368C6.10508 10.0934 6.25792 10.4616 6.39712 10.8025L6.62057 9.38111C6.64211 9.24406 6.70906 9.12543 6.80367 9.03813Z" fill="#3A3D3E"/>
</svg>
