<svg width="20" height="20" viewBox="0 0 20 20" fill="none" xmlns="http://www.w3.org/2000/svg">
<path fill-rule="evenodd" clip-rule="evenodd" d="M19.0029 13.8408C18.5735 12.976 18.0077 12.1859 17.3273 11.5011C17.0957 11.2319 16.8242 10.9662 16.6122 10.7589L16.5826 10.7299C16.4733 10.6229 16.383 10.5341 16.309 10.4576C17.2395 9.1638 18.0358 7.77843 18.6855 6.32286L18.7118 6.26413L18.7301 6.2025C18.8155 5.916 18.9139 5.37121 18.5659 4.87887C18.2063 4.36999 17.6305 4.27822 17.2449 4.27822H15.4709C15.1011 4.26126 14.7349 4.36124 14.4246 4.56451C14.112 4.76931 13.8728 5.06803 13.7413 5.41723C13.3592 6.32726 12.8811 7.19284 12.3159 7.99951V5.9206C12.3159 5.65187 12.2906 5.20234 12.0028 4.82291C11.6583 4.36862 11.1601 4.27822 10.8142 4.27822H7.9993C7.63664 4.26983 7.28392 4.3995 7.01287 4.64157C6.73528 4.88947 6.56517 5.23574 6.53861 5.60697L6.53609 5.64214V5.67739C6.53609 6.06066 6.68797 6.34338 6.8093 6.52119C6.86362 6.60079 6.92173 6.67325 6.95843 6.71903L6.9669 6.72959C7.00604 6.77839 7.03216 6.81096 7.05838 6.84663C7.12734 6.94043 7.22653 7.08506 7.25459 7.45932V8.62218C6.76931 7.82444 6.25739 6.76287 5.87221 5.62908L5.86629 5.61168L5.85974 5.59451C5.7637 5.34297 5.60965 4.97697 5.30114 4.69689C4.94072 4.36969 4.51442 4.27822 4.12672 4.27822H2.32677C1.93455 4.27822 1.46171 4.36997 1.1089 4.74215C0.761951 5.10814 0.722656 5.54668 0.722656 5.77986V5.88496L0.744792 5.9877C1.24335 8.30174 2.27063 10.4687 3.74591 12.3193C4.41477 13.3741 5.32109 14.2582 6.39276 14.9007C7.48153 15.5536 8.70982 15.9384 9.97646 16.0235L10.0095 16.0257H10.0426C10.6157 16.0257 11.213 15.9763 11.6622 15.6769C12.2682 15.2731 12.3159 14.6529 12.3159 14.3438V13.4455C12.4714 13.5712 12.6643 13.7404 12.9005 13.9678C13.1861 14.2537 13.4134 14.5013 13.6084 14.7175L13.7125 14.8332L13.7131 14.8339C13.8646 15.0025 14.0136 15.1685 14.1493 15.3049C14.3199 15.4764 14.5302 15.6654 14.7946 15.805C15.0809 15.9561 15.3814 16.0245 15.7005 16.0245H17.5017C17.8812 16.0245 18.4254 15.9348 18.8081 15.4912C19.2251 15.0077 19.1932 14.4151 19.0621 13.9893L19.0385 13.9126L19.0029 13.8408ZM14.4877 13.9242C14.2849 13.6995 14.0404 13.433 13.7315 13.1241L13.7289 13.1215C12.6583 12.0893 12.1581 11.9095 11.8043 11.9095C11.6162 11.9095 11.408 11.9306 11.2729 12.0989C11.2092 12.1783 11.1757 12.2741 11.1569 12.374C11.1381 12.4737 11.1316 12.5908 11.1316 12.7241V14.3438C11.1316 14.545 11.0986 14.6295 11.0055 14.6915C10.8816 14.7741 10.6167 14.841 10.0493 14.8415C8.97213 14.7681 7.92772 14.4403 7.00173 13.8851C6.07384 13.3288 5.29141 12.5599 4.71887 11.6419L4.71264 11.6319L4.70527 11.6228C3.33058 9.91174 2.37268 7.90456 1.90711 5.75987C1.90963 5.65648 1.93203 5.59514 1.96832 5.55686C2.00572 5.51741 2.09633 5.46243 2.32677 5.46243H4.12672C4.32695 5.46243 4.43058 5.50598 4.50516 5.57369C4.58971 5.65044 4.66304 5.78079 4.75214 6.01354C5.19393 7.313 5.79138 8.52822 6.35713 9.42177C6.63991 9.86839 6.9182 10.2401 7.16894 10.5028C7.2941 10.634 7.41685 10.7427 7.534 10.8199C7.64738 10.8947 7.77592 10.9536 7.90811 10.9536C7.97787 10.9536 8.05946 10.9465 8.13801 10.9117C8.22252 10.8743 8.28811 10.8119 8.33443 10.7284C8.41637 10.5806 8.43881 10.3616 8.43881 10.0748V7.41926L8.43841 7.41302C8.3975 6.76696 8.20244 6.40355 8.0125 6.1452C7.97088 6.08858 7.92983 6.03743 7.89391 5.99268L7.88407 5.98041C7.84464 5.93123 7.81325 5.89149 7.78746 5.8537C7.74021 5.78445 7.7219 5.73618 7.7204 5.68444C7.72656 5.62304 7.75551 5.56606 7.80167 5.52483C7.84959 5.48204 7.91228 5.45976 7.97647 5.46243H10.8142C10.9769 5.46243 11.0317 5.50212 11.0593 5.53848C11.0982 5.58982 11.1316 5.69657 11.1316 5.9206V9.49582C11.1316 9.9205 11.3274 10.208 11.6117 10.208C11.9389 10.208 12.1747 10.0095 12.5871 9.59711L12.594 9.59022L12.6001 9.58269C13.5244 8.45549 14.2799 7.19977 14.8422 5.85487L14.8457 5.84478C14.888 5.72594 14.968 5.6242 15.0735 5.55508C15.179 5.48596 15.3043 5.45325 15.4301 5.46196L15.4369 5.46243H17.2449C17.4915 5.46243 17.5726 5.52518 17.5988 5.56229C17.6267 5.60178 17.6462 5.6864 17.5987 5.85236C16.9505 7.30215 16.1489 8.67831 15.2079 9.95771L15.202 9.96677C15.1106 10.1065 15.0104 10.261 14.9959 10.4385C14.9804 10.6291 15.0629 10.8024 15.2072 10.9881C15.3123 11.1436 15.5292 11.3558 15.7492 11.5712L15.7699 11.5915C16.0006 11.8173 16.2505 12.0619 16.4511 12.2986L16.4565 12.305L16.4623 12.3108C17.0604 12.9073 17.5576 13.5969 17.9348 14.3526C17.995 14.5583 17.9581 14.6635 17.9113 14.7177C17.8566 14.7812 17.734 14.8403 17.5017 14.8403H15.7005C15.5599 14.8403 15.4513 14.8126 15.3476 14.7578C15.2395 14.7007 15.1283 14.6099 14.9889 14.4698C14.8766 14.3569 14.7539 14.2203 14.6043 14.0538C14.5672 14.0125 14.5284 13.9693 14.4877 13.9242Z" fill="white"/>
</svg>
