<svg width="20" height="13" viewBox="0 0 20 13" fill="none" xmlns="http://www.w3.org/2000/svg">
<path fill-rule="evenodd" clip-rule="evenodd" d="M19.0029 9.84084C18.5735 8.97595 18.0077 8.18593 17.3273 7.50106C17.0957 7.23189 16.8242 6.96623 16.6122 6.75886L16.5826 6.72989C16.4733 6.62291 16.383 6.53408 16.309 6.45755C17.2395 5.1638 18.0358 3.77843 18.6855 2.32286L18.7118 2.26413L18.7301 2.2025C18.8155 1.916 18.9139 1.37121 18.5659 0.87887C18.2063 0.36999 17.6305 0.278216 17.2449 0.278216H15.4709C15.1011 0.261261 14.7349 0.361241 14.4246 0.564509C14.112 0.769311 13.8728 1.06803 13.7413 1.41723C13.3592 2.32726 12.8811 3.19284 12.3159 3.99951V1.9206C12.3159 1.65187 12.2906 1.20234 12.0028 0.822913C11.6583 0.36862 11.1601 0.278216 10.8142 0.278216H7.9993C7.63664 0.269829 7.28392 0.399505 7.01287 0.641569C6.73528 0.889466 6.56517 1.23574 6.53861 1.60697L6.53609 1.64214V1.67739C6.53609 2.06066 6.68797 2.34338 6.8093 2.52119C6.86362 2.60079 6.92173 2.67325 6.95843 2.71903L6.9669 2.72959C7.00604 2.77839 7.03216 2.81096 7.05838 2.84663C7.12734 2.94043 7.22653 3.08506 7.25459 3.45932V4.62218C6.76931 3.82444 6.25739 2.76287 5.87221 1.62908L5.86629 1.61168L5.85974 1.59451C5.7637 1.34297 5.60965 0.976971 5.30114 0.696891C4.94072 0.369693 4.51442 0.278216 4.12672 0.278216H2.32677C1.93455 0.278216 1.46171 0.369972 1.1089 0.742151C0.761951 1.10814 0.722656 1.54668 0.722656 1.77986V1.88496L0.744792 1.9877C1.24335 4.30174 2.27063 6.46874 3.74591 8.31925C4.41477 9.37406 5.32109 10.2582 6.39276 10.9007C7.48153 11.5536 8.70982 11.9384 9.97646 12.0235L10.0095 12.0257H10.0426C10.6157 12.0257 11.213 11.9763 11.6622 11.6769C12.2682 11.2731 12.3159 10.6529 12.3159 10.3438V9.44547C12.4714 9.57119 12.6643 9.74041 12.9005 9.96783C13.1861 10.2537 13.4134 10.5013 13.6084 10.7175L13.7125 10.8332L13.7131 10.8339C13.8646 11.0025 14.0136 11.1685 14.1493 11.3049C14.3199 11.4764 14.5302 11.6654 14.7946 11.805C15.0809 11.9561 15.3814 12.0245 15.7005 12.0245H17.5017C17.8812 12.0245 18.4254 11.9348 18.8081 11.4912C19.2251 11.0077 19.1932 10.4151 19.0621 9.98927L19.0385 9.91265L19.0029 9.84084ZM14.4877 9.92422C14.2849 9.69945 14.0404 9.43301 13.7315 9.12407L13.7289 9.12154C12.6583 8.08935 12.1581 7.9095 11.8043 7.9095C11.6162 7.9095 11.408 7.9306 11.2729 8.0989C11.2092 8.17833 11.1757 8.27412 11.1569 8.374C11.1381 8.47372 11.1316 8.59078 11.1316 8.72413V10.3438C11.1316 10.545 11.0986 10.6295 11.0055 10.6915C10.8816 10.7741 10.6167 10.841 10.0493 10.8415C8.97213 10.7681 7.92772 10.4403 7.00173 9.88511C6.07384 9.32876 5.29141 8.55992 4.71887 7.64193L4.71264 7.63194L4.70527 7.62276C3.33058 5.91174 2.37268 3.90456 1.90711 1.75987C1.90963 1.65648 1.93203 1.59514 1.96832 1.55686C2.00572 1.51741 2.09633 1.46243 2.32677 1.46243H4.12672C4.32695 1.46243 4.43058 1.50598 4.50516 1.57369C4.58971 1.65044 4.66304 1.78079 4.75214 2.01354C5.19393 3.313 5.79138 4.52822 6.35713 5.42177C6.63991 5.86839 6.9182 6.24012 7.16894 6.50282C7.2941 6.63396 7.41685 6.74266 7.534 6.8199C7.64738 6.89467 7.77592 6.95365 7.90811 6.95365C7.97787 6.95365 8.05946 6.94647 8.13801 6.91169C8.22252 6.87428 8.28811 6.81192 8.33443 6.72836C8.41637 6.58055 8.43881 6.36161 8.43881 6.07482V3.41926L8.43841 3.41302C8.3975 2.76696 8.20244 2.40355 8.0125 2.1452C7.97088 2.08858 7.92983 2.03743 7.89391 1.99268L7.88407 1.98041C7.84464 1.93123 7.81325 1.89149 7.78746 1.8537C7.74021 1.78445 7.7219 1.73618 7.7204 1.68444C7.72656 1.62304 7.75551 1.56606 7.80167 1.52483C7.84959 1.48204 7.91228 1.45976 7.97647 1.46243H10.8142C10.9769 1.46243 11.0317 1.50212 11.0593 1.53848C11.0982 1.58982 11.1316 1.69657 11.1316 1.9206V5.49582C11.1316 5.9205 11.3274 6.20799 11.6117 6.20799C11.9389 6.20799 12.1747 6.00949 12.5871 5.59711L12.594 5.59022L12.6001 5.58269C13.5244 4.45549 14.2799 3.19977 14.8422 1.85487L14.8457 1.84478C14.888 1.72594 14.968 1.6242 15.0735 1.55508C15.179 1.48596 15.3043 1.45325 15.4301 1.46196L15.4369 1.46243H17.2449C17.4915 1.46243 17.5726 1.52518 17.5988 1.56229C17.6267 1.60178 17.6462 1.6864 17.5987 1.85236C16.9505 3.30215 16.1489 4.67831 15.2079 5.95771L15.202 5.96677C15.1106 6.10646 15.0104 6.26102 14.9959 6.43852C14.9804 6.62911 15.0629 6.80236 15.2072 6.98808C15.3123 7.14356 15.5292 7.35584 15.7492 7.5712L15.7699 7.5915C16.0006 7.81727 16.2505 8.06186 16.4511 8.29865L16.4565 8.30496L16.4623 8.3108C17.0604 8.90731 17.5576 9.59686 17.9348 10.3526C17.995 10.5583 17.9581 10.6635 17.9113 10.7177C17.8566 10.7812 17.734 10.8403 17.5017 10.8403H15.7005C15.5599 10.8403 15.4513 10.8126 15.3476 10.7578C15.2395 10.7007 15.1283 10.6099 14.9889 10.4698C14.8766 10.3569 14.7539 10.2203 14.6043 10.0538C14.5672 10.0125 14.5284 9.9693 14.4877 9.92422Z" fill="#3A3D3E"/>
</svg>
